<?xml version="1.0" encoding="utf-8"?>
<!-- Generator: Adobe Illustrator 19.0.1, SVG Export Plug-In . SVG Version: 6.00 Build 0)  -->
<svg version="1.1" id="Layer_1" xmlns="http://www.w3.org/2000/svg" xmlns:xlink="http://www.w3.org/1999/xlink" x="0px" y="0px"
	 viewBox="0 0 52 52" style="enable-background:new 0 0 52 52;" xml:space="preserve">
<style type="text/css">
	.st0{fill:#16BCD3;}
	.st1{fill:none;stroke:#16BCD3;stroke-width:0.498;stroke-miterlimit:10;}
</style>
<g>
	<g>
		<path class="st0" d="M-89-38.9c0.1,0.1,0.1,0.1,0.2,0.2c0,0,0,0.1,0,0.1c0,0,0,0.1,0,0.1c-0.3,0.8-0.5,1.7-0.8,2.6
			c-0.1,0.3-0.2,0.6-0.2,1c-0.1,0.3,0.1,0.4,0.4,0.3c0.1-0.1,0.2-0.1,0.3-0.2c1.1-0.7,2.3-1.4,3.4-2.1c0.2-0.1,0.3-0.1,0.5-0.1
			c0.6,0.2,1.1,0.3,1.7,0.4c0.7,0.1,1.4,0.2,2.1,0.2c0.2,0,0.5,0,0.7,0c0,0,0,0,0,0c0,0,0.1,0,0.1,0c0,0,0,0,0-0.1c0,0,0-0.1,0-0.1
			c0-0.2-0.1-0.4-0.1-0.6c-0.1-0.6-0.2-1.1-0.1-1.7c0-0.4,0-0.7,0-1.1c0.1-0.5,0.2-0.9,0.3-1.4c0.1-0.4,0.3-0.9,0.5-1.3
			c0.2-0.4,0.4-0.8,0.7-1.2c0.2-0.4,0.5-0.8,0.8-1.1c1.1-1.2,2.4-2.2,3.8-2.9c1.2-0.6,2.5-1,3.8-1.1c0.7-0.1,1.4-0.1,2.1-0.1
			c0.3,0,0.3,0,0.2-0.3c-0.2-0.6-0.3-1.3-0.6-1.9c-0.9-2.2-2.5-3.9-4.4-5.1c-0.3-0.2-0.6-0.3-0.9-0.5c-0.5-0.2-1-0.5-1.4-0.6
			c-0.7-0.3-1.4-0.5-2.1-0.6c-0.4-0.1-0.8-0.2-1.2-0.2c-0.7-0.1-1.4-0.1-2.1-0.1c-0.7,0-1.4,0.1-2.1,0.2c-0.3,0.1-0.7,0.1-1,0.2
			c-0.6,0.2-1.3,0.4-1.9,0.6c-0.3,0.1-0.6,0.3-0.9,0.4c-1.7,0.9-3.2,2-4.4,3.6c-0.4,0.5-0.7,1-1,1.5c-0.3,0.5-0.5,1.1-0.7,1.7
			c-0.1,0.4-0.3,0.8-0.3,1.2c0,0.2,0,0.4,0,0.5c0,0.4,0,0.7,0,1.1c0,0.2,0,0.4,0,0.5c0,0.4,0,0.7,0.1,1.1c0.1,0.4,0.1,0.7,0.2,1.1
			c0.1,0.2,0.2,0.5,0.2,0.7c0.3,0.7,0.6,1.4,1,2c0.4,0.6,0.8,1.1,1.3,1.6C-90.1-39.8-89.6-39.4-89-38.9z M-77.5-50.9
			c0-0.9,0.7-1.6,1.6-1.6c0.8,0,1.6,0.6,1.6,1.6c0,0.9-0.7,1.6-1.6,1.6C-76.8-49.3-77.6-50.1-77.5-50.9z M-85.8-52.5
			c0.9,0,1.6,0.7,1.6,1.6c0,0.9-0.7,1.6-1.6,1.6c-0.9,0-1.7-0.8-1.6-1.6C-87.4-51.7-86.7-52.5-85.8-52.5z"/>
		<path class="st0" d="M-58.7-41.4c-0.6-1.8-1.7-3.2-3.2-4.4c-0.5-0.4-1.1-0.7-1.6-1c-0.9-0.4-1.8-0.7-2.7-1c-1-0.2-2-0.3-3.1-0.4
			c-0.2,0-0.4,0-0.7,0.1c-0.1,0-0.2,0-0.3,0c-0.3,0-0.6,0.1-0.9,0.1c-0.1,0-0.2,0-0.3,0.1c-0.8,0.2-1.6,0.4-2.4,0.7
			c-0.5,0.2-1,0.5-1.4,0.8c-0.2,0.1-0.3,0.2-0.5,0.3c-0.5,0.4-1,0.8-1.4,1.2c-0.2,0.2-0.4,0.4-0.6,0.6c-0.2,0.2-0.3,0.4-0.5,0.7
			c-0.1,0.2-0.2,0.3-0.3,0.5c-0.6,1.1-1,2.2-1.1,3.5c0,0.5,0,1,0,1.5c0,0.4,0.1,0.7,0.2,1.1c0.1,0.2,0.1,0.4,0.2,0.7
			c0.1,0.2,0.2,0.4,0.3,0.7c0.6,1.3,1.4,2.4,2.5,3.3c2,1.6,4.2,2.5,6.8,2.6c1.1,0.1,2.1,0,3.2-0.2c0.4-0.1,0.8-0.2,1.2-0.3
			c0.2-0.1,0.4-0.1,0.6-0.2c0.1,0,0.1,0,0.1,0s0.1,0,0.1,0c0.1,0,0.2,0,0.3,0.1c0.8,0.5,1.6,1,2.4,1.4c0.1,0,0.2,0.1,0.2,0.1
			c0.1,0,0.2,0.1,0.2,0.1c0.1,0,0.1,0,0.1,0c0.1,0,0.1-0.1,0.2-0.1c0,0,0-0.1,0-0.1c0-0.1,0-0.1,0-0.2c-0.3-0.8-0.6-1.7-0.9-2.5
			c-0.1-0.2,0-0.2,0.1-0.3c0.1-0.1,0.1-0.1,0.2-0.2c0.2-0.2,0.4-0.4,0.7-0.6c0.6-0.6,1.2-1.3,1.6-2c0.3-0.5,0.5-0.9,0.6-1.4
			c0.2-0.5,0.3-1,0.4-1.4c0.1-0.5,0.1-1,0.1-1.5c0-0.5-0.1-1-0.2-1.5C-58.6-40.8-58.6-41.1-58.7-41.4z M-73-40.9
			c-0.7,0-1.5-0.6-1.4-1.5c0-0.6,0.7-1.5,1.5-1.4c0.7-0.1,1.4,0.6,1.4,1.5C-71.6-41.5-72.2-40.9-73-40.9z M-65.2-40.9
			c-0.6,0-1.5-0.6-1.4-1.4c0-0.9,0.8-1.4,1.4-1.4c0.7,0,1.5,0.6,1.5,1.4C-63.7-41.6-64.4-41-65.2-40.9z"/>
		<path class="st0" d="M-80.5-36.4c0,0-0.1,0-0.1,0"/>
	</g>
	<circle class="st1" cx="-75.9" cy="-42.1" r="24.9"/>
</g>
<g>
	<g>
		<path class="st0" d="M-87.3,29.1c0.1,0.1,0.1,0.1,0.2,0.2c0,0,0,0.1,0,0.1c0,0,0,0.1,0,0.1c-0.3,0.8-0.5,1.7-0.8,2.6
			c-0.1,0.3-0.2,0.6-0.2,1c-0.1,0.3,0.1,0.4,0.4,0.3c0.1-0.1,0.2-0.1,0.3-0.2c1.1-0.7,2.3-1.4,3.4-2.1c0.2-0.1,0.3-0.1,0.5-0.1
			c0.6,0.2,1.1,0.3,1.7,0.4c0.7,0.1,1.4,0.2,2.1,0.2c0.2,0,0.5,0,0.7,0c0,0,0,0,0,0c0,0,0.1,0,0.1,0c0,0,0,0,0-0.1c0,0,0-0.1,0-0.1
			c0-0.2-0.1-0.4-0.1-0.6c-0.1-0.6-0.2-1.1-0.1-1.7c0-0.4,0-0.7,0-1.1c0.1-0.5,0.2-0.9,0.3-1.4c0.1-0.4,0.3-0.9,0.5-1.3
			c0.2-0.4,0.4-0.8,0.7-1.2c0.2-0.4,0.5-0.8,0.8-1.1c1.1-1.2,2.4-2.2,3.8-2.9c1.2-0.6,2.5-1,3.8-1.1c0.7-0.1,1.4-0.1,2.1-0.1
			c0.3,0,0.3,0,0.2-0.3c-0.2-0.6-0.3-1.3-0.6-1.9c-0.9-2.2-2.5-3.9-4.4-5.1c-0.3-0.2-0.6-0.3-0.9-0.5c-0.5-0.2-1-0.5-1.4-0.6
			c-0.7-0.3-1.4-0.5-2.1-0.6c-0.4-0.1-0.8-0.2-1.2-0.2c-0.7-0.1-1.4-0.1-2.1-0.1c-0.7,0-1.4,0.1-2.1,0.2c-0.3,0.1-0.7,0.1-1,0.2
			c-0.6,0.2-1.3,0.4-1.9,0.6c-0.3,0.1-0.6,0.3-0.9,0.4c-1.7,0.9-3.2,2-4.4,3.6c-0.4,0.5-0.7,1-1,1.5c-0.3,0.5-0.5,1.1-0.7,1.7
			c-0.1,0.4-0.3,0.8-0.3,1.2c0,0.2,0,0.4,0,0.5c0,0.4,0,0.7,0,1.1c0,0.2,0,0.4,0,0.5c0,0.4,0,0.7,0.1,1.1c0.1,0.4,0.1,0.7,0.2,1.1
			c0.1,0.2,0.2,0.5,0.2,0.7c0.3,0.7,0.6,1.4,1,2c0.4,0.6,0.8,1.1,1.3,1.6C-88.4,28.2-87.8,28.6-87.3,29.1z M-75.7,17.1
			c0-0.9,0.7-1.6,1.6-1.6c0.8,0,1.6,0.6,1.6,1.6c0,0.9-0.7,1.6-1.6,1.6C-75.1,18.7-75.8,17.9-75.7,17.1z M-84,15.5
			c0.9,0,1.6,0.7,1.6,1.6c0,0.9-0.7,1.6-1.6,1.6c-0.9,0-1.7-0.8-1.6-1.6C-85.7,16.3-85,15.5-84,15.5z"/>
		<path class="st0" d="M-57,26.6c-0.6-1.8-1.7-3.2-3.2-4.4c-0.5-0.4-1.1-0.7-1.6-1c-0.9-0.4-1.8-0.7-2.7-1c-1-0.2-2-0.3-3.1-0.4
			c-0.2,0-0.4,0-0.7,0.1c-0.1,0-0.2,0-0.3,0c-0.3,0-0.6,0.1-0.9,0.1c-0.1,0-0.2,0-0.3,0.1c-0.8,0.2-1.6,0.4-2.4,0.7
			c-0.5,0.2-1,0.5-1.4,0.8c-0.2,0.1-0.3,0.2-0.5,0.3c-0.5,0.4-1,0.8-1.4,1.2c-0.2,0.2-0.4,0.4-0.6,0.6c-0.2,0.2-0.3,0.4-0.5,0.7
			c-0.1,0.2-0.2,0.3-0.3,0.5c-0.6,1.1-1,2.2-1.1,3.5c0,0.5,0,1,0,1.5c0,0.4,0.1,0.7,0.2,1.1c0.1,0.2,0.1,0.4,0.2,0.7
			s0.2,0.4,0.3,0.7c0.6,1.3,1.4,2.4,2.5,3.3c2,1.6,4.2,2.5,6.8,2.6c1.1,0.1,2.1,0,3.2-0.2c0.4-0.1,0.8-0.2,1.2-0.3
			c0.2-0.1,0.4-0.1,0.6-0.2c0.1,0,0.1,0,0.1,0c0,0,0.1,0,0.1,0c0.1,0,0.2,0,0.3,0.1c0.8,0.5,1.6,1,2.4,1.4c0.1,0,0.2,0.1,0.2,0.1
			c0.1,0,0.2,0.1,0.2,0.1c0.1,0,0.1,0,0.1,0c0.1,0,0.1-0.1,0.2-0.1c0,0,0-0.1,0-0.1c0-0.1,0-0.1,0-0.2c-0.3-0.8-0.6-1.7-0.9-2.5
			c-0.1-0.2,0-0.2,0.1-0.3c0.1-0.1,0.1-0.1,0.2-0.2c0.2-0.2,0.4-0.4,0.7-0.6c0.6-0.6,1.2-1.3,1.6-2c0.3-0.5,0.5-0.9,0.6-1.4
			c0.2-0.5,0.3-1,0.4-1.4c0.1-0.5,0.1-1,0.1-1.5c0-0.5-0.1-1-0.2-1.5C-56.8,27.2-56.9,26.9-57,26.6z M-71.3,27.1
			c-0.7,0-1.5-0.6-1.4-1.5c0-0.6,0.7-1.5,1.5-1.4c0.7-0.1,1.4,0.6,1.4,1.5C-69.8,26.5-70.5,27.1-71.3,27.1z M-63.4,27.1
			c-0.6,0-1.5-0.6-1.4-1.4c0-0.9,0.8-1.4,1.4-1.4c0.7,0,1.5,0.6,1.5,1.4C-62,26.4-62.6,27-63.4,27.1z"/>
		<path class="st0" d="M-78.7,31.6c0,0-0.1,0-0.1,0"/>
	</g>
	<circle class="st1" cx="-74.1" cy="25.9" r="24.9"/>
</g>
<g>
	<defs>
		<path id="SVGID_1_" d="M40.6,15.6c-1.2,0.7-2.6,1.2-4,1.5c-1.1-1.2-2.8-2-4.6-2c-3.5,0-6.3,2.8-6.3,6.3c0,0.5,0.1,1,0.2,1.4
			c-5.2-0.3-9.9-2.8-13-6.6c-0.5,0.9-0.8,2-0.8,3.2c0,2.2,1.1,4.1,2.8,5.2c-1,0-2-0.3-2.8-0.8V24c0,3,2.2,5.6,5,6.2
			c-0.5,0.1-1.1,0.2-1.7,0.2c-0.4,0-0.8,0-1.2-0.1c0.8,2.5,3.1,4.3,5.9,4.4c-2.1,1.7-4.9,2.7-7.8,2.7c-0.5,0-1,0-1.5-0.1
			c2.8,1.8,6.1,2.8,9.6,2.8c11.6,0,17.9-9.6,17.9-17.9l0-0.8c1.2-0.9,2.3-2,3.1-3.2c-1.1,0.5-2.3,0.8-3.6,1
			C39.1,18.3,40.1,17.1,40.6,15.6L40.6,15.6z"/>
	</defs>
	<use xlink:href="#SVGID_1_"  style="overflow:visible;fill:#16BCD3;"/>
	<clipPath id="SVGID_2_">
		<use xlink:href="#SVGID_1_"  style="overflow:visible;"/>
	</clipPath>
</g>
<circle class="st1" cx="26.1" cy="26.1" r="24.9"/>
<g>
	<g>
		<path class="st0" d="M9.4-42.5c-0.5-0.1-0.8-0.2-0.6-0.9c0.5-1.4,0.6-2.6,0-3.4c-1.1-1.6-4.1-1.5-7.6,0c0,0-1.1,0.5-0.8-0.4
			c0.5-1.7,0.4-3.2-0.4-4c-1.9-1.9-6.8,0.1-11.1,4.4c-3.2,3.3-5.1,6.7-5.1,9.7c0,5.7,7.2,9.5,14.2,9.5c9.2,0,15.3-5.8,15.3-10.1
			C13.5-40.4,11.4-41.9,9.4-42.5L9.4-42.5z M-1.8-30.2c-5.6,0.6-10.4-2-10.8-5.7c-0.4-3.7,3.9-7.2,9.5-7.7c5.6-0.6,10.5,2,10.8,5.7
			C8.1-34.2,3.8-30.8-1.8-30.2L-1.8-30.2z M18.6-47.1c0-5.8-4.7-10.4-10.4-10.4c-0.7,0-1.2,0.5-1.2,1.2s0.5,1.2,1.2,1.2
			c4.4,0,8,3.6,8,8c0,0.7,0.5,1.2,1.2,1.2C18-45.9,18.6-46.4,18.6-47.1L18.6-47.1z M13.7-47.3c-0.6-2.7-2.7-4.9-5.4-5.4
			c-0.7-0.1-1.3,0.3-1.4,0.9c-0.1,0.7,0.3,1.3,0.9,1.4c1.8,0.4,3.2,1.8,3.5,3.5c0.1,0.7,0.8,1.1,1.4,0.9
			C13.5-46,13.9-46.6,13.7-47.3L13.7-47.3z M-4.7-40c-2.3,0.5-3.8,2.3-3.4,4.2c0.4,1.9,2.5,3,4.8,2.6c2.3-0.5,3.8-2.3,3.4-4.2
			C-0.3-39.3-2.4-40.4-4.7-40L-4.7-40z M-4.7-40"/>
	</g>
	<circle class="st1" cx="1.1" cy="-41" r="24.9"/>
</g>
<g>
	<g>
		<path class="st0" d="M-122.6,24.5c-0.5-0.1-0.8-0.2-0.6-0.9c0.5-1.4,0.6-2.6,0-3.4c-1.1-1.6-4.1-1.5-7.6,0c0,0-1.1,0.5-0.8-0.4
			c0.5-1.7,0.4-3.2-0.4-4c-1.9-1.9-6.8,0.1-11.1,4.4c-3.2,3.3-5.1,6.7-5.1,9.7c0,5.7,7.2,9.5,14.2,9.5c9.2,0,15.3-5.8,15.3-10.1
			C-118.5,26.5-120.6,25.1-122.6,24.5L-122.6,24.5z M-133.8,36.7c-5.6,0.6-10.4-2-10.8-5.7c-0.4-3.7,3.9-7.2,9.5-7.7
			c5.6-0.6,10.5,2,10.8,5.7C-123.9,32.7-128.2,36.2-133.8,36.7L-133.8,36.7z M-113.4,19.8c0-5.8-4.7-10.4-10.4-10.4
			c-0.7,0-1.2,0.5-1.2,1.2s0.5,1.2,1.2,1.2c4.4,0,8,3.6,8,8c0,0.7,0.5,1.2,1.2,1.2S-113.4,20.5-113.4,19.8L-113.4,19.8z
			 M-118.3,19.6c-0.6-2.7-2.7-4.9-5.4-5.4c-0.7-0.1-1.3,0.3-1.4,0.9c-0.1,0.7,0.3,1.3,0.9,1.4c1.8,0.4,3.2,1.8,3.5,3.5
			c0.1,0.7,0.8,1.1,1.4,0.9C-118.5,20.9-118.1,20.3-118.3,19.6L-118.3,19.6z M-136.7,26.9c-2.3,0.5-3.8,2.3-3.4,4.2
			c0.4,1.9,2.5,3,4.8,2.6c2.3-0.5,3.8-2.3,3.4-4.2C-132.3,27.7-134.4,26.5-136.7,26.9L-136.7,26.9z M-136.7,26.9"/>
	</g>
	<circle class="st1" cx="-130.9" cy="25.9" r="24.9"/>
</g>
</svg>
