<?xml version="1.0" encoding="utf-8"?>
<!-- Generator: Adobe Illustrator 19.0.1, SVG Export Plug-In . SVG Version: 6.00 Build 0)  -->
<svg version="1.1" id="Layer_1" xmlns="http://www.w3.org/2000/svg" xmlns:xlink="http://www.w3.org/1999/xlink" x="0px" y="0px"
	 viewBox="0 0 109 16.8" style="enable-background:new 0 0 109 16.8;" xml:space="preserve">
<style type="text/css">
	.st0{fill:#747475;}
</style>
<g>
	<path class="st0" d="M9.2,9.8C9,10,8.8,10.3,8.4,10.5c-0.4,0.2-0.9,0.3-1.5,0.3c-0.8,0-1.4-0.2-1.9-0.7C4.5,9.5,4.3,8.9,4.3,8.1
		V6.8C4.3,6,4.5,5.4,5,4.9C5.4,4.4,6,4.2,6.8,4.2c0.7,0,1.3,0.2,1.7,0.5s0.6,0.8,0.6,1.4l0,0H8.3c0-0.4-0.2-0.7-0.4-0.9
		C7.6,5,7.3,4.9,6.8,4.9C6.3,4.9,5.9,5,5.6,5.4C5.3,5.8,5.1,6.2,5.1,6.8v1.3c0,0.6,0.2,1,0.5,1.4s0.8,0.6,1.3,0.6
		c0.4,0,0.7,0,0.9-0.1C8,9.8,8.2,9.7,8.3,9.6V8.1H6.9V7.5h2.3V9.8z"/>
	<path class="st0" d="M14.5,7.7h-2.9V10H15v0.7h-4.2V4.3h4.2v0.7h-3.3V7h2.9V7.7z"/>
	<path class="st0" d="M20.4,4.9h-2.1v5.7h-0.9V4.9h-2.1V4.3h5V4.9z"/>
	<path class="st0" d="M28,4.9h-2.1v5.7H25V4.9H23V4.3h5V4.9z"/>
	<path class="st0" d="M33.8,10.7h-0.9V7.8h-3.1v2.8h-0.9V4.3h0.9v2.9h3.1V4.3h0.9V10.7z"/>
	<path class="st0" d="M39.2,7.7h-2.9V10h3.4v0.7h-4.2V4.3h4.2v0.7h-3.3V7h2.9V7.7z"/>
	<path class="st0" d="M46.5,9h-2.7l-0.6,1.6h-0.9l2.5-6.4h0.7l2.4,6.4h-0.9L46.5,9z M44.1,8.3h2.2l-1.1-2.9h0L44.1,8.3z"/>
	<path class="st0" d="M49.7,8.1v2.6h-0.9V4.3h2.4c0.7,0,1.2,0.2,1.6,0.5c0.4,0.4,0.6,0.8,0.6,1.4c0,0.6-0.2,1-0.6,1.4
		c-0.4,0.3-0.9,0.5-1.6,0.5H49.7z M49.7,7.4h1.6c0.4,0,0.8-0.1,1-0.3c0.2-0.2,0.3-0.5,0.3-0.9c0-0.4-0.1-0.6-0.3-0.9
		c-0.2-0.2-0.5-0.4-1-0.4h-1.6V7.4z"/>
	<path class="st0" d="M55.5,8.1v2.6h-0.9V4.3h2.4c0.7,0,1.2,0.2,1.6,0.5c0.4,0.4,0.6,0.8,0.6,1.4c0,0.6-0.2,1-0.6,1.4
		c-0.4,0.3-0.9,0.5-1.6,0.5H55.5z M55.5,7.4h1.6c0.4,0,0.8-0.1,1-0.3c0.2-0.2,0.3-0.5,0.3-0.9c0-0.4-0.1-0.6-0.3-0.9
		c-0.2-0.2-0.5-0.4-1-0.4h-1.6V7.4z"/>
	<path class="st0" d="M64.7,9.1l0.1,0.5h0L65,9.1l1.7-4.8h0.9l-2.4,6.4h-0.7l-2.4-6.4H63L64.7,9.1z"/>
	<path class="st0" d="M69.4,10.7h-0.9V4.3h0.9V10.7z"/>
	<path class="st0" d="M74.6,9h-2.7l-0.6,1.6h-0.9l2.5-6.4h0.7l2.4,6.4h-0.9L74.6,9z M72.2,8.3h2.2l-1.1-2.9h0L72.2,8.3z"/>
	<path class="st0" d="M83.1,7.7h-2.9V10h3.4v0.7h-4.2V4.3h4.2v0.7h-3.3V7h2.9V7.7z"/>
	<path class="st0" d="M85.7,4.3l2,5.2h0l2-5.2h1.1v6.4H90V8.1l0.1-2.6l0,0L88,10.7h-0.6l-2.1-5.1l0,0l0.1,2.6v2.5h-0.9V4.3H85.7z"/>
	<path class="st0" d="M96,9h-2.7l-0.6,1.6h-0.9l2.5-6.4H95l2.4,6.4h-0.9L96,9z M93.6,8.3h2.2l-1.1-2.9h0L93.6,8.3z"/>
	<path class="st0" d="M99.3,10.7h-0.9V4.3h0.9V10.7z"/>
	<path class="st0" d="M101.8,10h3v0.7H101V4.3h0.9V10z"/>
</g>
</svg>
