<?xml version="1.0" encoding="utf-8"?>
<!-- Generator: Adobe Illustrator 19.0.1, SVG Export Plug-In . SVG Version: 6.00 Build 0)  -->
<svg version="1.1" id="Layer_1" xmlns="http://www.w3.org/2000/svg" xmlns:xlink="http://www.w3.org/1999/xlink" x="0px" y="0px"
	 viewBox="0 0 52 52" style="enable-background:new 0 0 52 52;" xml:space="preserve">
<style type="text/css">
	.st0{fill:#16BCD3;}
	.st1{fill:none;stroke:#16BCD3;stroke-width:0.498;stroke-miterlimit:10;}
</style>
<g>
	<g>
		<path class="st0" d="M34.4,24.5c-0.5-0.1-0.8-0.2-0.6-0.9c0.5-1.4,0.6-2.6,0-3.4c-1.1-1.6-4.1-1.5-7.6,0c0,0-1.1,0.5-0.8-0.4
			c0.5-1.7,0.4-3.2-0.4-4c-1.9-1.9-6.8,0.1-11.1,4.4C10.8,23.3,9,26.8,9,29.8c0,5.7,7.2,9.5,14.2,9.5c9.2,0,15.3-5.8,15.3-10.1
			C38.5,26.5,36.4,25.1,34.4,24.5L34.4,24.5z M23.2,36.7c-5.6,0.6-10.4-2-10.8-5.7c-0.4-3.7,3.9-7.2,9.5-7.7
			c5.6-0.6,10.5,2,10.8,5.7C33.1,32.7,28.8,36.2,23.2,36.7L23.2,36.7z M43.6,19.8c0-5.8-4.7-10.4-10.4-10.4c-0.7,0-1.2,0.5-1.2,1.2
			s0.5,1.2,1.2,1.2c4.4,0,8,3.6,8,8c0,0.7,0.5,1.2,1.2,1.2C43,21,43.6,20.5,43.6,19.8L43.6,19.8z M38.7,19.6
			c-0.6-2.7-2.7-4.9-5.4-5.4c-0.7-0.1-1.3,0.3-1.4,0.9c-0.1,0.7,0.3,1.3,0.9,1.4c1.8,0.4,3.2,1.8,3.5,3.5c0.1,0.7,0.8,1.1,1.4,0.9
			C38.5,20.9,38.9,20.3,38.7,19.6L38.7,19.6z M20.3,26.9c-2.3,0.5-3.8,2.3-3.4,4.2c0.4,1.9,2.5,3,4.8,2.6c2.3-0.5,3.8-2.3,3.4-4.2
			C24.7,27.7,22.6,26.5,20.3,26.9L20.3,26.9z M20.3,26.9"/>
	</g>
	<circle class="st1" cx="26.1" cy="25.9" r="24.9"/>
</g>
</svg>
