<svg xmlns="http://www.w3.org/2000/svg" viewBox="0 0 512 512"><path d="M6.962 266.753c22.59-5.64 53.305-13.324 107.118-14.753a95.6 95.6 0 0 1-4.02-9.228c-20.94-.182-85.43 2.792-107.52 8.25a1.656 1.656 0 0 1-1.995-1.208 1.663 1.663 0 0 1 1.208-1.995c21.89-5.41 84.825-8.415 107.118-8.357-5.015-14.753-7.23-31.655-7.23-50.523 0-33.515 10.436-46.158 24.46-64.02-10.725-38.196 3.846-64.306 3.846-64.306s22.533-4.67 65.132 25.832c23.09-9.89 84.647-10.714 113.77-2.196 17.88-11.818 50.57-28.585 63.77-23.895 3.568 5.755 11.262 22.513 4.662 59.348 4.488 8.077 27.76 25.286 27.855 73.928-.384 17.94-2.245 33.086-5.698 45.9 55.54-.47 88.212 4.116 110.715 8.26a1.686 1.686 0 0 1 1.324 1.928c-.153.787-.844 1.353-1.61 1.353-.116 0-.212-.01-.327-.02-22.468-4.16-55.196-8.727-111.063-8.22-.98 3.253-2.072 6.34-3.262 9.287 19.013.633 71.233 2.667 113.823 15.693a1.647 1.647 0 0 1 1.093 2.07 1.642 1.642 0 0 1-2.052 1.085c-43.184-13.2-96.537-15.012-114.282-15.598-15.444 33.93-47.118 46.59-98.322 51.856 16.595 10.446 21.353 23.548 21.353 59.003 0 35.453-.48 40.21-.365 48.363.173 13.38 19.78 19.787 19.05 24.094-.728 4.3-16.402 3.607-23.73 1.047-20.758-7.23-18.687-24.5-18.687-24.5l-.69-47.403s1.42-25.516-8-25.516v77.593c0 16.863 11.8 21.986 11.8 28.22 0 10.716-21.564-1.015-28.203-7.702-10.134-10.167-8.982-31.73-8.733-48.784.23-16.47-.154-52.49-.154-52.49l-6.878.145s2.82 78.687-3.626 93.026c-8.335 18.408-33.477 24.74-33.477 16.355 0-5.64 6.195-3.845 9.62-16.487 2.925-10.754 1.928-90.975 1.928-90.975s-8.057 4.767-8.057 19.788c0 6.877-.19 46.158-.19 57.852 0 14.705-20.884 23.078-30.918 23.078-5.084 0-11.405-.248-11.405-2.943 0-6.8 19.1-10.793 19.1-24.94 0-12.27-.27-43.827-.27-43.827s-9.63 1.648-23.367 1.648c-34.628 0-45.583-22.1-50.792-34.465-6.782-16.105-15.578-23.673-24.92-29.717-5.737-3.712-7.06-8.096-.423-9.343 30.658-5.773 38.495 34.764 58.965 41.22 14.608 4.614 33.39 2.618 42.733-3.425 1.238-12.385 10.16-23.09 17.593-28.73-52.066-4.997-82.935-23.078-98.935-52.144-54.466 1.307-85.372 9.038-108.03 14.697-1.65.413-3.26.815-4.814 1.21-.133.027-.27.037-.402.037-.74 0-1.41-.5-1.602-1.247a1.66 1.66 0 0 1 1.21-2.005c1.56-.383 3.162-.775 4.802-1.197z" fill="#FFFFFF"/></svg>
