<?xml version="1.0" encoding="UTF-8" standalone="no"?>
<svg width="172px" height="211px" viewBox="0 0 172 211" version="1.1" xmlns="http://www.w3.org/2000/svg" xmlns:xlink="http://www.w3.org/1999/xlink" xmlns:sketch="http://www.bohemiancoding.com/sketch/ns">
    <!-- Generator: Sketch 3.3.2 (12043) - http://www.bohemiancoding.com/sketch -->
    <title>Imported Layers</title>
    <desc>Created with Sketch.</desc>
    <defs>
        <path id="path-1" d="M54.341,27.836 C54.341,42.803 42.208,54.937 27.24,54.937 C12.271,54.937 0.139,42.803 0.139,27.836 C0.139,12.868 12.271,0.734 27.24,0.734 C42.208,0.734 54.341,12.868 54.341,27.836"></path>
        <path id="path-3" d="M54.341,27.836 C54.341,42.803 42.208,54.937 27.24,54.937 C12.271,54.937 0.139,42.803 0.139,27.836 C0.139,12.868 12.271,0.734 27.24,0.734 C42.208,0.734 54.341,12.868 54.341,27.836"></path>
        <path id="path-5" d="M54.341,27.836 C54.341,42.803 42.208,54.937 27.24,54.937 C12.271,54.937 0.139,42.803 0.139,27.836 C0.139,12.868 12.271,0.734 27.24,0.734 C42.208,0.734 54.341,12.868 54.341,27.836"></path>
        <path id="path-7" d="M54.341,27.836 C54.341,42.803 42.208,54.937 27.24,54.937 C12.271,54.937 0.139,42.803 0.139,27.836 C0.139,12.868 12.271,0.734 27.24,0.734 C42.208,0.734 54.341,12.868 54.341,27.836"></path>
        <path id="path-9" d="M54.341,27.836 C54.341,42.803 42.208,54.937 27.24,54.937 C12.271,54.937 0.139,42.803 0.139,27.836 C0.139,12.868 12.271,0.734 27.24,0.734 C42.208,0.734 54.341,12.868 54.341,27.836"></path>
    </defs>
    <g id="Page-1" stroke="none" stroke-width="1" fill="none" fill-rule="evenodd" sketch:type="MSPage">
        <g id="Artboard-4" sketch:type="MSArtboardGroup" transform="translate(-231.000000, -304.000000)">
            <g id="Imported-Layers" sketch:type="MSLayerGroup" transform="translate(231.000000, 304.000000)">
                <path d="M26.918,210.856 C26.701,210.856 26.524,210.678 26.524,210.462 L26.524,188.725 C26.524,188.508 26.701,188.331 26.918,188.331 L30.78,188.331 C30.996,188.331 31.174,188.508 31.174,188.725 L31.174,206.931 C31.174,207.147 31.352,207.324 31.567,207.324 L38.273,207.324 C38.49,207.324 38.667,207.502 38.667,207.718 L38.667,210.462 C38.667,210.678 38.49,210.856 38.273,210.856 L26.918,210.856" id="Fill-1" fill="#000000" sketch:type="MSShapeGroup"></path>
                <path d="M53.807,210.856 C53.59,210.856 53.369,210.684 53.316,210.474 L52.298,206.512 C52.244,206.303 52.024,206.131 51.807,206.131 L46.149,206.131 C45.934,206.131 45.711,206.302 45.655,206.512 L44.608,210.475 C44.553,210.684 44.33,210.856 44.114,210.856 L40.744,210.856 C40.527,210.856 40.397,210.685 40.454,210.476 L46.345,188.934 C46.401,188.725 46.625,188.554 46.842,188.554 L51.356,188.554 C51.572,188.554 51.796,188.726 51.853,188.935 L57.642,210.475 C57.698,210.685 57.567,210.856 57.351,210.856 L53.807,210.856 L53.807,210.856 Z M49.172,192.497 C49.123,192.286 49.051,192.114 49.013,192.114 C48.975,192.114 48.901,192.286 48.852,192.497 L46.368,202.787 C46.317,202.998 46.452,203.17 46.669,203.17 L51.287,203.17 C51.504,203.17 51.64,202.998 51.591,202.787 L49.172,192.497 L49.172,192.497 Z" id="Fill-2" fill="#000000" sketch:type="MSShapeGroup"></path>
                <path d="M71.641,210.856 C71.424,210.856 71.17,210.696 71.076,210.501 L63.821,195.46 C63.728,195.266 63.625,195.106 63.594,195.106 C63.562,195.106 63.537,195.283 63.538,195.5 L63.61,210.462 C63.611,210.678 63.436,210.856 63.219,210.856 L59.924,210.856 C59.707,210.856 59.53,210.678 59.53,210.462 L59.53,188.948 C59.53,188.731 59.707,188.554 59.924,188.554 L64.314,188.554 C64.531,188.554 64.784,188.714 64.877,188.91 L72.062,204.043 C72.154,204.238 72.256,204.398 72.287,204.398 C72.318,204.398 72.344,204.221 72.343,204.005 L72.307,188.948 C72.306,188.731 72.482,188.554 72.699,188.554 L75.844,188.554 C76.061,188.554 76.237,188.731 76.237,188.948 L76.237,210.462 C76.237,210.678 76.061,210.856 75.844,210.856 L71.641,210.856" id="Fill-3" fill="#000000" sketch:type="MSShapeGroup"></path>
                <path d="M88.538,191.767 C88.321,191.767 88.145,191.944 88.145,192.161 L88.145,210.462 C88.145,210.678 87.968,210.856 87.751,210.856 L84.077,210.856 C83.86,210.856 83.684,210.678 83.684,210.462 L83.684,192.161 C83.684,191.944 83.506,191.767 83.29,191.767 L79.05,191.767 C78.833,191.767 78.656,191.59 78.656,191.373 L78.656,188.948 C78.656,188.731 78.833,188.554 79.05,188.554 L92.778,188.554 C92.994,188.554 93.172,188.731 93.172,188.948 L93.172,191.373 C93.172,191.59 92.994,191.767 92.778,191.767 L88.538,191.767" id="Fill-4" fill="#000000" sketch:type="MSShapeGroup"></path>
                <path d="M96.323,210.856 C96.107,210.856 95.93,210.678 95.93,210.462 L95.93,188.948 C95.93,188.731 96.107,188.554 96.323,188.554 L107.519,188.554 C107.734,188.554 107.912,188.731 107.912,188.948 L107.912,191.5 C107.912,191.716 107.734,191.893 107.519,191.893 L100.67,191.893 C100.453,191.893 100.276,192.07 100.276,192.287 L100.276,197.421 C100.276,197.638 100.453,197.815 100.67,197.815 L106.951,197.815 C107.168,197.815 107.345,197.992 107.345,198.209 L107.345,200.508 C107.345,200.725 107.168,200.902 106.951,200.902 L100.67,200.902 C100.453,200.902 100.276,201.079 100.276,201.295 L100.276,207.091 C100.276,207.308 100.453,207.485 100.67,207.485 L107.897,207.485 C108.113,207.485 108.29,207.662 108.29,207.878 L108.29,210.462 C108.29,210.678 108.113,210.856 107.897,210.856 L96.323,210.856" id="Fill-5" fill="#000000" sketch:type="MSShapeGroup"></path>
                <path d="M122.253,210.856 C122.037,210.856 121.788,210.693 121.701,210.495 L117.859,201.704 C117.773,201.505 117.524,201.343 117.308,201.343 L115.563,201.343 C115.346,201.343 115.169,201.52 115.169,201.736 L115.169,210.462 C115.169,210.678 114.992,210.856 114.775,210.856 L111.178,210.856 C110.961,210.856 110.784,210.678 110.784,210.462 L110.784,188.948 C110.784,188.731 110.961,188.554 111.178,188.554 L118.025,188.554 C118.242,188.554 118.596,188.565 118.813,188.577 C118.813,188.577 120.549,188.675 121.481,188.917 C122.413,189.158 123.213,189.542 123.881,190.066 C124.549,190.591 125.072,191.253 125.45,192.051 C125.828,192.849 126.017,193.804 126.017,194.917 C126.017,195.778 125.885,196.539 125.62,197.201 C125.355,197.862 125.021,198.424 124.618,198.886 C124.215,199.348 123.768,199.721 123.276,200.004 C122.785,200.288 122.197,200.47 122.197,200.47 C121.99,200.534 121.897,200.748 121.988,200.943 L126.455,210.499 C126.547,210.695 126.445,210.856 126.229,210.856 L122.253,210.856 L122.253,210.856 Z M121.557,195.106 C121.557,194.434 121.443,193.877 121.217,193.437 C120.989,192.996 120.693,192.649 120.328,192.397 C119.963,192.145 119.554,191.967 119.1,191.862 C118.646,191.757 118.132,191.727 118.132,191.727 C117.916,191.714 117.562,191.704 117.346,191.704 L115.563,191.704 C115.346,191.704 115.169,191.881 115.169,192.098 L115.169,198.177 C115.169,198.394 115.346,198.571 115.563,198.571 L117.346,198.571 C117.562,198.571 117.915,198.546 118.129,198.515 C118.129,198.515 119.761,198.283 120.48,197.705 C121.197,197.127 121.557,196.261 121.557,195.106 L121.557,195.106 Z" id="Fill-6" fill="#000000" sketch:type="MSShapeGroup"></path>
                <path d="M140.925,210.856 C140.708,210.856 140.454,210.696 140.36,210.501 L133.104,195.46 C133.011,195.266 132.908,195.106 132.877,195.106 C132.846,195.106 132.821,195.283 132.822,195.5 L132.894,210.462 C132.895,210.678 132.719,210.856 132.502,210.856 L129.207,210.856 C128.99,210.856 128.814,210.678 128.814,210.462 L128.814,188.948 C128.814,188.731 128.99,188.554 129.207,188.554 L133.599,188.554 C133.815,188.554 134.068,188.714 134.161,188.91 L141.345,204.043 C141.438,204.238 141.539,204.398 141.57,204.398 C141.602,204.398 141.627,204.221 141.626,204.005 L141.59,188.948 C141.589,188.731 141.766,188.554 141.983,188.554 L145.127,188.554 C145.344,188.554 145.521,188.731 145.521,188.948 L145.521,210.462 C145.521,210.678 145.344,210.856 145.127,210.856 L140.925,210.856" id="Fill-7" fill="#000000" sketch:type="MSShapeGroup"></path>
                <path d="M171.496,86.111 C171.496,133.33 133.218,171.607 86,171.607 C38.782,171.607 0.504,133.33 0.504,86.111 C0.504,38.894 38.782,0.616 86,0.616 C133.218,0.616 171.496,38.894 171.496,86.111" id="Fill-8" fill="#75CBDA" sketch:type="MSShapeGroup"></path>
                <path d="M96.323,58.744 L118.594,63.027 C118.594,63.027 111.886,134.981 95.101,145.404 C94.66,145.678 94.237,146.014 93.783,146.2 L93.222,146.461 L96.323,58.744" id="Fill-9" fill="#F8E93F" sketch:type="MSShapeGroup"></path>
                <path d="M75.43,58.622 L54.12,62.74 C54.12,62.74 60.962,136.767 78.227,145.756 C78.941,146.127 79.086,146.261 79.479,146.329 C79.549,146.341 75.43,58.622 75.43,58.622" id="Fill-10" fill="#F8E93F" sketch:type="MSShapeGroup"></path>
                <g id="Group-26" transform="translate(59.000000, 64.000000)">
                    <g id="Group-13">
                        <mask id="mask-2" sketch:name="Clip 12" fill="white">
                            <use xlink:href="#path-1"></use>
                        </mask>
                        <g id="Clip-12"></g>
                        <path d="M54.341,27.836 C54.341,42.803 42.208,54.937 27.24,54.937 C12.271,54.937 0.139,42.803 0.139,27.836 C0.139,12.868 12.271,0.734 27.24,0.734 C42.208,0.734 54.341,12.868 54.341,27.836" id="Fill-11" sketch:type="MSShapeGroup" mask="url(#mask-2)"></path>
                    </g>
                    <g id="Group-16">
                        <mask id="mask-4" sketch:name="Clip 15" fill="white">
                            <use xlink:href="#path-3"></use>
                        </mask>
                        <g id="Clip-15"></g>
                        <path d="M54.341,27.836 C54.341,42.803 42.208,54.937 27.24,54.937 C12.271,54.937 0.139,42.803 0.139,27.836 C0.139,12.868 12.271,0.734 27.24,0.734 C42.208,0.734 54.341,12.868 54.341,27.836" id="Fill-14" sketch:type="MSShapeGroup" mask="url(#mask-4)"></path>
                    </g>
                    <g id="Group-19">
                        <mask id="mask-6" sketch:name="Clip 18" fill="white">
                            <use xlink:href="#path-5"></use>
                        </mask>
                        <g id="Clip-18"></g>
                        <path d="M54.341,27.836 C54.341,42.803 42.208,54.937 27.24,54.937 C12.271,54.937 0.139,42.803 0.139,27.836 C0.139,12.868 12.271,0.734 27.24,0.734 C42.208,0.734 54.341,12.868 54.341,27.836" id="Fill-17" sketch:type="MSShapeGroup" mask="url(#mask-6)"></path>
                    </g>
                    <g id="Group-22">
                        <mask id="mask-8" sketch:name="Clip 21" fill="white">
                            <use xlink:href="#path-7"></use>
                        </mask>
                        <g id="Clip-21"></g>
                        <path d="M54.341,27.836 C54.341,42.803 42.208,54.937 27.24,54.937 C12.271,54.937 0.139,42.803 0.139,27.836 C0.139,12.868 12.271,0.734 27.24,0.734 C42.208,0.734 54.341,12.868 54.341,27.836" id="Fill-20" sketch:type="MSShapeGroup" mask="url(#mask-8)"></path>
                    </g>
                    <g id="Group-25">
                        <mask id="mask-10" sketch:name="Clip 24" fill="white">
                            <use xlink:href="#path-9"></use>
                        </mask>
                        <g id="Clip-24"></g>
                        <path d="M54.341,27.836 C54.341,42.803 42.208,54.937 27.24,54.937 C12.271,54.937 0.139,42.803 0.139,27.836 C0.139,12.868 12.271,0.734 27.24,0.734 C42.208,0.734 54.341,12.868 54.341,27.836" id="Fill-23" sketch:type="MSShapeGroup" mask="url(#mask-10)"></path>
                    </g>
                </g>
                <path d="M103.127,43.116 L103.557,34.124 L95.056,29.401 C95.776,27.988 96.191,26.394 96.191,24.702 C96.191,18.974 91.53,14.315 85.802,14.315 C80.072,14.315 75.412,18.974 75.412,24.702 C75.412,26.583 75.922,28.344 76.8,29.868 L68.229,34.765 C68.229,34.765 69.261,43.336 69.02,43.475 C68.299,43.89 52.6,49.325 52.6,49.325 L54.042,63.035 C59.557,61.856 75.032,58.762 75.102,58.834 C75.225,58.962 75.285,59.199 75.295,59.387 C75.441,62.525 79.361,146.097 79.361,146.097 L79.362,146.097 L79.36,146.255 L82.873,147.909 L86,149.522 L93.391,146.39 L96.49,58.744 L118.757,63.027 L119.4,50.18 L103.127,43.116 L103.127,43.116 Z M77.563,24.702 C77.563,20.16 81.259,16.466 85.802,16.466 C90.344,16.466 94.04,20.16 94.04,24.702 C94.04,26.016 93.723,27.253 93.174,28.356 L86.213,24.489 L78.666,28.801 C77.969,27.593 77.563,26.195 77.563,24.702 L77.563,24.702 Z" id="Fill-27" fill="#0D181F" sketch:type="MSShapeGroup"></path>
            </g>
        </g>
    </g>
</svg>