<svg xmlns="http://www.w3.org/2000/svg" viewBox="0 0 60 60"><path d="M15.2 33.5c.1.1.2.1.2.2v.3c-.3 1-.6 1.9-.9 2.9-.1.4-.2.7-.3 1.1-.1.3.1.5.4.4.1-.1.3-.1.4-.2 1.3-.8 2.6-1.5 3.8-2.3.2-.1.4-.1.6-.1.6.2 1.3.4 1.9.5.8.2 1.6.2 2.4.3h1v-.2c0-.2-.1-.4-.1-.6-.1-.6-.2-1.3-.1-2v-1.2l.3-1.5c.1-.5.3-1 .5-1.4.2-.5.5-.9.7-1.3l.9-1.2c1.2-1.4 2.6-2.5 4.3-3.2 1.4-.6 2.8-1.1 4.3-1.2.8-.1 1.5-.1 2.3-.1.3 0 .3 0 .3-.3-.2-.7-.4-1.5-.7-2.2-1.1-2.5-2.8-4.3-5-5.7-.3-.2-.6-.4-1-.6-.5-.3-1.1-.5-1.6-.7-.8-.3-1.5-.5-2.3-.7-.5-.1-.9-.2-1.4-.2-.8-.1-1.6-.1-2.3-.1-.8 0-1.5.1-2.3.2-.4.1-.7.1-1.1.2-.7.2-1.4.4-2.1.7-.3.1-.7.3-1 .5-2 1-3.6 2.3-4.9 4-.4.5-.8 1.1-1.1 1.7-.3.6-.6 1.2-.7 1.9-.1.4-.3.9-.3 1.4v2.4c0 .4.1.8.1 1.2l.3 1.2c.1.3.2.5.3.8.3.8.7 1.5 1.1 2.2.4.7.9 1.3 1.4 1.8.5.2 1 .7 1.7 1.1zm13-13.4c0-1 .8-1.8 1.8-1.8.9 0 1.8.7 1.8 1.8 0 1-.8 1.8-1.8 1.8-1.1 0-1.9-1-1.8-1.8zm-9.4-1.8c1 0 1.8.8 1.9 1.8 0 1.1-.8 1.8-1.8 1.8s-1.9-.9-1.8-1.8c-.1-.9.7-1.8 1.7-1.8z"/><path d="M49.3 30.8c-.7-2-1.9-3.7-3.7-5l-1.8-1.2c-1-.5-2-.8-3.1-1.1-1.1-.2-2.3-.4-3.5-.4-.2 0-.5.1-.8.1h-.3c-.3 0-.7.1-1 .1-.1 0-.2 0-.3.1-.9.2-1.8.5-2.7.8-.6.2-1.1.5-1.6.9-.2.1-.4.3-.6.4-.6.4-1.1.9-1.6 1.4-.2.2-.4.5-.6.7-.2.2-.4.5-.6.8-.1.2-.2.4-.3.5-.7 1.2-1.1 2.5-1.2 4v1.7c0 .4.1.8.2 1.2.1.2.1.5.2.7s.2.5.3.7c.6 1.5 1.6 2.7 2.9 3.8 2.2 1.8 4.8 2.8 7.6 2.9 1.2.1 2.4 0 3.6-.2.5-.1.9-.2 1.4-.4.2-.1.5-.2.7-.2h.3c.1 0 .2 0 .3.1.9.5 1.8 1.1 2.7 1.6.1.1.2.1.3.2.1 0 .2.1.3.1h.2c.1 0 .2-.1.2-.2v-.2c0-.1 0-.2-.1-.2-.3-.9-.6-1.9-1-2.8-.1-.2 0-.3.1-.4.1-.1.2-.1.2-.2.3-.2.5-.4.7-.6.7-.7 1.3-1.4 1.8-2.3.3-.5.5-1 .7-1.6.2-.5.3-1.1.4-1.6.1-.5.1-1.1.1-1.7 0-.6-.1-1.1-.2-1.7 0-.2-.1-.5-.2-.8zm-16.1.5c-.8 0-1.6-.7-1.6-1.7 0-.7.7-1.6 1.7-1.5.8-.1 1.6.7 1.6 1.7-.1.8-.8 1.5-1.7 1.5zm8.8 0c-.7 0-1.7-.6-1.6-1.6 0-1 .9-1.6 1.6-1.6.8 0 1.7.6 1.7 1.6-.1.8-.8 1.6-1.7 1.6z"/><path class="st1" d="M24.8 36.4h-.1"/></svg>