<svg width="140" height="36" viewBox="0 0 140 36" fill="none" xmlns="http://www.w3.org/2000/svg">
<rect x="0.5" y="0.5" width="139" height="35" rx="3.5" fill="#DF2935"/>
<rect x="0.5" y="0.5" width="139" height="35" rx="3.5" stroke="#EBEBEB"/>
<path d="M24.312 22.664C24.312 22.48 24.328 22.264 24.36 22.016C24.392 21.768 24.452 21.488 24.54 21.176C24.628 20.856 24.76 20.5 24.936 20.108L26.412 20.624C26.324 20.872 26.248 21.1 26.184 21.308C26.12 21.508 26.072 21.696 26.04 21.872C26.008 22.04 25.992 22.208 25.992 22.376C25.992 22.64 26.048 22.876 26.16 23.084C26.28 23.3 26.452 23.48 26.676 23.624C26.9 23.776 27.172 23.892 27.492 23.972C27.82 24.052 28.196 24.092 28.62 24.092C29.06 24.092 29.452 24.072 29.796 24.032C30.148 23.992 30.444 23.932 30.684 23.852C30.932 23.772 31.12 23.668 31.248 23.54C31.376 23.42 31.44 23.28 31.44 23.12C31.44 23.048 31.412 22.98 31.356 22.916C31.308 22.852 31.224 22.784 31.104 22.712C30.992 22.64 30.84 22.564 30.648 22.484C30.464 22.404 30.24 22.316 29.976 22.22L30.372 20.528C30.716 20.672 31.04 20.8 31.344 20.912C31.656 21.016 31.952 21.104 32.232 21.176C32.512 21.24 32.776 21.292 33.024 21.332C33.272 21.364 33.504 21.38 33.72 21.38C34.024 21.38 34.24 21.46 34.368 21.62C34.496 21.772 34.56 21.964 34.56 22.196C34.56 22.444 34.476 22.652 34.308 22.82C34.14 22.98 33.904 23.06 33.6 23.06C33.536 23.06 33.472 23.06 33.408 23.06C33.352 23.06 33.292 23.06 33.228 23.06C33.172 23.06 33.112 23.06 33.048 23.06C33.064 23.14 33.072 23.208 33.072 23.264C33.072 23.328 33.072 23.388 33.072 23.444C33.072 23.708 32.98 23.976 32.796 24.248C32.62 24.52 32.344 24.772 31.968 25.004C31.592 25.236 31.112 25.42 30.528 25.556C29.952 25.7 29.264 25.772 28.464 25.772C27.6 25.772 26.856 25.66 26.232 25.436C25.616 25.22 25.14 24.88 24.804 24.416C24.476 23.96 24.312 23.376 24.312 22.664ZM29.64 28.556C29.408 28.556 29.208 28.472 29.04 28.304C28.88 28.144 28.8 27.952 28.8 27.728C28.8 27.496 28.88 27.296 29.04 27.128C29.208 26.96 29.408 26.876 29.64 26.876C29.864 26.876 30.056 26.96 30.216 27.128C30.376 27.296 30.456 27.496 30.456 27.728C30.456 27.952 30.376 28.144 30.216 28.304C30.056 28.472 29.864 28.556 29.64 28.556ZM27.564 28.556C27.332 28.556 27.132 28.472 26.964 28.304C26.804 28.144 26.724 27.952 26.724 27.728C26.724 27.496 26.804 27.296 26.964 27.128C27.132 26.96 27.332 26.876 27.564 26.876C27.788 26.876 27.98 26.96 28.14 27.128C28.3 27.296 28.38 27.496 28.38 27.728C28.38 27.952 28.3 28.144 28.14 28.304C27.98 28.472 27.788 28.556 27.564 28.556ZM33.5977 23.06L33.7177 21.38C34.0697 21.38 34.3457 21.356 34.5457 21.308C34.7537 21.26 34.9017 21.172 34.9897 21.044C35.0777 20.908 35.1217 20.716 35.1217 20.468C35.1217 20.244 35.0897 19.976 35.0257 19.664C34.9697 19.352 34.8937 19.028 34.7977 18.692C34.7017 18.356 34.6057 18.048 34.5097 17.768L36.1657 17.312C36.2617 17.584 36.3577 17.9 36.4537 18.26C36.5497 18.62 36.6297 18.992 36.6937 19.376C36.7657 19.752 36.8017 20.116 36.8017 20.468C36.8017 20.908 36.7457 21.28 36.6337 21.584C36.5217 21.88 36.3657 22.128 36.1657 22.328C35.9737 22.52 35.7417 22.672 35.4697 22.784C35.2057 22.888 34.9137 22.96 34.5937 23C34.2737 23.04 33.9417 23.06 33.5977 23.06ZM35.0737 25.82C34.8417 25.82 34.6417 25.74 34.4737 25.58C34.3137 25.42 34.2337 25.224 34.2337 24.992C34.2337 24.76 34.3137 24.556 34.4737 24.38C34.6417 24.212 34.8417 24.128 35.0737 24.128C35.3057 24.128 35.5017 24.212 35.6617 24.38C35.8297 24.556 35.9137 24.76 35.9137 24.992C35.9137 25.224 35.8297 25.42 35.6617 25.58C35.5017 25.74 35.3057 25.82 35.0737 25.82ZM37.5983 25.772L36.9862 24.284C37.4103 24.14 37.7983 23.972 38.1503 23.78C38.5103 23.588 38.8223 23.376 39.0863 23.144C39.3503 22.912 39.5543 22.66 39.6983 22.388C39.8423 22.108 39.9143 21.808 39.9143 21.488C39.9143 21.152 39.8383 20.784 39.6863 20.384C39.5343 19.984 39.3503 19.576 39.1343 19.16L40.7063 18.404C40.8503 18.652 40.9743 18.92 41.0783 19.208C41.1903 19.488 41.2823 19.74 41.3543 19.964C41.4263 20.188 41.4743 20.34 41.4983 20.42C41.6103 20.804 41.7623 21.06 41.9543 21.188C42.1543 21.316 42.4743 21.38 42.9143 21.38C43.2183 21.38 43.4343 21.46 43.5623 21.62C43.6983 21.772 43.7663 21.964 43.7663 22.196C43.7663 22.444 43.6823 22.652 43.5143 22.82C43.3463 22.98 43.1063 23.06 42.7943 23.06C42.4663 23.06 42.1783 23.012 41.9303 22.916C41.6823 22.82 41.4823 22.68 41.3303 22.496C41.1863 22.312 41.0943 22.096 41.0543 21.848L41.4983 22.1C41.4503 22.524 41.3103 22.924 41.0783 23.3C40.8543 23.684 40.5623 24.036 40.2023 24.356C39.8423 24.676 39.4383 24.956 38.9902 25.196C38.5423 25.436 38.0783 25.628 37.5983 25.772ZM42.8086 23.06L42.9286 21.38C43.3046 21.38 43.5926 21.376 43.7926 21.368C44.0006 21.36 44.1566 21.352 44.2606 21.344C44.3646 21.328 44.4526 21.316 44.5246 21.308C44.4446 21.228 44.3406 21.112 44.2126 20.96C44.0846 20.808 43.9686 20.612 43.8646 20.372C43.7686 20.132 43.7206 19.844 43.7206 19.508C43.7206 19.02 43.8446 18.592 44.0926 18.224C44.3486 17.856 44.6926 17.568 45.1246 17.36C45.5566 17.152 46.0406 17.048 46.5766 17.048C46.8326 17.048 47.0686 17.064 47.2846 17.096C47.5086 17.128 47.7326 17.176 47.9566 17.24L47.6926 18.836C47.5326 18.796 47.3646 18.764 47.1886 18.74C47.0126 18.716 46.8566 18.704 46.7206 18.704C46.4566 18.704 46.2246 18.748 46.0246 18.836C45.8326 18.916 45.6806 19.032 45.5686 19.184C45.4646 19.328 45.4126 19.504 45.4126 19.712C45.4126 19.848 45.4366 19.976 45.4846 20.096C45.5406 20.216 45.6086 20.324 45.6886 20.42C45.7686 20.516 45.8566 20.6 45.9526 20.672C46.0486 20.744 46.1406 20.804 46.2286 20.852C46.3246 20.892 46.4046 20.92 46.4686 20.936C46.6686 20.88 46.8406 20.832 46.9846 20.792C47.1366 20.744 47.2806 20.7 47.4166 20.66C47.5606 20.612 47.7166 20.552 47.8846 20.48C48.0526 20.408 48.2606 20.32 48.5086 20.216L49.0486 21.8C48.3766 22.128 47.7206 22.384 47.0806 22.568C46.4406 22.752 45.7766 22.88 45.0886 22.952C44.4006 23.024 43.6406 23.06 42.8086 23.06ZM55.3415 13.904H56.4815V25.784H55.3415V13.904ZM65.7612 22.664C65.7612 22.48 65.7772 22.264 65.8092 22.016C65.8412 21.768 65.9012 21.488 65.9892 21.176C66.0772 20.856 66.2092 20.5 66.3852 20.108L67.8612 20.624C67.7732 20.872 67.6972 21.1 67.6332 21.308C67.5692 21.508 67.5212 21.696 67.4892 21.872C67.4572 22.04 67.4412 22.208 67.4412 22.376C67.4412 22.736 67.5292 23.048 67.7052 23.312C67.8892 23.584 68.1372 23.792 68.4492 23.936C68.7692 24.088 69.1372 24.164 69.5532 24.164C70.2332 24.164 70.7532 24.052 71.1132 23.828C71.4812 23.612 71.7292 23.268 71.8572 22.796C71.9932 22.316 72.0452 21.696 72.0132 20.936L71.7732 14.216H73.4652L73.6452 19.892C73.6612 20.292 73.7172 20.6 73.8132 20.816C73.9092 21.032 74.0572 21.18 74.2572 21.26C74.4652 21.34 74.7332 21.38 75.0612 21.38C75.3652 21.38 75.5812 21.46 75.7092 21.62C75.8372 21.772 75.9012 21.964 75.9012 22.196C75.9012 22.444 75.8172 22.652 75.6492 22.82C75.4812 22.98 75.2452 23.06 74.9412 23.06C74.7652 23.06 74.5772 23.036 74.3772 22.988C74.1772 22.94 73.9852 22.864 73.8012 22.76C73.6172 22.656 73.4572 22.52 73.3212 22.352C73.1852 22.176 73.0932 21.96 73.0452 21.704L73.6932 21.38C73.6932 22.188 73.5972 22.872 73.4052 23.432C73.2212 23.992 72.9492 24.444 72.5892 24.788C72.2372 25.132 71.8012 25.38 71.2812 25.532C70.7692 25.692 70.1772 25.772 69.5052 25.772C68.9932 25.772 68.5092 25.708 68.0532 25.58C67.6052 25.452 67.2092 25.26 66.8652 25.004C66.5212 24.748 66.2492 24.424 66.0492 24.032C65.8572 23.648 65.7612 23.192 65.7612 22.664ZM74.9414 23.06L75.0614 21.38C75.5414 21.38 75.9094 21.356 76.1654 21.308C76.4214 21.26 76.5974 21.172 76.6934 21.044C76.7974 20.908 76.8494 20.716 76.8494 20.468C76.8494 20.244 76.8174 19.976 76.7534 19.664C76.6974 19.352 76.6214 19.028 76.5254 18.692C76.4374 18.356 76.3414 18.048 76.2374 17.768L77.8934 17.312C77.9974 17.584 78.0974 17.9 78.1934 18.26C78.2894 18.62 78.3694 18.992 78.4334 19.376C78.4974 19.752 78.5294 20.116 78.5294 20.468C78.5294 21.012 78.4414 21.456 78.2654 21.8C78.0894 22.136 77.8414 22.396 77.5214 22.58C77.2094 22.764 76.8334 22.892 76.3934 22.964C75.9534 23.028 75.4694 23.06 74.9414 23.06ZM77.9054 25.844C77.6734 25.844 77.4734 25.76 77.3054 25.592C77.1454 25.432 77.0654 25.24 77.0654 25.016C77.0654 24.784 77.1454 24.584 77.3054 24.416C77.4734 24.248 77.6734 24.164 77.9054 24.164C78.1294 24.164 78.3214 24.248 78.4814 24.416C78.6414 24.584 78.7214 24.784 78.7214 25.016C78.7214 25.24 78.6414 25.432 78.4814 25.592C78.3214 25.76 78.1294 25.844 77.9054 25.844ZM75.8294 25.844C75.5974 25.844 75.3974 25.76 75.2294 25.592C75.0694 25.432 74.9894 25.24 74.9894 25.016C74.9894 24.784 75.0694 24.584 75.2294 24.416C75.3974 24.248 75.5974 24.164 75.8294 24.164C76.0534 24.164 76.2454 24.248 76.4054 24.416C76.5654 24.584 76.6454 24.784 76.6454 25.016C76.6454 25.24 76.5654 25.432 76.4054 25.592C76.2454 25.76 76.0534 25.844 75.8294 25.844ZM79.4459 25.772L78.8339 24.284C79.2579 24.14 79.6459 23.972 79.9979 23.78C80.3579 23.588 80.6699 23.376 80.9339 23.144C81.1979 22.912 81.4019 22.66 81.5459 22.388C81.6899 22.108 81.7619 21.808 81.7619 21.488C81.7619 21.152 81.6859 20.784 81.5339 20.384C81.3819 19.984 81.1979 19.576 80.9819 19.16L82.5539 18.404C82.6979 18.652 82.8219 18.92 82.9259 19.208C83.0379 19.488 83.1299 19.74 83.2019 19.964C83.2739 20.188 83.3219 20.34 83.3459 20.42C83.4579 20.804 83.6099 21.06 83.8019 21.188C84.0019 21.316 84.3219 21.38 84.7619 21.38C85.0659 21.38 85.2819 21.46 85.4099 21.62C85.5459 21.772 85.6139 21.964 85.6139 22.196C85.6139 22.444 85.5299 22.652 85.3619 22.82C85.1939 22.98 84.9539 23.06 84.6419 23.06C84.3139 23.06 84.0259 23.012 83.7779 22.916C83.5299 22.82 83.3299 22.68 83.1779 22.496C83.0339 22.312 82.9419 22.096 82.9019 21.848L83.3459 22.1C83.2979 22.524 83.1579 22.924 82.9259 23.3C82.7019 23.684 82.4099 24.036 82.0499 24.356C81.6899 24.676 81.2859 24.956 80.8379 25.196C80.3899 25.436 79.9259 25.628 79.4459 25.772ZM81.8939 17.18C81.6459 17.18 81.4339 17.096 81.2579 16.928C81.0899 16.76 81.0059 16.552 81.0059 16.304C81.0059 16.056 81.0899 15.844 81.2579 15.668C81.4339 15.492 81.6459 15.404 81.8939 15.404C82.1339 15.404 82.3379 15.492 82.5059 15.668C82.6819 15.844 82.7699 16.056 82.7699 16.304C82.7699 16.552 82.6819 16.76 82.5059 16.928C82.3379 17.096 82.1339 17.18 81.8939 17.18ZM84.6562 23.06L84.7763 21.38C85.0803 21.38 85.3203 21.352 85.4963 21.296C85.6803 21.24 85.8243 21.128 85.9283 20.96C86.0403 20.784 86.1323 20.528 86.2043 20.192C86.2843 19.856 86.3643 19.408 86.4443 18.848L88.0163 19.112C88.0003 19.232 87.9763 19.372 87.9443 19.532C87.9203 19.692 87.8963 19.856 87.8723 20.024C87.8563 20.184 87.8483 20.336 87.8483 20.48C87.8483 20.672 87.8883 20.836 87.9683 20.972C88.0563 21.1 88.2083 21.2 88.4243 21.272C88.6483 21.344 88.9683 21.38 89.3843 21.38C89.6883 21.38 89.9043 21.46 90.0323 21.62C90.1603 21.772 90.2243 21.964 90.2243 22.196C90.2243 22.444 90.1403 22.652 89.9723 22.82C89.8123 22.98 89.5763 23.06 89.2643 23.06C88.7123 23.06 88.2643 23.008 87.9203 22.904C87.5763 22.8 87.3203 22.624 87.1523 22.376C86.9843 22.128 86.8763 21.788 86.8283 21.356H87.4043C87.2603 21.74 87.0923 22.048 86.9003 22.28C86.7083 22.504 86.4923 22.672 86.2523 22.784C86.0123 22.896 85.7563 22.968 85.4843 23C85.2203 23.04 84.9443 23.06 84.6562 23.06ZM87.1043 17.624C86.8563 17.624 86.6443 17.54 86.4683 17.372C86.3003 17.204 86.2163 16.996 86.2163 16.748C86.2163 16.5 86.3003 16.288 86.4683 16.112C86.6443 15.936 86.8563 15.848 87.1043 15.848C87.3443 15.848 87.5483 15.936 87.7163 16.112C87.8923 16.288 87.9803 16.5 87.9803 16.748C87.9803 16.996 87.8923 17.204 87.7163 17.372C87.5483 17.54 87.3443 17.624 87.1043 17.624ZM89.2617 23.06L89.3817 21.38C89.6697 21.38 89.9177 21.352 90.1257 21.296C90.3337 21.24 90.5097 21.128 90.6537 20.96C90.7977 20.784 90.9177 20.528 91.0137 20.192C91.1177 19.856 91.2097 19.408 91.2897 18.848L92.8617 19.112C92.8457 19.232 92.8217 19.372 92.7897 19.532C92.7657 19.692 92.7417 19.856 92.7177 20.024C92.7017 20.184 92.6937 20.336 92.6937 20.48C92.6937 20.624 92.7217 20.752 92.7777 20.864C92.8337 20.976 92.9217 21.072 93.0417 21.152C93.1697 21.224 93.3337 21.28 93.5337 21.32C93.7417 21.36 93.9937 21.38 94.2897 21.38C94.5937 21.38 94.8097 21.46 94.9377 21.62C95.0657 21.772 95.1297 21.964 95.1297 22.196C95.1297 22.444 95.0457 22.652 94.8777 22.82C94.7177 22.98 94.4817 23.06 94.1697 23.06C93.8097 23.06 93.4817 23.032 93.1857 22.976C92.8977 22.92 92.6457 22.828 92.4297 22.7C92.2217 22.564 92.0497 22.388 91.9137 22.172C91.7857 21.948 91.7057 21.676 91.6737 21.356H92.2497C92.1057 21.74 91.9217 22.048 91.6977 22.28C91.4817 22.504 91.2377 22.672 90.9657 22.784C90.6937 22.896 90.4097 22.968 90.1137 23C89.8257 23.04 89.5417 23.06 89.2617 23.06ZM93.1137 17.768C92.8817 17.768 92.6817 17.688 92.5137 17.528C92.3537 17.36 92.2737 17.164 92.2737 16.94C92.2737 16.708 92.3537 16.508 92.5137 16.34C92.6817 16.172 92.8817 16.088 93.1137 16.088C93.3377 16.088 93.5297 16.172 93.6897 16.34C93.8497 16.508 93.9297 16.708 93.9297 16.94C93.9297 17.164 93.8497 17.36 93.6897 17.528C93.5297 17.688 93.3377 17.768 93.1137 17.768ZM91.0377 17.756C90.8057 17.756 90.6057 17.676 90.4377 17.516C90.2777 17.348 90.1977 17.152 90.1977 16.928C90.1977 16.696 90.2777 16.496 90.4377 16.328C90.6057 16.16 90.8057 16.076 91.0377 16.076C91.2617 16.076 91.4537 16.16 91.6137 16.328C91.7737 16.496 91.8537 16.696 91.8537 16.928C91.8537 17.152 91.7737 17.348 91.6137 17.516C91.4537 17.676 91.2617 17.756 91.0377 17.756ZM94.1719 23.06L94.2919 21.38C94.6439 21.38 94.9199 21.356 95.1199 21.308C95.3279 21.26 95.4759 21.172 95.5639 21.044C95.6519 20.908 95.6959 20.716 95.6959 20.468C95.6959 20.244 95.6639 19.976 95.5999 19.664C95.5439 19.352 95.4679 19.028 95.3719 18.692C95.2759 18.356 95.1799 18.048 95.0839 17.768L96.7399 17.312C96.8359 17.584 96.9319 17.9 97.0279 18.26C97.1239 18.62 97.2039 18.992 97.2679 19.376C97.3399 19.752 97.3759 20.116 97.3759 20.468C97.3759 20.908 97.3199 21.28 97.2079 21.584C97.0959 21.88 96.9399 22.128 96.7399 22.328C96.5479 22.52 96.3159 22.672 96.0439 22.784C95.7799 22.888 95.4879 22.96 95.1679 23C94.8479 23.04 94.5159 23.06 94.1719 23.06ZM95.6479 25.82C95.4159 25.82 95.2159 25.74 95.0479 25.58C94.8879 25.42 94.8079 25.224 94.8079 24.992C94.8079 24.76 94.8879 24.556 95.0479 24.38C95.2159 24.212 95.4159 24.128 95.6479 24.128C95.8799 24.128 96.0759 24.212 96.2359 24.38C96.4039 24.556 96.4879 24.76 96.4879 24.992C96.4879 25.224 96.4039 25.42 96.2359 25.58C96.0759 25.74 95.8799 25.82 95.6479 25.82ZM102.082 27.716C101.898 27.06 101.746 26.436 101.626 25.844C101.506 25.26 101.418 24.728 101.362 24.248C101.306 23.776 101.278 23.38 101.278 23.06C101.278 22.348 101.39 21.716 101.614 21.164C101.846 20.604 102.142 20.124 102.502 19.724C102.87 19.316 103.262 18.98 103.678 18.716C104.102 18.452 104.51 18.256 104.902 18.128C105.302 18 105.642 17.936 105.922 17.936C106.21 17.936 106.446 18.012 106.63 18.164C106.822 18.316 106.99 18.536 107.134 18.824C107.286 19.104 107.446 19.444 107.614 19.844C107.806 20.276 107.974 20.604 108.118 20.828C108.27 21.044 108.426 21.192 108.586 21.272C108.746 21.344 108.926 21.38 109.126 21.38C109.43 21.38 109.65 21.46 109.786 21.62C109.922 21.772 109.99 21.964 109.99 22.196C109.99 22.444 109.906 22.652 109.738 22.82C109.57 22.98 109.326 23.06 109.006 23.06C108.614 23.06 108.274 22.996 107.986 22.868C107.698 22.732 107.438 22.54 107.206 22.292L107.542 21.92C107.47 22.168 107.37 22.392 107.242 22.592C107.122 22.784 106.958 22.936 106.75 23.048C106.55 23.16 106.298 23.216 105.994 23.216C105.722 23.216 105.45 23.176 105.178 23.096C104.914 23.016 104.654 22.896 104.398 22.736C104.15 22.576 103.91 22.38 103.678 22.148C103.446 21.908 103.226 21.632 103.018 21.32L103.462 21.236C103.286 21.508 103.158 21.812 103.078 22.148C102.998 22.484 102.958 22.816 102.958 23.144C102.958 23.4 102.978 23.696 103.018 24.032C103.066 24.376 103.126 24.736 103.198 25.112C103.27 25.496 103.35 25.872 103.438 26.24C103.534 26.616 103.626 26.96 103.714 27.272L102.082 27.716ZM105.97 21.524C106.122 21.524 106.242 21.504 106.33 21.464C106.426 21.416 106.486 21.348 106.51 21.26C106.542 21.172 106.534 21.068 106.486 20.948C106.406 20.732 106.326 20.544 106.246 20.384C106.174 20.224 106.102 20.088 106.03 19.976C105.966 19.864 105.898 19.78 105.826 19.724C105.762 19.668 105.694 19.64 105.622 19.64C105.518 19.64 105.39 19.676 105.238 19.748C105.086 19.812 104.934 19.892 104.782 19.988C104.63 20.084 104.502 20.18 104.398 20.276C104.294 20.364 104.234 20.432 104.218 20.48L104.074 20.084C104.218 20.364 104.39 20.616 104.59 20.84C104.798 21.056 105.022 21.224 105.262 21.344C105.502 21.464 105.738 21.524 105.97 21.524ZM109.031 23.06L109.151 21.392C109.815 21.392 110.347 21.388 110.747 21.38C111.155 21.372 111.471 21.356 111.695 21.332C111.927 21.3 112.099 21.264 112.211 21.224C112.323 21.176 112.419 21.124 112.499 21.068C112.595 20.996 112.675 20.9 112.739 20.78C112.811 20.652 112.867 20.484 112.907 20.276C112.947 20.068 112.967 19.808 112.967 19.496C112.967 19.104 112.931 18.776 112.859 18.512C112.795 18.24 112.699 18.036 112.571 17.9C112.451 17.764 112.303 17.696 112.127 17.696C111.999 17.696 111.879 17.74 111.767 17.828C111.655 17.908 111.563 18.02 111.491 18.164C111.419 18.308 111.383 18.472 111.383 18.656C111.383 18.76 111.411 18.852 111.467 18.932C111.523 19.012 111.611 19.072 111.731 19.112C111.851 19.152 112.003 19.172 112.187 19.172C112.363 19.172 112.547 19.152 112.739 19.112C112.939 19.064 113.123 19 113.291 18.92L113.339 20.348C113.211 20.436 113.063 20.516 112.895 20.588C112.727 20.66 112.547 20.716 112.355 20.756C112.171 20.788 111.983 20.804 111.791 20.804C111.367 20.804 110.999 20.748 110.687 20.636C110.383 20.516 110.147 20.324 109.979 20.06C109.811 19.796 109.727 19.436 109.727 18.98C109.727 18.628 109.787 18.28 109.907 17.936C110.027 17.584 110.199 17.268 110.423 16.988C110.647 16.7 110.911 16.472 111.215 16.304C111.519 16.128 111.855 16.04 112.223 16.04C112.767 16.04 113.215 16.2 113.567 16.52C113.927 16.832 114.191 17.256 114.359 17.792C114.535 18.32 114.623 18.908 114.623 19.556C114.623 20.124 114.539 20.62 114.371 21.044C114.203 21.46 114.003 21.788 113.771 22.028C113.579 22.228 113.359 22.396 113.111 22.532C112.863 22.668 112.559 22.776 112.199 22.856C111.847 22.928 111.411 22.98 110.891 23.012C110.379 23.044 109.759 23.06 109.031 23.06ZM113.243 14.948C113.011 14.948 112.811 14.868 112.643 14.708C112.483 14.54 112.403 14.344 112.403 14.12C112.403 13.888 112.483 13.688 112.643 13.52C112.811 13.352 113.011 13.268 113.243 13.268C113.467 13.268 113.659 13.352 113.819 13.52C113.979 13.688 114.059 13.888 114.059 14.12C114.059 14.344 113.979 14.54 113.819 14.708C113.659 14.868 113.467 14.948 113.243 14.948ZM111.167 14.936C110.935 14.936 110.735 14.856 110.567 14.696C110.407 14.528 110.327 14.332 110.327 14.108C110.327 13.876 110.407 13.676 110.567 13.508C110.735 13.34 110.935 13.256 111.167 13.256C111.391 13.256 111.583 13.34 111.743 13.508C111.903 13.676 111.983 13.876 111.983 14.108C111.983 14.332 111.903 14.528 111.743 14.696C111.583 14.856 111.391 14.936 111.167 14.936Z" fill="white"/>
</svg>
