<svg width="140" height="36" viewBox="0 0 140 36" fill="none" xmlns="http://www.w3.org/2000/svg">
<rect x="0.5" y="0.5" width="139" height="35" rx="3.5" fill="#FF99C9"/>
<rect x="0.5" y="0.5" width="139" height="35" rx="3.5" stroke="#EBEBEB"/>
<path d="M38.612 13.688H49.388V15.14H38.612V13.688ZM42.968 14.996H44.516V24.056H42.968V14.996ZM43.784 17.9L44.768 16.76C46.076 17.408 47.96 18.452 48.884 19.196L47.816 20.516C46.964 19.76 45.14 18.632 43.784 17.9ZM58.832 13.58L59.876 12.932C60.38 13.412 61.004 14.096 61.292 14.564L60.176 15.296C59.924 14.828 59.324 14.108 58.832 13.58ZM50.54 15.416H61.472V16.532H50.54V15.416ZM51.14 13.628H56.504V14.72H51.14V13.628ZM53.168 12.812H54.536V16.04H53.168V12.812ZM57.104 12.824H58.52C58.388 17.948 59.072 22.592 60.176 22.592C60.404 22.592 60.512 22.1 60.584 20.84C60.86 21.164 61.328 21.464 61.664 21.608C61.46 23.468 61.04 23.972 60.044 23.972C57.596 23.972 57.104 18.536 57.104 12.824ZM59.828 17.06L61.112 17.42C60.296 20.264 58.952 22.604 56.948 24.164C56.732 23.852 56.312 23.432 55.976 23.168C57.836 21.884 59.144 19.664 59.828 17.06ZM50.708 17.444H56.84V18.572H50.708V17.444ZM53.684 18.824H55.016V24.032H53.684V18.824ZM51.26 20.912C51.188 20.636 50.984 20 50.816 19.652C51.032 19.592 51.236 19.376 51.44 19.064C51.668 18.74 52.328 17.564 52.7 16.412L54.092 16.784C53.54 18.056 52.736 19.376 52.028 20.216V20.252C52.028 20.252 51.26 20.66 51.26 20.912ZM51.26 20.912V19.904L51.884 19.532H56.684L56.672 20.72H52.256C51.788 20.72 51.368 20.792 51.26 20.912ZM50.648 21.692C52.196 21.608 54.608 21.428 56.888 21.26L56.876 22.412C54.704 22.628 52.4 22.832 50.78 22.976L50.648 21.692ZM70.9704 13.904H72.1104V25.784H70.9704V13.904ZM79.0049 14.9H88.9289V20.924H87.4169V16.316H80.4569V20.984H79.0049V14.9ZM79.7609 18.896H88.2569V20.312H79.7609V18.896ZM83.1689 12.812H84.6929V24.08H83.1689V12.812ZM98.2529 15.488L99.7889 15.932C98.2769 20.252 95.4809 22.772 91.1849 24.116C91.0169 23.756 90.5609 23.06 90.2729 22.712C94.4249 21.62 97.0049 19.4 98.2529 15.488ZM93.6209 15.584C94.8329 19.136 97.4249 21.692 101.697 22.652C101.349 22.988 100.881 23.672 100.653 24.092C96.1529 22.916 93.6809 20.168 92.1809 16.016L93.6209 15.584ZM90.4889 14.708H101.481V16.124H90.4889V14.708ZM95.2049 12.812H96.6929V15.572H95.2049V12.812Z" fill="black"/>
</svg>
