<svg width="140" height="36" viewBox="0 0 140 36" fill="none" xmlns="http://www.w3.org/2000/svg">
<rect x="0.5" y="0.5" width="139" height="35" rx="3.5" fill="#080708"/>
<rect x="0.5" y="0.5" width="139" height="35" rx="3.5" stroke="#EBEBEB"/>
<path d="M20.624 18.632C20.624 19.592 20.44 20.396 20.072 21.044C19.712 21.692 19.188 22.18 18.5 22.508C17.82 22.836 16.996 23 16.028 23H13.616V14.432H16.28C17.168 14.432 17.936 14.592 18.584 14.912C19.232 15.232 19.732 15.704 20.084 16.328C20.444 16.944 20.624 17.712 20.624 18.632ZM19.016 18.68C19.016 18 18.912 17.44 18.704 17C18.496 16.56 18.188 16.236 17.78 16.028C17.372 15.812 16.872 15.704 16.28 15.704H15.152V21.716H16.076C17.068 21.716 17.804 21.464 18.284 20.96C18.772 20.448 19.016 19.688 19.016 18.68ZM28.1159 19.736C28.1159 20.28 28.0439 20.76 27.8999 21.176C27.7559 21.592 27.5479 21.948 27.2759 22.244C27.0119 22.532 26.6839 22.752 26.2919 22.904C25.9079 23.048 25.4799 23.12 25.0079 23.12C24.5599 23.12 24.1479 23.048 23.7719 22.904C23.3959 22.752 23.0679 22.532 22.7879 22.244C22.5159 21.948 22.3039 21.592 22.1519 21.176C21.9999 20.76 21.9239 20.28 21.9239 19.736C21.9239 19.016 22.0479 18.408 22.2959 17.912C22.5439 17.408 22.8999 17.028 23.3639 16.772C23.8359 16.508 24.3919 16.376 25.0319 16.376C25.6399 16.376 26.1719 16.508 26.6279 16.772C27.0919 17.028 27.4559 17.408 27.7199 17.912C27.9839 18.408 28.1159 19.016 28.1159 19.736ZM23.4719 19.736C23.4719 20.192 23.5239 20.584 23.6279 20.912C23.7399 21.232 23.9079 21.476 24.1319 21.644C24.3639 21.812 24.6599 21.896 25.0199 21.896C25.3879 21.896 25.6839 21.812 25.9079 21.644C26.1399 21.476 26.3079 21.232 26.4119 20.912C26.5159 20.584 26.5679 20.192 26.5679 19.736C26.5679 19.272 26.5119 18.884 26.3999 18.572C26.2959 18.252 26.1279 18.012 25.8959 17.852C25.6719 17.684 25.3799 17.6 25.0199 17.6C24.4759 17.6 24.0799 17.784 23.8319 18.152C23.5919 18.52 23.4719 19.048 23.4719 19.736ZM34.0527 20.204C34.0127 20.052 33.9647 19.864 33.9087 19.64C33.8527 19.408 33.7927 19.168 33.7287 18.92C33.6727 18.672 33.6167 18.444 33.5607 18.236C33.5127 18.028 33.4807 17.868 33.4647 17.756H33.4167C33.3927 17.868 33.3567 18.028 33.3087 18.236C33.2607 18.444 33.2087 18.672 33.1527 18.92C33.0967 19.168 33.0367 19.408 32.9727 19.64C32.9167 19.872 32.8687 20.064 32.8287 20.216L32.0727 23H30.4167L28.5927 16.484H30.1167L30.9207 19.592C30.9767 19.8 31.0287 20.036 31.0767 20.3C31.1327 20.564 31.1807 20.82 31.2207 21.068C31.2607 21.308 31.2887 21.504 31.3047 21.656H31.3527C31.3687 21.552 31.3887 21.416 31.4127 21.248C31.4367 21.072 31.4647 20.892 31.4967 20.708C31.5367 20.516 31.5727 20.34 31.6047 20.18C31.6447 20.02 31.6767 19.896 31.7007 19.808L32.6367 16.484H34.2927L35.1927 19.808C35.2327 19.952 35.2767 20.14 35.3247 20.372C35.3727 20.604 35.4167 20.836 35.4567 21.068C35.4967 21.3 35.5207 21.492 35.5287 21.644H35.5767C35.5927 21.508 35.6207 21.324 35.6607 21.092C35.7007 20.852 35.7487 20.596 35.8047 20.324C35.8607 20.052 35.9207 19.808 35.9847 19.592L36.8007 16.484H38.3007L36.4527 23H34.7727L34.0527 20.204ZM42.8856 16.376C43.6136 16.376 44.1816 16.564 44.5896 16.94C45.0056 17.316 45.2136 17.924 45.2136 18.764V23H43.7016V19.064C43.7016 18.576 43.6056 18.212 43.4136 17.972C43.2216 17.724 42.9176 17.6 42.5016 17.6C41.8936 17.6 41.4776 17.792 41.2536 18.176C41.0296 18.552 40.9176 19.1 40.9176 19.82V23H39.4056V16.496H40.5696L40.7856 17.348H40.8696C41.0136 17.124 41.1896 16.94 41.3976 16.796C41.6056 16.652 41.8376 16.548 42.0936 16.484C42.3496 16.412 42.6136 16.376 42.8856 16.376ZM48.6168 23H47.1048V13.88H48.6168V23ZM56.3581 19.736C56.3581 20.28 56.2861 20.76 56.1421 21.176C55.9981 21.592 55.7901 21.948 55.5181 22.244C55.2541 22.532 54.9261 22.752 54.5341 22.904C54.1501 23.048 53.7221 23.12 53.2501 23.12C52.8021 23.12 52.3901 23.048 52.0141 22.904C51.6381 22.752 51.3101 22.532 51.0301 22.244C50.7581 21.948 50.5461 21.592 50.3941 21.176C50.2421 20.76 50.1661 20.28 50.1661 19.736C50.1661 19.016 50.2901 18.408 50.5381 17.912C50.7861 17.408 51.1421 17.028 51.6061 16.772C52.0781 16.508 52.6341 16.376 53.2741 16.376C53.8821 16.376 54.4141 16.508 54.8701 16.772C55.3341 17.028 55.6981 17.408 55.9621 17.912C56.2261 18.408 56.3581 19.016 56.3581 19.736ZM51.7141 19.736C51.7141 20.192 51.7661 20.584 51.8701 20.912C51.9821 21.232 52.1501 21.476 52.3741 21.644C52.6061 21.812 52.9021 21.896 53.2621 21.896C53.6301 21.896 53.9261 21.812 54.1501 21.644C54.3821 21.476 54.5501 21.232 54.6541 20.912C54.7581 20.584 54.8101 20.192 54.8101 19.736C54.8101 19.272 54.7541 18.884 54.6421 18.572C54.5381 18.252 54.3701 18.012 54.1381 17.852C53.9141 17.684 53.6221 17.6 53.2621 17.6C52.7181 17.6 52.3221 17.784 52.0741 18.152C51.8341 18.52 51.7141 19.048 51.7141 19.736ZM60.5132 16.376C61.3532 16.376 61.9892 16.56 62.4212 16.928C62.8612 17.288 63.0812 17.856 63.0812 18.632V23H62.0132L61.7132 22.1H61.6652C61.4812 22.332 61.2892 22.528 61.0892 22.688C60.8972 22.84 60.6732 22.948 60.4172 23.012C60.1692 23.084 59.8652 23.12 59.5052 23.12C59.1212 23.12 58.7732 23.048 58.4612 22.904C58.1572 22.76 57.9172 22.54 57.7412 22.244C57.5652 21.94 57.4772 21.56 57.4772 21.104C57.4772 20.432 57.7212 19.928 58.2092 19.592C58.7052 19.248 59.4532 19.06 60.4532 19.028L61.5812 18.992V18.668C61.5812 18.252 61.4812 17.956 61.2812 17.78C61.0812 17.604 60.8012 17.516 60.4412 17.516C60.1132 17.516 59.7972 17.564 59.4932 17.66C59.1892 17.756 58.8932 17.868 58.6052 17.996L58.1252 16.94C58.4452 16.772 58.8092 16.636 59.2172 16.532C59.6332 16.428 60.0652 16.376 60.5132 16.376ZM60.7892 19.952C60.1252 19.976 59.6652 20.092 59.4092 20.3C59.1532 20.5 59.0252 20.772 59.0252 21.116C59.0252 21.42 59.1172 21.64 59.3012 21.776C59.4852 21.912 59.7212 21.98 60.0092 21.98C60.4492 21.98 60.8212 21.856 61.1252 21.608C61.4292 21.352 61.5812 20.976 61.5812 20.48V19.928L60.7892 19.952ZM67.1239 23.12C66.3719 23.12 65.7599 22.84 65.2879 22.28C64.8239 21.712 64.5919 20.872 64.5919 19.76C64.5919 18.648 64.8279 17.808 65.2999 17.24C65.7719 16.664 66.3919 16.376 67.1599 16.376C67.4799 16.376 67.7599 16.42 67.9999 16.508C68.2479 16.588 68.4599 16.7 68.6359 16.844C68.8119 16.988 68.9599 17.148 69.0799 17.324H69.1519C69.1279 17.212 69.1039 17.04 69.0799 16.808C69.0559 16.576 69.0439 16.36 69.0439 16.16V13.88H70.5559V23H69.3799L69.1039 22.148H69.0439C68.9239 22.324 68.7759 22.488 68.5999 22.64C68.4239 22.784 68.2159 22.9 67.9759 22.988C67.7359 23.076 67.4519 23.12 67.1239 23.12ZM67.5799 21.896C68.1399 21.896 68.5359 21.736 68.7679 21.416C68.9999 21.096 69.1159 20.612 69.1159 19.964V19.772C69.1159 19.068 69.0039 18.532 68.7799 18.164C68.5639 17.796 68.1559 17.612 67.5559 17.612C67.0999 17.612 66.7479 17.804 66.4999 18.188C66.2519 18.564 66.1279 19.096 66.1279 19.784C66.1279 20.472 66.2519 20.996 66.4999 21.356C66.7479 21.716 67.1079 21.896 67.5799 21.896ZM77.3688 13.904H78.5088V25.784H77.3688V13.904ZM90.3474 23H85.4754V14.432H90.3474V15.716H87.0114V17.9H90.1314V19.184H87.0114V21.704H90.3474V23ZM95.5028 16.376C96.2308 16.376 96.7988 16.564 97.2068 16.94C97.6228 17.316 97.8308 17.924 97.8308 18.764V23H96.3188V19.064C96.3188 18.576 96.2228 18.212 96.0308 17.972C95.8388 17.724 95.5348 17.6 95.1188 17.6C94.5108 17.6 94.0948 17.792 93.8708 18.176C93.6468 18.552 93.5348 19.1 93.5348 19.82V23H92.0228V16.496H93.1868L93.4028 17.348H93.4868C93.6308 17.124 93.8068 16.94 94.0148 16.796C94.2228 16.652 94.4548 16.548 94.7108 16.484C94.9668 16.412 95.2308 16.376 95.5028 16.376ZM101.906 16.376C102.314 16.376 102.682 16.456 103.01 16.616C103.338 16.776 103.614 17.016 103.838 17.336H103.898L104.042 16.496H105.302V23.048C105.302 23.664 105.186 24.18 104.954 24.596C104.722 25.02 104.374 25.34 103.91 25.556C103.446 25.772 102.866 25.88 102.17 25.88C101.706 25.88 101.278 25.848 100.886 25.784C100.494 25.728 100.122 25.628 99.77 25.484V24.236C100.018 24.34 100.274 24.428 100.538 24.5C100.81 24.58 101.09 24.64 101.378 24.68C101.666 24.72 101.962 24.74 102.266 24.74C102.762 24.74 103.138 24.6 103.394 24.32C103.658 24.04 103.79 23.64 103.79 23.12V22.952C103.79 22.832 103.794 22.692 103.802 22.532C103.818 22.372 103.83 22.244 103.838 22.148H103.79C103.566 22.484 103.294 22.732 102.974 22.892C102.654 23.044 102.286 23.12 101.87 23.12C101.078 23.12 100.458 22.824 100.01 22.232C99.562 21.64 99.338 20.816 99.338 19.76C99.338 19.048 99.438 18.44 99.638 17.936C99.846 17.432 100.142 17.048 100.526 16.784C100.91 16.512 101.37 16.376 101.906 16.376ZM102.302 17.612C101.998 17.612 101.738 17.696 101.522 17.864C101.314 18.024 101.154 18.264 101.042 18.584C100.938 18.904 100.886 19.304 100.886 19.784C100.886 20.488 101.006 21.02 101.246 21.38C101.486 21.74 101.846 21.92 102.326 21.92C102.598 21.92 102.83 21.888 103.022 21.824C103.214 21.752 103.37 21.64 103.49 21.488C103.618 21.328 103.714 21.128 103.778 20.888C103.842 20.64 103.874 20.344 103.874 20V19.772C103.874 19.252 103.818 18.836 103.706 18.524C103.594 18.204 103.422 17.972 103.19 17.828C102.966 17.684 102.67 17.612 102.302 17.612ZM108.746 23H107.234V13.88H108.746V23ZM112.191 16.496V23H110.679V16.496H112.191ZM111.435 13.988C111.659 13.988 111.855 14.048 112.023 14.168C112.191 14.28 112.275 14.484 112.275 14.78C112.275 15.068 112.191 15.276 112.023 15.404C111.855 15.524 111.659 15.584 111.435 15.584C111.203 15.584 111.003 15.524 110.835 15.404C110.675 15.276 110.595 15.068 110.595 14.78C110.595 14.484 110.675 14.28 110.835 14.168C111.003 14.048 111.203 13.988 111.435 13.988ZM118.552 21.116C118.552 21.548 118.448 21.916 118.24 22.22C118.032 22.516 117.724 22.74 117.316 22.892C116.916 23.044 116.424 23.12 115.84 23.12C115.384 23.12 114.992 23.088 114.664 23.024C114.336 22.96 114.024 22.86 113.728 22.724V21.44C114.048 21.592 114.404 21.72 114.796 21.824C115.188 21.928 115.552 21.98 115.888 21.98C116.304 21.98 116.604 21.916 116.788 21.788C116.972 21.66 117.064 21.488 117.064 21.272C117.064 21.144 117.028 21.028 116.956 20.924C116.884 20.82 116.744 20.712 116.536 20.6C116.328 20.48 116.012 20.332 115.588 20.156C115.172 19.988 114.824 19.82 114.544 19.652C114.272 19.484 114.064 19.284 113.92 19.052C113.784 18.812 113.716 18.512 113.716 18.152C113.716 17.568 113.948 17.128 114.412 16.832C114.876 16.528 115.488 16.376 116.248 16.376C116.648 16.376 117.024 16.416 117.376 16.496C117.736 16.568 118.096 16.688 118.456 16.856L117.976 17.972C117.776 17.884 117.576 17.808 117.376 17.744C117.184 17.672 116.988 17.616 116.788 17.576C116.596 17.536 116.4 17.516 116.2 17.516C115.872 17.516 115.624 17.568 115.456 17.672C115.288 17.768 115.204 17.904 115.204 18.08C115.204 18.216 115.244 18.336 115.324 18.44C115.412 18.536 115.56 18.636 115.768 18.74C115.984 18.836 116.288 18.964 116.68 19.124C117.072 19.276 117.404 19.436 117.676 19.604C117.956 19.764 118.172 19.964 118.324 20.204C118.476 20.444 118.552 20.748 118.552 21.116ZM121.519 16.052C121.519 16.308 121.507 16.56 121.483 16.808C121.467 17.048 121.451 17.228 121.435 17.348H121.531C121.667 17.124 121.835 16.944 122.035 16.808C122.235 16.664 122.455 16.556 122.695 16.484C122.943 16.412 123.199 16.376 123.463 16.376C123.951 16.376 124.371 16.46 124.723 16.628C125.075 16.796 125.343 17.056 125.527 17.408C125.719 17.752 125.815 18.204 125.815 18.764V23H124.303V19.064C124.303 18.568 124.207 18.2 124.015 17.96C123.823 17.72 123.519 17.6 123.103 17.6C122.703 17.6 122.387 17.688 122.155 17.864C121.923 18.032 121.759 18.284 121.663 18.62C121.567 18.948 121.519 19.352 121.519 19.832V23H120.007V13.88H121.519V16.052Z" fill="white"/>
</svg>
