<svg width="140" height="36" viewBox="0 0 140 36" fill="none" xmlns="http://www.w3.org/2000/svg">
<rect x="0.5" y="0.5" width="139" height="35" rx="3.5" fill="#3772FF"/>
<rect x="0.5" y="0.5" width="139" height="35" rx="3.5" stroke="#EBEBEB"/>
<path d="M12.812 22.664C12.812 22.48 12.828 22.264 12.86 22.016C12.892 21.768 12.952 21.488 13.04 21.176C13.128 20.856 13.26 20.5 13.436 20.108L14.912 20.624C14.824 20.872 14.748 21.1 14.684 21.308C14.62 21.508 14.572 21.696 14.54 21.872C14.508 22.04 14.492 22.208 14.492 22.376C14.492 22.64 14.548 22.876 14.66 23.084C14.78 23.3 14.952 23.48 15.176 23.624C15.4 23.776 15.672 23.892 15.992 23.972C16.32 24.052 16.696 24.092 17.12 24.092C17.56 24.092 17.952 24.072 18.296 24.032C18.648 23.992 18.944 23.932 19.184 23.852C19.432 23.772 19.62 23.668 19.748 23.54C19.876 23.42 19.94 23.28 19.94 23.12C19.94 23.048 19.912 22.98 19.856 22.916C19.808 22.852 19.724 22.784 19.604 22.712C19.492 22.64 19.34 22.564 19.148 22.484C18.964 22.404 18.74 22.316 18.476 22.22L18.872 20.528C19.216 20.672 19.54 20.8 19.844 20.912C20.156 21.016 20.452 21.104 20.732 21.176C21.012 21.24 21.276 21.292 21.524 21.332C21.772 21.364 22.004 21.38 22.22 21.38C22.524 21.38 22.74 21.46 22.868 21.62C22.996 21.772 23.06 21.964 23.06 22.196C23.06 22.444 22.976 22.652 22.808 22.82C22.64 22.98 22.404 23.06 22.1 23.06C22.036 23.06 21.972 23.06 21.908 23.06C21.852 23.06 21.792 23.06 21.728 23.06C21.672 23.06 21.612 23.06 21.548 23.06C21.564 23.14 21.572 23.208 21.572 23.264C21.572 23.328 21.572 23.388 21.572 23.444C21.572 23.708 21.48 23.976 21.296 24.248C21.12 24.52 20.844 24.772 20.468 25.004C20.092 25.236 19.612 25.42 19.028 25.556C18.452 25.7 17.764 25.772 16.964 25.772C16.1 25.772 15.356 25.66 14.732 25.436C14.116 25.22 13.64 24.88 13.304 24.416C12.976 23.96 12.812 23.376 12.812 22.664ZM22.0977 23.06L22.2177 21.38C22.4817 21.38 22.6977 21.36 22.8657 21.32C23.0337 21.272 23.1697 21.172 23.2737 21.02C23.3857 20.86 23.4817 20.624 23.5617 20.312C23.6497 19.992 23.7457 19.56 23.8497 19.016L25.4097 19.304C25.3857 19.424 25.3577 19.564 25.3257 19.724C25.2937 19.884 25.2657 20.048 25.2417 20.216C25.2177 20.376 25.2057 20.52 25.2057 20.648C25.2057 20.872 25.2777 21.052 25.4217 21.188C25.5657 21.316 25.8377 21.38 26.2377 21.38C26.4377 21.38 26.6097 21.36 26.7537 21.32C26.9057 21.272 27.0337 21.172 27.1377 21.02C27.2497 20.86 27.3457 20.616 27.4257 20.288C27.5137 19.952 27.5977 19.5 27.6777 18.932L29.2617 19.184C29.2297 19.368 29.1977 19.564 29.1657 19.772C29.1337 19.98 29.1057 20.172 29.0817 20.348C29.0577 20.524 29.0457 20.668 29.0457 20.78C29.0457 20.884 29.0737 20.984 29.1297 21.08C29.1937 21.168 29.3057 21.24 29.4657 21.296C29.6337 21.352 29.8697 21.38 30.1737 21.38C30.3897 21.38 30.5737 21.352 30.7257 21.296C30.8857 21.24 31.0057 21.148 31.0857 21.02C31.1737 20.892 31.2177 20.724 31.2177 20.516C31.2177 20.22 31.1497 19.832 31.0137 19.352C30.8777 18.872 30.7177 18.368 30.5337 17.84L32.2257 17.336C32.3537 17.68 32.4657 18.048 32.5617 18.44C32.6657 18.824 32.7457 19.2 32.8017 19.568C32.8657 19.928 32.8977 20.244 32.8977 20.516C32.8977 20.924 32.8337 21.288 32.7057 21.608C32.5777 21.92 32.3977 22.184 32.1657 22.4C31.9337 22.616 31.6577 22.78 31.3377 22.892C31.0177 23.004 30.6657 23.06 30.2817 23.06C29.8177 23.06 29.4377 23.016 29.1417 22.928C28.8457 22.832 28.6177 22.676 28.4577 22.46C28.3057 22.236 28.2057 21.932 28.1577 21.548H28.5657C28.3977 22.02 28.2097 22.364 28.0017 22.58C27.7937 22.788 27.5457 22.92 27.2577 22.976C26.9777 23.032 26.6257 23.06 26.2017 23.06C25.9377 23.06 25.6657 23.032 25.3857 22.976C25.1137 22.912 24.8697 22.768 24.6537 22.544C24.4377 22.32 24.2777 21.972 24.1737 21.5L24.8217 21.476C24.6537 21.948 24.4337 22.296 24.1617 22.52C23.8977 22.744 23.5937 22.892 23.2497 22.964C22.9057 23.028 22.5217 23.06 22.0977 23.06ZM33.692 25.76L33.08 24.224C33.768 23.984 34.324 23.72 34.748 23.432C35.18 23.144 35.496 22.836 35.696 22.508C35.904 22.18 36.008 21.84 36.008 21.488C36.008 21.264 35.976 21.032 35.912 20.792C35.848 20.544 35.756 20.284 35.636 20.012C35.524 19.74 35.388 19.456 35.228 19.16L36.8 18.404C37.08 18.94 37.296 19.452 37.448 19.94C37.608 20.428 37.688 20.884 37.688 21.308C37.688 21.7 37.636 22.076 37.532 22.436C37.436 22.796 37.284 23.132 37.076 23.444C36.876 23.764 36.616 24.064 36.296 24.344C35.976 24.624 35.6 24.88 35.168 25.112C34.736 25.352 34.244 25.568 33.692 25.76ZM42.2142 23.06C41.4702 23.06 40.8942 22.984 40.4862 22.832C40.0862 22.68 39.8062 22.444 39.6462 22.124C39.4862 21.796 39.3942 21.384 39.3702 20.888L39.1182 14.216H40.7982L41.0502 20.084C41.0662 20.452 41.1062 20.728 41.1702 20.912C41.2342 21.096 41.3542 21.22 41.5302 21.284C41.7142 21.348 41.9822 21.38 42.3342 21.38C42.6382 21.38 42.8542 21.46 42.9822 21.62C43.1182 21.772 43.1862 21.964 43.1862 22.196C43.1862 22.444 43.1022 22.652 42.9342 22.82C42.7662 22.98 42.5262 23.06 42.2142 23.06ZM42.2305 23.06L42.3505 21.392C43.0145 21.392 43.5465 21.388 43.9465 21.38C44.3545 21.372 44.6705 21.356 44.8945 21.332C45.1265 21.3 45.2985 21.264 45.4105 21.224C45.5225 21.176 45.6185 21.124 45.6985 21.068C45.7945 20.996 45.8745 20.9 45.9385 20.78C46.0105 20.652 46.0665 20.484 46.1065 20.276C46.1465 20.068 46.1665 19.808 46.1665 19.496C46.1665 19.104 46.1305 18.776 46.0585 18.512C45.9945 18.24 45.8985 18.036 45.7705 17.9C45.6505 17.764 45.5025 17.696 45.3265 17.696C45.1985 17.696 45.0785 17.74 44.9665 17.828C44.8545 17.908 44.7625 18.02 44.6905 18.164C44.6185 18.308 44.5825 18.472 44.5825 18.656C44.5825 18.76 44.6105 18.852 44.6665 18.932C44.7225 19.012 44.8105 19.072 44.9305 19.112C45.0505 19.152 45.2025 19.172 45.3865 19.172C45.5625 19.172 45.7465 19.152 45.9385 19.112C46.1385 19.064 46.3225 19 46.4905 18.92L46.5385 20.348C46.4105 20.436 46.2625 20.516 46.0945 20.588C45.9265 20.66 45.7465 20.716 45.5545 20.756C45.3705 20.788 45.1825 20.804 44.9905 20.804C44.5665 20.804 44.1985 20.748 43.8865 20.636C43.5825 20.516 43.3465 20.324 43.1785 20.06C43.0105 19.796 42.9265 19.436 42.9265 18.98C42.9265 18.628 42.9865 18.28 43.1065 17.936C43.2265 17.584 43.3985 17.268 43.6225 16.988C43.8465 16.7 44.1105 16.472 44.4145 16.304C44.7185 16.128 45.0545 16.04 45.4225 16.04C45.9665 16.04 46.4145 16.2 46.7665 16.52C47.1265 16.832 47.3905 17.256 47.5585 17.792C47.7345 18.32 47.8225 18.908 47.8225 19.556C47.8225 20.124 47.7385 20.62 47.5705 21.044C47.4025 21.46 47.2025 21.788 46.9705 22.028C46.7785 22.228 46.5585 22.396 46.3105 22.532C46.0625 22.668 45.7585 22.776 45.3985 22.856C45.0465 22.928 44.6105 22.98 44.0905 23.012C43.5785 23.044 42.9585 23.06 42.2305 23.06ZM45.3985 14.924C45.1505 14.924 44.9385 14.84 44.7625 14.672C44.5945 14.504 44.5105 14.296 44.5105 14.048C44.5105 13.8 44.5945 13.588 44.7625 13.412C44.9385 13.236 45.1505 13.148 45.3985 13.148C45.6385 13.148 45.8425 13.236 46.0105 13.412C46.1865 13.588 46.2745 13.8 46.2745 14.048C46.2745 14.296 46.1865 14.504 46.0105 14.672C45.8425 14.84 45.6385 14.924 45.3985 14.924ZM54.1423 13.904H55.2823V25.784H54.1423V13.904ZM63.7488 21.38C64.1088 21.38 64.3848 21.348 64.5768 21.284C64.7688 21.22 64.9008 21.136 64.9728 21.032C65.0448 20.928 65.0808 20.816 65.0808 20.696C65.0808 20.504 65.0248 20.28 64.9128 20.024C64.8088 19.768 64.6768 19.5 64.5168 19.22C64.3568 18.94 64.1888 18.672 64.0128 18.416C63.8448 18.16 63.6928 17.936 63.5568 17.744L64.9848 16.796C65.3288 17.26 65.6248 17.72 65.8728 18.176C66.1208 18.624 66.3208 19.04 66.4728 19.424C66.6328 19.808 66.7448 20.136 66.8088 20.408C66.8728 20.664 66.9688 20.864 67.0968 21.008C67.2328 21.144 67.3888 21.24 67.5648 21.296C67.7408 21.352 67.9168 21.38 68.0928 21.38C68.3968 21.38 68.6128 21.46 68.7408 21.62C68.8768 21.772 68.9448 21.964 68.9448 22.196C68.9448 22.444 68.8608 22.652 68.6928 22.82C68.5328 22.98 68.2928 23.06 67.9728 23.06C67.6208 23.06 67.3128 23.012 67.0488 22.916C66.7848 22.82 66.5608 22.668 66.3768 22.46C66.1928 22.252 66.0368 21.988 65.9088 21.668L66.6408 21.824C66.5768 22.048 66.4288 22.256 66.1968 22.448C65.9728 22.632 65.6728 22.784 65.2968 22.904C64.9288 23.016 64.4928 23.072 63.9888 23.072C63.7488 23.072 63.4808 23.052 63.1848 23.012C62.8968 22.972 62.6088 22.912 62.3208 22.832C62.0408 22.752 61.7848 22.648 61.5528 22.52L62.1408 20.996C62.4368 21.124 62.7208 21.22 62.9928 21.284C63.2728 21.348 63.5248 21.38 63.7488 21.38ZM67.9883 23.06L68.1083 21.38C68.3963 21.38 68.6443 21.352 68.8523 21.296C69.0603 21.24 69.2363 21.128 69.3803 20.96C69.5243 20.784 69.6443 20.528 69.7403 20.192C69.8443 19.856 69.9363 19.408 70.0163 18.848L71.5883 19.112C71.5723 19.232 71.5483 19.372 71.5163 19.532C71.4923 19.692 71.4683 19.856 71.4443 20.024C71.4283 20.184 71.4203 20.336 71.4203 20.48C71.4203 20.624 71.4483 20.752 71.5043 20.864C71.5603 20.976 71.6483 21.072 71.7683 21.152C71.8963 21.224 72.0603 21.28 72.2603 21.32C72.4683 21.36 72.7203 21.38 73.0163 21.38C73.3203 21.38 73.5363 21.46 73.6643 21.62C73.7923 21.772 73.8563 21.964 73.8563 22.196C73.8563 22.444 73.7723 22.652 73.6043 22.82C73.4443 22.98 73.2083 23.06 72.8963 23.06C72.5363 23.06 72.2083 23.032 71.9123 22.976C71.6243 22.92 71.3723 22.828 71.1563 22.7C70.9483 22.564 70.7763 22.388 70.6403 22.172C70.5123 21.948 70.4323 21.676 70.4003 21.356H70.9763C70.8323 21.74 70.6483 22.048 70.4243 22.28C70.2083 22.504 69.9643 22.672 69.6923 22.784C69.4203 22.896 69.1363 22.968 68.8403 23C68.5523 23.04 68.2683 23.06 67.9883 23.06ZM71.3363 25.844C71.1043 25.844 70.9043 25.76 70.7363 25.592C70.5763 25.432 70.4963 25.24 70.4963 25.016C70.4963 24.784 70.5763 24.584 70.7363 24.416C70.9043 24.248 71.1043 24.164 71.3363 24.164C71.5603 24.164 71.7523 24.248 71.9123 24.416C72.0723 24.584 72.1523 24.784 72.1523 25.016C72.1523 25.24 72.0723 25.432 71.9123 25.592C71.7523 25.76 71.5603 25.844 71.3363 25.844ZM69.2603 25.844C69.0283 25.844 68.8283 25.76 68.6603 25.592C68.5003 25.432 68.4203 25.24 68.4203 25.016C68.4203 24.784 68.5003 24.584 68.6603 24.416C68.8283 24.248 69.0283 24.164 69.2603 24.164C69.4843 24.164 69.6763 24.248 69.8363 24.416C69.9963 24.584 70.0763 24.784 70.0763 25.016C70.0763 25.24 69.9963 25.432 69.8363 25.592C69.6763 25.76 69.4843 25.844 69.2603 25.844ZM72.8984 23.06L73.0184 21.38C73.3224 21.38 73.5624 21.352 73.7384 21.296C73.9224 21.24 74.0664 21.128 74.1704 20.96C74.2824 20.784 74.3744 20.528 74.4464 20.192C74.5264 19.856 74.6064 19.408 74.6864 18.848L76.2584 19.112C76.2424 19.232 76.2184 19.372 76.1864 19.532C76.1624 19.692 76.1384 19.856 76.1144 20.024C76.0984 20.184 76.0904 20.336 76.0904 20.48C76.0904 20.672 76.1304 20.836 76.2104 20.972C76.2984 21.1 76.4504 21.2 76.6664 21.272C76.8904 21.344 77.2104 21.38 77.6264 21.38C77.9304 21.38 78.1464 21.46 78.2744 21.62C78.4024 21.772 78.4664 21.964 78.4664 22.196C78.4664 22.444 78.3824 22.652 78.2144 22.82C78.0544 22.98 77.8184 23.06 77.5064 23.06C76.9544 23.06 76.5064 23.008 76.1624 22.904C75.8184 22.8 75.5624 22.624 75.3944 22.376C75.2264 22.128 75.1184 21.788 75.0704 21.356H75.6464C75.5024 21.74 75.3344 22.048 75.1424 22.28C74.9504 22.504 74.7344 22.672 74.4944 22.784C74.2544 22.896 73.9984 22.968 73.7264 23C73.4624 23.04 73.1864 23.06 72.8984 23.06ZM75.3464 17.624C75.0984 17.624 74.8864 17.54 74.7104 17.372C74.5424 17.204 74.4584 16.996 74.4584 16.748C74.4584 16.5 74.5424 16.288 74.7104 16.112C74.8864 15.936 75.0984 15.848 75.3464 15.848C75.5864 15.848 75.7904 15.936 75.9584 16.112C76.1344 16.288 76.2224 16.5 76.2224 16.748C76.2224 16.996 76.1344 17.204 75.9584 17.372C75.7904 17.54 75.5864 17.624 75.3464 17.624ZM77.5039 23.06L77.6239 21.38H79.3399C79.5079 21.38 79.6559 21.372 79.7839 21.356C79.9119 21.332 80.0159 21.296 80.0959 21.248C80.1839 21.2 80.2479 21.14 80.2879 21.068C80.3279 20.996 80.3479 20.912 80.3479 20.816C80.3479 20.72 80.2959 20.568 80.1919 20.36C80.0959 20.144 79.8839 19.884 79.5559 19.58C79.3799 19.42 79.1879 19.252 78.9799 19.076C78.7799 18.892 78.5879 18.72 78.4039 18.56C78.2199 18.392 78.0679 18.244 77.9479 18.116C77.8279 17.988 77.7679 17.896 77.7679 17.84C77.7679 17.72 77.7759 17.588 77.7919 17.444C77.8079 17.3 77.8319 17.168 77.8639 17.048C77.9039 16.928 77.9559 16.84 78.0199 16.784C78.1559 16.656 78.3559 16.508 78.6199 16.34C78.8919 16.164 79.2159 15.976 79.5919 15.776C79.9679 15.568 80.3879 15.352 80.8519 15.128C81.3239 14.896 81.8279 14.664 82.3639 14.432L83.0479 15.896C82.6079 16.088 82.1919 16.276 81.7999 16.46C81.4079 16.636 81.0399 16.812 80.6959 16.988C80.3599 17.156 80.0479 17.324 79.7599 17.492C79.4799 17.652 79.2319 17.812 79.0159 17.972L79.1719 17.084C79.8519 17.604 80.3919 18.072 80.7919 18.488C81.1999 18.904 81.5039 19.276 81.7039 19.604C81.9039 19.924 82.0359 20.212 82.0999 20.468C82.1639 20.716 82.1959 20.936 82.1959 21.128C82.1959 21.32 82.1479 21.528 82.0519 21.752C81.9639 21.968 81.7999 22.176 81.5599 22.376C81.3279 22.576 80.9999 22.74 80.5759 22.868C80.1519 22.996 79.6079 23.06 78.9439 23.06H77.5039ZM86.4903 22.52L87.0783 20.996C87.3743 21.124 87.6583 21.22 87.9303 21.284C88.2023 21.348 88.4743 21.38 88.7463 21.38C89.0263 21.38 89.2583 21.356 89.4423 21.308C89.6343 21.252 89.7783 21.172 89.8743 21.068C89.9703 20.964 90.0183 20.84 90.0183 20.696C90.0183 20.56 89.9743 20.372 89.8863 20.132C89.8063 19.892 89.6583 19.58 89.4423 19.196C89.2263 18.804 88.9103 18.32 88.4943 17.744L89.9223 16.796C90.3063 17.34 90.6383 17.872 90.9183 18.392C91.1983 18.904 91.4143 19.384 91.5663 19.832C91.7263 20.272 91.8063 20.66 91.8063 20.996C91.8063 21.412 91.6943 21.776 91.4703 22.088C91.2543 22.392 90.9303 22.632 90.4983 22.808C90.0743 22.984 89.5503 23.072 88.9263 23.072C88.6943 23.072 88.4343 23.052 88.1463 23.012C87.8583 22.972 87.5663 22.912 87.2703 22.832C86.9823 22.752 86.7223 22.648 86.4903 22.52ZM92.9535 25.76L92.6055 24.08C93.1735 24.008 93.6695 23.92 94.0935 23.816C94.5175 23.72 94.8735 23.584 95.1615 23.408C95.4495 23.232 95.6655 22.992 95.8095 22.688C95.9535 22.376 96.0255 21.976 96.0255 21.488C96.0255 21.016 95.9535 20.64 95.8095 20.36C95.6655 20.08 95.4735 19.94 95.2335 19.94C95.0655 19.94 94.9255 20 94.8135 20.12C94.7015 20.232 94.6175 20.368 94.5615 20.528C94.5135 20.68 94.4895 20.816 94.4895 20.936C94.4895 21.008 94.5095 21.084 94.5495 21.164C94.5895 21.244 94.6775 21.312 94.8135 21.368C94.9495 21.424 95.1615 21.456 95.4495 21.464C95.7455 21.472 96.1455 21.444 96.6495 21.38H98.6655C98.9695 21.38 99.1855 21.46 99.3135 21.62C99.4495 21.772 99.5175 21.964 99.5175 22.196C99.5175 22.444 99.4335 22.652 99.2655 22.82C99.0975 22.98 98.8575 23.06 98.5455 23.06H95.2455C94.7415 23.06 94.3095 23 93.9495 22.88C93.5895 22.76 93.3135 22.568 93.1215 22.304C92.9295 22.032 92.8335 21.672 92.8335 21.224C92.8335 20.864 92.8935 20.504 93.0135 20.144C93.1415 19.784 93.3175 19.456 93.5415 19.16C93.7655 18.856 94.0255 18.616 94.3215 18.44C94.6255 18.256 94.9535 18.164 95.3055 18.164C95.7855 18.164 96.2055 18.312 96.5655 18.608C96.9255 18.904 97.2055 19.296 97.4055 19.784C97.6135 20.272 97.7175 20.804 97.7175 21.38C97.7175 22.284 97.5255 23.052 97.1415 23.684C96.7575 24.316 96.2095 24.804 95.4975 25.148C94.7855 25.5 93.9375 25.704 92.9535 25.76ZM98.5625 23.06L98.6825 21.38C99.0585 21.38 99.3225 21.344 99.4745 21.272C99.6345 21.192 99.7305 21.048 99.7625 20.84C99.7945 20.624 99.8025 20.312 99.7865 19.904L99.5945 14.216H101.299L101.503 19.892C101.519 20.292 101.567 20.6 101.646 20.816C101.727 21.032 101.859 21.18 102.043 21.26C102.235 21.34 102.491 21.38 102.811 21.38C103.115 21.38 103.331 21.46 103.459 21.62C103.587 21.772 103.651 21.964 103.651 22.196C103.651 22.444 103.567 22.652 103.399 22.82C103.231 22.98 102.995 23.06 102.691 23.06C102.339 23.06 102.011 23.02 101.707 22.94C101.403 22.86 101.151 22.708 100.951 22.484C100.751 22.26 100.619 21.936 100.555 21.512L101.083 21.524C100.947 21.94 100.771 22.26 100.555 22.484C100.339 22.7 100.067 22.852 99.7385 22.94C99.4185 23.02 99.0265 23.06 98.5625 23.06ZM102.688 23.06L102.808 21.38C103.16 21.38 103.436 21.356 103.636 21.308C103.844 21.26 103.992 21.172 104.08 21.044C104.168 20.908 104.212 20.716 104.212 20.468C104.212 20.244 104.18 19.976 104.116 19.664C104.06 19.352 103.984 19.028 103.888 18.692C103.792 18.356 103.696 18.048 103.6 17.768L105.256 17.312C105.352 17.584 105.448 17.9 105.544 18.26C105.64 18.62 105.72 18.992 105.784 19.376C105.856 19.752 105.892 20.116 105.892 20.468C105.892 20.908 105.836 21.28 105.724 21.584C105.612 21.88 105.456 22.128 105.256 22.328C105.064 22.52 104.832 22.672 104.56 22.784C104.296 22.888 104.004 22.96 103.684 23C103.364 23.04 103.032 23.06 102.688 23.06ZM104.416 16.316C104.168 16.316 103.956 16.232 103.78 16.064C103.612 15.896 103.528 15.688 103.528 15.44C103.528 15.192 103.612 14.98 103.78 14.804C103.956 14.628 104.168 14.54 104.416 14.54C104.656 14.54 104.86 14.628 105.028 14.804C105.204 14.98 105.292 15.192 105.292 15.44C105.292 15.688 105.204 15.896 105.028 16.064C104.86 16.232 104.656 16.316 104.416 16.316ZM107.456 23L107.204 14.216H108.884L109.136 23H107.456ZM110.197 22.52L110.785 20.996C111.081 21.124 111.365 21.22 111.637 21.284C111.909 21.348 112.181 21.38 112.453 21.38C112.733 21.38 112.965 21.356 113.149 21.308C113.341 21.252 113.485 21.172 113.581 21.068C113.677 20.964 113.725 20.84 113.725 20.696C113.725 20.56 113.681 20.372 113.593 20.132C113.513 19.892 113.365 19.58 113.149 19.196C112.933 18.804 112.617 18.32 112.201 17.744L113.629 16.796C114.013 17.34 114.345 17.872 114.625 18.392C114.905 18.904 115.121 19.384 115.273 19.832C115.433 20.272 115.513 20.66 115.513 20.996C115.513 21.412 115.401 21.776 115.177 22.088C114.961 22.392 114.637 22.632 114.205 22.808C113.781 22.984 113.257 23.072 112.633 23.072C112.401 23.072 112.141 23.052 111.853 23.012C111.565 22.972 111.273 22.912 110.977 22.832C110.689 22.752 110.429 22.648 110.197 22.52ZM120.054 23L119.802 14.216H121.482L121.734 23H120.054ZM122.262 25.76L121.65 24.224C122.338 23.984 122.894 23.72 123.318 23.432C123.75 23.144 124.066 22.836 124.266 22.508C124.474 22.18 124.578 21.84 124.578 21.488C124.578 21.264 124.546 21.032 124.482 20.792C124.418 20.544 124.326 20.284 124.206 20.012C124.094 19.74 123.958 19.456 123.798 19.16L125.37 18.404C125.65 18.94 125.866 19.452 126.018 19.94C126.178 20.428 126.258 20.884 126.258 21.308C126.258 21.7 126.206 22.076 126.102 22.436C126.006 22.796 125.854 23.132 125.646 23.444C125.446 23.764 125.186 24.064 124.866 24.344C124.546 24.624 124.17 24.88 123.738 25.112C123.306 25.352 122.814 25.568 122.262 25.76Z" fill="white"/>
</svg>
