<svg width="24" height="24" viewBox="0 0 24 24" fill="none" xmlns="http://www.w3.org/2000/svg">
<path d="M11.875 20.5C11.9583 20.5 12.0542 20.4792 12.1625 20.4375C12.2708 20.3959 12.3583 20.3417 12.425 20.275L20.85 11.825C21.0667 11.6084 21.2292 11.3625 21.3375 11.0875C21.4458 10.8125 21.5 10.5334 21.5 10.25C21.5 9.96669 21.4458 9.68336 21.3375 9.40002C21.2292 9.11669 21.0667 8.86669 20.85 8.65002L16.35 4.15002C16.1333 3.93336 15.8833 3.77086 15.6 3.66252C15.3167 3.55419 15.0333 3.50002 14.75 3.50002C14.4667 3.50002 14.1875 3.55419 13.9125 3.66252C13.6375 3.77086 13.3917 3.93336 13.175 4.15002L12.725 4.60002L14.75 6.65002C14.9667 6.88336 15.1583 7.15419 15.325 7.46253C15.4917 7.77086 15.575 8.10836 15.575 8.47503C15.575 9.10836 15.3292 9.66669 14.8375 10.15C14.3458 10.6334 13.7833 10.875 13.15 10.875C12.7333 10.875 12.3875 10.8125 12.1125 10.6875C11.8375 10.5625 11.5833 10.3834 11.35 10.15L9.525 8.32502L5 12.85C4.91667 12.9334 4.85833 13.0209 4.825 13.1125C4.79167 13.2042 4.775 13.3 4.775 13.4C4.775 13.6167 4.84583 13.7959 4.9875 13.9375C5.12917 14.0792 5.30833 14.15 5.525 14.15C5.625 14.15 5.72083 14.125 5.8125 14.075C5.90417 14.025 5.98333 13.9667 6.05 13.9L9.5 10.45L10.55 11.5L7.125 14.925C7.04167 15.0084 6.98333 15.1 6.95 15.2C6.91667 15.3 6.9 15.4 6.9 15.5C6.9 15.7 6.975 15.875 7.125 16.025C7.275 16.175 7.45 16.25 7.65 16.25C7.75 16.25 7.84583 16.2292 7.9375 16.1875C8.02917 16.1459 8.10833 16.0917 8.175 16.025L11.625 12.575L12.675 13.625L9.25 17.05C9.18333 17.1167 9.12917 17.2042 9.0875 17.3125C9.04583 17.4209 9.025 17.525 9.025 17.625C9.025 17.825 9.1 18 9.25 18.15C9.4 18.3 9.575 18.375 9.775 18.375C9.875 18.375 9.96667 18.3584 10.05 18.325C10.1333 18.2917 10.2167 18.2334 10.3 18.15L13.75 14.7L14.8 15.75L11.35 19.2C11.2667 19.2834 11.2083 19.375 11.175 19.475C11.1417 19.575 11.125 19.6667 11.125 19.75C11.125 19.9834 11.1917 20.1667 11.325 20.3C11.4583 20.4334 11.6417 20.5 11.875 20.5ZM11.875 22C11.325 22 10.8333 21.7959 10.4 21.3875C9.96667 20.9792 9.70833 20.475 9.625 19.875C9.05833 19.7917 8.58333 19.5584 8.2 19.175C7.81667 18.7917 7.58333 18.3167 7.5 17.75C6.93333 17.6667 6.4625 17.4292 6.0875 17.0375C5.7125 16.6459 5.48333 16.175 5.4 15.625C4.78333 15.5417 4.275 15.2917 3.875 14.875C3.475 14.4584 3.275 13.9584 3.275 13.375C3.275 13.0917 3.32917 12.8084 3.4375 12.525C3.54583 12.2417 3.70833 11.9917 3.925 11.775L9.525 6.17503L12.275 8.92503C12.4083 9.05836 12.5542 9.16253 12.7125 9.23753C12.8708 9.31253 13.025 9.35003 13.175 9.35003C13.3917 9.35003 13.5958 9.25419 13.7875 9.06253C13.9792 8.87086 14.075 8.66669 14.075 8.45002C14.075 8.35002 14.0458 8.23753 13.9875 8.11253C13.9292 7.98753 13.8333 7.85836 13.7 7.72502L10.125 4.15002C9.90833 3.93336 9.65833 3.77086 9.375 3.66252C9.09167 3.55419 8.80833 3.50002 8.525 3.50002C8.24167 3.50002 7.9625 3.55419 7.6875 3.66252C7.4125 3.77086 7.16667 3.93336 6.95 4.15002L3.15 7.95002C2.91667 8.18336 2.75417 8.42919 2.6625 8.68753C2.57083 8.94586 2.51667 9.23336 2.5 9.55003C2.48333 9.88336 2.54583 10.2042 2.6875 10.5125C2.82917 10.8209 3 11.1 3.2 11.35L2.125 12.425C1.79167 12.0584 1.52083 11.6167 1.3125 11.1C1.10417 10.5834 1 10.0584 1 9.52502C1 9.02502 1.09583 8.54586 1.2875 8.08752C1.47917 7.62919 1.75 7.22502 2.1 6.87502L5.875 3.10002C6.24167 2.73336 6.65833 2.46252 7.125 2.28752C7.59167 2.11252 8.06667 2.02502 8.55 2.02502C9.03333 2.02502 9.50417 2.11252 9.9625 2.28752C10.4208 2.46252 10.8333 2.73336 11.2 3.10002L11.65 3.55002L12.1 3.10002C12.4667 2.73336 12.8833 2.46252 13.35 2.28752C13.8167 2.11252 14.2917 2.02502 14.775 2.02502C15.2583 2.02502 15.7292 2.11252 16.1875 2.28752C16.6458 2.46252 17.0583 2.73336 17.425 3.10002L21.9 7.57502C22.2667 7.94169 22.5417 8.35836 22.725 8.82502C22.9083 9.29169 23 9.76669 23 10.25C23 10.7334 22.9083 11.2042 22.725 11.6625C22.5417 12.1209 22.2667 12.5334 21.9 12.9L13.475 21.325C13.2583 21.5417 13.0125 21.7084 12.7375 21.825C12.4625 21.9417 12.175 22 11.875 22V22Z" fill="black"/>
</svg>
