<svg width="24" height="24" viewBox="0 0 24 24" fill="none" xmlns="http://www.w3.org/2000/svg">
<path fill-rule="evenodd" clip-rule="evenodd" d="M2 12C2 8.0054 2 6.0081 2.95188 4.5695C3.37694 3.9271 3.9271 3.37694 4.5695 2.95188C6.0081 2 8.0054 2 12 2C15.9946 2 17.9919 2 19.4305 2.95188C20.0729 3.37694 20.6231 3.9271 21.0481 4.5695C22 6.0081 22 8.0054 22 12C22 15.9946 22 17.9919 21.0481 19.4305C20.6231 20.0729 20.0729 20.6231 19.4305 21.0481C17.9919 22 15.9946 22 12 22C8.0054 22 6.0081 22 4.5695 21.0481C3.9271 20.6231 3.37694 20.0729 2.95188 19.4305C2 17.9919 2 15.9946 2 12ZM17.1767 12.0003C17.1767 14.8595 14.8588 17.1774 11.9996 17.1774C9.14031 17.1774 6.82243 14.8595 6.82243 12.0003C6.82243 9.14101 9.14031 6.82313 11.9996 6.82313C14.8588 6.82313 17.1767 9.14101 17.1767 12.0003ZM11.9996 15.4258C13.8914 15.4258 15.4251 13.8921 15.4251 12.0003C15.4251 10.1084 13.8914 8.5747 11.9996 8.5747C10.1077 8.5747 8.57399 10.1084 8.57399 12.0003C8.57399 13.8921 10.1077 15.4258 11.9996 15.4258ZM17.3813 7.7795C18.0532 7.7795 18.5978 7.23487 18.5978 6.56303C18.5978 5.89119 18.0532 5.34656 17.3813 5.34656C16.7095 5.34656 16.1649 5.89119 16.1649 6.56303C16.1649 7.23487 16.7095 7.7795 17.3813 7.7795Z" fill="#012D2D"/>
</svg>
