<svg width="140" height="36" viewBox="0 0 140 36" fill="none" xmlns="http://www.w3.org/2000/svg">
<rect x="0.5" y="0.5" width="139" height="35" rx="3.5" fill="#FDCA40"/>
<rect x="0.5" y="0.5" width="139" height="35" rx="3.5" stroke="#EBEBEB"/>
<path d="M16.764 15.608C16.372 15.608 16.024 15.68 15.72 15.824C15.416 15.968 15.156 16.176 14.94 16.448C14.732 16.72 14.572 17.048 14.46 17.432C14.356 17.816 14.304 18.248 14.304 18.728C14.304 19.376 14.392 19.932 14.568 20.396C14.744 20.852 15.012 21.204 15.372 21.452C15.74 21.7 16.2 21.824 16.752 21.824C17.12 21.824 17.472 21.788 17.808 21.716C18.152 21.636 18.512 21.532 18.888 21.404V22.712C18.536 22.856 18.18 22.96 17.82 23.024C17.468 23.088 17.06 23.12 16.596 23.12C15.716 23.12 14.988 22.94 14.412 22.58C13.836 22.212 13.408 21.7 13.128 21.044C12.848 20.38 12.708 19.604 12.708 18.716C12.708 18.068 12.796 17.476 12.972 16.94C13.156 16.404 13.416 15.94 13.752 15.548C14.096 15.156 14.52 14.852 15.024 14.636C15.528 14.42 16.108 14.312 16.764 14.312C17.196 14.312 17.62 14.364 18.036 14.468C18.46 14.564 18.856 14.7 19.224 14.876L18.696 16.136C18.392 16 18.076 15.88 17.748 15.776C17.428 15.664 17.1 15.608 16.764 15.608ZM24.6932 16.496H26.3612L23.7092 19.616L26.5892 23H24.8612L22.1012 19.7V23H20.5892V16.496H22.1012V19.652L24.6932 16.496ZM30.2007 16.376C31.0407 16.376 31.6767 16.56 32.1087 16.928C32.5487 17.288 32.7687 17.856 32.7687 18.632V23H31.7007L31.4007 22.1H31.3527C31.1687 22.332 30.9767 22.528 30.7767 22.688C30.5847 22.84 30.3607 22.948 30.1047 23.012C29.8567 23.084 29.5527 23.12 29.1927 23.12C28.8087 23.12 28.4607 23.048 28.1487 22.904C27.8447 22.76 27.6047 22.54 27.4287 22.244C27.2527 21.94 27.1647 21.56 27.1647 21.104C27.1647 20.432 27.4087 19.928 27.8967 19.592C28.3927 19.248 29.1407 19.06 30.1407 19.028L31.2687 18.992V18.668C31.2687 18.252 31.1687 17.956 30.9687 17.78C30.7687 17.604 30.4887 17.516 30.1287 17.516C29.8007 17.516 29.4847 17.564 29.1807 17.66C28.8767 17.756 28.5807 17.868 28.2927 17.996L27.8127 16.94C28.1327 16.772 28.4967 16.636 28.9047 16.532C29.3207 16.428 29.7527 16.376 30.2007 16.376ZM30.4767 19.952C29.8127 19.976 29.3527 20.092 29.0967 20.3C28.8407 20.5 28.7127 20.772 28.7127 21.116C28.7127 21.42 28.8047 21.64 28.9887 21.776C29.1727 21.912 29.4087 21.98 29.6967 21.98C30.1367 21.98 30.5087 21.856 30.8127 21.608C31.1167 21.352 31.2687 20.976 31.2687 20.48V19.928L30.4767 19.952ZM35.9834 18.872C35.9834 19.184 36.0674 19.42 36.2354 19.58C36.4034 19.74 36.6394 19.82 36.9434 19.82C37.3114 19.82 37.6474 19.772 37.9514 19.676C38.2634 19.58 38.5754 19.456 38.8874 19.304V16.496H40.3994V23H38.8874V20.3C38.5754 20.476 38.2434 20.628 37.8914 20.756C37.5394 20.884 37.1274 20.948 36.6554 20.948C35.9834 20.948 35.4514 20.776 35.0594 20.432C34.6674 20.08 34.4714 19.576 34.4714 18.92V16.496H35.9834V18.872ZM44.9312 16.376C45.7712 16.376 46.4072 16.56 46.8392 16.928C47.2792 17.288 47.4992 17.856 47.4992 18.632V23H46.4312L46.1312 22.1H46.0832C45.8992 22.332 45.7072 22.528 45.5072 22.688C45.3152 22.84 45.0912 22.948 44.8352 23.012C44.5872 23.084 44.2832 23.12 43.9232 23.12C43.5392 23.12 43.1912 23.048 42.8792 22.904C42.5752 22.76 42.3352 22.54 42.1592 22.244C41.9832 21.94 41.8952 21.56 41.8952 21.104C41.8952 20.432 42.1392 19.928 42.6272 19.592C43.1232 19.248 43.8712 19.06 44.8712 19.028L45.9992 18.992V18.668C45.9992 18.252 45.8992 17.956 45.6992 17.78C45.4992 17.604 45.2192 17.516 44.8592 17.516C44.5312 17.516 44.2152 17.564 43.9112 17.66C43.6072 17.756 43.3112 17.868 43.0232 17.996L42.5432 16.94C42.8632 16.772 43.2272 16.636 43.6352 16.532C44.0512 16.428 44.4832 16.376 44.9312 16.376ZM45.2072 19.952C44.5432 19.976 44.0832 20.092 43.8272 20.3C43.5712 20.5 43.4432 20.772 43.4432 21.116C43.4432 21.42 43.5352 21.64 43.7192 21.776C43.9032 21.912 44.1392 21.98 44.4272 21.98C44.8672 21.98 45.2392 21.856 45.5432 21.608C45.8472 21.352 45.9992 20.976 45.9992 20.48V19.928L45.2072 19.952ZM54.4459 17.66H52.3099V23H50.8099V17.66H48.6859V16.496H54.4459V17.66ZM58.6988 19.064C59.3308 19.064 59.8508 19.136 60.2588 19.28C60.6748 19.416 60.9828 19.624 61.1828 19.904C61.3908 20.184 61.4948 20.536 61.4948 20.96C61.4948 21.376 61.3988 21.736 61.2068 22.04C61.0148 22.344 60.7148 22.58 60.3068 22.748C59.9068 22.916 59.3788 23 58.7228 23H55.6868V16.496H57.1988V19.064H58.6988ZM59.9828 20.996C59.9828 20.684 59.8668 20.468 59.6348 20.348C59.4028 20.228 59.0668 20.168 58.6268 20.168H57.1988V21.908H58.6508C59.0428 21.908 59.3628 21.84 59.6108 21.704C59.8588 21.56 59.9828 21.324 59.9828 20.996ZM70.9626 13.904H72.1026V25.784H70.9626V13.904ZM82.3451 16.376C83.1051 16.376 83.7171 16.66 84.1811 17.228C84.6451 17.788 84.8771 18.624 84.8771 19.736C84.8771 20.472 84.7691 21.092 84.5531 21.596C84.3371 22.1 84.0371 22.48 83.6531 22.736C83.2691 22.992 82.8211 23.12 82.3091 23.12C81.9971 23.12 81.7211 23.08 81.4811 23C81.2411 22.912 81.0371 22.804 80.8691 22.676C80.7011 22.54 80.5571 22.396 80.4371 22.244H80.3411C80.3731 22.388 80.3971 22.552 80.4131 22.736C80.4291 22.912 80.4371 23.08 80.4371 23.24V25.88H78.9251V16.496H80.1491L80.3651 17.36H80.4371C80.5571 17.176 80.7011 17.012 80.8691 16.868C81.0451 16.716 81.2531 16.596 81.4931 16.508C81.7411 16.42 82.0251 16.376 82.3451 16.376ZM81.9131 17.6C81.5611 17.6 81.2771 17.672 81.0611 17.816C80.8451 17.952 80.6891 18.164 80.5931 18.452C80.4971 18.74 80.4451 19.1 80.4371 19.532V19.724C80.4371 20.188 80.4811 20.58 80.5691 20.9C80.6651 21.22 80.8211 21.464 81.0371 21.632C81.2611 21.8 81.5611 21.884 81.9371 21.884C82.2571 21.884 82.5171 21.796 82.7171 21.62C82.9251 21.444 83.0771 21.196 83.1731 20.876C83.2771 20.548 83.3291 20.16 83.3291 19.712C83.3291 19.04 83.2131 18.52 82.9811 18.152C82.7571 17.784 82.4011 17.6 81.9131 17.6ZM85.3477 16.496H86.9917L88.2877 20.168C88.3437 20.328 88.3917 20.484 88.4317 20.636C88.4797 20.78 88.5197 20.928 88.5517 21.08C88.5837 21.232 88.6077 21.384 88.6237 21.536H88.6717C88.7037 21.336 88.7517 21.116 88.8157 20.876C88.8877 20.636 88.9597 20.4 89.0317 20.168L90.2797 16.496H91.9117L89.1397 23.864C88.9797 24.288 88.7757 24.652 88.5277 24.956C88.2877 25.26 87.9997 25.488 87.6637 25.64C87.3357 25.8 86.9637 25.88 86.5477 25.88C86.3557 25.88 86.1837 25.868 86.0317 25.844C85.8877 25.828 85.7597 25.808 85.6477 25.784V24.584C85.7357 24.6 85.8397 24.616 85.9597 24.632C86.0877 24.648 86.2197 24.656 86.3557 24.656C86.6037 24.656 86.8157 24.604 86.9917 24.5C87.1757 24.404 87.3277 24.268 87.4477 24.092C87.5757 23.916 87.6797 23.72 87.7597 23.504L87.9517 22.976L85.3477 16.496ZM95.5102 23.12C94.8942 23.12 94.3582 23.004 93.9022 22.772C93.4542 22.532 93.1062 22.168 92.8582 21.68C92.6182 21.184 92.4982 20.552 92.4982 19.784C92.4982 18.984 92.6302 18.336 92.8942 17.84C93.1662 17.336 93.5382 16.968 94.0102 16.736C94.4822 16.496 95.0222 16.376 95.6302 16.376C96.0382 16.376 96.4022 16.416 96.7222 16.496C97.0422 16.576 97.3142 16.672 97.5382 16.784L97.0942 17.972C96.8462 17.876 96.5982 17.796 96.3502 17.732C96.1022 17.66 95.8622 17.624 95.6302 17.624C95.2702 17.624 94.9702 17.704 94.7302 17.864C94.4982 18.024 94.3262 18.264 94.2142 18.584C94.1022 18.896 94.0462 19.292 94.0462 19.772C94.0462 20.236 94.1022 20.624 94.2142 20.936C94.3342 21.248 94.5102 21.484 94.7422 21.644C94.9742 21.796 95.2622 21.872 95.6062 21.872C95.9742 21.872 96.2982 21.828 96.5782 21.74C96.8582 21.652 97.1222 21.532 97.3702 21.38V22.688C97.1222 22.84 96.8542 22.948 96.5662 23.012C96.2862 23.084 95.9342 23.12 95.5102 23.12ZM101.522 23.12C100.906 23.12 100.37 23.004 99.9139 22.772C99.4659 22.532 99.1179 22.168 98.8699 21.68C98.6299 21.184 98.5099 20.552 98.5099 19.784C98.5099 18.984 98.6419 18.336 98.9059 17.84C99.1779 17.336 99.5499 16.968 100.022 16.736C100.494 16.496 101.034 16.376 101.642 16.376C102.05 16.376 102.414 16.416 102.734 16.496C103.054 16.576 103.326 16.672 103.55 16.784L103.106 17.972C102.858 17.876 102.61 17.796 102.362 17.732C102.114 17.66 101.874 17.624 101.642 17.624C101.282 17.624 100.982 17.704 100.742 17.864C100.51 18.024 100.338 18.264 100.226 18.584C100.114 18.896 100.058 19.292 100.058 19.772C100.058 20.236 100.114 20.624 100.226 20.936C100.346 21.248 100.522 21.484 100.754 21.644C100.986 21.796 101.274 21.872 101.618 21.872C101.986 21.872 102.31 21.828 102.59 21.74C102.87 21.652 103.134 21.532 103.382 21.38V22.688C103.134 22.84 102.866 22.948 102.578 23.012C102.298 23.084 101.946 23.12 101.522 23.12ZM109.01 16.496H110.678L108.026 19.616L110.906 23H109.178L106.418 19.7V23H104.906V16.496H106.418V19.652L109.01 16.496ZM113.377 19.592C113.377 19.704 113.369 19.848 113.353 20.024C113.345 20.192 113.337 20.372 113.329 20.564C113.321 20.748 113.309 20.916 113.293 21.068C113.285 21.212 113.277 21.32 113.269 21.392L116.449 16.496H118.273V23H116.821V19.94C116.821 19.756 116.825 19.544 116.833 19.304C116.849 19.064 116.865 18.836 116.881 18.62C116.897 18.396 116.909 18.228 116.917 18.116L113.749 23H111.925V16.496H113.377V19.592ZM126.09 13.736C126.05 14.144 125.938 14.5 125.754 14.804C125.578 15.1 125.302 15.328 124.926 15.488C124.55 15.648 124.054 15.728 123.438 15.728C122.798 15.728 122.294 15.648 121.926 15.488C121.566 15.328 121.306 15.104 121.146 14.816C120.986 14.52 120.89 14.16 120.858 13.736H122.226C122.266 14.168 122.378 14.46 122.562 14.612C122.746 14.756 123.046 14.828 123.462 14.828C123.814 14.828 124.098 14.752 124.314 14.6C124.538 14.44 124.67 14.152 124.71 13.736H126.09ZM121.674 19.592C121.674 19.704 121.666 19.848 121.65 20.024C121.642 20.192 121.634 20.372 121.626 20.564C121.618 20.748 121.606 20.916 121.59 21.068C121.582 21.212 121.574 21.32 121.566 21.392L124.746 16.496H126.57V23H125.118V19.94C125.118 19.756 125.122 19.544 125.13 19.304C125.146 19.064 125.162 18.836 125.178 18.62C125.194 18.396 125.206 18.228 125.214 18.116L122.046 23H120.222V16.496H121.674V19.592Z" fill="black"/>
</svg>
