<svg width="24" height="24" viewBox="0 0 24 24" fill="none" xmlns="http://www.w3.org/2000/svg">
<path d="M22.46 6C21.69 6.35 20.86 6.58 20 6.69C20.88 6.16 21.56 5.32 21.88 4.31C21.05 4.81 20.13 5.16 19.16 5.36C18.37 4.5 17.26 4 16 4C13.65 4 11.73 5.92 11.73 8.29C11.73 8.63 11.77 8.96 11.84 9.27C8.28004 9.09 5.11004 7.38 3.00004 4.79C2.63004 5.42 2.42004 6.16 2.42004 6.94C2.42004 8.43 3.17004 9.75 4.33004 10.5C3.62004 10.5 2.96004 10.3 2.38004 10C2.38004 10 2.38004 10 2.38004 10.03C2.38004 12.11 3.86004 13.85 5.82004 14.24C5.46004 14.34 5.08004 14.39 4.69004 14.39C4.42004 14.39 4.15004 14.36 3.89004 14.31C4.43004 16 6.00004 17.26 7.89004 17.29C6.43004 18.45 4.58004 19.13 2.56004 19.13C2.22004 19.13 1.88004 19.11 1.54004 19.07C3.44004 20.29 5.70004 21 8.12004 21C16 21 20.33 14.46 20.33 8.79C20.33 8.6 20.33 8.42 20.32 8.23C21.16 7.63 21.88 6.87 22.46 6Z" fill="black"/>
</svg>
