<?xml version="1.0" encoding="utf-8"?>
<!-- Generator: Adobe Illustrator 19.0.1, SVG Export Plug-In . SVG Version: 6.00 Build 0)  -->
<svg version="1.1" id="Layer_1" xmlns="http://www.w3.org/2000/svg" xmlns:xlink="http://www.w3.org/1999/xlink" x="0px" y="0px"
	 viewBox="0 0 416.4 416.4" style="enable-background:new 0 0 416.4 416.4;" xml:space="preserve">
<style type="text/css">
	.st0{fill:#89D3E2;}
	.st1{fill:#FCE700;stroke:#26BCD3;stroke-width:8.5301;stroke-miterlimit:10;}
	.st2{fill:none;stroke:#89D3E2;stroke-width:7;stroke-miterlimit:10;}
	.st3{fill:none;stroke:#89D3E2;stroke-width:6.1252;stroke-miterlimit:10;}
	.st4{fill:#E1F3F7;stroke:#26BCD3;stroke-width:3.7554;stroke-miterlimit:10;}
	.st5{fill:#26BCD3;}
	.st6{fill:none;stroke:#26BCD3;stroke-width:1.7381;stroke-miterlimit:10;}
	.st7{fill:#F5EA1A;}
	.st8{fill:url(#SVGID_1_);}
	.st9{fill:#01838F;}
	.st10{fill:#B6E3EB;}
	.st11{fill:#0297A7;stroke:#016064;stroke-width:1.4271;stroke-miterlimit:10;}
	.st12{fill:#26BCD3;stroke:#5AC7DA;stroke-width:2.1407;stroke-miterlimit:10;}
	.st13{fill:#B6E3EB;stroke:#0297A7;stroke-width:1.4271;stroke-miterlimit:10;}
	.st14{fill:#FEE900;stroke:#E5EB9D;stroke-width:1.4271;stroke-miterlimit:10;}
	.st15{fill:#E1F3F7;}
	.st16{fill:#00ABC1;stroke:#0297A7;stroke-width:1.4271;stroke-miterlimit:10;}
	.st17{fill:#3CC2D6;}
	.st18{fill:#FEFCE9;}
	.st19{fill:#B6E3EB;stroke:#0297A7;stroke-width:1.995;stroke-miterlimit:10;}
</style>
<g>
	<g>
		<g>
			<g>
				<path class="st0" d="M17.7,185.8c60.7,0,121.3,1.9,182,1.9c2.6,0,2.6-4,0-4c-60.7,0-121.3-1.9-182-1.9
					C15.2,181.8,15.2,185.8,17.7,185.8L17.7,185.8z"/>
			</g>
		</g>
		<g>
			<g>
				<path class="st0" d="M83.1,154.8c72.1,1.1,144.3-1.7,216.2,4.4c2.6,0.2,2.6-3.8,0-4c-71.9-6.1-144.2-3.4-216.2-4.4
					C80.5,150.8,80.5,154.8,83.1,154.8L83.1,154.8z"/>
			</g>
		</g>
		<g>
			<g>
				<path class="st0" d="M194,140c67.5,0,135-3.2,202.6-3.2c2.6,0,2.6-4,0-4c-67.5,0-135,3.2-202.6,3.2C191.5,136,191.5,140,194,140
					L194,140z"/>
			</g>
		</g>
		<g>
			<g>
				<path class="st0" d="M34.8,119.5c61.6,1.5,123.3,0.8,184.8-2c2.6-0.1,2.6-4.1,0-4c-61.6,2.8-123.2,3.5-184.8,2
					C32.2,115.5,32.2,119.5,34.8,119.5L34.8,119.5z"/>
			</g>
		</g>
		<g>
			<g>
				<path class="st0" d="M49.3,83.9c52.5,0,105,0,157.5,0c2.6,0,2.6-4,0-4c-52.5,0-105,0-157.5,0C46.7,79.9,46.7,83.9,49.3,83.9
					L49.3,83.9z"/>
			</g>
		</g>
		<g>
			<g>
				<path class="st0" d="M108.7,48.6c53.1-1.5,106.3-0.3,159.3,3.4c2.6,0.2,2.6-3.8,0-4c-53-3.7-106.2-4.8-159.3-3.4
					C106.2,44.6,106.2,48.6,108.7,48.6L108.7,48.6z"/>
			</g>
		</g>
		<g>
			<g>
				<path class="st0" d="M205.4,72.5c50.6,0,101.2,0.1,151.8,0.1c2.6,0,2.6-4,0-4c-50.6,0-101.2-0.1-151.8-0.1
					C202.8,68.5,202.8,72.5,205.4,72.5L205.4,72.5z"/>
			</g>
		</g>
		<g>
			<g>
				<path class="st0" d="M151.4,100.8c74.3,1.9,148.8,0.2,222.9-5.2c2.6-0.2,2.6-4.2,0-4c-74.1,5.5-148.6,7.1-222.9,5.2
					C148.8,96.7,148.8,100.7,151.4,100.8L151.4,100.8z"/>
			</g>
		</g>
		<g>
			<g>
				<path class="st0" d="M17.7,136.8c49.8,1.8,99.6,3.8,149.3,0c2.6-0.2,2.6-4.2,0-4c-49.7,3.8-99.5,1.8-149.3,0
					C15.2,132.7,15.2,136.7,17.7,136.8L17.7,136.8z"/>
			</g>
		</g>
		<g>
			<g>
				<path class="st0" d="M6.4,201.7c55.4,0.6,110.9,0.4,166.3-0.5c2.6,0,2.6-4,0-4c-55.4,1-110.9,1.1-166.3,0.5
					C3.8,197.7,3.8,201.7,6.4,201.7L6.4,201.7z"/>
			</g>
		</g>
		<g>
			<g>
				<path class="st0" d="M135.3,170.8c72.5-2.1,145.2-1.8,217.7-1c18.5,0.2,37,0.5,55.5,1c2.6,0.1,2.6-3.9,0-4
					c-72.9-1.8-145.8-1.9-218.7-1c-18.2,0.2-36.4,0.5-54.6,1C132.7,166.9,132.7,170.9,135.3,170.8L135.3,170.8z"/>
			</g>
		</g>
		<g>
			<g>
				<path class="st0" d="M329.1,152.5c25.2-1.4,50.4,1.7,75.6,0c2.6-0.2,2.6-4.2,0-4c-25.2,1.7-50.4-1.4-75.6,0
					C326.5,148.7,326.5,152.7,329.1,152.5L329.1,152.5z"/>
			</g>
		</g>
		<g>
			<g>
				<path class="st0" d="M259.4,121.5c43.9-0.2,87.8-5.8,131.7-3.3c2.6,0.1,2.6-3.9,0-4c-43.9-2.5-87.8,3.1-131.7,3.3
					C256.9,117.5,256.9,121.5,259.4,121.5L259.4,121.5z"/>
			</g>
		</g>
		<g>
			<g>
				<path class="st0" d="M130.1,99.8c-32.2,0-64.3,0-96.5,0c-2.6,0-2.6,4,0,4c32.2,0,64.3,0,96.5,0
					C132.6,103.8,132.6,99.8,130.1,99.8L130.1,99.8z"/>
			</g>
		</g>
		<g>
			<g>
				<path class="st0" d="M169.9,57.1c-34.1,0-68.2,0-102.4,0c-2.6,0-2.6,4,0,4c34.1,0,68.2,0,102.4,0
					C172.4,61.1,172.4,57.1,169.9,57.1L169.9,57.1z"/>
			</g>
		</g>
		<g>
			<g>
				<path class="st0" d="M292.1,54c14.7,0,29.5,0,44.2,0c2.6,0,2.6-4,0-4c-14.7,0-29.5,0-44.2,0C289.6,50,289.5,54,292.1,54
					L292.1,54z"/>
			</g>
		</g>
		<g>
			<g>
				<path class="st0" d="M115.1,29.9c44.3,0,88.6,0,133,0c2.6,0,2.6-4,0-4c-44.3,0-88.6,0-133,0C112.5,25.9,112.5,29.9,115.1,29.9
					L115.1,29.9z"/>
			</g>
		</g>
		<g>
			<g>
				<path class="st0" d="M198.3,14.2c19.3,0,38.6,0,57.9,0c2.6,0,2.6-4,0-4c-19.3,0-38.6,0-57.9,0C195.7,10.2,195.7,14.2,198.3,14.2
					L198.3,14.2z"/>
			</g>
		</g>
		<g>
			<g>
				<path class="st0" d="M262.3,38.4c17.9,0,35.8,0,53.7,0c2.6,0,2.6-4,0-4c-17.9,0-35.8,0-53.7,0C259.7,34.4,259.7,38.4,262.3,38.4
					L262.3,38.4z"/>
			</g>
		</g>
		<g>
			<g>
				<path class="st0" d="M97.4,166.8c-29.4,0-58.8,0-88.1,0c-2.6,0-2.6,4,0,4c29.4,0,58.8,0,88.1,0
					C99.9,170.8,99.9,166.8,97.4,166.8L97.4,166.8z"/>
			</g>
		</g>
		<g>
			<g>
				<path class="st0" d="M54,150.8c-13.9,0-27.8,0-41.7,0c-2.6,0-2.6,4,0,4c13.9,0,27.8,0,41.7,0C56.6,154.8,56.6,150.8,54,150.8
					L54,150.8z"/>
			</g>
		</g>
		<g>
			<g>
				<path class="st0" d="M219.6,199.5c63.6,0,127.2,1.7,190.8,1.7c2.6,0,2.6-4,0-4c-63.6,0-127.2-1.7-190.8-1.7
					C217,195.5,217,199.5,219.6,199.5L219.6,199.5z"/>
			</g>
		</g>
		<g>
			<g>
				<path class="st0" d="M309.2,185.8c29.1,0,58.3,0,87.4,0c2.6,0,2.6-4,0-4c-29.1,0-58.3,0-87.4,0
					C306.6,181.8,306.6,185.8,309.2,185.8L309.2,185.8z"/>
			</g>
		</g>
		<g>
			<g>
				<path class="st0" d="M91.7,216.4c-27.7,0-55.4,0-83.1,0c-2.6,0-2.6,4,0,4c27.7,0,55.4,0,83.1,0
					C94.2,220.4,94.2,216.4,91.7,216.4L91.7,216.4z"/>
			</g>
		</g>
		<g>
			<g>
				<path class="st0" d="M118.7,216.5c53.1-2,106.2-1.2,159.2,2.3c2.6,0.2,2.6-3.8,0-4c-53-3.5-106.1-4.3-159.2-2.3
					C116.1,212.6,116.1,216.6,118.7,216.5L118.7,216.5z"/>
			</g>
		</g>
		<g>
			<g>
				<path class="st0" d="M299.2,219c37.1,0,74.1,0,111.2,0c2.6,0,2.6-4,0-4c-37.1,0-74.1,0-111.2,0C296.7,215,296.7,219,299.2,219
					L299.2,219z"/>
			</g>
		</g>
		<g>
			<g>
				<path class="st0" d="M388.8,239.1c-43.1,0-86.2,0-129.4,0c-2.6,0-2.6,4,0,4c43.1,0,86.2,0,129.4,0
					C391.4,243.1,391.4,239.1,388.8,239.1L388.8,239.1z"/>
			</g>
		</g>
		<g>
			<g>
				<path class="st0" d="M239.5,236.3c-48.3,0-96.7,0-145,0c-2.6,0-2.6,4,0,4c48.3,0,96.7,0,145,0
					C242.1,240.3,242.1,236.3,239.5,236.3L239.5,236.3z"/>
			</g>
		</g>
		<g>
			<g>
				<path class="st0" d="M73.2,236.3c-21.1,0-42.1,0-63.2,0c-2.6,0-2.6,4,0,4c21.1,0,42.1,0,63.2,0
					C75.8,240.3,75.8,236.3,73.2,236.3L73.2,236.3z"/>
			</g>
		</g>
		<g>
			<g>
				<path class="st0" d="M12.3,257.3c53,0,106,0,159,0c2.6,0,2.6-4,0-4c-53,0-106,0-159,0C9.8,253.3,9.7,257.3,12.3,257.3
					L12.3,257.3z"/>
			</g>
		</g>
		<g>
			<g>
				<path class="st0" d="M215.3,264.3c35.5-1.5,71.1-1.9,106.6-1.2c2.6,0.1,2.6-3.9,0-4c-35.5-0.8-71.1-0.4-106.6,1.2
					C212.8,260.4,212.8,264.4,215.3,264.3L215.3,264.3z"/>
			</g>
		</g>
		<g>
			<g>
				<path class="st0" d="M360.4,257.3c14.9,0,29.9,0,44.8,0c2.6,0,2.6-4,0-4c-14.9,0-29.9,0-44.8,0
					C357.8,253.3,357.8,257.3,360.4,257.3L360.4,257.3z"/>
			</g>
		</g>
		<g>
			<g>
				<path class="st0" d="M393.1,274.7c-37.4,0-74.9,0-112.3,0c-2.6,0-2.6,4,0,4c37.4,0,74.9,0,112.3,0
					C395.6,278.7,395.6,274.7,393.1,274.7L393.1,274.7z"/>
			</g>
		</g>
		<g>
			<g>
				<path class="st0" d="M231,271.6c-34.1,1.5-68.3,0.8-102.4-2.3c-2.6-0.2-2.5,3.8,0,4c34,3.1,68.2,3.9,102.4,2.3
					C233.5,275.4,233.6,271.4,231,271.6L231,271.6z"/>
			</g>
		</g>
		<g>
			<g>
				<path class="st0" d="M91.7,264.7c-25.1,0-50.2,0-75.3,0c-2.6,0-2.6,4,0,4c25.1,0,50.2,0,75.3,0
					C94.2,268.7,94.2,264.7,91.7,264.7L91.7,264.7z"/>
			</g>
		</g>
		<g>
			<g>
				<path class="st0" d="M17.7,284.4c45-0.6,90.1-0.1,135,1.7c2.6,0.1,2.6-3.9,0-4c-45-1.8-90-2.4-135-1.7
					C15.2,280.5,15.2,284.5,17.7,284.4L17.7,284.4z"/>
			</g>
		</g>
		<g>
			<g>
				<path class="st0" d="M202.6,289.8c37,0.9,74,0.6,110.9-0.9c2.6-0.1,2.6-4.1,0-4c-36.9,1.5-73.9,1.9-110.9,0.9
					C200,285.8,200,289.8,202.6,289.8L202.6,289.8z"/>
			</g>
		</g>
		<g>
			<g>
				<path class="st0" d="M340.5,292.9c18.7,0,37.4,0,56.1,0c2.6,0,2.6-4,0-4c-18.7,0-37.4,0-56.1,0
					C337.9,288.9,337.9,292.9,340.5,292.9L340.5,292.9z"/>
			</g>
		</g>
		<g>
			<g>
				<path class="st0" d="M366.1,304.5c-32.7,0-65.4,0-98.1,0c-2.6,0-2.6,4,0,4c32.7,0,65.4,0,98.1,0
					C368.6,308.5,368.6,304.5,366.1,304.5L366.1,304.5z"/>
			</g>
		</g>
		<g>
			<g>
				<path class="st0" d="M252.7,298.4c-20.5,3.6-41.7-0.1-62.4-0.1c-20.8,0-41.1-1.9-61.7-4.8c-2.5-0.4-3.6,3.5-1.1,3.9
					c20.9,2.9,41.6,4.9,62.7,4.9c21.1,0,42.5,3.6,63.4-0.1C256.3,301.8,255.3,298,252.7,298.4L252.7,298.4z"/>
			</g>
		</g>
		<g>
			<g>
				<path class="st0" d="M101.9,293.5c-25.9,1.2-51.8,2.3-77.7,3.8c-2.6,0.1-2.6,4.1,0,4c25.9-1.5,51.8-2.6,77.7-3.8
					C104.4,297.4,104.5,293.4,101.9,293.5L101.9,293.5z"/>
			</g>
		</g>
		<g>
			<g>
				<path class="st0" d="M34.8,312.9c53.5-0.9,107.2-1.6,160.6,0.5c2.6,0.1,2.6-3.9,0-4c-53.5-2.1-107.1-1.5-160.6-0.5
					C32.2,308.9,32.2,312.9,34.8,312.9L34.8,312.9z"/>
			</g>
		</g>
		<g>
			<g>
				<path class="st0" d="M188.8,331.2c37.8,1,76.4-0.1,113.9-5.2c2.5-0.3,1.5-4.2-1.1-3.9c-37.1,5-75.4,6-112.8,5.1
					C186.2,327.2,186.2,331.2,188.8,331.2L188.8,331.2z"/>
			</g>
		</g>
		<g>
			<g>
				<path class="st0" d="M323.4,325.7c18.2-0.5,36.4-0.9,54.6-1.4c2.6-0.1,2.6-4.1,0-4c-18.2,0.5-36.4,0.9-54.6,1.4
					C320.8,321.8,320.8,325.8,323.4,325.7L323.4,325.7z"/>
			</g>
		</g>
		<g>
			<g>
				<path class="st0" d="M206.8,341.5c-42.2,0-84.4,0-126.5,0c-2.6,0-2.6,4,0,4c42.2,0,84.4,0,126.5,0
					C209.4,345.5,209.4,341.5,206.8,341.5L206.8,341.5z"/>
			</g>
		</g>
		<g>
			<g>
				<path class="st0" d="M161.3,321.6c-36,0-72,0-108,0c-2.6,0-2.6,4,0,4c36,0,72,0,108,0C163.9,325.6,163.9,321.6,161.3,321.6
					L161.3,321.6z"/>
			</g>
		</g>
		<g>
			<g>
				<path class="st0" d="M235.3,354.3c-42.7,0-85.3,0-128,0c-2.6,0-2.6,4,0,4c42.7,0,85.3,0,128,0
					C237.8,358.3,237.8,354.3,235.3,354.3L235.3,354.3z"/>
			</g>
		</g>
		<g>
			<g>
				<path class="st0" d="M235.3,344.1c27,0,54,0,81,0c2.6,0,2.6-4,0-4c-27,0-54,0-81,0C232.7,340.1,232.7,344.1,235.3,344.1
					L235.3,344.1z"/>
			</g>
		</g>
		<g>
			<g>
				<path class="st0" d="M265.1,359.7c23.7,0,47.4,0,71.1,0c2.6,0,2.6-4,0-4c-23.7,0-47.4,0-71.1,0
					C262.5,355.7,262.5,359.7,265.1,359.7L265.1,359.7z"/>
			</g>
		</g>
		<g>
			<g>
				<path class="st0" d="M333.4,338.4c10.9,0,21.8,0,32.7,0c2.6,0,2.6-4,0-4c-10.9,0-21.8,0-32.7,0
					C330.8,334.4,330.8,338.4,333.4,338.4L333.4,338.4z"/>
			</g>
		</g>
		<g>
			<g>
				<path class="st0" d="M171.3,368.5c-28.9,0-57.8,0-86.7,0c-2.6,0-2.6,4,0,4c28.9,0,57.8,0,86.7,0
					C173.9,372.5,173.9,368.5,171.3,368.5L171.3,368.5z"/>
			</g>
		</g>
		<g>
			<g>
				<path class="st0" d="M195.4,373.9c34.1,0,68.2,0,102.4,0c2.6,0,2.6-4,0-4c-34.1,0-68.2,0-102.4,0
					C192.9,369.9,192.9,373.9,195.4,373.9L195.4,373.9z"/>
			</g>
		</g>
		<g>
			<g>
				<path class="st0" d="M240.9,382.7c-43.6,0-87.2,0-130.8,0c-2.6,0-2.6,4,0,4c43.6,0,87.2,0,130.8,0
					C243.5,386.7,243.5,382.7,240.9,382.7L240.9,382.7z"/>
			</g>
		</g>
		<g>
			<g>
				<path class="st0" d="M199.7,402.3c27.7,0,55.4,0,83.1,0c2.6,0,2.6-4,0-4c-27.7,0-55.4,0-83.1,0
					C197.1,398.3,197.1,402.3,199.7,402.3L199.7,402.3z"/>
			</g>
		</g>
	</g>
	<polygon class="st1" points="304.9,159.8 274.1,129.1 177.1,226.2 140.4,189.6 109.7,220.3 176.8,287.4 178,286.1 178.3,286.4 	"/>
	<circle class="st2" cx="208.2" cy="208.2" r="204.7"/>
</g>
</svg>
