<?xml version="1.0" encoding="utf-8"?>
<!-- Generator: Adobe Illustrator 19.0.1, SVG Export Plug-In . SVG Version: 6.00 Build 0)  -->
<svg version="1.1" id="Layer_1" xmlns="http://www.w3.org/2000/svg" xmlns:xlink="http://www.w3.org/1999/xlink" x="0px" y="0px"
	 viewBox="0 0 109 16.8" style="enable-background:new 0 0 109 16.8;" xml:space="preserve">
<style type="text/css">
	.st0{fill:#747475;}
	.st1{fill:#6E6F71;}
</style>
<g>
	<path class="st0" d="M18.4,9.4c0.2,0.1,0.4,0.3,0.7,0.5c0.6,0.4,1.4,0.4,2.4,0.4c1.1,0,2.4-0.1,3.4-0.2c-0.1,0.2-0.2,0.5-0.2,0.7
		c-0.6,0-2.2,0.1-3.2,0.1c-1.1,0-1.9-0.1-2.5-0.5c-0.4-0.2-0.7-0.5-0.9-0.5c-0.3,0-0.8,0.5-1.2,1.1l-0.4-0.6
		c0.5-0.5,0.9-0.9,1.3-1.1V6.8h-1.3V6.2h1.9V9.4z M18.2,5.1c-0.3-0.4-1-1.1-1.6-1.6l0.5-0.4c0.5,0.4,1.2,1.1,1.6,1.5L18.2,5.1z
		 M20,9.8h-0.6V5.1h2.6c-0.6-0.3-1.2-0.6-1.8-0.8l0.4-0.4C21,4,21.5,4.2,21.9,4.4c0.4-0.2,0.9-0.5,1.3-0.8h-3.8V3.1h4.5l0.1,0
		l0.4,0.3c-0.5,0.5-1.2,1-1.9,1.3c0.3,0.1,0.5,0.2,0.7,0.4h1.2v4c0,0.3-0.1,0.5-0.3,0.6s-0.6,0.1-1.2,0.1c0-0.2-0.1-0.4-0.2-0.6
		c0.4,0,0.8,0,0.9,0c0.1,0,0.2,0,0.2-0.2V8.2h-1.6v1.5h-0.6V8.2H20V9.8z M20,5.6v0.8h1.5V5.6H20z M21.5,7.7V6.9H20v0.8H21.5z
		 M22.1,5.6v0.8h1.6V5.6H22.1z M23.7,7.7V6.9h-1.6v0.8H23.7z"/>
	<path class="st0" d="M27.6,9.2c0.2,0.1,0.4,0.3,0.7,0.5c0.6,0.4,1.4,0.4,2.4,0.4c1.1,0,2.4-0.1,3.3-0.2c-0.1,0.2-0.2,0.5-0.2,0.7
		c-0.7,0-2.3,0.1-3.1,0.1c-1.1,0-1.9-0.1-2.5-0.5c-0.4-0.2-0.7-0.5-0.9-0.5c-0.3,0-0.7,0.5-1.2,1.2l-0.5-0.6c0.5-0.5,1-0.9,1.4-1.1
		V6.8h-1.3V6.2h1.9V9.2z M27.3,4.9c-0.3-0.4-0.8-1.1-1.3-1.6L26.5,3c0.5,0.5,1.1,1.1,1.4,1.5L27.3,4.9z M31.8,5.1h-3.5V4.4h3.5V2.8
		h0.7v1.6h1.3v0.6h-1.3v3.6c0,0.5-0.1,0.7-0.4,0.8c-0.3,0.1-0.9,0.1-1.7,0.1c0-0.2-0.1-0.5-0.2-0.7c0.7,0,1.3,0,1.5,0
		c0.2,0,0.2-0.1,0.2-0.2V5.1z M29.2,5.8c0.5,0.6,1,1.3,1.3,1.8L30,7.9c-0.3-0.5-0.8-1.3-1.3-1.8L29.2,5.8z"/>
	<path class="st0" d="M35.3,3.7h3.9v0.7h-3v2.1h2.5v0.7h-2.5v2.4h3.1v0.7h-4V3.7z"/>
	<path class="st0" d="M40.7,5.5h0.7l0.1,0.7h0c0.4-0.5,1-0.9,1.5-0.9c0.8,0,1.2,0.4,1.4,1c0.5-0.6,1-1,1.6-1c1,0,1.5,0.7,1.5,2v3.1
		h-0.8v-3c0-0.9-0.3-1.3-0.9-1.3c-0.4,0-0.8,0.2-1.3,0.8v3.6h-0.8v-3c0-0.9-0.3-1.3-0.9-1.3c-0.4,0-0.8,0.2-1.3,0.8v3.6h-0.8V5.5z"
		/>
	<path class="st0" d="M48.9,9.1c0-1.1,0.9-1.6,3.1-1.9c0-0.6-0.2-1.3-1-1.3c-0.6,0-1.1,0.3-1.5,0.5L49.1,6c0.5-0.3,1.2-0.6,2-0.6
		c1.2,0,1.7,0.8,1.7,2v3.1h-0.7L52,9.8h0c-0.5,0.4-1,0.7-1.6,0.7C49.5,10.5,48.9,10,48.9,9.1z M51.9,9.2V7.8
		c-1.7,0.2-2.2,0.6-2.2,1.3c0,0.6,0.4,0.8,0.9,0.8C51.1,9.9,51.4,9.7,51.9,9.2z"/>
	<path class="st0" d="M54.2,3.9c0-0.3,0.2-0.5,0.6-0.5c0.3,0,0.6,0.2,0.6,0.5c0,0.3-0.2,0.5-0.6,0.5C54.5,4.4,54.2,4.2,54.2,3.9z
		 M54.4,5.5h0.8v5h-0.8V5.5z"/>
	<path class="st0" d="M57,9.4V3.1h0.8v6.4c0,0.3,0.1,0.4,0.2,0.4c0,0,0.1,0,0.2,0l0.1,0.6c-0.1,0-0.3,0.1-0.5,0.1
		C57.2,10.5,57,10.1,57,9.4z"/>
	<path class="st0" d="M62.3,5.4c-0.2,0.3-0.6,0.6-0.9,0.8c0.5,0.8,0.5,1.5,0.5,2.3c0,1-0.1,1.8-0.5,2.3C61.4,10.9,61.2,11,61,11
		c-0.3,0.1-0.6,0.1-1,0c0-0.2-0.1-0.4-0.2-0.6c0.4,0,0.8,0,1,0c0.1,0,0.2-0.1,0.3-0.1c0.2-0.3,0.3-0.9,0.3-1.8c0-0.1,0-0.2,0-0.4
		c-0.5,0.5-1.2,1.1-1.7,1.4c-0.1-0.2-0.3-0.4-0.4-0.5c0.7-0.3,1.6-1,2.1-1.6c-0.1-0.3-0.2-0.6-0.3-0.8c-0.4,0.3-0.9,0.5-1.3,0.7
		c-0.1-0.1-0.3-0.3-0.4-0.4c0.5-0.2,1-0.5,1.4-0.8c-0.2-0.3-0.5-0.5-0.9-0.8l0.4-0.3c0.4,0.3,0.7,0.5,1,0.8c0.3-0.2,0.5-0.4,0.7-0.7
		L62.3,5.4z M61.5,4.1h-2.1V3.5h2.1V2.8h0.7v0.7h2.4V2.8h0.7v0.7h2.1v0.6h-2.1v0.7h-0.7V4.1h-2.4v0.7h-0.7V4.1z M65,7.3
		c0.4,1.5,1.2,2.7,2.4,3.3c-0.1,0.1-0.3,0.4-0.4,0.6c-1.1-0.6-1.8-1.6-2.3-2.9c-0.3,1-0.9,2.1-2.3,2.9c-0.1-0.1-0.3-0.3-0.5-0.4
		c1.7-1,2.2-2.3,2.3-3.4h-2.1V6.6h2.1c0-0.1,0-0.2,0-0.3V5H65v1.3c0,0.1,0,0.2,0,0.3h2.4v0.6H65z M65.7,5c0.5,0.3,1,0.8,1.3,1.1
		l-0.5,0.4c-0.2-0.3-0.8-0.8-1.3-1.1L65.7,5z"/>
	<path class="st0" d="M71.9,9.3v1.8h-0.7V9.4c-1,0.2-2,0.3-2.7,0.5l-0.1-0.7c0.2,0,0.4-0.1,0.7-0.1V3.8h-0.6V3.2h4.1v0.6h-0.7v4.9
		l0.8-0.1l0,0.6L71.9,9.3z M69.7,3.8v1.3h1.5V3.8H69.7z M69.7,7h1.5V5.7h-1.5V7z M69.7,9c0.5-0.1,1-0.2,1.5-0.2V7.6h-1.5V9z
		 M76.4,3.9c-0.2,2-0.7,3.5-1.4,4.8c0.5,0.8,1.1,1.4,1.8,1.9c-0.2,0.1-0.4,0.4-0.5,0.5c-0.7-0.4-1.2-1-1.7-1.8
		c-0.5,0.8-1.1,1.4-1.8,1.8c-0.1-0.2-0.3-0.4-0.4-0.5c0.7-0.4,1.4-1.1,1.9-2c-0.6-1.2-1-2.6-1.2-4.2h-0.4V3.8h3.3l0.1,0L76.4,3.9z
		 M73.7,4.4c0.2,1.3,0.5,2.5,1,3.5c0.5-1,0.9-2.2,1.1-3.5H73.7z"/>
	<path class="st0" d="M81.1,8.4h-2.5L78,10.4h-0.9l2.3-6.7h0.9l2.3,6.7h-0.9L81.1,8.4z M80.9,7.7l-0.3-1c-0.2-0.8-0.5-1.5-0.7-2.3h0
		c-0.2,0.8-0.4,1.5-0.7,2.3l-0.3,1H80.9z"/>
	<path class="st0" d="M83.6,5.5h0.7L84.4,6h0c0.4-0.4,1-0.7,1.6-0.7c1.3,0,2,1,2,2.5c0,1.7-1,2.7-2.2,2.7c-0.4,0-0.9-0.2-1.4-0.6
		l0,0.9v1.7h-0.8V5.5z M87.1,7.9c0-1.1-0.4-1.8-1.3-1.8c-0.4,0-0.9,0.2-1.3,0.7v2.6c0.4,0.4,0.9,0.5,1.2,0.5
		C86.5,9.9,87.1,9.1,87.1,7.9z"/>
	<path class="st0" d="M89.3,5.5H90L90.1,6h0c0.4-0.4,1-0.7,1.6-0.7c1.3,0,2,1,2,2.5c0,1.7-1,2.7-2.2,2.7c-0.4,0-0.9-0.2-1.4-0.6
		l0,0.9v1.7h-0.8V5.5z M92.8,7.9c0-1.1-0.4-1.8-1.3-1.8c-0.4,0-0.9,0.2-1.3,0.7v2.6c0.4,0.4,0.9,0.5,1.2,0.5
		C92.2,9.9,92.8,9.1,92.8,7.9z"/>
</g>
</svg>
