<svg width="25" height="25" viewBox="0 0 25 25" fill="none" xmlns="http://www.w3.org/2000/svg">
<g clip-path="url(#clip0_62_6653)">
<path d="M10.087 24.9C9.92085 24.836 9.75924 24.7607 9.60326 24.6749C9.40092 24.5494 9.23393 24.3743 9.11804 24.1663C9.00215 23.9583 8.9412 23.7242 8.94093 23.4861C8.91861 22.4516 8.92605 21.4172 8.92233 20.3828C8.92233 19.927 8.94279 19.9921 8.53349 19.9884C8.20233 19.9884 7.8693 19.9884 7.53628 19.9884C7.21865 19.983 6.91469 19.8583 6.68478 19.639C6.45488 19.4198 6.31586 19.1221 6.29535 18.8051C6.29535 18.7475 6.29535 18.6898 6.29535 18.6321C6.29535 15.4954 6.29535 12.3586 6.29535 9.22373C6.29535 9.02094 6.3586 8.97815 6.54279 8.97815C10.7598 8.97815 14.9769 8.97815 19.194 8.97815C19.3707 8.97815 19.4191 9.03024 19.4191 9.20699C19.4191 12.3301 19.4191 15.4538 19.4191 18.5781C19.4191 19.2368 19.1102 19.7335 18.5763 19.9214C18.4432 19.9631 18.3046 19.9844 18.1651 19.9847C17.7819 19.9847 17.3986 19.9958 17.0153 19.9847C16.8405 19.9847 16.7995 20.0423 16.8014 20.2042C16.8014 21.2014 16.8014 22.1968 16.8014 23.194C16.8221 23.5991 16.7061 23.9994 16.4721 24.3307C16.2829 24.5761 16.0233 24.7579 15.7279 24.8516C15.687 24.8665 15.6479 24.8851 15.6088 24.9019H15.1474C15.1307 24.8907 15.1177 24.874 15.1009 24.8702C14.7763 24.7865 14.4895 24.5956 14.2869 24.3285C14.0843 24.0614 13.9778 23.7338 13.9847 23.3986C13.9847 22.3902 13.9847 21.3813 13.9847 20.3716C13.9847 20.2526 13.9698 20.1335 13.9623 19.9995H12.1391C11.7149 19.9995 11.7149 19.9995 11.713 20.4349C11.713 21.3875 11.713 22.3381 11.713 23.2907C11.7292 23.5342 11.687 23.7781 11.5899 24.002C11.4928 24.226 11.3437 24.4235 11.1549 24.5781C10.9632 24.7053 10.7594 24.8131 10.5465 24.9H10.087Z" fill="#1B1C1D"/>
<path d="M17.0247 0.900024C17.0331 0.993976 17.0237 1.08868 16.9967 1.17909C16.6861 1.73723 16.3661 2.29537 16.0442 2.84049C15.9661 2.97258 15.9809 3.04514 16.1261 3.12142C16.9616 3.55536 17.6885 4.17223 18.2526 4.92607C18.85 5.72871 19.2184 6.67843 19.3186 7.67398C19.3186 7.71305 19.3186 7.75026 19.3186 7.78933C19.3726 8.26561 19.3819 8.21909 18.9465 8.21909H6.60977C6.32326 8.21909 6.32884 8.21909 6.34931 7.92328C6.41297 6.87786 6.76951 5.87145 7.37815 5.01909C7.90294 4.28449 8.58328 3.67465 9.3707 3.23305C9.75396 3.01351 9.75396 3.01909 9.53442 2.64328C9.24791 2.15212 8.96326 1.66095 8.68791 1.16421C8.66376 1.07836 8.65681 0.988575 8.66745 0.900024L8.82187 0.900024C9.19396 1.53444 9.55489 2.167 9.91768 2.80328C9.98094 2.91491 10.0498 2.88514 10.1391 2.84793C11.071 2.47287 12.0709 2.29609 13.0749 2.32886C13.931 2.35816 14.7753 2.53698 15.5698 2.85723C15.6758 2.90002 15.7335 2.88328 15.7856 2.78654C15.927 2.53723 16.0702 2.28793 16.2172 2.04235C16.4461 1.65909 16.6786 1.28142 16.9112 0.900024H17.0247ZM15.9698 4.85165C15.8882 4.84708 15.8065 4.85926 15.7298 4.88743C15.6531 4.9156 15.5829 4.95917 15.5237 5.01546C15.4644 5.07175 15.4173 5.13957 15.3852 5.21474C15.3532 5.28992 15.3368 5.37086 15.3372 5.45258C15.3385 5.61348 15.4016 5.76773 15.5135 5.8834C15.6253 5.99906 15.7774 6.0673 15.9381 6.07398C16.0953 6.07069 16.2458 6.01004 16.3613 5.90346C16.4767 5.79688 16.5493 5.65173 16.5651 5.49537C16.5692 5.33168 16.5093 5.17285 16.3981 5.05264C16.287 4.93243 16.1333 4.86032 15.9698 4.85165ZM9.74094 6.07398C9.90187 6.07368 10.0565 6.01151 10.1729 5.90035C10.2893 5.78918 10.3584 5.63752 10.3661 5.47677C10.3701 5.31567 10.3104 5.15948 10.2 5.0421C10.0896 4.92472 9.93733 4.85562 9.77628 4.84979C9.69306 4.84831 9.61036 4.86328 9.53293 4.89382C9.4555 4.92437 9.38485 4.9699 9.32505 5.0278C9.26525 5.0857 9.21746 5.15483 9.18443 5.23124C9.1514 5.30764 9.13377 5.38982 9.13256 5.47305C9.14732 5.62869 9.21635 5.77417 9.32758 5.88404C9.4388 5.9939 9.58513 6.06114 9.74094 6.07398Z" fill="#1B1C1D"/>
<path d="M2.72512 13.2108C2.72512 12.2638 2.72512 11.3187 2.72512 10.3736C2.71118 10.1138 2.76183 9.85467 2.87254 9.61929C2.98325 9.38391 3.15057 9.17963 3.35954 9.02473C3.50651 8.91991 3.67334 8.84619 3.84979 8.80809C4.02625 8.76998 4.20863 8.76829 4.38576 8.80313C4.56289 8.83796 4.73104 8.90858 4.87993 9.01067C5.02882 9.11275 5.1553 9.24416 5.25164 9.39683C5.43172 9.68444 5.52596 10.0175 5.52326 10.3568V16.0889C5.53729 16.3507 5.48776 16.6119 5.37891 16.8504C5.27005 17.0888 5.1051 17.2974 4.89815 17.4582C4.63489 17.6563 4.30636 17.7472 3.97874 17.7127C3.65112 17.6781 3.34876 17.5207 3.13257 17.2722C2.85651 16.9486 2.70945 16.5346 2.71954 16.1094C2.72698 15.1401 2.72512 14.1745 2.72512 13.2108Z" fill="#1B1C1D"/>
<path d="M20.1707 13.207C20.1707 12.2284 20.1707 11.2517 20.1707 10.2749C20.1642 10.0372 20.2155 9.80145 20.3202 9.58791C20.4248 9.37436 20.5797 9.1894 20.7716 9.0489C20.9173 8.9363 21.0851 8.85563 21.264 8.81214C21.4429 8.76865 21.6289 8.76331 21.8101 8.79648C21.9912 8.82965 22.1633 8.90058 22.3152 9.00465C22.467 9.10872 22.5953 9.24361 22.6916 9.40053C22.8677 9.6623 22.9616 9.97065 22.9614 10.2861C22.9614 12.2334 22.9614 14.1813 22.9614 16.1298C22.9714 16.3829 22.9209 16.6348 22.8141 16.8645C22.7073 17.0942 22.5474 17.2952 22.3474 17.4508C22.0834 17.6521 21.7524 17.745 21.4221 17.7104C21.0919 17.6758 20.7873 17.5164 20.5707 17.2647C20.299 16.9464 20.1546 16.5389 20.1651 16.1205V13.207H20.1707Z" fill="#1B1C1D"/>
</g>
<defs>
<clipPath id="clip0_62_6653">
<rect width="24" height="24" fill="white" transform="translate(0.899994 0.900024)"/>
</clipPath>
</defs>
</svg>
