<svg width="24" height="24" viewBox="0 0 24 24" fill="none" xmlns="http://www.w3.org/2000/svg">
<g id="App Icon" clip-path="url(#clip0_1169_841)">
<path id="Vector" d="M12.0058 0.181885C7.07103 0.181885 5.6278 0.186976 5.34726 0.210248C4.33457 0.29443 3.7044 0.453885 3.01788 0.795703C2.4888 1.05843 2.07154 1.36298 1.65974 1.78988C0.909762 2.56843 0.45523 3.52625 0.29069 4.66479C0.210692 5.21752 0.18742 5.33025 0.182693 8.15352C0.180875 9.09461 0.182693 10.3332 0.182693 11.9944C0.182693 16.9253 0.188147 18.3672 0.211783 18.6472C0.293599 19.6326 0.448139 20.2526 0.775402 20.9308C1.40084 22.229 2.59535 23.2035 4.00258 23.5672C4.48984 23.6926 5.028 23.7617 5.71889 23.7944C6.01161 23.8072 8.99515 23.8162 11.9805 23.8162C14.9659 23.8162 17.9512 23.8126 18.2367 23.7981C19.0367 23.7604 19.5012 23.6981 20.0148 23.5653C21.4311 23.1999 22.6038 22.2399 23.242 20.9235C23.5629 20.2617 23.7256 19.6181 23.7992 18.6841C23.8153 18.4804 23.822 15.2337 23.822 11.9913C23.822 8.74843 23.8147 5.5077 23.7987 5.30407C23.7242 4.35498 23.5614 3.71679 23.2302 3.04225C22.9584 2.49007 22.6566 2.0777 22.2184 1.65607C21.4364 0.909158 20.4801 0.454612 19.3405 0.290248C18.7883 0.21043 18.6783 0.186794 15.8529 0.181885H12.0058Z" fill="url(#paint0_radial_1169_841)"/>
<path id="Vector_2" d="M12.0058 0.181885C7.07103 0.181885 5.6278 0.186976 5.34726 0.210248C4.33457 0.29443 3.7044 0.453885 3.01788 0.795703C2.4888 1.05843 2.07154 1.36298 1.65974 1.78988C0.909762 2.56843 0.45523 3.52625 0.29069 4.66479C0.210692 5.21752 0.18742 5.33025 0.182693 8.15352C0.180875 9.09461 0.182693 10.3332 0.182693 11.9944C0.182693 16.9253 0.188147 18.3672 0.211783 18.6472C0.293599 19.6326 0.448139 20.2526 0.775402 20.9308C1.40084 22.229 2.59535 23.2035 4.00258 23.5672C4.48984 23.6926 5.028 23.7617 5.71889 23.7944C6.01161 23.8072 8.99515 23.8162 11.9805 23.8162C14.9659 23.8162 17.9512 23.8126 18.2367 23.7981C19.0367 23.7604 19.5012 23.6981 20.0148 23.5653C21.4311 23.1999 22.6038 22.2399 23.242 20.9235C23.5629 20.2617 23.7256 19.6181 23.7992 18.6841C23.8152 18.4804 23.822 15.2337 23.822 11.9913C23.822 8.74843 23.8147 5.5077 23.7987 5.30407C23.7242 4.35498 23.5614 3.71679 23.2302 3.04225C22.9584 2.49007 22.6566 2.0777 22.2184 1.65607C21.4364 0.909157 20.4801 0.454612 19.3405 0.290248C18.7883 0.21043 18.6783 0.186794 15.8529 0.181885H12.0058Z" fill="url(#paint1_radial_1169_841)"/>
<path id="Vector_3" d="M12.0003 3.27271C9.63021 3.27271 9.33276 3.28307 8.40188 3.32543C7.47282 3.36798 6.83866 3.51507 6.28376 3.73089C5.70978 3.9538 5.22289 4.25198 4.73781 4.73725C4.25237 5.22234 3.9542 5.70925 3.73057 6.28307C3.51421 6.83816 3.36694 7.47252 3.32513 8.40125C3.28349 9.33216 3.27258 9.6298 3.27258 12C3.27258 14.3702 3.28313 14.6667 3.32531 15.5976C3.36803 16.5267 3.51512 17.1609 3.73075 17.7158C3.95384 18.2898 4.25201 18.7767 4.73727 19.2618C5.22216 19.7473 5.70905 20.0462 6.28267 20.2691C6.83793 20.4849 7.47227 20.632 8.40115 20.6745C9.33204 20.7169 9.6293 20.7273 11.9992 20.7273C14.3695 20.7273 14.6661 20.7169 15.5969 20.6745C16.526 20.632 17.1609 20.4849 17.7161 20.2691C18.2899 20.0462 18.7761 19.7473 19.261 19.2618C19.7464 18.7767 20.0446 18.2898 20.2682 17.716C20.4828 17.1609 20.6301 16.5265 20.6737 15.5978C20.7155 14.6669 20.7264 14.3702 20.7264 12C20.7264 9.6298 20.7155 9.33234 20.6737 8.40143C20.6301 7.47234 20.4828 6.83816 20.2682 6.28325C20.0446 5.70925 19.7464 5.22234 19.261 4.73725C18.7756 4.2518 18.2901 3.95361 17.7156 3.73089C17.1593 3.51507 16.5247 3.36798 15.5957 3.32543C14.6648 3.28307 14.3684 3.27271 11.9976 3.27271H12.0003ZM11.2174 4.84543C11.4498 4.84507 11.7091 4.84543 12.0003 4.84543C14.3304 4.84543 14.6066 4.8538 15.5268 4.89561C16.3776 4.93452 16.8394 5.07671 17.1471 5.19616C17.5543 5.35434 17.8447 5.54343 18.15 5.84889C18.4554 6.15434 18.6445 6.44525 18.803 6.85252C18.9225 7.1598 19.0648 7.62161 19.1036 8.47252C19.1454 9.39252 19.1545 9.66889 19.1545 11.998C19.1545 14.3271 19.1454 14.6034 19.1036 15.5234C19.0646 16.3743 18.9225 16.8362 18.803 17.1434C18.6448 17.5507 18.4554 17.8407 18.15 18.146C17.8445 18.4514 17.5545 18.6405 17.1471 18.7987C16.8398 18.9187 16.3776 19.0605 15.5268 19.0994C14.6068 19.1413 14.3304 19.1503 12.0003 19.1503C9.67002 19.1503 9.39385 19.1413 8.47388 19.0994C7.623 19.0602 7.16119 18.918 6.85338 18.7985C6.44612 18.6403 6.15522 18.4513 5.84978 18.1458C5.54433 17.8403 5.35525 17.5502 5.19671 17.1427C5.07726 16.8354 4.9349 16.3736 4.89617 15.5227C4.85435 14.6027 4.84599 14.3263 4.84599 11.9958C4.84599 9.66525 4.85435 9.39034 4.89617 8.47034C4.93508 7.61943 5.07726 7.15761 5.19671 6.84998C5.35488 6.4427 5.54433 6.1518 5.84978 5.84634C6.15522 5.54089 6.44612 5.3518 6.85338 5.19325C7.16101 5.07325 7.623 4.93143 8.47388 4.89234C9.27895 4.85598 9.59094 4.84507 11.2174 4.84325V4.84543ZM16.6587 6.29452C16.0806 6.29452 15.6115 6.76307 15.6115 7.34143C15.6115 7.91961 16.0806 8.38871 16.6587 8.38871C17.2369 8.38871 17.706 7.91961 17.706 7.34143C17.706 6.76325 17.2369 6.29416 16.6587 6.29416V6.29452ZM12.0003 7.51816C9.5253 7.51816 7.51864 9.52489 7.51864 12C7.51864 14.4751 9.5253 16.4809 12.0003 16.4809C14.4753 16.4809 16.4813 14.4751 16.4813 12C16.4813 9.52489 14.4753 7.51816 12.0003 7.51816ZM12.0003 9.09089C13.6068 9.09089 14.9093 10.3933 14.9093 12C14.9093 13.6065 13.6068 14.9091 12.0003 14.9091C10.3936 14.9091 9.09132 13.6065 9.09132 12C9.09132 10.3933 10.3936 9.09089 12.0003 9.09089Z" fill="white"/>
</g>
<defs>
<radialGradient id="paint0_radial_1169_841" cx="0" cy="0" r="1" gradientUnits="userSpaceOnUse" gradientTransform="translate(6.46131 25.6366) rotate(-90) scale(23.4234 21.7909)">
<stop stop-color="#FFDD55"/>
<stop offset="0.1" stop-color="#FFDD55"/>
<stop offset="0.5" stop-color="#FF543E"/>
<stop offset="1" stop-color="#C837AB"/>
</radialGradient>
<radialGradient id="paint1_radial_1169_841" cx="0" cy="0" r="1" gradientUnits="userSpaceOnUse" gradientTransform="translate(-3.77796 1.88446) rotate(78.678) scale(10.4705 43.1693)">
<stop stop-color="#3771C8"/>
<stop offset="0.128" stop-color="#3771C8"/>
<stop offset="1" stop-color="#6600FF" stop-opacity="0"/>
</radialGradient>
<clipPath id="clip0_1169_841">
<rect width="24" height="24" fill="white"/>
</clipPath>
</defs>
</svg>
