<svg viewBox="0 0 512 512" xmlns="http://www.w3.org/2000/svg" fill-rule="evenodd" clip-rule="evenodd"><g transform="matrix(1.6 0 0 1.6 7.443 .154)"><clipPath id="prefix__a"><path d="M0 0h311v320H0z"/></clipPath><g clip-path="url(#prefix__a)"><g fill="none" stroke-width="2"><path d="M76.37.51l.01 76.47" stroke="#7e916f"/><path d="M76.38 76.98L0 76.96" stroke="#1375eb"/><path d="M235.08 1.09c-.107.04-.197.083-.27.13a.297.297 0 00-.17.28l-.02 75.51" stroke="#f3801d"/><path d="M234.62 77.01h-.05" stroke="#7eb426"/><path d="M76.41 77.01l-.03-.03" stroke="#91a080"/><path d="M310.53 76.77l-75.91.24" stroke="#75783e"/><path d="M76.43 182.69L0 182.67" stroke="#138495"/><path d="M76.44 259.13l-.01-38.28" stroke="#00983a"/></g><path d="M76.37.51l.01 76.47L0 76.96V20.77c.567-3.973 1.743-7.31 3.53-10.01C7.937 4.08 14.343.717 22.75.67 40.523.577 58.397.523 76.37.51z" fill="#0066da" fill-rule="nonzero"/><path d="M76.37.51l157.42.02c.332 0 .653.101.92.29l.37.27c-.107.04-.197.083-.27.13a.297.297 0 00-.17.28l-.02 75.51H76.41l-.03-.03L76.37.51z" fill="#fbbc04" fill-rule="nonzero"/><path d="M235.08 1.09l75.45 75.68-75.91.24.02-75.51c0-.127.057-.22.17-.28.073-.047.163-.09.27-.13z" fill="#ea4335" fill-rule="nonzero"/><path d="M0 76.96l76.38.02.03.03.02 105.68L0 182.67V76.96z" fill="#2684fc" fill-rule="nonzero"/><path d="M310.53 76.77l.47.34v161.9c-1.773 9.687-6.793 15.943-15.06 18.77-2.947 1.013-7.29 1.513-13.03 1.5-37.26-.06-74.9-.117-112.92-.17-5.52-.007-11.12.033-16.8.12-.313.007-.58.12-.8.34a15823.329 15823.329 0 00-56 56.02c-2.87 2.89-6.12 4.5-10.24 3.89-3.84-.567-6.67-2.547-8.49-5.94-.767-1.44-1.157-4.067-1.17-7.88-.047-15.46-.063-30.97-.05-46.53l-.01-38.28 37.78-37.78c.332-.333.786-.52 1.26-.52l118.3.04c.455 0 .83-.375.83-.83l-.03-104.75h.05l75.91-.24z" fill="#00ac47" fill-rule="nonzero"/><path d="M76.43 182.69v38.16l.01 38.28c-15.98.093-31.823.123-47.53.09-6.547-.013-11.263-.527-14.15-1.54-8.093-2.827-13.013-9.093-14.76-18.8v-56.21l76.43.02z" fill="#00832d" fill-rule="nonzero"/></g></g></svg>