<svg width="25" height="26" viewBox="0 0 25 26" fill="none" xmlns="http://www.w3.org/2000/svg">
<path d="M14.9301 0.901667C15.335 3.60481 13.0893 6.45792 10.5023 6.6735C10.0693 6.70911 10.0206 6.49916 10.0225 6.17486C10.0318 4.65082 10.6654 3.40423 11.7452 2.38258C12.6028 1.53423 13.7288 1.01067 14.9301 0.901667V0.901667Z" fill="#040404"/>
<path d="M22.0779 9.09904C18.1038 11.4441 18.7262 16.9479 22.8109 18.7194C21.8005 20.877 20.6963 22.9597 18.7655 24.4537C17.8395 25.1717 16.7635 25.3048 15.7193 24.778C13.8447 23.8314 12.032 23.8876 10.1537 24.778C8.8415 25.4041 7.60615 25.0573 6.56576 24.0994C5.05485 22.7029 4.01258 20.9689 3.2515 19.0793C2.28797 16.6911 1.86806 14.2204 2.46605 11.6672C3.08279 9.0428 5.2573 7.01263 7.92483 6.74457C8.79972 6.67943 9.67785 6.81669 10.4911 7.14572C12.1201 7.78871 13.6235 7.77558 15.2676 7.11948C17.8395 6.09409 20.2989 6.89266 22.0779 9.09904Z" fill="#040404"/>
</svg>
