<svg width="24" height="24" viewBox="0 0 24 24" fill="none" xmlns="http://www.w3.org/2000/svg">
<g clip-path="url(#clip0_171_20765)">
<path d="M5.20651 15.7711L3.27301 5.32889L8.59051 10.0756L11.973 4.37939L15.357 10.0756L20.673 5.32889L18.741 15.7711H5.20651ZM18.741 18.6211C18.7476 18.749 18.7269 18.8769 18.6804 18.9962C18.6339 19.1156 18.5626 19.2237 18.4713 19.3134C18.3799 19.4032 18.2705 19.4725 18.1504 19.5168C18.0302 19.5612 17.902 19.5795 17.7743 19.5706H6.17326C6.04549 19.5795 5.9173 19.5612 5.79715 19.5168C5.677 19.4725 5.56762 19.4032 5.47625 19.3134C5.38488 19.2237 5.31359 19.1156 5.26709 18.9962C5.22059 18.8769 5.19994 18.749 5.20651 18.6211V17.6701H18.741V18.6211Z" fill="#FFC107"/>
</g>
<defs>
<clipPath id="clip0_171_20765">
<rect width="24" height="24" fill="white"/>
</clipPath>
</defs>
</svg>
