<svg width="24" height="24" viewBox="0 0 24 24" fill="none" xmlns="http://www.w3.org/2000/svg">
<path d="M13 2.02502V5.05502C16.39 5.54502 19 8.44502 19 11.975C19 12.875 18.82 13.725 18.52 14.515L21.12 16.045C21.68 14.805 22 13.425 22 11.975C22 6.79502 18.05 2.52502 13 2.02502ZM12 18.975C8.13 18.975 5 15.845 5 11.975C5 8.44502 7.61 5.54502 11 5.05502V2.02502C5.94 2.52502 2 6.78502 2 11.975C2 17.495 6.47 21.975 11.99 21.975C15.3 21.975 18.23 20.365 20.05 17.885L17.45 16.355C16.17 17.955 14.21 18.975 12 18.975Z" fill="#1B1C1D"/>
</svg>
