<svg width="40" height="41" viewBox="0 0 40 41" fill="none" xmlns="http://www.w3.org/2000/svg">
<path d="M20.0028 40.6074V32.8512C28.2126 32.8512 34.5854 24.7095 31.433 16.0688C30.2764 12.8937 27.7137 10.331 24.516 9.17439C15.8753 6.04469 7.73352 12.3948 7.73352 20.6046H0C0 7.51882 12.6549 -2.68671 26.3756 1.59962C32.3629 3.48197 37.1481 8.24455 39.0078 14.2318C43.2941 27.9526 33.0886 40.6074 20.0028 40.6074Z" fill="#0080FF"/>
<path fill-rule="evenodd" clip-rule="evenodd" d="M20.0255 32.8966H12.292V25.1631H20.0255V32.8966Z" fill="#0080FF"/>
<path fill-rule="evenodd" clip-rule="evenodd" d="M12.292 38.8157H6.3728V32.8965H12.292V38.8157Z" fill="#0080FF"/>
<path fill-rule="evenodd" clip-rule="evenodd" d="M6.37282 32.8969H1.40613V27.9302H6.37282V32.8969Z" fill="#0080FF"/>
</svg>
