<svg width="40" height="33" viewBox="0 0 40 33" fill="none" xmlns="http://www.w3.org/2000/svg">
<path d="M26.6019 9.40719L30.0789 5.93016L30.3106 4.4661C23.9746 -1.29531 13.9025 -0.642026 8.19081 5.82923C6.60425 7.62657 5.42722 9.86735 4.79956 12.1813L6.04487 12.0058L12.9988 10.8591L13.5357 10.31C16.6289 6.91282 21.8591 6.45579 25.4307 9.34626L26.6019 9.40719Z" fill="#EA4335"/>
<path d="M35.0321 12.0791C34.2329 9.136 32.5921 6.49022 30.3107 4.46631L25.4307 9.34631C27.4913 11.0301 28.6652 13.5666 28.6149 16.2271V17.0933C31.0135 17.0933 32.9582 19.0379 32.9582 21.4365C32.9582 23.8352 31.0135 25.731 28.6149 25.731H19.9163L19.0623 26.6582V31.8676L19.9163 32.6849H28.6149C34.854 32.7335 39.9512 27.764 39.9998 21.5249C40.0291 17.7432 38.1646 14.1979 35.0321 12.0791Z" fill="#4285F4"/>
<path d="M11.2298 32.6852H19.9162V25.7311H11.2298C10.6108 25.731 10.0115 25.598 9.44866 25.3408L8.21632 25.7189L4.71491 29.196L4.40991 30.3794C6.37351 31.8621 8.76929 32.6958 11.2298 32.6852Z" fill="#34A853"/>
<path d="M11.2297 10.127C4.99052 10.1642 -0.0369825 15.2523 0.000204978 21.4914C0.0209862 24.9755 1.64817 28.2552 4.40989 30.3791L9.44864 25.3405C7.26255 24.3528 6.29114 21.7802 7.2788 19.5942C8.2663 17.4083 10.8391 16.4369 13.0249 17.4244C13.9882 17.8595 14.7596 18.6311 15.1947 19.5942L20.2335 14.5556C18.0896 11.753 14.7583 10.1144 11.2297 10.127Z" fill="#FBBC05"/>
</svg>
