<svg width="48" height="49" viewBox="0 0 48 49" fill="none" xmlns="http://www.w3.org/2000/svg">
<path d="M24 4.23706C20.0444 4.23706 16.1776 5.41004 12.8886 7.60767C9.59962 9.8053 7.03617 12.9289 5.52242 16.5834C4.00867 20.2379 3.6126 24.2592 4.3843 28.1389C5.15601 32.0185 7.06082 35.5821 9.85787 38.3792C12.6549 41.1762 16.2186 43.0811 20.0982 43.8528C23.9778 44.6245 27.9992 44.2284 31.6537 42.7147C35.3082 41.2009 38.4318 38.6374 40.6294 35.3485C42.827 32.0595 44 28.1927 44 24.2371C44 21.6106 43.4827 19.0099 42.4776 16.5834C41.4725 14.1569 39.9993 11.9521 38.1421 10.0949C36.285 8.23775 34.0802 6.76456 31.6537 5.75947C29.2272 4.75438 26.6264 4.23706 24 4.23706ZM20 34.2371L10 24.2371L12.82 21.4171L20 28.5771L35.18 13.3971L38 16.2371L20 34.2371Z" fill="#0A8638"/>
</svg>
