<svg width="48" height="49" viewBox="0 0 48 49" fill="none" xmlns="http://www.w3.org/2000/svg">
<path d="M24 4.20557C20.0444 4.20557 16.1776 5.37855 12.8886 7.57617C9.59962 9.7738 7.03617 12.8974 5.52242 16.5519C4.00867 20.2064 3.6126 24.2278 4.3843 28.1074C5.15601 31.987 7.06082 35.5507 9.85787 38.3477C12.6549 41.1448 16.2186 43.0496 20.0982 43.8213C23.9778 44.593 27.9992 44.1969 31.6537 42.6832C35.3082 41.1694 38.4318 38.606 40.6294 35.317C42.827 32.028 44 28.1612 44 24.2056C44 21.5791 43.4827 18.9784 42.4776 16.5519C41.4725 14.1254 39.9993 11.9206 38.1421 10.0634C36.285 8.20626 34.0802 6.73307 31.6537 5.72798C29.2272 4.72288 26.6264 4.20557 24 4.20557ZM20 34.2056L10 24.2056L12.82 21.3856L20 28.5456L35.18 13.3656L38 16.2056L20 34.2056Z" fill="#0A8638"/>
</svg>
