<svg width="24" height="25" viewBox="0 0 24 25" fill="none" xmlns="http://www.w3.org/2000/svg">
<path fill-rule="evenodd" clip-rule="evenodd" d="M2 12.1429C2 8.14825 2 6.15095 2.95188 4.71236C3.37694 4.06995 3.9271 3.51979 4.5695 3.09473C6.0081 2.14285 8.0054 2.14285 12 2.14285C15.9946 2.14285 17.9919 2.14285 19.4305 3.09473C20.0729 3.51979 20.6231 4.06995 21.0481 4.71236C22 6.15095 22 8.14825 22 12.1429C22 16.1375 22 18.1348 21.0481 19.5733C20.6231 20.2158 20.0729 20.7659 19.4305 21.191C17.9919 22.1429 15.9946 22.1429 12 22.1429C8.0054 22.1429 6.0081 22.1429 4.5695 21.191C3.9271 20.7659 3.37694 20.2158 2.95188 19.5733C2 18.1348 2 16.1375 2 12.1429ZM17.1767 12.1431C17.1767 15.0024 14.8588 17.3202 11.9996 17.3202C9.14031 17.3202 6.82243 15.0024 6.82243 12.1431C6.82243 9.28386 9.14031 6.96599 11.9996 6.96599C14.8588 6.96599 17.1767 9.28386 17.1767 12.1431ZM11.9996 15.5687C13.8914 15.5687 15.4251 14.035 15.4251 12.1431C15.4251 10.2512 13.8914 8.71755 11.9996 8.71755C10.1077 8.71755 8.57399 10.2512 8.57399 12.1431C8.57399 14.035 10.1077 15.5687 11.9996 15.5687ZM17.3813 7.92235C18.0532 7.92235 18.5978 7.37772 18.5978 6.70588C18.5978 6.03404 18.0532 5.48941 17.3813 5.48941C16.7095 5.48941 16.1649 6.03404 16.1649 6.70588C16.1649 7.37772 16.7095 7.92235 17.3813 7.92235Z" fill="#012D2D"/>
</svg>
