<svg width="25" height="25" viewBox="0 0 25 25" fill="none" xmlns="http://www.w3.org/2000/svg">
<g clip-path="url(#clip0_62_6657)">
<path d="M8.88141 20.5782C8.67675 20.5484 8.4721 20.5243 8.26931 20.4889C7.57305 20.3676 6.90773 20.1095 6.31184 19.7295C5.71596 19.3495 5.20132 18.8551 4.79768 18.275C4.17099 17.3762 3.74811 16.3514 3.55861 15.2722C3.38239 14.3462 3.31992 13.4021 3.37257 12.461C3.40499 11.1388 3.72229 9.83915 4.3028 8.65077C4.89449 7.42764 5.89563 6.4502 7.13257 5.88797C7.7528 5.6095 8.41853 5.44622 9.09722 5.40611C9.13443 5.40611 9.17164 5.39123 9.20885 5.38379H9.86559C10.0516 5.40611 10.2377 5.42658 10.4237 5.45449C11.4116 5.58662 12.3404 6.00066 13.0991 6.64704C14.0907 7.48797 14.6935 8.57263 15.06 9.80984C15.3703 10.8979 15.5084 12.0279 15.4693 13.1587C15.4624 14.0962 15.3329 15.0287 15.0842 15.9326C14.7838 17.1028 14.1724 18.17 13.3149 19.021C12.4807 19.8326 11.4104 20.3583 10.2581 20.5224C10.0944 20.5484 9.92885 20.5708 9.76327 20.5931L8.88141 20.5782ZM3.80606 13.3224C3.82008 13.9628 3.89672 14.6002 4.03489 15.2256C4.21847 16.1776 4.5863 17.0845 5.11768 17.8954C5.65591 18.7187 6.42923 19.361 7.33722 19.7391C8.13382 20.0573 8.99512 20.1798 9.84885 20.0963C10.5308 20.0465 11.1952 19.8565 11.8005 19.5382C12.8093 18.9834 13.6182 18.1257 14.113 17.0861C14.6994 15.8823 15.0096 14.5628 15.0209 13.2238C15.0406 12.4979 14.9882 11.7719 14.8647 11.0563C14.7162 10.0949 14.3873 9.17009 13.8954 8.33077C13.2884 7.2588 12.2872 6.46586 11.1047 6.12053C10.3966 5.91856 9.65622 5.85538 8.9242 5.93449C8.20628 5.99725 7.5093 6.20888 6.87768 6.55588C5.84065 7.14689 5.02625 8.06193 4.55955 9.16053C4.01071 10.3884 3.80606 11.6666 3.80606 13.328V13.3224Z" fill="#1B1C1D"/>
<path d="M24.4051 16.8275C24.3735 17.0341 24.353 17.2443 24.3084 17.4489C24.1907 18.0598 23.9204 18.6309 23.5225 19.1091C23.1247 19.5873 22.6123 19.957 22.033 20.1838C21.233 20.5061 20.3659 20.6262 19.5084 20.5336C18.7526 20.4744 18.0144 20.275 17.3316 19.9457C17.1716 19.8675 17.0228 19.7596 16.8572 19.6741L17.0581 19.2313C17.2647 19.341 17.4619 19.4564 17.6684 19.5531C18.5298 19.9606 19.4302 20.2303 20.3902 20.1522C21.8786 20.0275 23.0451 19.3615 23.6907 17.955C23.9277 17.4032 24.0106 16.7976 23.9307 16.2024C23.8153 15.0396 23.1698 14.2266 22.2247 13.6089C21.6497 13.2562 21.0467 12.9513 20.4219 12.6973C19.7166 12.4182 19.0505 12.0486 18.4405 11.5978C17.8523 11.1696 17.4413 10.5409 17.2851 9.83033C17.1188 9.06268 17.2111 8.26158 17.5476 7.55186C17.8841 6.84213 18.446 6.26367 19.1456 5.90661C19.9137 5.51983 20.7746 5.35551 21.6312 5.43219C22.1967 5.45777 22.7545 5.57397 23.2833 5.77638C23.4842 5.85638 23.674 5.96243 23.8786 6.05917L23.7074 6.43126C23.46 6.3308 23.2256 6.21917 22.98 6.13917C22.2619 5.89874 21.5013 5.8119 20.7474 5.88429C19.1437 6.05173 18.0758 7.10103 17.7856 8.43498C17.5474 9.52522 17.8247 10.461 18.7158 11.1792C19.1651 11.5244 19.6519 11.8177 20.167 12.0536C20.9187 12.3961 21.652 12.7774 22.3642 13.1959C22.9126 13.5146 23.3941 13.9367 23.7819 14.4387C24.1377 14.9367 24.3465 15.5246 24.3847 16.1354C24.3847 16.182 24.4014 16.2266 24.4088 16.2713L24.4051 16.8275Z" fill="#1B1C1D"/>
<path d="M0.509308 6.53173C0.528613 6.45428 0.566232 6.38259 0.619004 6.3227C0.671775 6.2628 0.738155 6.21645 0.812564 6.18755C0.880483 6.16141 0.954576 6.15576 1.02567 6.1713C1.09677 6.18685 1.16175 6.2229 1.21256 6.27499C1.27456 6.33564 1.31904 6.41191 1.34131 6.49573C1.36358 6.57956 1.3628 6.66784 1.33908 6.75127C1.32124 6.84618 1.27071 6.93184 1.19628 6.99336C1.12184 7.05488 1.0282 7.08837 0.931633 7.08801C0.84123 7.08886 0.753134 7.05948 0.681337 7.00454C0.609541 6.9496 0.55816 6.87224 0.535354 6.78476C0.535354 6.76243 0.51861 6.74197 0.509308 6.71964V6.53173Z" fill="#1B1C1D"/>
<path d="M0.728851 9.85632H1.14187V20.3549H0.728851V9.85632Z" fill="#1B1C1D"/>
</g>
<defs>
<clipPath id="clip0_62_6657">
<rect width="24" height="24" fill="white" transform="translate(0.5 0.900024)"/>
</clipPath>
</defs>
</svg>
