<svg width="24" height="24" viewBox="0 0 24 24" fill="none" xmlns="http://www.w3.org/2000/svg">
<g clip-path="url(#clip0_1575_5347)">
<path d="M6 4C5.60444 4 5.21776 4.1173 4.88886 4.33706C4.55996 4.55682 4.30362 4.86918 4.15224 5.23463C4.00087 5.60009 3.96126 6.00222 4.03843 6.39018C4.1156 6.77814 4.30608 7.13451 4.58579 7.41421C4.86549 7.69392 5.22186 7.8844 5.60982 7.96157C5.99778 8.03874 6.39992 7.99914 6.76537 7.84776C7.13082 7.69638 7.44318 7.44004 7.66294 7.11114C7.8827 6.78224 8 6.39556 8 6C7.99842 5.47005 7.7872 4.96227 7.41247 4.58754C7.03774 4.21281 6.52995 4.00158 6 4ZM6 10C5.60444 10 5.21776 10.1173 4.88886 10.3371C4.55996 10.5568 4.30362 10.8692 4.15224 11.2346C4.00087 11.6001 3.96126 12.0022 4.03843 12.3902C4.1156 12.7781 4.30608 13.1345 4.58579 13.4142C4.86549 13.6939 5.22186 13.8844 5.60982 13.9616C5.99778 14.0387 6.39992 13.9991 6.76537 13.8478C7.13082 13.6964 7.44318 13.44 7.66294 13.1111C7.8827 12.7822 8 12.3956 8 12C7.99842 11.4701 7.7872 10.9623 7.41247 10.5875C7.03774 10.2128 6.52995 10.0016 6 10ZM6 16C5.60444 16 5.21776 16.1173 4.88886 16.3371C4.55996 16.5568 4.30362 16.8692 4.15224 17.2346C4.00087 17.6001 3.96126 18.0022 4.03843 18.3902C4.1156 18.7781 4.30608 19.1345 4.58579 19.4142C4.86549 19.6939 5.22186 19.8844 5.60982 19.9616C5.99778 20.0387 6.39992 19.9991 6.76537 19.8478C7.13082 19.6964 7.44318 19.44 7.66294 19.1111C7.8827 18.7822 8 18.3956 8 18C7.99842 17.4701 7.7872 16.9623 7.41247 16.5875C7.03774 16.2128 6.52995 16.0016 6 16ZM18 8C18.3956 8 18.7822 7.8827 19.1111 7.66294C19.44 7.44318 19.6964 7.13082 19.8478 6.76537C19.9991 6.39992 20.0387 5.99778 19.9616 5.60982C19.8844 5.22186 19.6939 4.86549 19.4142 4.58579C19.1345 4.30608 18.7781 4.1156 18.3902 4.03843C18.0022 3.96126 17.6001 4.00087 17.2346 4.15224C16.8692 4.30362 16.5568 4.55996 16.3371 4.88886C16.1173 5.21776 16 5.60444 16 6C16.0016 6.52995 16.2128 7.03774 16.5875 7.41247C16.9623 7.7872 17.4701 7.99842 18 8ZM12 16C11.6044 16 11.2178 16.1173 10.8889 16.3371C10.56 16.5568 10.3036 16.8692 10.1522 17.2346C10.0009 17.6001 9.96126 18.0022 10.0384 18.3902C10.1156 18.7781 10.3061 19.1345 10.5858 19.4142C10.8655 19.6939 11.2219 19.8844 11.6098 19.9616C11.9978 20.0387 12.3999 19.9991 12.7654 19.8478C13.1308 19.6964 13.4432 19.44 13.6629 19.1111C13.8827 18.7822 14 18.3956 14 18C13.9984 17.4701 13.7872 16.9623 13.4125 16.5875C13.0377 16.2128 12.5299 16.0016 12 16ZM18 16C17.6044 16 17.2178 16.1173 16.8889 16.3371C16.56 16.5568 16.3036 16.8692 16.1522 17.2346C16.0009 17.6001 15.9613 18.0022 16.0384 18.3902C16.1156 18.7781 16.3061 19.1345 16.5858 19.4142C16.8655 19.6939 17.2219 19.8844 17.6098 19.9616C17.9978 20.0387 18.3999 19.9991 18.7654 19.8478C19.1308 19.6964 19.4432 19.44 19.6629 19.1111C19.8827 18.7822 20 18.3956 20 18C19.9984 17.4701 19.7872 16.9623 19.4125 16.5875C19.0377 16.2128 18.5299 16.0016 18 16ZM18 10C17.6044 10 17.2178 10.1173 16.8889 10.3371C16.56 10.5568 16.3036 10.8692 16.1522 11.2346C16.0009 11.6001 15.9613 12.0022 16.0384 12.3902C16.1156 12.7781 16.3061 13.1345 16.5858 13.4142C16.8655 13.6939 17.2219 13.8844 17.6098 13.9616C17.9978 14.0387 18.3999 13.9991 18.7654 13.8478C19.1308 13.6964 19.4432 13.44 19.6629 13.1111C19.8827 12.7822 20 12.3956 20 12C19.9984 11.4701 19.7872 10.9623 19.4125 10.5875C19.0377 10.2128 18.5299 10.0016 18 10ZM12 10C11.6044 10 11.2178 10.1173 10.8889 10.3371C10.56 10.5568 10.3036 10.8692 10.1522 11.2346C10.0009 11.6001 9.96126 12.0022 10.0384 12.3902C10.1156 12.7781 10.3061 13.1345 10.5858 13.4142C10.8655 13.6939 11.2219 13.8844 11.6098 13.9616C11.9978 14.0387 12.3999 13.9991 12.7654 13.8478C13.1308 13.6964 13.4432 13.44 13.6629 13.1111C13.8827 12.7822 14 12.3956 14 12C13.9984 11.4701 13.7872 10.9623 13.4125 10.5875C13.0377 10.2128 12.5299 10.0016 12 10ZM12 4C11.6044 4 11.2178 4.1173 10.8889 4.33706C10.56 4.55682 10.3036 4.86918 10.1522 5.23463C10.0009 5.60009 9.96126 6.00222 10.0384 6.39018C10.1156 6.77814 10.3061 7.13451 10.5858 7.41421C10.8655 7.69392 11.2219 7.8844 11.6098 7.96157C11.9978 8.03874 12.3999 7.99914 12.7654 7.84776C13.1308 7.69638 13.4432 7.44004 13.6629 7.11114C13.8827 6.78224 14 6.39556 14 6C13.9984 5.47005 13.7872 4.96227 13.4125 4.58754C13.0377 4.21281 12.5299 4.00158 12 4Z" fill="black"/>
</g>
<defs>
<clipPath id="clip0_1575_5347">
<rect width="24" height="24" fill="white"/>
</clipPath>
</defs>
</svg>
