<svg width="107" height="20" viewBox="0 0 107 20" fill="none" xmlns="http://www.w3.org/2000/svg">
<path d="M1.11519 19.9977C0.999172 19.9977 0.887893 19.9516 0.805855 19.8695C0.723818 19.7875 0.677734 19.6762 0.677734 19.5602V0.437457C0.677734 0.321438 0.723818 0.210158 0.805855 0.128121C0.887893 0.0460831 0.999172 0 1.11519 0H4.3648C4.48082 0 4.5921 0.0460831 4.67414 0.128121C4.75617 0.210158 4.80226 0.321438 4.80226 0.437457V16.4243C4.80226 16.5403 4.84834 16.6516 4.93038 16.7337C5.01241 16.8157 5.12368 16.8618 5.23969 16.8618H11.0178C11.1338 16.8618 11.2451 16.9079 11.3271 16.9899C11.4091 17.0719 11.4552 17.1832 11.4552 17.2992V19.559C11.4552 19.675 11.4091 19.7862 11.3271 19.8683C11.2451 19.9503 11.1338 19.9964 11.0178 19.9964L1.11519 19.9977Z" fill="black"/>
<path d="M24.9874 19.9978C24.8635 19.9928 24.7443 19.9493 24.6463 19.8734C24.5482 19.7974 24.4763 19.6928 24.4406 19.5741L23.5819 16.227C23.5462 16.1083 23.4743 16.0037 23.3763 15.9278C23.2783 15.8518 23.159 15.8083 23.0351 15.8033H18.1888C18.0648 15.8085 17.9454 15.8519 17.847 15.9277C17.7486 16.0034 17.6762 16.1078 17.6395 16.2264L16.7552 19.5748C16.7188 19.6934 16.6465 19.7978 16.5482 19.8736C16.4499 19.9494 16.3305 19.9928 16.2065 19.9978H13.39C13.3375 20.0017 13.2848 19.9924 13.2368 19.9708C13.1887 19.9491 13.1468 19.9159 13.1149 19.874C13.0829 19.8321 13.0619 19.7829 13.0538 19.7309C13.0456 19.6789 13.0506 19.6257 13.0681 19.576L18.2513 0.620098C18.289 0.501522 18.3624 0.397404 18.4613 0.321938C18.5603 0.246473 18.68 0.203285 18.8044 0.198242H22.6358C22.76 0.20335 22.8796 0.246673 22.9782 0.322282C23.0769 0.397891 23.1498 0.502117 23.187 0.620709L28.2814 19.5754C28.2985 19.6252 28.3031 19.6786 28.2946 19.7307C28.2861 19.7827 28.2648 19.8319 28.2327 19.8738C28.2006 19.9156 28.1586 19.9488 28.1105 19.9705C28.0624 19.9921 28.0097 20.0015 27.957 19.9978H24.9874ZM20.8047 3.7841C20.786 3.63124 20.7304 3.4852 20.6429 3.3585C20.555 3.48501 20.4986 3.63071 20.4785 3.78345L18.3138 12.7493C18.2981 12.8002 18.295 12.8541 18.3048 12.9065C18.3145 12.9588 18.3368 13.008 18.3698 13.0498C18.4027 13.0917 18.4453 13.1249 18.4939 13.1467C18.5425 13.1684 18.5956 13.1781 18.6487 13.1749H22.5727C22.6259 13.178 22.6791 13.1683 22.7278 13.1464C22.7765 13.1246 22.8192 13.0914 22.8523 13.0496C22.8854 13.0078 22.908 12.9586 22.918 12.9062C22.9281 12.8538 22.9254 12.7998 22.9101 12.7487L20.8047 3.7841Z" fill="black"/>
<path d="M40.8212 19.9978C40.6917 19.9909 40.5661 19.9511 40.4562 19.8822C40.3463 19.8133 40.2558 19.7176 40.1931 19.6041L33.8289 6.4088C33.7724 6.26445 33.691 6.13118 33.5883 6.01509C33.5392 6.15536 33.5226 6.30492 33.5395 6.45255L33.602 19.5604C33.602 19.6764 33.5559 19.7877 33.4739 19.8697C33.3919 19.9517 33.2806 19.9978 33.1646 19.9978H30.4149C30.2989 19.9978 30.1876 19.9517 30.1056 19.8697C30.0235 19.7877 29.9774 19.6764 29.9774 19.5604V0.635699C29.9774 0.51968 30.0235 0.408439 30.1056 0.326401C30.1876 0.244363 30.2989 0.198242 30.4149 0.198242H34.1376C34.2669 0.205082 34.3922 0.245004 34.5016 0.314157C34.611 0.383311 34.7009 0.479392 34.7625 0.593208L41.0655 13.8698C41.1207 14.0146 41.2011 14.1486 41.303 14.2654C41.3521 14.1251 41.369 13.9756 41.3524 13.8279L41.3211 0.635699C41.3211 0.51968 41.3672 0.408439 41.4492 0.326401C41.5313 0.244363 41.6426 0.198242 41.7586 0.198242H44.3733C44.4893 0.198242 44.6006 0.244363 44.6826 0.326401C44.7646 0.408439 44.8107 0.51968 44.8107 0.635699V19.5604C44.8107 19.6764 44.7646 19.7877 44.6826 19.8697C44.6006 19.9517 44.4893 19.9978 44.3733 19.9978H40.8212Z" fill="black"/>
<path d="M55.8219 3.05043C55.7059 3.05043 55.5946 3.09651 55.5126 3.17855C55.4305 3.26058 55.3845 3.37186 55.3845 3.48788V19.5604C55.3845 19.6178 55.3731 19.6747 55.3512 19.7278C55.3292 19.7809 55.297 19.8291 55.2563 19.8697C55.2157 19.9103 55.1675 19.9426 55.1144 19.9645C55.0613 19.9865 55.0044 19.9978 54.947 19.9978H51.8618C51.7457 19.9978 51.6345 19.9517 51.5524 19.8697C51.4704 19.7877 51.4243 19.6764 51.4243 19.5604V3.48788C51.4243 3.37186 51.3782 3.26058 51.2962 3.17855C51.2141 3.09651 51.1029 3.05043 50.9868 3.05043H47.3985C47.2825 3.05043 47.1712 3.00434 47.0892 2.9223C47.0071 2.84027 46.9611 2.72899 46.9611 2.61297V0.635699C46.9611 0.51968 47.0071 0.408439 47.0892 0.326401C47.1712 0.244363 47.2825 0.198242 47.3985 0.198242H59.4102C59.4677 0.198242 59.5246 0.209557 59.5776 0.231541C59.6307 0.253524 59.679 0.28578 59.7196 0.326401C59.7602 0.367022 59.7924 0.415217 59.8144 0.468291C59.8364 0.521365 59.8477 0.578252 59.8477 0.635699V2.61297C59.8477 2.67042 59.8364 2.7273 59.8144 2.78038C59.7924 2.83345 59.7602 2.88168 59.7196 2.9223C59.679 2.96293 59.6307 2.99514 59.5776 3.01713C59.5246 3.03911 59.4677 3.05043 59.4102 3.05043H55.8219Z" fill="black"/>
<path d="M62.7343 19.9978C62.6183 19.9978 62.507 19.9517 62.4249 19.8697C62.3429 19.7877 62.2968 19.6764 62.2968 19.5604V0.635699C62.2968 0.51968 62.3429 0.408439 62.4249 0.326401C62.507 0.244363 62.6183 0.198242 62.7343 0.198242H72.495C72.611 0.198242 72.7223 0.244363 72.8043 0.326401C72.8864 0.408439 72.9324 0.51968 72.9324 0.635699V2.72484C72.9324 2.84086 72.8864 2.95214 72.8043 3.03418C72.7223 3.11621 72.611 3.1623 72.495 3.1623H66.5913C66.5339 3.1623 66.477 3.17361 66.4239 3.1956C66.3708 3.21758 66.3226 3.2498 66.282 3.29042C66.2414 3.33104 66.2091 3.37927 66.1872 3.43235C66.1652 3.48542 66.1539 3.54231 66.1539 3.59975V7.98237C66.1539 8.09839 66.1999 8.20963 66.282 8.29167C66.364 8.3737 66.4753 8.41979 66.5913 8.41979H71.995C72.1111 8.41979 72.2223 8.46591 72.3044 8.54795C72.3864 8.62998 72.4325 8.74122 72.4325 8.85724V10.7233C72.4325 10.8393 72.3864 10.9505 72.3044 11.0326C72.2223 11.1146 72.1111 11.1607 71.995 11.1607H66.5951C66.5376 11.1607 66.4807 11.1721 66.4276 11.194C66.3746 11.216 66.3263 11.2482 66.2857 11.2889C66.2451 11.3295 66.2129 11.3777 66.1909 11.4308C66.1689 11.4838 66.1576 11.5407 66.1576 11.5982V16.5676C66.1576 16.625 66.1689 16.6819 66.1909 16.735C66.2129 16.7881 66.2451 16.8363 66.2857 16.8769C66.3263 16.9176 66.3746 16.9498 66.4276 16.9718C66.4807 16.9937 66.5376 17.0051 66.5951 17.0051H72.8343C72.9504 17.0051 73.0616 17.0511 73.1436 17.1332C73.2257 17.2152 73.2718 17.3265 73.2718 17.4425V19.5604C73.2718 19.6764 73.2257 19.7877 73.1436 19.8697C73.0616 19.9517 72.9504 19.9978 72.8343 19.9978H62.7343Z" fill="black"/>
<path d="M85.7547 19.9978C85.6263 19.9912 85.502 19.9506 85.3944 19.8802C85.2868 19.8099 85.1998 19.7122 85.1423 19.5973L81.8008 11.9532C81.743 11.8382 81.6559 11.7406 81.5482 11.6703C81.4405 11.5999 81.3162 11.5593 81.1877 11.5525H79.8129C79.6969 11.5525 79.5856 11.5986 79.5036 11.6807C79.4215 11.7627 79.3754 11.874 79.3754 11.99V19.5604C79.3754 19.6178 79.3641 19.6747 79.3421 19.7278C79.3201 19.7809 79.2879 19.8291 79.2473 19.8697C79.2067 19.9103 79.1585 19.9426 79.1054 19.9645C79.0523 19.9865 78.9954 19.9978 78.938 19.9978H75.9202C75.8628 19.9978 75.8059 19.9865 75.7528 19.9645C75.6997 19.9426 75.6515 19.9103 75.6109 19.8697C75.5703 19.8291 75.538 19.7809 75.5161 19.7278C75.4941 19.6747 75.4828 19.6178 75.4828 19.5604V0.635699C75.4828 0.578252 75.4941 0.521365 75.5161 0.468291C75.538 0.415217 75.5703 0.367022 75.6109 0.326401C75.6515 0.28578 75.6997 0.253524 75.7528 0.231541C75.8059 0.209557 75.8628 0.198242 75.9202 0.198242H81.8233C82.0639 0.198242 82.4576 0.209492 82.6982 0.222615C83.4652 0.264993 84.228 0.364235 84.9804 0.519478C85.7538 0.708401 86.4793 1.05639 87.1108 1.54124C87.707 2.01091 88.1842 2.61441 88.5037 3.30289C88.8571 4.10352 89.0279 4.97278 89.0037 5.84761C89.0168 6.53962 88.8974 7.22775 88.6518 7.87488C88.4419 8.42029 88.141 8.92614 87.7619 9.37095C87.4225 9.76554 87.02 10.1011 86.5708 10.3639C86.2926 10.5214 85.9996 10.6512 85.6959 10.7514C85.6432 10.7666 85.5945 10.7931 85.5532 10.8292C85.5119 10.8653 85.4789 10.91 85.4568 10.9602C85.4346 11.0104 85.4237 11.0648 85.4249 11.1196C85.426 11.1745 85.4392 11.2284 85.4635 11.2776L89.3555 19.6016C89.3826 19.6429 89.3972 19.6911 89.3976 19.7405C89.398 19.7899 89.3842 19.8383 89.3579 19.8801C89.3316 19.9218 89.2937 19.9551 89.249 19.976C89.2043 19.9969 89.1545 20.0045 89.1055 19.9978H85.7547ZM85.0485 6.01509C85.0668 5.50424 84.9634 4.99634 84.7467 4.53337C84.5649 4.16441 84.2935 3.84689 83.9574 3.60975C83.6273 3.38368 83.2572 3.22249 82.8669 3.1348C82.6133 3.07736 82.3557 3.03914 82.0964 3.02045C81.8558 3.0067 81.4627 2.99481 81.2215 2.99481H79.8148C79.6987 2.99481 79.5875 3.0409 79.5054 3.12293C79.4234 3.20497 79.3773 3.31625 79.3773 3.43227V8.65291C79.3773 8.76893 79.4234 8.88017 79.5054 8.96221C79.5875 9.04425 79.6987 9.09033 79.8148 9.09033H81.2215C81.5128 9.08673 81.8037 9.06588 82.0926 9.02785C82.8009 8.93269 83.4818 8.69181 84.0924 8.32043C84.4201 8.03706 84.6772 7.68111 84.8432 7.28089C85.0092 6.88067 85.0795 6.44726 85.0485 6.01509Z" fill="black"/>
<path d="M102.332 19.9978C102.203 19.9909 102.077 19.9511 101.967 19.8822C101.857 19.8133 101.767 19.7176 101.704 19.6041L95.3392 6.4088C95.2833 6.26418 95.2018 6.13081 95.0986 6.01509C95.0502 6.15552 95.0338 6.30497 95.0505 6.45255L95.1129 19.5604C95.1129 19.6764 95.0669 19.7877 94.9848 19.8697C94.9028 19.9517 94.7915 19.9978 94.6755 19.9978H91.9258C91.8098 19.9978 91.6985 19.9517 91.6165 19.8697C91.5345 19.7877 91.4884 19.6764 91.4884 19.5604V0.635699C91.4884 0.51968 91.5345 0.408439 91.6165 0.326401C91.6985 0.244363 91.8098 0.198242 91.9258 0.198242H95.6485C95.7778 0.205082 95.9031 0.245004 96.0125 0.314157C96.122 0.383311 96.2118 0.479392 96.2734 0.593208L102.576 13.8698C102.631 14.0147 102.712 14.1486 102.814 14.2654C102.863 14.125 102.88 13.9756 102.863 13.8279L102.831 0.635699C102.831 0.578252 102.843 0.521365 102.865 0.468291C102.887 0.415217 102.919 0.367022 102.96 0.326401C103 0.28578 103.048 0.253524 103.101 0.231541C103.155 0.209557 103.211 0.198242 103.269 0.198242H105.885C105.942 0.198242 105.999 0.209557 106.052 0.231541C106.105 0.253524 106.154 0.28578 106.194 0.326401C106.235 0.367022 106.267 0.415217 106.289 0.468291C106.311 0.521365 106.322 0.578252 106.322 0.635699V19.5604C106.322 19.6178 106.311 19.6747 106.289 19.7278C106.267 19.7809 106.235 19.8291 106.194 19.8697C106.154 19.9103 106.105 19.9426 106.052 19.9645C105.999 19.9865 105.942 19.9978 105.885 19.9978H102.332Z" fill="black"/>
</svg>
