<svg width="62" height="32" viewBox="0 0 62 32" fill="none" xmlns="http://www.w3.org/2000/svg">
<path d="M29.4175 27.95V31.4058H0V27.95H3.45122V20.5579H26.2899V27.95H29.4175ZM7.09582 5.46846H0.32268V2.0808H7.09582V0.199707H10.9338V2.0808H18.544V0.199707H22.3822V2.0808H29.1221V5.46942H22.3822V7.28344H18.544V5.46942H10.9338V7.14821H7.09582V5.46846ZM2.44992 18.883V8.8221H6.03128V18.883H2.44992ZM6.99765 27.95H9.99679V23.7063H6.99765V27.95ZM8.32073 7.79598H12.0626V19.5649H8.32073V7.79598ZM27.9 13.3721H22.5178C23.8585 14.8576 24.9398 16.584 25.7114 18.4706L22.6462 20.2155C21.8956 18.2513 20.838 16.4356 19.5178 14.8447L22.2263 13.3731H18.7118C17.9459 15.219 16.9473 16.946 15.743 18.5067C14.7561 17.7065 13.7215 16.9749 12.6457 16.3163C14.7601 13.7661 16.1856 10.6572 16.7717 7.31839L20.3852 8.03718C20.2229 8.71804 20.0616 9.37167 19.869 10.0214H27.9V13.3721ZM13.1921 23.7063V27.95H16.2564V23.7063H13.1921ZM19.4811 23.7063V27.95H22.5141V23.7063H19.4811Z" fill="#040505"/>
<path d="M36.0951 7.65776C36.0985 10.8422 35.6749 14.011 34.8371 17.069L31.9655 15.9388C32.7839 13.1326 33.2291 10.219 33.2885 7.28234L36.0951 7.65776ZM40.8051 13.7153C40.7919 15.4431 40.6837 17.1685 40.4815 18.8829C41.933 20.1824 45.1256 23.6732 45.9333 24.6303L43.4165 27.7106C42.272 26.0475 41.0338 24.4591 39.7085 22.9544C38.8741 26.4117 37.1281 29.5452 34.6749 31.9871C33.9309 30.8266 33.0297 29.7888 32.0004 28.9068C36.6122 24.1867 37.1616 17.6837 37.1616 11.7992V0.540039H40.8372V13.1318C41.5815 10.9717 42.1639 8.75271 42.5793 6.49545L45.7739 7.75988C44.8055 10.1214 43.8043 12.9625 42.9316 14.6704L40.8051 13.7153ZM61.9963 6.56355H57.0287V26.8196C57.0287 29.1811 56.5116 30.3805 55.0619 31.0992C53.6124 31.8181 51.4806 31.8871 48.4814 31.8871C48.1834 30.3447 47.6729 28.8572 46.9666 27.4723C48.9334 27.6445 51.3851 27.6084 52.0289 27.6084C52.6752 27.5754 52.9337 27.3692 52.9337 26.7535V6.56256H45.3236V2.59424H62L61.9963 6.56355Z" fill="#040505"/>
</svg>
