<svg width="24" height="24" viewBox="0 0 24 24" fill="none" xmlns="http://www.w3.org/2000/svg">
<path d="M12 24C18.6274 24 24 18.6274 24 12C24 5.37258 18.6274 0 12 0C5.37258 0 0 5.37258 0 12C0 18.6274 5.37258 24 12 24Z" fill="#00BCD4"/>
<path d="M16.7297 8.98466L16.8223 7.13033L14.4733 6.11066L14.5356 4.81266L13.3083 4.131C13.4266 3.89947 13.4828 3.64114 13.4712 3.38137C13.4596 3.1216 13.3807 2.8693 13.2422 2.64923C13.1037 2.42917 12.9103 2.24888 12.6811 2.12608C12.4519 2.00328 12.1947 1.94218 11.9347 1.94875C11.6748 1.95533 11.421 2.02936 11.1983 2.1636C10.9756 2.29783 10.7917 2.48767 10.6645 2.71446C10.5373 2.94125 10.4712 3.19721 10.4727 3.45724C10.4743 3.71726 10.5434 3.97242 10.6733 4.19767L9.43595 4.90466C9.43595 4.90466 9.58496 6.14168 9.55029 6.16201C9.44596 6.22168 7.17993 7.00633 7.17993 7.00633L7.38826 8.98533L7.40332 8.982C7.46999 9.67733 8.47398 19.6733 10.8793 20.9257C10.9346 20.963 10.9956 20.9909 11.06 21.0083V21.0057L11.55 21.2363L12.0013 21.4697L13.068 21.0173L13.1243 20.991C13.1907 20.9579 13.2543 20.9196 13.3146 20.8763C15.7373 19.3717 16.7056 8.98533 16.7056 8.98533L13.515 8.37167V8.36733L16.7297 8.98466ZM11.9727 2.264C12.1751 2.26349 12.3743 2.31479 12.5513 2.41301C12.7283 2.51122 12.8771 2.65309 12.9838 2.82512C13.0905 2.99714 13.1514 3.19361 13.1607 3.39581C13.17 3.59802 13.1274 3.79923 13.0369 3.98033L12.032 3.422L10.9426 4.04433C10.8382 3.86378 10.7832 3.65887 10.7832 3.45028C10.7832 3.24169 10.8383 3.03679 10.9427 2.85624C11.0472 2.67569 11.1973 2.52588 11.3782 2.4219C11.559 2.31792 11.7641 2.26346 11.9727 2.264Z" fill="#FEE600"/>
<path d="M14.472 6.11199L14.5344 4.814L13.307 4.13232C13.4253 3.90078 13.4815 3.64247 13.4699 3.3827C13.4583 3.12293 13.3793 2.87063 13.2408 2.65057C13.1023 2.4305 12.909 2.25022 12.6798 2.12741C12.4506 2.00461 12.1934 1.94349 11.9335 1.95006C11.6735 1.95664 11.4197 2.03069 11.197 2.16493C10.9743 2.29917 10.7903 2.48898 10.6631 2.71577C10.5359 2.94256 10.4698 3.19852 10.4714 3.45855C10.4729 3.71857 10.5421 3.97373 10.672 4.19899L9.43467 4.906C9.43467 4.906 9.58368 6.14299 9.54901 6.16332C9.44468 6.22299 7.17865 7.00766 7.17865 7.00766L7.38698 8.98667C8.18298 8.81633 10.4167 8.36966 10.4267 8.38032C10.4444 8.40314 10.4542 8.43111 10.4547 8.45999C10.4757 8.91299 11.0417 20.9763 11.0417 20.9763V20.999L11.5487 21.2376L12 21.471L13.0667 21.0186L13.5143 8.36767L16.7283 8.98565L16.821 7.13132L14.472 6.11199ZM10.782 3.45399C10.7815 3.2745 10.8217 3.09722 10.8995 2.93546C10.9773 2.77369 11.0906 2.63163 11.2311 2.51993C11.3716 2.40823 11.5357 2.32978 11.7108 2.29046C11.8859 2.25114 12.0677 2.25196 12.2425 2.29288C12.4172 2.3338 12.5804 2.41376 12.7199 2.52675C12.8594 2.63973 12.9715 2.78282 13.0478 2.94528C13.1241 3.10775 13.1627 3.28537 13.1606 3.46486C13.1585 3.64434 13.1158 3.82103 13.0357 3.98166L12.0306 3.42333L10.9413 4.04567C10.8368 3.86554 10.7818 3.66092 10.782 3.45265V3.45399Z" fill="#012D2D"/>
</svg>
