<svg width="256" height="34" viewBox="0 0 256 34" fill="none" xmlns="http://www.w3.org/2000/svg">
<path d="M0.699997 32.4186C0.514345 32.4186 0.336293 32.3449 0.205017 32.2136C0.0737416 32.0823 0 31.9042 0 31.7186V1.17257C0 0.986918 0.0737416 0.808911 0.205017 0.677635C0.336293 0.54636 0.514345 0.472618 0.699997 0.472618H5.89999C6.08565 0.472618 6.2637 0.54636 6.39497 0.677635C6.52625 0.808911 6.59999 0.986918 6.59999 1.17257V26.7116C6.59999 26.8035 6.6181 26.8945 6.65327 26.9795C6.68845 27.0644 6.74002 27.1416 6.80502 27.2066C6.87002 27.2716 6.94719 27.3231 7.03212 27.3583C7.11705 27.3935 7.20806 27.4116 7.29999 27.4116H16.53C16.7157 27.4116 16.8937 27.4853 17.025 27.6166C17.1562 27.7479 17.23 27.9259 17.23 28.1116V31.7216C17.23 31.9072 17.1562 32.0853 17.025 32.2166C16.8937 32.3479 16.7157 32.4216 16.53 32.4216L0.699997 32.4186Z" fill="black"/>
<path d="M38.834 32.4186C38.6361 32.4107 38.4456 32.3412 38.2891 32.2199C38.1326 32.0985 38.0179 31.9313 37.961 31.7416L36.588 26.3946C36.5311 26.2049 36.4164 26.0377 36.2599 25.9163C36.1034 25.795 35.9129 25.7255 35.715 25.7176H27.973C27.7747 25.7257 27.5838 25.7951 27.4266 25.9162C27.2694 26.0372 27.1535 26.204 27.095 26.3936L25.689 31.7406C25.6305 31.9302 25.5146 32.097 25.3574 32.2181C25.2001 32.3392 25.0093 32.4085 24.811 32.4166H20.311C20.227 32.4227 20.1429 32.4078 20.0662 32.3733C19.9894 32.3388 19.9225 32.2856 19.8714 32.2188C19.8203 32.1519 19.7866 32.0733 19.7735 31.9902C19.7603 31.9071 19.768 31.822 19.796 31.7426L28.076 1.4626C28.1363 1.27328 28.2534 1.10709 28.4113 0.986526C28.5693 0.865965 28.7605 0.796847 28.959 0.788589H35.08C35.2783 0.796809 35.4693 0.866081 35.6268 0.986893C35.7843 1.1077 35.9006 1.27415 35.96 1.46358L44.098 31.7426C44.1255 31.8223 44.1328 31.9075 44.1192 31.9907C44.1057 32.0739 44.0718 32.1525 44.0204 32.2194C43.9691 32.2862 43.902 32.3393 43.8252 32.3739C43.7483 32.4085 43.6641 32.4235 43.58 32.4176L38.834 32.4186ZM32.153 6.51863C32.1232 6.27415 32.0346 6.04047 31.895 5.8376C31.7542 6.03988 31.6643 6.27314 31.633 6.51759L28.176 20.8406C28.1511 20.9218 28.1463 21.0079 28.1619 21.0914C28.1776 21.1749 28.2132 21.2534 28.2658 21.3201C28.3184 21.3869 28.3863 21.4399 28.4639 21.4746C28.5414 21.5094 28.6262 21.5248 28.711 21.5196H34.979C35.064 21.5246 35.1489 21.509 35.2266 21.4742C35.3042 21.4394 35.3724 21.3864 35.4253 21.3197C35.4781 21.253 35.5142 21.1746 35.5303 21.091C35.5465 21.0074 35.5422 20.9212 35.518 20.8396L32.153 6.51863Z" fill="black"/>
<path d="M64.128 32.4186C63.9216 32.407 63.7215 32.3431 63.5465 32.2329C63.3716 32.1227 63.2276 31.9698 63.128 31.7886L52.961 10.7106C52.8713 10.4795 52.7413 10.2662 52.577 10.0806C52.4989 10.3051 52.4722 10.5444 52.499 10.7806L52.599 31.7196C52.599 31.8115 52.5809 31.9026 52.5457 31.9875C52.5105 32.0724 52.459 32.1496 52.394 32.2146C52.329 32.2796 52.2518 32.3312 52.1669 32.3663C52.0819 32.4015 51.9909 32.4196 51.899 32.4196H47.508C47.4161 32.4196 47.325 32.4015 47.2401 32.3663C47.1552 32.3312 47.078 32.2796 47.013 32.2146C46.948 32.1496 46.8964 32.0724 46.8613 31.9875C46.8261 31.9026 46.808 31.8115 46.808 31.7196V1.4886C46.808 1.30295 46.8818 1.12488 47.013 0.993607C47.1443 0.862331 47.3223 0.788589 47.508 0.788589H53.454C53.6607 0.799434 53.8612 0.86317 54.0363 0.973648C54.2114 1.08413 54.3552 1.23769 54.454 1.41963L64.522 22.6276C64.6103 22.8587 64.739 23.0724 64.902 23.2586C64.98 23.0341 65.007 22.7949 64.981 22.5586L64.931 1.48561C64.931 1.29996 65.0047 1.12189 65.136 0.990616C65.2673 0.85934 65.4453 0.785599 65.631 0.785599H69.808C69.9936 0.785599 70.1717 0.85934 70.303 0.990616C70.4343 1.12189 70.508 1.29996 70.508 1.48561V31.7166C70.508 31.9023 70.4343 32.0803 70.303 32.2116C70.1717 32.3428 69.9936 32.4166 69.808 32.4166L64.128 32.4186Z" fill="black"/>
<path d="M88.091 5.3456C87.9054 5.3456 87.7273 5.41934 87.596 5.55061C87.4647 5.68189 87.391 5.85996 87.391 6.04561V31.7196C87.391 31.9053 87.3172 32.0833 87.186 32.2146C87.0547 32.3458 86.8766 32.4196 86.691 32.4196H81.77C81.5843 32.4196 81.4063 32.3458 81.275 32.2146C81.1437 32.0833 81.07 31.9053 81.07 31.7196V6.0406C81.07 5.94868 81.0519 5.85765 81.0167 5.77272C80.9815 5.68779 80.93 5.61061 80.865 5.54561C80.8 5.48061 80.7228 5.42905 80.6379 5.39388C80.553 5.3587 80.4619 5.34059 80.37 5.34059H74.638C74.4523 5.34059 74.2743 5.26685 74.143 5.13557C74.0117 5.0043 73.938 4.82623 73.938 4.64058V1.48262C73.938 1.39069 73.9561 1.29966 73.9913 1.21474C74.0265 1.12981 74.078 1.05263 74.143 0.987625C74.208 0.922624 74.2852 0.87107 74.3701 0.835892C74.455 0.800713 74.5461 0.782608 74.638 0.782608H93.826C93.9179 0.782608 94.0089 0.800713 94.0939 0.835892C94.1788 0.87107 94.256 0.922624 94.321 0.987625C94.386 1.05263 94.4375 1.12981 94.4727 1.21474C94.5079 1.29966 94.526 1.39069 94.526 1.48262V4.64058C94.526 4.82623 94.4522 5.0043 94.321 5.13557C94.1897 5.26685 94.0116 5.34059 93.826 5.34059L88.091 5.3456Z" fill="black"/>
<path d="M99.132 32.4186C98.9463 32.4186 98.7683 32.3449 98.637 32.2136C98.5057 32.0823 98.432 31.9042 98.432 31.7186V1.4886C98.432 1.30295 98.5057 1.12488 98.637 0.993607C98.7683 0.862331 98.9463 0.788589 99.132 0.788589H114.732C114.918 0.788589 115.096 0.862331 115.227 0.993607C115.358 1.12488 115.432 1.30295 115.432 1.4886V4.82558C115.432 5.01123 115.358 5.1893 115.227 5.32057C115.096 5.45185 114.918 5.52559 114.732 5.52559H105.297C105.111 5.52559 104.933 5.59933 104.802 5.73061C104.671 5.86188 104.597 6.03995 104.597 6.2256V13.2256C104.597 13.4113 104.671 13.5893 104.802 13.7206C104.933 13.8519 105.111 13.9256 105.297 13.9256H113.923C114.015 13.9256 114.106 13.9437 114.191 13.9789C114.276 14.0141 114.353 14.0656 114.418 14.1306C114.483 14.1956 114.535 14.2728 114.57 14.3577C114.605 14.4427 114.623 14.5337 114.623 14.6256V17.6056C114.623 17.7913 114.549 17.9693 114.418 18.1006C114.287 18.2319 114.109 18.3056 113.923 18.3056H105.297C105.205 18.3056 105.114 18.3237 105.029 18.3589C104.944 18.3941 104.867 18.4456 104.802 18.5106C104.737 18.5756 104.685 18.6528 104.65 18.7377C104.615 18.8227 104.597 18.9137 104.597 19.0056V26.9406C104.597 27.1263 104.671 27.3043 104.802 27.4356C104.933 27.5668 105.111 27.6406 105.297 27.6406H115.264C115.45 27.6406 115.628 27.7144 115.759 27.8457C115.89 27.9769 115.964 28.1549 115.964 28.3406V31.7236C115.964 31.9092 115.89 32.0873 115.759 32.2186C115.628 32.3499 115.45 32.4236 115.264 32.4236L99.132 32.4186Z" fill="black"/>
<path d="M135.906 32.4186C135.701 32.4078 135.502 32.3428 135.33 32.2302C135.158 32.1176 135.019 31.9614 134.927 31.7776L129.59 19.5676C129.498 19.3839 129.359 19.2279 129.187 19.1154C129.015 19.003 128.816 18.9382 128.611 18.9276H126.417C126.231 18.9276 126.053 19.0014 125.922 19.1326C125.791 19.2639 125.717 19.4419 125.717 19.6276V31.7206C125.717 31.9062 125.643 32.0843 125.512 32.2156C125.381 32.3469 125.203 32.4206 125.017 32.4206H120.197C120.011 32.4206 119.833 32.3469 119.702 32.2156C119.571 32.0843 119.497 31.9062 119.497 31.7206V1.4886C119.497 1.30295 119.571 1.12488 119.702 0.993607C119.833 0.862331 120.011 0.788589 120.197 0.788589H129.627C130.011 0.788589 130.64 0.806591 131.027 0.827591C132.252 0.894722 133.471 1.05316 134.673 1.30159C135.907 1.60332 137.065 2.15882 138.073 2.93263C139.025 3.68298 139.788 4.64693 140.299 5.7466C140.864 7.02547 141.137 8.41403 141.099 9.8116C141.12 10.9169 140.929 12.016 140.537 13.0496C140.202 13.921 139.722 14.7292 139.116 15.4396C138.575 16.0698 137.933 16.6058 137.216 17.0256C136.771 17.2775 136.302 17.4849 135.816 17.6446C135.732 17.669 135.654 17.7116 135.588 17.7693C135.522 17.827 135.47 17.8984 135.434 17.9786C135.399 18.0587 135.382 18.1457 135.384 18.2333C135.385 18.3209 135.406 18.407 135.445 18.4856L141.662 31.7856C141.706 31.8516 141.729 31.9288 141.73 32.008C141.731 32.0872 141.709 32.165 141.667 32.2319C141.625 32.2989 141.564 32.3522 141.492 32.3855C141.42 32.4188 141.34 32.4307 141.262 32.4196L135.906 32.4186ZM134.777 10.0816C134.806 9.26558 134.641 8.45429 134.295 7.71461C134.004 7.12567 133.571 6.61861 133.035 6.23958C132.508 5.87859 131.916 5.62105 131.293 5.48061C130.888 5.3891 130.476 5.32825 130.062 5.2986C129.678 5.2756 129.05 5.25758 128.662 5.25758H126.414C126.322 5.25758 126.231 5.27569 126.146 5.31087C126.061 5.34605 125.984 5.3976 125.919 5.4626C125.854 5.5276 125.802 5.60478 125.767 5.68971C125.732 5.77464 125.714 5.86567 125.714 5.9576V14.2976C125.714 14.4833 125.788 14.6613 125.919 14.7926C126.05 14.9238 126.228 14.9976 126.414 14.9976H128.662C129.127 14.9914 129.592 14.958 130.053 14.8976C131.184 14.7453 132.272 14.3606 133.247 13.7676C133.772 13.315 134.183 12.746 134.449 12.106C134.715 11.4661 134.828 10.7728 134.778 10.0816H134.777Z" fill="black"/>
<path d="M162.387 32.4186C162.181 32.407 161.98 32.3431 161.806 32.2329C161.631 32.1227 161.487 31.9698 161.387 31.7886L151.219 10.7106C151.129 10.4796 150.999 10.2663 150.835 10.0806C150.757 10.3052 150.731 10.5444 150.758 10.7806L150.858 31.7196C150.858 31.8115 150.84 31.9026 150.805 31.9875C150.77 32.0724 150.718 32.1496 150.653 32.2146C150.588 32.2796 150.511 32.3312 150.426 32.3663C150.341 32.4015 150.25 32.4196 150.158 32.4196H145.767C145.675 32.4196 145.584 32.4015 145.499 32.3663C145.414 32.3312 145.337 32.2796 145.272 32.2146C145.207 32.1496 145.155 32.0724 145.12 31.9875C145.085 31.9026 145.067 31.8115 145.067 31.7196V1.4886C145.067 1.39668 145.085 1.30565 145.12 1.22072C145.155 1.13579 145.207 1.05861 145.272 0.993607C145.337 0.928606 145.414 0.877051 145.499 0.841873C145.584 0.806695 145.675 0.788589 145.767 0.788589H151.711C151.918 0.799434 152.118 0.86317 152.293 0.973648C152.468 1.08413 152.612 1.23769 152.711 1.41963L162.779 22.6276C162.867 22.8587 162.996 23.0724 163.159 23.2586C163.237 23.0342 163.264 22.7949 163.238 22.5586L163.187 1.48561C163.187 1.39369 163.205 1.30266 163.24 1.21773C163.275 1.1328 163.327 1.05562 163.392 0.990616C163.457 0.925615 163.534 0.874061 163.619 0.838882C163.704 0.803704 163.795 0.785599 163.887 0.785599H168.065C168.251 0.785599 168.429 0.85934 168.56 0.990616C168.691 1.12189 168.765 1.29996 168.765 1.48561V31.7166C168.765 31.9023 168.691 32.0803 168.56 32.2116C168.429 32.3428 168.251 32.4166 168.065 32.4166L162.387 32.4186Z" fill="black"/>
<path d="M201.076 10.1296C201.108 11.5848 200.806 13.0279 200.192 14.3476C199.639 15.5063 198.845 16.5335 197.863 17.3606C196.886 18.1709 195.758 18.7778 194.543 19.1456C193.488 19.4191 192.411 19.5975 191.325 19.6786C190.974 19.7046 190.399 19.7256 190.047 19.7256H186.827C186.657 19.7261 186.495 19.7937 186.375 19.9136C186.255 20.0335 186.188 20.196 186.187 20.3656V31.7656C186.187 31.9353 186.119 32.0979 185.999 32.2179C185.879 32.3378 185.717 32.4053 185.547 32.4056H180.484C180.314 32.4053 180.152 32.3378 180.032 32.2179C179.912 32.0979 179.844 31.9353 179.844 31.7656V1.44559C179.845 1.2761 179.912 1.11374 180.032 0.993988C180.152 0.874238 180.315 0.806874 180.484 0.80661H189.712C190.064 0.80661 190.639 0.823574 190.99 0.844574C192.036 0.910217 193.077 1.04655 194.105 1.25259C195.348 1.53118 196.523 2.05468 197.562 2.79257C198.607 3.55167 199.468 4.53553 200.082 5.6716C200.787 7.04893 201.129 8.58327 201.076 10.1296ZM195.003 10.1976C195.064 9.51243 194.965 8.82251 194.713 8.1824C194.461 7.54229 194.063 6.96958 193.552 6.50961C192.61 5.94914 191.564 5.58639 190.477 5.44357C190.055 5.38949 189.63 5.35978 189.204 5.35458H186.828C186.659 5.35485 186.496 5.42221 186.376 5.54196C186.256 5.66171 186.189 5.82414 186.188 5.99362V14.7126C186.188 14.8823 186.256 15.0449 186.376 15.1648C186.496 15.2848 186.658 15.3523 186.828 15.3526H189.204C189.629 15.3469 190.054 15.3136 190.475 15.2526C191.579 15.0856 192.63 14.672 193.552 14.0426C194.057 13.5444 194.448 12.9427 194.699 12.279C194.949 11.6153 195.053 10.9052 195.003 10.1976Z" fill="black"/>
<path d="M220.955 32.4006C220.767 32.3914 220.584 32.3323 220.426 32.2293C220.268 32.1264 220.14 31.9833 220.055 31.8146L214.655 19.5076C214.57 19.3389 214.442 19.1958 214.284 19.0929C214.126 18.9899 213.943 18.9308 213.755 18.9216H211.446C211.276 18.9221 211.114 18.9897 210.994 19.1096C210.874 19.2296 210.806 19.392 210.806 19.5616V31.7616C210.806 31.9311 210.738 32.0936 210.619 32.2135C210.499 32.3335 210.336 32.4011 210.167 32.4016H205.212C205.042 32.4013 204.88 32.3338 204.76 32.2138C204.64 32.0939 204.572 31.9313 204.572 31.7616V1.44162C204.573 1.27214 204.64 1.10971 204.76 0.98996C204.88 0.87021 205.042 0.802845 205.212 0.802582H214.789C215.141 0.802582 215.716 0.818593 216.067 0.838593C217.315 0.906368 218.557 1.06579 219.782 1.31558C221.02 1.61637 222.182 2.17112 223.195 2.94461C224.148 3.69426 224.912 4.6575 225.425 5.75662C225.993 7.03378 226.268 8.42147 226.231 9.81857C226.252 10.9234 226.06 12.022 225.667 13.0546C225.331 13.9253 224.849 14.7328 224.243 15.4426C223.697 16.0709 223.051 16.6041 222.331 17.0206C221.867 17.2794 221.378 17.4924 220.873 17.6566C220.796 17.678 220.724 17.7163 220.663 17.7688C220.602 17.8213 220.554 17.8867 220.521 17.9602C220.489 18.0337 220.473 18.1135 220.475 18.1938C220.478 18.2741 220.498 18.353 220.534 18.4246L226.816 31.8206C226.856 31.881 226.878 31.9519 226.879 32.0246C226.88 32.0973 226.86 32.1686 226.821 32.2299C226.782 32.2913 226.726 32.34 226.659 32.3701C226.593 32.4003 226.52 32.4105 226.448 32.3996L220.955 32.4006ZM219.886 10.0846C219.915 9.26903 219.749 8.45826 219.402 7.71957C219.11 7.13089 218.676 6.62455 218.139 6.24661C217.61 5.8858 217.018 5.62824 216.393 5.48758C215.965 5.39352 215.53 5.33138 215.093 5.30161C214.742 5.28161 214.167 5.26462 213.815 5.26462H211.446C211.276 5.26488 211.114 5.33225 210.994 5.452C210.874 5.57175 210.806 5.73411 210.806 5.90359V14.3546C210.806 14.5241 210.874 14.6864 210.994 14.8062C211.114 14.9259 211.276 14.9934 211.446 14.9936H213.821C214.247 14.9885 214.672 14.9584 215.094 14.9036C216.248 14.7507 217.358 14.3638 218.357 13.7666C218.882 13.3148 219.293 12.7465 219.559 12.1071C219.824 11.4677 219.936 10.7751 219.886 10.0846Z" fill="black"/>
<path d="M256 16.5526C256.027 18.8554 255.711 21.1494 255.06 23.3586C254.501 25.265 253.58 27.0457 252.346 28.6026C251.181 30.0473 249.701 31.2074 248.02 31.9946C246.212 32.7894 244.258 33.1997 242.283 33.1997C240.308 33.1997 238.354 32.7894 236.546 31.9946C234.875 31.2025 233.405 30.0429 232.246 28.6026C231.012 27.0459 230.09 25.2652 229.532 23.3586C228.881 21.1495 228.564 18.8555 228.592 16.5526C228.563 14.2588 228.871 11.9731 229.506 9.76862C230.051 7.8687 230.964 6.09436 232.193 4.54657C233.355 3.10411 234.836 1.95061 236.519 1.17657C238.336 0.396395 240.292 -0.00592041 242.269 -0.00592041C244.246 -0.00592041 246.202 0.396395 248.019 1.17657C249.702 1.95095 251.182 3.1044 252.345 4.54657C253.576 6.09744 254.497 7.87026 255.059 9.76862C255.711 11.97 256.028 14.2569 256 16.5526ZM249.336 16.5526C249.344 15.0307 249.191 13.5121 248.879 12.0226C248.623 10.7405 248.17 9.50588 247.536 8.36261C246.998 7.39449 246.246 6.56252 245.336 5.9306C244.439 5.32957 243.379 5.01791 242.299 5.0376C241.202 5.01269 240.124 5.32433 239.209 5.9306C238.299 6.56219 237.546 7.39424 237.009 8.36261C236.375 9.5036 235.931 10.7395 235.692 12.0226C235.118 15.0153 235.118 18.0898 235.692 21.0826C235.933 22.3719 236.378 23.6148 237.009 24.7646C237.542 25.7427 238.295 26.5833 239.209 27.2196C240.134 27.8027 241.205 28.1122 242.299 28.1122C243.393 28.1122 244.464 27.8027 245.389 27.2196C246.303 26.5831 247.056 25.7426 247.589 24.7646C248.22 23.6145 248.664 22.3718 248.906 21.0826C249.2 19.5907 249.344 18.0732 249.336 16.5526Z" fill="black"/>
</svg>
