<svg width="158" height="33" viewBox="0 0 158 33" fill="none" xmlns="http://www.w3.org/2000/svg">
<path d="M29.1439 28.514V31.9378H0V28.514H3.41912V21.1907H26.0454V28.514H29.1439ZM7.02983 6.24158H0.319679V2.88542H7.02983V1.02182H10.8322V2.88542H18.3716V1.02182H22.174V2.88542H28.8513V6.24253H22.174V8.03968H18.3716V6.24253H10.8322V7.90571H7.02983V6.24158ZM2.42714 19.5314V9.56403H5.9752V19.5314H2.42714ZM6.93258 28.514H9.90383V24.3098H6.93258V28.514ZM8.24335 8.54745H11.9504V20.2069H8.24335V8.54745ZM27.6405 14.0717H22.3084C23.6366 15.5434 24.7079 17.2537 25.4723 19.1229L22.4356 20.8515C21.692 18.9056 20.6442 17.1067 19.3363 15.5306L22.0196 14.0727H18.5378C17.779 15.9015 16.7897 17.6124 15.5966 19.1585C14.6189 18.3659 13.5939 17.641 12.5281 16.9885C14.6228 14.462 16.0351 11.3821 16.6157 8.07431L20.1957 8.78641C20.0349 9.46094 19.875 10.1085 19.6843 10.7522H27.6405V14.0717ZM13.0695 24.3098V28.514H16.1052V24.3098H13.0695ZM19.2999 24.3098V28.514H22.3048V24.3098H19.2999Z" fill="#040505"/>
<path d="M35.7595 8.41055C35.7628 11.5654 35.3432 14.7047 34.5132 17.7342L31.6683 16.6145C32.479 13.8344 32.9201 10.948 32.979 8.03862L35.7595 8.41055ZM40.4257 14.4118C40.4126 16.1234 40.3054 17.8328 40.1051 19.5313C41.5431 20.8187 44.706 24.277 45.5062 25.2252L43.0128 28.2769C41.879 26.6292 40.6522 25.0557 39.3393 23.5649C38.5126 26.9901 36.7828 30.0945 34.3525 32.5136C33.6154 31.3639 32.7226 30.3358 31.7029 29.462C36.2717 24.7858 36.816 18.3432 36.816 12.5135V1.35901H40.4575V13.8336C41.1949 11.6937 41.7718 9.49531 42.1834 7.25905L45.3483 8.51171C44.3888 10.8513 43.397 13.6659 42.5324 15.358L40.4257 14.4118ZM61.4198 7.32651H56.4984V27.3942C56.4984 29.7337 55.9861 30.922 54.5499 31.634C53.1139 32.3463 51.0019 32.4146 48.0306 32.4146C47.7354 30.8865 47.2296 29.4129 46.5298 28.0408C48.4783 28.2114 50.9073 28.1757 51.5451 28.1757C52.1854 28.1429 52.4415 27.9387 52.4415 27.3287V7.32553H44.9022V3.39411H61.4235L61.4198 7.32651Z" fill="#040505"/>
<path d="M75.7611 14.6836C75.505 15.6674 75.2159 16.6108 74.9936 17.5301H87.4889L88.0958 17.3268L91.0353 19.1229C88.8633 21.5636 86.0817 24.5142 83.3986 27.2922C84.913 27.8972 86.3961 28.5874 87.8413 29.3601L85.6359 32.885C82.3122 30.8528 75.4413 28.1411 70.3926 26.7179L72.4048 23.6662C74.5148 24.2087 77.0054 24.9555 79.4689 25.8352C80.9387 24.3099 82.4729 22.7517 83.8137 21.2938H69.6569C70.2928 19.4293 70.9995 17.1234 71.7014 14.6836H64.1621V10.8196H72.7588C73.0152 9.83578 73.2702 8.92039 73.4945 7.93752H66.8153V4.10821H74.4512C74.6763 3.02225 74.8998 2.04034 75.1225 1.02472H79.15C78.9257 2.04227 78.6704 3.05887 78.4143 4.10821H90.2711V7.93752H77.5196L76.7858 10.8196H92.5393V14.6836H75.7611Z" fill="#040505"/>
<path d="M124.714 27.0571V31.0888H96.1437V27.0571H104.389V1.42557H108.319V27.0571H112.506V1.42557H116.436V20.1038C118.296 16.2925 119.826 12.3097 121.006 8.2044L124.425 9.93309C123.018 14.1619 121.32 18.2753 119.344 22.2401L116.438 20.679V27.0542L124.714 27.0571ZM100.363 22.0387C99.3117 17.6836 98.0314 13.3944 96.5279 9.1911L100.011 8.10706C101.598 12.1983 102.984 16.3736 104.165 20.6164L100.363 22.0387Z" fill="#040505"/>
<path d="M138.993 17.2256V32.5466H135.542V20.785H132.635C132.38 25.1906 131.645 29.6327 129.888 32.8175C129.088 31.8865 128.198 31.0467 127.233 30.3121C129.088 26.2101 129.312 19.7367 129.312 14.9563V1.86881H132.795V9.90324H134.968V0.987091H138.387V9.90324H140.593V13.4618H132.795V14.9544C132.795 15.6665 132.795 16.4451 132.763 17.2256H138.993ZM156.538 10.783C155.932 16.7139 154.59 21.4615 152.576 25.1568C153.86 26.9577 155.481 28.4579 157.338 29.5633C156.345 30.5024 155.485 31.5868 154.781 32.7837C153.099 31.5999 151.618 30.1215 150.402 28.4118C148.987 30.1723 147.289 31.6527 145.386 32.7837C144.821 31.7115 144.157 30.7013 143.404 29.7678C143.052 30.8938 142.581 31.9738 141.999 32.9871C141.082 32.1197 140.074 31.3689 138.993 30.7495C141.328 26.2756 141.616 19.1864 141.616 14.3762V3.02125C146.093 2.73406 150.546 2.11099 154.94 1.15671L157.05 4.68342C153.151 5.52092 149.2 6.05366 145.227 6.27725V10.3128H153.663L154.27 10.1759L156.538 10.783ZM148.357 24.8851C146.975 21.9534 145.925 18.8588 145.227 15.6655C145.163 19.9361 144.843 25.0201 143.564 29.2251C145.434 28.1569 147.068 26.6776 148.356 24.8861L148.357 24.8851ZM147.812 13.9696C148.398 16.5327 149.245 19.0206 150.339 21.3892C151.389 19.0282 152.152 16.535 152.609 13.9696H147.812Z" fill="#040505"/>
</svg>
