<svg width="25" height="25" viewBox="0 0 25 25" fill="none" xmlns="http://www.w3.org/2000/svg">
<path d="M12.8467 0.900024C13.0192 0.943149 13.1935 0.982524 13.3642 1.0294C14.6504 1.3819 15.3498 2.30252 15.7604 3.50815C15.9917 4.28596 16.1178 5.09124 16.1354 5.90252C16.1729 6.57752 16.2254 7.2544 16.3117 7.92565C16.4023 8.411 16.6045 8.86866 16.9023 9.26252C17.7967 10.605 18.6985 11.9438 19.5629 13.3088C20.175 14.227 20.4512 15.3285 20.3448 16.4269C20.3073 16.7906 20.2398 17.1506 20.176 17.5106C20.1568 17.5679 20.1529 17.6292 20.1647 17.6884C20.1765 17.7476 20.2037 17.8027 20.2435 17.8481C20.5416 18.1744 20.6999 18.6046 20.6842 19.0463C20.6727 19.2981 20.7349 19.5479 20.8631 19.765C20.9913 19.9821 21.18 20.1572 21.406 20.2688C21.5064 20.3288 21.6104 20.3826 21.7173 20.43C22.486 20.7469 22.5067 21.5044 21.8579 21.9881C21.7111 22.091 21.559 22.1861 21.4023 22.2731L18.5898 23.9438C18.5294 23.9804 18.4734 24.0238 18.4229 24.0731C18.0367 24.4481 17.6223 24.7857 17.071 24.9H16.3623C16.1149 24.8311 15.8849 24.7109 15.6872 24.5471C15.4895 24.3833 15.3285 24.1796 15.2148 23.9494C15.1542 23.8828 15.0717 23.8402 14.9823 23.8294C13.6353 23.5447 12.2479 23.5066 10.8873 23.7169C10.5498 23.7694 10.2085 23.8106 9.87292 23.8819C9.75986 23.9133 9.66115 23.9829 9.59355 24.0788C9.21855 24.5963 8.72542 24.8531 8.11792 24.7181C7.37577 24.5476 6.64447 24.3328 5.92792 24.075C5.10876 23.8016 4.2666 23.6027 3.41167 23.4806C3.01434 23.4043 2.62819 23.2783 2.2623 23.1056C1.90605 22.95 1.8123 22.6613 1.92292 22.2881C2.02844 22.0038 2.11427 21.7124 2.1798 21.4163C2.20796 21.1176 2.20796 20.8169 2.1798 20.5181C2.16014 20.4031 2.13001 20.2902 2.0898 20.1806C1.92855 19.5394 2.13667 19.1756 2.76667 18.9956C3.05917 18.9131 3.35542 18.8475 3.64417 18.7538C3.85297 18.688 4.04639 18.581 4.21293 18.4389C4.37947 18.2968 4.51571 18.1227 4.61355 17.9269C4.74642 17.7278 4.89502 17.5397 5.05792 17.3644C5.10816 17.3062 5.1349 17.2313 5.13292 17.1544C4.99417 16.62 5.1123 16.1344 5.3298 15.6375C5.65417 14.8875 5.95605 14.1263 6.22042 13.3538C6.5566 12.3904 7.05642 11.4922 7.69792 10.6988C7.93042 10.4044 8.12917 10.0819 8.37855 9.8044C8.5813 9.57147 8.7355 9.30039 8.83209 9.00707C8.92868 8.71376 8.96573 8.4041 8.94105 8.09627C8.90167 7.0369 8.83417 5.97752 8.79667 4.90877C8.75662 4.2785 8.81546 3.64585 8.97105 3.03377C9.26355 2.01002 9.98542 1.43815 10.9548 1.13065C11.2717 1.03502 11.5942 0.976899 11.9092 0.900024H12.8467ZM16.681 17.5875C16.9472 16.5908 16.9717 15.545 16.7523 14.5369C16.4223 13.17 15.8673 11.88 15.2992 10.5994C14.9504 9.81565 14.5623 9.05252 14.1929 8.28002C14.1832 8.24596 14.1654 8.21475 14.1409 8.18908C14.1165 8.1634 14.0863 8.14402 14.0527 8.1326C14.0192 8.12117 13.9834 8.11804 13.9484 8.12347C13.9134 8.1289 13.8802 8.14273 13.8517 8.16377C13.5104 8.3344 13.1673 8.50127 12.8298 8.67565C12.3648 8.9044 11.9054 9.15002 11.4479 9.39002C11.3476 9.44484 11.2351 9.47356 11.1207 9.47356C11.0064 9.47356 10.8939 9.44484 10.7935 9.39002C10.5144 9.238 10.2457 9.06763 9.98917 8.88002C9.80269 8.73098 9.62548 8.57068 9.45855 8.40002C9.45855 8.52752 9.45855 8.64377 9.45855 8.75815C9.38662 9.41911 9.15426 10.0525 8.78167 10.6031C8.55968 10.9397 8.36829 11.2955 8.2098 11.6663C7.92667 12.3413 7.73542 13.0575 7.40542 13.7063C7.0107 14.4146 6.76265 15.1951 6.67605 16.0013C6.62355 16.7513 6.7023 17.4563 7.31917 17.9888C7.59667 18.2288 7.88167 18.4669 8.15167 18.7069C8.58292 19.0819 9.02355 19.44 9.43605 19.8319C9.5564 19.9358 9.63547 20.0794 9.65886 20.2367C9.68226 20.3939 9.64844 20.5544 9.56355 20.6888C9.40726 20.8732 9.2305 21.0393 9.03667 21.1838C9.30855 21.495 9.61792 21.855 9.93855 22.2075C9.99649 22.2566 10.0708 22.282 10.1467 22.2788C10.8404 22.2694 11.5342 22.2788 12.2242 22.2338C13.5723 22.1569 14.6092 21.4838 15.4642 20.4844C15.547 20.3762 15.5954 20.2455 15.6029 20.1094C15.646 19.4025 15.6704 18.6919 15.7042 17.9832C15.7019 17.8845 15.7373 17.7887 15.8031 17.7152C15.8689 17.6417 15.9603 17.5961 16.0585 17.5875C16.2659 17.5753 16.4737 17.5753 16.681 17.5875ZM9.13042 22.77C9.07825 22.5676 9.00142 22.3724 8.90167 22.1888C8.59605 21.72 8.23417 21.2869 7.92667 20.8181C7.53292 20.22 7.19167 19.5863 6.78855 18.9919C6.55659 18.6513 6.28466 18.3397 5.97855 18.0638C5.6523 17.7694 5.41605 17.8425 5.19292 18.2288C5.09167 18.4163 4.99042 18.6038 4.8948 18.7913C4.83424 18.9126 4.74748 19.0189 4.64079 19.1026C4.53411 19.1862 4.41016 19.2451 4.27792 19.275C3.97605 19.35 3.6723 19.4213 3.3723 19.5019C2.8698 19.635 2.77792 19.7813 2.89042 20.2913C2.9971 20.7253 2.97693 21.1809 2.8323 21.6038C2.77581 21.7653 2.72885 21.9299 2.69167 22.0969C2.61292 22.4438 2.69167 22.5956 3.03855 22.6856C3.27198 22.7467 3.50858 22.7949 3.7473 22.83C4.62083 22.9412 5.47502 23.1714 6.28605 23.5144C6.74269 23.7105 7.21497 23.8679 7.69792 23.985C8.39917 24.165 9.13417 23.5875 9.13042 22.77ZM16.8048 18.3488C16.5142 18.2794 16.3979 18.3488 16.4035 18.6356C16.4035 19.0406 16.4448 19.4457 16.4542 19.8506C16.4748 20.7319 16.2667 21.5831 16.1035 22.4419C16.0008 22.8648 16.0681 23.3112 16.291 23.685C16.5329 24.06 16.8854 24.2063 17.296 24.0206C17.6179 23.8802 17.9159 23.6904 18.1792 23.4581C18.6493 23.0126 19.1787 22.634 19.7523 22.3331C20.101 22.1588 20.446 21.975 20.7873 21.7913C20.9807 21.6909 21.1684 21.5801 21.3498 21.4594C21.5785 21.3056 21.5842 21.1444 21.3685 20.9719C21.2315 20.8558 21.0803 20.7575 20.9185 20.6794C20.7053 20.5894 20.5181 20.447 20.3746 20.2655C20.231 20.0839 20.1356 19.8689 20.0973 19.6406C20.0579 19.4531 20.0673 19.2356 20.026 19.0388C19.9809 18.8801 19.9232 18.7252 19.8535 18.5756C19.786 18.6206 19.7692 18.6263 19.7617 18.6394C19.7426 18.6638 19.7262 18.6902 19.7129 18.7181C19.3548 19.4325 18.7435 19.7438 17.9767 19.7981C17.3748 19.8413 17.0054 19.5731 16.8779 18.9863C16.8424 18.7752 16.818 18.5624 16.8048 18.3488ZM11.2304 8.87627L11.2435 8.90815C11.3966 8.85981 11.5462 8.80157 11.6917 8.73377C12.2042 8.45252 12.7123 8.1644 13.216 7.8694C13.3698 7.7794 13.6417 7.7269 13.591 7.51127C13.5142 7.33049 13.3694 7.18709 13.1879 7.1119C12.6811 6.88903 12.1629 6.69313 11.6354 6.52502C11.4603 6.4727 11.2717 6.49156 11.1104 6.57752C10.6585 6.88127 10.2348 7.2244 9.80917 7.56565C9.78577 7.59905 9.77023 7.63733 9.76374 7.6776C9.75724 7.71786 9.75996 7.75908 9.77167 7.79815C9.8673 8.12627 10.8648 8.8594 11.2117 8.87065L11.2304 8.87627ZM13.3229 6.57002C13.5835 6.72002 13.6154 6.71627 13.7917 6.53252C14.0471 6.24927 14.1962 5.88602 14.2133 5.50497C14.2304 5.12392 14.1145 4.74878 13.8854 4.44377C13.7962 4.32152 13.6802 4.2213 13.5462 4.1508C13.4123 4.0803 13.264 4.04139 13.1127 4.03705C12.9614 4.03271 12.8111 4.06304 12.6734 4.12574C12.5356 4.18844 12.414 4.28184 12.3179 4.39877C12.1588 4.57381 12.043 4.78376 11.9798 5.01172C11.9166 5.23969 11.9079 5.4793 11.9542 5.71127C12.0142 6.08627 12.1154 6.19315 12.4623 6.22315C12.4683 5.96495 12.4965 5.70775 12.5467 5.4544C12.5739 5.3379 12.64 5.23414 12.7341 5.16019C12.8281 5.08624 12.9445 5.04651 13.0642 5.04752C13.1862 5.05135 13.304 5.0934 13.4009 5.16775C13.4978 5.24209 13.5689 5.34498 13.6042 5.4619C13.6823 5.65235 13.6971 5.86287 13.6465 6.06239C13.5958 6.26192 13.4824 6.43988 13.3229 6.57002ZM10.4992 6.23815C10.6454 6.1519 10.7729 6.08065 10.8967 6.0019C10.9337 5.97684 10.9599 5.93864 10.9698 5.89502C11.0184 5.66892 11.0186 5.4351 10.9704 5.2089C10.9223 4.98271 10.8269 4.76925 10.6904 4.58252C10.3567 4.1494 9.86355 4.14565 9.5223 4.57127C9.38846 4.7411 9.29066 4.93643 9.23489 5.14534C9.17911 5.35425 9.16654 5.57234 9.19792 5.78627C9.24855 6.22315 9.38542 6.61877 9.81855 6.86252L10.1354 6.5944C10.0241 6.55818 9.92116 6.50021 9.83247 6.42384C9.74379 6.34748 9.67117 6.25425 9.61883 6.14957C9.56649 6.0449 9.53548 5.93086 9.5276 5.81409C9.51972 5.69733 9.53513 5.58016 9.57292 5.4694C9.62355 5.2819 9.72105 5.08127 9.92542 5.0944C10.0901 5.11724 10.2394 5.20332 10.3417 5.3344C10.438 5.46159 10.5026 5.60997 10.53 5.76718C10.5574 5.92438 10.5468 6.08586 10.4992 6.23815Z" fill="#1B1C1D"/>
</svg>
