<svg width="24" height="25" viewBox="0 0 24 25" fill="none" xmlns="http://www.w3.org/2000/svg">
<path d="M12 12.8569C12.55 12.8569 13.0208 12.6611 13.4125 12.2694C13.8042 11.8778 14 11.4069 14 10.8569C14 10.3069 13.8042 9.8361 13.4125 9.44443C13.0208 9.05277 12.55 8.85693 12 8.85693C11.45 8.85693 10.9792 9.05277 10.5875 9.44443C10.1958 9.8361 10 10.3069 10 10.8569C10 11.4069 10.1958 11.8778 10.5875 12.2694C10.9792 12.6611 11.45 12.8569 12 12.8569ZM12 20.2069C14.0333 18.3403 15.5417 16.6444 16.525 15.1194C17.5083 13.5944 18 12.2403 18 11.0569C18 9.24027 17.4208 7.75277 16.2625 6.59443C15.1042 5.4361 13.6833 4.85693 12 4.85693C10.3167 4.85693 8.89583 5.4361 7.7375 6.59443C6.57917 7.75277 6 9.24027 6 11.0569C6 12.2403 6.49167 13.5944 7.475 15.1194C8.45833 16.6444 9.96667 18.3403 12 20.2069ZM12 22.8569C9.31667 20.5736 7.3125 18.4528 5.9875 16.4944C4.6625 14.5361 4 12.7236 4 11.0569C4 8.55693 4.80417 6.56527 6.4125 5.08193C8.02083 3.5986 9.88333 2.85693 12 2.85693C14.1167 2.85693 15.9792 3.5986 17.5875 5.08193C19.1958 6.56527 20 8.55693 20 11.0569C20 12.7236 19.3375 14.5361 18.0125 16.4944C16.6875 18.4528 14.6833 20.5736 12 22.8569Z" fill="#040404"/>
</svg>
