<svg width="25" height="25" viewBox="0 0 25 25" fill="none" xmlns="http://www.w3.org/2000/svg">
<path d="M14.7301 0.801636C15.135 3.50478 12.8893 6.35789 10.3024 6.57346C9.86935 6.60908 9.82061 6.39913 9.82248 6.07483C9.83186 4.55079 10.4655 3.3042 11.5452 2.28255C12.4028 1.4342 13.5288 0.910638 14.7301 0.801636V0.801636Z" fill="#1B1C1D"/>
<path d="M21.8779 8.99901C17.9038 11.3441 18.5262 16.8479 22.6109 18.6193C21.6005 20.777 20.4964 22.8596 18.5655 24.3537C17.6395 25.0716 16.5635 25.2047 15.5194 24.678C13.6448 23.7313 11.8321 23.7876 9.95373 24.678C8.64153 25.3041 7.40618 24.9573 6.36579 23.9994C4.85488 22.6028 3.81261 20.8688 3.05153 18.9793C2.088 16.5911 1.6681 14.1204 2.26609 11.5672C2.88282 8.94277 5.05733 6.9126 7.72486 6.64454C8.59975 6.5794 9.47789 6.71666 10.2912 7.0457C11.9202 7.68868 13.4236 7.67555 15.0676 7.01945C17.6395 5.99406 20.099 6.79263 21.8779 8.99901Z" fill="#1B1C1D"/>
</svg>
