<svg width="24" height="25" viewBox="0 0 24 25" fill="none" xmlns="http://www.w3.org/2000/svg">
<path d="M9.5 7.30371V10.3037H6.5V7.30371H9.5ZM11 5.80371H5V11.8037H11V5.80371ZM9.5 15.3037V18.3037H6.5V15.3037H9.5ZM11 13.8037H5V19.8037H11V13.8037ZM17.5 7.30371V10.3037H14.5V7.30371H17.5ZM19 5.80371H13V11.8037H19V5.80371ZM13 13.8037H14.5V15.3037H13V13.8037ZM14.5 15.3037H16V16.8037H14.5V15.3037ZM16 13.8037H17.5V15.3037H16V13.8037ZM13 16.8037H14.5V18.3037H13V16.8037ZM14.5 18.3037H16V19.8037H14.5V18.3037ZM16 16.8037H17.5V18.3037H16V16.8037ZM17.5 15.3037H19V16.8037H17.5V15.3037ZM17.5 18.3037H19V19.8037H17.5V18.3037ZM22 7.80371H20V4.80371H17V2.80371H22V7.80371ZM22 22.8037V17.8037H20V20.8037H17V22.8037H22ZM2 22.8037H7V20.8037H4V17.8037H2V22.8037ZM2 2.80371V7.80371H4V4.80371H7V2.80371H2Z" fill="#1B1C1D"/>
</svg>
