<svg width="24" height="24" viewBox="0 0 24 24" fill="none" xmlns="http://www.w3.org/2000/svg">
<path d="M8.6 22.5L6.7 19.3L3.1 18.5L3.45 14.8L1 12L3.45 9.2L3.1 5.5L6.7 4.7L8.6 1.5L12 2.95L15.4 1.5L17.3 4.7L20.9 5.5L20.55 9.2L23 12L20.55 14.8L20.9 18.5L17.3 19.3L15.4 22.5L12 21.05L8.6 22.5ZM9.45 19.95L12 18.85L14.6 19.95L16 17.55L18.75 16.9L18.5 14.1L20.35 12L18.5 9.85L18.75 7.05L16 6.45L14.55 4.05L12 5.15L9.4 4.05L8 6.45L5.25 7.05L5.5 9.85L3.65 12L5.5 14.1L5.25 16.95L8 17.55L9.45 19.95ZM10.95 15.55L16.6 9.9L15.2 8.45L10.95 12.7L8.8 10.6L7.4 12L10.95 15.55Z" fill="#012D2D"/>
</svg>
