<svg width="159" height="148" viewBox="0 0 159 148" fill="none" xmlns="http://www.w3.org/2000/svg">
<path d="M157.655 106.694L77.4454 85.2531C76.599 85.0216 75.2897 85.1808 74.5301 85.5786L1.21406 124.468C0.440028 124.881 0.505135 125.387 1.35151 125.626L81.5615 147.067C82.4079 147.299 83.7172 147.139 84.4913 146.742L157.807 107.852C158.581 107.44 158.516 106.933 157.67 106.694H157.655Z" fill="black"/>
<path d="M82.4659 147.537C82.1042 147.537 81.757 147.501 81.4532 147.414L1.25044 125.973C0.483639 125.763 0.331728 125.365 0.302793 125.148C0.281091 124.931 0.338925 124.519 1.03338 124.15L74.3567 85.26C75.2175 84.8043 76.6209 84.6523 77.5396 84.9055L157.757 106.347C158.524 106.557 158.676 106.955 158.697 107.172C158.719 107.389 158.661 107.801 157.967 108.17L84.6506 147.06C84.0574 147.363 83.2255 147.537 82.4659 147.537ZM76.5413 85.506C75.8975 85.506 75.1741 85.6506 74.7039 85.8966L1.38788 124.786C1.12023 124.931 1.04062 125.047 1.04062 125.076C1.04786 125.09 1.15637 125.191 1.45297 125.271L81.6557 146.712C82.4008 146.915 83.6233 146.777 84.325 146.416L157.641 107.526C157.909 107.381 157.988 107.266 157.988 107.237C157.981 107.222 157.88 107.128 157.612 107.049H157.569L77.3587 85.6C77.12 85.5349 76.8379 85.506 76.5413 85.506Z" fill="black"/>
<path d="M157.519 67.9373L76.7882 46.3585C76.3325 46.2427 75.6308 46.3151 75.204 46.5393L1.41048 85.6894C0.998144 85.9137 1.02711 86.1886 1.48284 86.3116L82.2137 107.89C82.6694 108.006 83.3711 107.934 83.7979 107.71L157.599 68.5667C158.011 68.3424 157.982 68.0675 157.534 67.9446H157.526L157.519 67.9373Z" fill="#DBD9D9"/>
<path d="M82.7054 108.302C82.4957 108.302 82.3003 108.281 82.1267 108.237L1.39587 86.6585C0.889497 86.5211 0.780992 86.2317 0.766524 86.0725C0.752056 85.9134 0.78825 85.6096 1.24399 85.3636L75.0447 46.2135C75.5438 45.9531 76.3323 45.859 76.8821 46.0037L157.627 67.5826C158.119 67.7273 158.228 68.0094 158.242 68.1685C158.257 68.3277 158.221 68.6315 157.765 68.8702L83.9641 108.02C83.6241 108.201 83.1467 108.295 82.7054 108.295V108.302ZM1.63461 85.9713L82.3076 107.536C82.6837 107.63 83.2842 107.565 83.6242 107.384L157.367 68.2698L76.694 46.7054C76.3179 46.6114 75.7102 46.6765 75.3702 46.8573L1.63461 85.9713Z" fill="black"/>
<path d="M157.584 68.5361L83.7903 107.679C83.378 107.903 83.038 108.46 83.038 108.93V134.459C83.038 134.922 83.378 135.139 83.7903 134.915L157.584 95.7719C157.996 95.5477 158.336 94.9907 158.336 94.5204V68.9918C158.336 68.5289 157.996 68.3263 157.584 68.5361Z" fill="#EDEFEF"/>
<path d="M83.4719 135.371C83.3272 135.371 83.197 135.335 83.074 135.262C82.8208 135.11 82.6762 134.821 82.6762 134.466V108.938C82.6762 108.345 83.0885 107.657 83.6166 107.368L157.417 68.218C157.736 68.0589 158.054 68.0516 158.307 68.2035C158.553 68.3555 158.698 68.6448 158.698 68.992V94.5206C158.698 95.1138 158.285 95.8083 157.75 96.0904L83.9494 135.241C83.7902 135.327 83.6238 135.371 83.4647 135.371H83.4719ZM157.75 68.8618L83.9566 108.005C83.66 108.164 83.3923 108.598 83.3923 108.938V134.466C83.3923 134.575 83.4213 134.633 83.443 134.647C83.4574 134.655 83.5225 134.655 83.6166 134.604L157.417 95.4538C157.714 95.2947 157.982 94.8534 157.982 94.5206V68.992C157.982 68.8908 157.953 68.8329 157.938 68.8184C157.924 68.804 157.851 68.8112 157.757 68.8546L157.75 68.8618Z" fill="black"/>
<path d="M82.2278 107.868L1.49695 86.2894C1.04121 86.1737 0.672272 86.4486 0.672272 86.926V112.447C0.672272 112.91 1.04121 113.402 1.49695 113.518L82.2278 135.097C82.6763 135.213 83.0524 134.938 83.0524 134.46V108.939C83.0524 108.476 82.6835 107.984 82.2278 107.868Z" fill="#EDEFEF"/>
<path d="M82.4228 135.48C82.3288 135.48 82.2276 135.466 82.1335 135.444L1.40266 113.865C0.787775 113.713 0.303131 113.084 0.303131 112.447V86.9258C0.303131 86.5858 0.440546 86.2892 0.679266 86.1011C0.917986 85.9131 1.25075 85.848 1.58351 85.9348L82.3144 107.514C82.9293 107.673 83.4139 108.295 83.4139 108.931V134.453C83.4139 134.786 83.2765 135.089 83.0305 135.277C82.8569 135.408 82.6471 135.48 82.4228 135.48ZM1.29418 86.622C1.22907 86.622 1.17117 86.6364 1.12777 86.6726C1.06266 86.7233 1.03372 86.8101 1.03372 86.9258V112.447C1.03372 112.751 1.30139 113.091 1.59075 113.163L82.3216 134.742C82.4301 134.771 82.5241 134.757 82.5965 134.706C82.676 134.641 82.6977 134.532 82.6977 134.453V108.931C82.6977 108.628 82.4301 108.288 82.1408 108.215L1.4099 86.6364C1.37373 86.6292 1.33035 86.622 1.30142 86.622H1.29418Z" fill="black"/>
<path d="M18.8587 101.068C16.7174 100.496 14.974 101.82 14.974 104.034C14.974 106.247 16.7174 108.512 18.8587 109.076C20.9999 109.647 22.7433 108.323 22.7433 106.11C22.7433 103.896 20.9999 101.632 18.8587 101.068Z" fill="#0C0C0C"/>
<path d="M19.8423 109.567C19.4951 109.567 19.1334 109.517 18.7645 109.423C16.4713 108.822 14.6122 106.406 14.6122 104.033C14.6122 102.854 15.0607 101.856 15.8854 101.226C16.7101 100.59 17.8024 100.416 18.9526 100.72C21.2457 101.32 23.1049 103.737 23.1049 106.109C23.1049 107.288 22.6563 108.287 21.8317 108.916C21.2674 109.35 20.5802 109.567 19.8423 109.567ZM17.882 101.299C17.296 101.299 16.7607 101.472 16.3267 101.798C15.6901 102.29 15.3356 103.078 15.3356 104.033C15.3356 106.095 16.956 108.2 18.9526 108.721C19.8858 108.967 20.7538 108.837 21.3977 108.337C22.0342 107.846 22.3887 107.057 22.3887 106.102C22.3887 104.04 20.7683 101.935 18.7717 101.415C18.4679 101.335 18.1713 101.292 17.882 101.292V101.299Z" fill="black"/>
<path d="M17.4627 101.798C15.3214 101.227 13.578 102.551 13.578 104.764C13.578 106.978 15.3214 109.242 17.4627 109.806C19.6039 110.378 21.3473 109.054 21.3473 106.84C21.3473 104.627 19.6039 102.363 17.4627 101.798Z" fill="#DBD9D9"/>
<path d="M18.4463 110.298C18.0991 110.298 17.7374 110.247 17.3685 110.153C15.0753 109.553 13.2162 107.136 13.2162 104.764C13.2162 103.585 13.6647 102.586 14.4894 101.957C15.3141 101.32 16.4064 101.147 17.5566 101.451C19.8497 102.051 21.7089 104.467 21.7089 106.84C21.7089 108.019 21.2604 109.017 20.4357 109.647C19.8714 110.081 19.1914 110.298 18.4463 110.298ZM16.4787 102.029C15.8928 102.029 15.3575 102.203 14.9234 102.528C14.2868 103.02 13.9324 103.809 13.9324 104.764C13.9324 106.825 15.5528 108.93 17.5493 109.451C18.4825 109.697 19.3506 109.567 19.9944 109.068C20.631 108.576 20.9855 107.787 20.9855 106.833C20.9855 104.771 19.3651 102.666 17.3685 102.145C17.0647 102.065 16.7681 102.022 16.4787 102.022V102.029Z" fill="black"/>
<path d="M30.4622 104.179C28.321 103.608 26.5775 104.931 26.5775 107.145C26.5775 109.359 28.321 111.623 30.4622 112.187C32.6035 112.758 34.3468 111.435 34.3468 109.221C34.3468 107.008 32.6035 104.743 30.4622 104.179Z" fill="#0C0C0C"/>
<path d="M31.4459 112.678C31.0987 112.678 30.737 112.628 30.3681 112.534C28.0749 111.933 26.2157 109.517 26.2157 107.144C26.2157 105.965 26.6642 104.967 27.4889 104.338C28.3136 103.701 29.4059 103.527 30.5561 103.831C32.8493 104.432 34.7084 106.848 34.7084 109.221C34.7084 110.4 34.2599 111.398 33.4352 112.027C32.871 112.461 32.191 112.678 31.4459 112.678ZM29.4855 104.41C28.8995 104.41 28.3643 104.584 27.9302 104.916C27.2936 105.408 26.9391 106.197 26.9391 107.152C26.9391 109.213 28.5595 111.318 30.5561 111.839C31.4893 112.085 32.3574 111.955 33.0012 111.456C33.6378 110.964 33.9922 110.175 33.9922 109.221C33.9922 107.159 32.3718 105.054 30.3752 104.533C30.0714 104.453 29.7748 104.41 29.4855 104.41Z" fill="black"/>
<path d="M29.0588 104.902C26.9176 104.33 25.1742 105.654 25.1742 107.868C25.1742 110.081 26.9176 112.345 29.0588 112.91C31.2001 113.481 32.9435 112.157 32.9435 109.944C32.9435 107.73 31.2001 105.466 29.0588 104.902Z" fill="#DBD9D9"/>
<path d="M30.0425 113.401C29.6953 113.401 29.3336 113.35 28.9647 113.256C26.6715 112.656 24.8124 110.24 24.8124 107.867C24.8124 106.688 25.2609 105.69 26.0855 105.06C26.9102 104.424 28.0026 104.25 29.1528 104.554C31.4459 105.154 33.3051 107.57 33.3051 109.943C33.3051 111.122 32.8565 112.121 32.0319 112.75C31.4676 113.184 30.7876 113.401 30.0425 113.401ZM28.0821 105.133C27.4962 105.133 26.9609 105.306 26.5268 105.632C25.8903 106.124 25.5358 106.912 25.5358 107.867C25.5358 109.929 27.1562 112.034 29.1528 112.555C30.086 112.801 30.954 112.67 31.5978 112.171C32.2344 111.679 32.5889 110.891 32.5889 109.936C32.5889 107.874 30.9685 105.769 28.9719 105.248C28.6681 105.169 28.3715 105.125 28.0821 105.125V105.133Z" fill="black"/>
<path d="M77.8515 111.868C77.1716 111.687 76.6073 112.114 76.6073 112.808V128.079C76.6073 128.788 77.1571 129.497 77.8515 129.692C78.5315 129.873 79.0813 129.446 79.0813 128.752V113.481C79.0813 112.772 78.5315 112.063 77.8515 111.868Z" fill="#898989"/>
<path d="M78.1553 130.09C78.0251 130.09 77.8948 130.076 77.7574 130.04C76.911 129.808 76.2455 128.947 76.2455 128.079V112.808C76.2455 112.367 76.4264 111.969 76.7447 111.723C77.063 111.477 77.5042 111.398 77.9382 111.513C78.7774 111.752 79.4357 112.606 79.4357 113.474V128.745C79.4357 129.193 79.2548 129.584 78.9365 129.83C78.7123 130.003 78.4374 130.09 78.148 130.09H78.1553ZM77.5476 112.186C77.4102 112.186 77.2944 112.222 77.1932 112.302C77.0485 112.41 76.9761 112.591 76.9761 112.816V128.086C76.9761 128.629 77.4174 129.2 77.9527 129.345C78.1697 129.403 78.3651 129.374 78.5097 129.266C78.6472 129.157 78.7268 128.976 78.7268 128.752V113.481C78.7268 112.946 78.2855 112.367 77.7646 112.222C77.6923 112.201 77.62 112.193 77.5549 112.193L77.5476 112.186Z" fill="black"/>
<path d="M73.5254 110.711C72.8454 110.53 72.2812 110.942 72.2812 111.651V126.922C72.2812 127.631 72.8309 128.34 73.5254 128.535C74.2054 128.716 74.7552 128.289 74.7552 127.595V112.324C74.7552 111.615 74.2054 110.906 73.5254 110.711Z" fill="#898989"/>
<path d="M73.8291 128.94C73.6989 128.94 73.5687 128.925 73.4312 128.889C72.5848 128.658 71.9193 127.797 71.9193 126.929V111.658C71.9193 111.209 72.1002 110.819 72.4185 110.573C72.744 110.327 73.178 110.247 73.6193 110.363C74.4584 110.602 75.1167 111.463 75.1167 112.323V127.594C75.1167 128.043 74.9359 128.433 74.6176 128.679C74.3933 128.853 74.1184 128.94 73.8291 128.94ZM73.2142 111.036C73.0768 111.036 72.961 111.072 72.8597 111.144C72.7223 111.253 72.6427 111.434 72.6427 111.658V126.929C72.6427 127.479 73.084 128.043 73.6193 128.187C73.8363 128.245 74.0317 128.216 74.1763 128.108C74.3138 127.999 74.3933 127.819 74.3933 127.594V112.323C74.3933 111.788 73.9521 111.209 73.4312 111.065C73.3589 111.043 73.2865 111.036 73.2142 111.036Z" fill="black"/>
<path d="M69.1779 109.546C68.4979 109.365 67.9482 109.777 67.9482 110.486V125.757C67.9482 126.466 68.4979 127.175 69.1779 127.363C69.8579 127.544 70.4222 127.117 70.4222 126.422V111.152C70.4222 110.443 69.8724 109.734 69.1779 109.538V109.546Z" fill="#898989"/>
<path d="M69.4889 127.775C69.3587 127.775 69.2213 127.761 69.0911 127.724C68.2447 127.486 67.5937 126.632 67.5937 125.764V110.493C67.5937 110.037 67.7745 109.654 68.0928 109.408C68.4111 109.162 68.8451 109.09 69.2792 109.206C70.1256 109.437 70.7839 110.298 70.7839 111.166V126.437C70.7839 126.878 70.603 127.276 70.2847 127.522C70.0605 127.696 69.7855 127.782 69.4889 127.782V127.775ZM68.8741 109.871C68.7439 109.871 68.6209 109.907 68.5341 109.98C68.3966 110.088 68.3171 110.269 68.3171 110.493V125.764C68.3171 126.299 68.7583 126.878 69.2864 127.023C69.5034 127.081 69.706 127.052 69.8506 126.936C69.9953 126.827 70.0677 126.647 70.0677 126.422V111.152C70.0677 110.609 69.6336 110.037 69.0911 109.893C69.0188 109.871 68.9464 109.864 68.8741 109.864V109.871Z" fill="black"/>
<path d="M64.8527 108.395C64.1727 108.215 63.623 108.627 63.623 109.336V124.607C63.623 125.316 64.1727 126.025 64.8527 126.213C65.5327 126.393 66.097 125.967 66.097 125.272V110.001C66.097 109.292 65.5472 108.583 64.8527 108.388V108.395Z" fill="#898989"/>
<path d="M65.1564 126.618C65.0262 126.618 64.896 126.603 64.7586 126.567C63.9122 126.329 63.2611 125.468 63.2611 124.607V109.336C63.2611 108.88 63.4348 108.497 63.7603 108.251C64.0786 108.005 64.5126 107.933 64.9467 108.048C65.793 108.28 66.4513 109.141 66.4513 110.009V125.28C66.4513 125.721 66.2705 126.119 65.9522 126.365C65.7279 126.538 65.453 126.625 65.1564 126.625V126.618ZM64.5416 108.714C64.4114 108.714 64.2884 108.75 64.2015 108.822C64.0641 108.931 63.9845 109.112 63.9845 109.336V124.607C63.9845 125.142 64.4258 125.721 64.9539 125.866C65.1709 125.923 65.3734 125.894 65.5181 125.779C65.6628 125.67 65.7351 125.489 65.7351 125.272V110.002C65.7351 109.459 65.3011 108.887 64.7586 108.743C64.6862 108.721 64.6139 108.714 64.5416 108.714Z" fill="black"/>
<path d="M60.5188 107.237C59.8388 107.056 59.289 107.483 59.289 108.178V123.449C59.289 124.157 59.8388 124.866 60.5188 125.062C61.1987 125.243 61.763 124.816 61.763 124.121V108.85C61.763 108.141 61.2132 107.433 60.5188 107.237Z" fill="#898989"/>
<path d="M60.8224 125.468C60.6922 125.468 60.562 125.453 60.4246 125.417C59.5782 125.178 58.9272 124.317 58.9272 123.456V108.186C58.9272 107.737 59.108 107.346 59.4263 107.101C59.7446 106.855 60.1786 106.782 60.6127 106.898C61.459 107.137 62.1173 107.99 62.1173 108.858V124.129C62.1173 124.57 61.9365 124.968 61.6182 125.214C61.3939 125.388 61.119 125.475 60.8224 125.475V125.468ZM60.2148 107.563C60.0846 107.563 59.9616 107.6 59.8676 107.672C59.7229 107.781 59.6505 107.961 59.6505 108.186V123.456C59.6505 123.999 60.0846 124.57 60.6199 124.715C60.8369 124.773 61.0395 124.744 61.1841 124.628C61.3288 124.52 61.4012 124.339 61.4012 124.115V108.844C61.4012 108.301 60.9671 107.73 60.4246 107.585C60.3522 107.563 60.2799 107.556 60.2148 107.556V107.563Z" fill="black"/>
<path d="M56.1779 106.074C55.4979 105.893 54.9482 106.32 54.9482 107.014V122.285C54.9482 122.994 55.4979 123.703 56.1779 123.898C56.8579 124.079 57.4221 123.653 57.4221 122.958V107.687C57.4221 106.978 56.8724 106.269 56.1779 106.081V106.074Z" fill="#898989"/>
<path d="M56.4816 124.303C56.3514 124.303 56.2212 124.289 56.0838 124.253C55.2374 124.014 54.5863 123.153 54.5863 122.292V107.021C54.5863 106.573 54.7672 106.182 55.0855 105.936C55.4038 105.69 55.8378 105.618 56.2719 105.734C57.1182 105.965 57.7765 106.826 57.7765 107.694V122.965C57.7765 123.406 57.5956 123.804 57.2773 124.05C57.0531 124.224 56.7782 124.311 56.4816 124.311V124.303ZM55.874 106.399C55.7437 106.399 55.6208 106.435 55.5267 106.508C55.3893 106.616 55.3097 106.797 55.3097 107.021V122.292C55.3097 122.835 55.7438 123.406 56.2791 123.551C56.4961 123.609 56.6986 123.58 56.8433 123.464C56.988 123.356 57.0603 123.175 57.0603 122.951V107.68C57.0603 107.137 56.6263 106.566 56.0838 106.421C56.0114 106.399 55.9391 106.392 55.874 106.392V106.399Z" fill="black"/>
<path d="M51.8452 104.924C51.1653 104.743 50.601 105.155 50.601 105.864V121.135C50.601 121.844 51.1508 122.553 51.8452 122.748C52.5252 122.929 53.0895 122.502 53.0895 121.808V106.537C53.0895 105.828 52.5397 105.119 51.8452 104.931V104.924Z" fill="#898989"/>
<path d="M52.1563 123.146C52.0261 123.146 51.8958 123.131 51.7584 123.095C50.912 122.856 50.2465 122.003 50.2465 121.135V105.864C50.2465 105.415 50.4273 105.025 50.7456 104.779C51.0639 104.533 51.5052 104.453 51.9393 104.569C52.7856 104.801 53.4439 105.661 53.4439 106.529V121.8C53.4439 122.242 53.263 122.639 52.9447 122.885C52.7205 123.059 52.4456 123.146 52.149 123.146H52.1563ZM51.5341 105.242C51.3967 105.242 51.2809 105.278 51.1869 105.35C51.0494 105.459 50.9699 105.64 50.9699 105.864V121.135C50.9699 121.677 51.4111 122.249 51.9464 122.394C52.1635 122.451 52.366 122.422 52.5107 122.307C52.6554 122.198 52.7277 122.017 52.7277 121.793V106.522C52.7277 105.98 52.2937 105.408 51.7512 105.264C51.6788 105.242 51.5992 105.235 51.5341 105.235V105.242Z" fill="black"/>
<path d="M47.5054 103.759C46.8254 103.578 46.2611 103.99 46.2611 104.699V119.97C46.2611 120.679 46.8109 121.388 47.5054 121.576C48.1854 121.757 48.7496 121.344 48.7496 120.635V105.364C48.7496 104.656 48.1999 103.947 47.5054 103.751V103.759Z" fill="#898989"/>
<path d="M47.8163 121.981C47.6861 121.981 47.5487 121.966 47.4112 121.93C46.5649 121.699 45.8993 120.838 45.8993 119.97V104.699C45.8993 104.25 46.0802 103.86 46.3985 103.614C46.724 103.368 47.158 103.288 47.5921 103.404C48.4385 103.636 49.0967 104.496 49.0967 105.364V120.635C49.0967 121.084 48.9159 121.474 48.5976 121.72C48.3733 121.894 48.0984 121.981 47.8019 121.981H47.8163ZM47.1942 104.077C47.0567 104.077 46.941 104.113 46.8397 104.185C46.7023 104.294 46.6227 104.475 46.6227 104.699V119.97C46.6227 120.512 47.064 121.084 47.5993 121.228C47.8163 121.286 48.0189 121.257 48.1636 121.149C48.301 121.04 48.3806 120.86 48.3806 120.635V105.364C48.3806 104.822 47.9465 104.25 47.404 104.106C47.3317 104.084 47.2521 104.077 47.187 104.077H47.1942Z" fill="black"/>
<path d="M43.1646 102.601C42.4846 102.42 41.9203 102.833 41.9203 103.542V118.813C41.9203 119.522 42.4701 120.23 43.1646 120.426C43.8446 120.607 44.4088 120.18 44.4088 119.485V104.214C44.4088 103.506 43.859 102.797 43.1646 102.601Z" fill="#898989"/>
<path d="M43.4683 120.824C43.3381 120.824 43.2006 120.809 43.0704 120.773C42.224 120.534 41.5585 119.681 41.5585 118.813V103.542C41.5585 103.086 41.7394 102.703 42.0576 102.457C42.3759 102.211 42.8172 102.131 43.2513 102.247C44.0976 102.478 44.7559 103.339 44.7559 104.207V119.478C44.7559 119.919 44.575 120.317 44.2567 120.563C44.0325 120.737 43.7576 120.824 43.461 120.824H43.4683ZM42.8534 102.92C42.7159 102.92 42.6002 102.956 42.5061 103.028C42.3687 103.137 42.2891 103.318 42.2891 103.542V118.813C42.2891 119.355 42.7304 119.927 43.2657 120.071C43.4755 120.129 43.6853 120.1 43.83 119.985C43.9747 119.876 44.047 119.695 44.047 119.471V104.2C44.047 103.658 43.613 103.086 43.0704 102.941C42.9981 102.92 42.9185 102.912 42.8534 102.912V102.92Z" fill="black"/>
<path d="M5.79462 98.7611C4.42741 98.3922 3.31339 99.2458 3.31339 100.656C3.31339 102.067 4.42741 103.514 5.79462 103.883C7.16184 104.252 8.27586 103.398 8.27586 101.987C8.27586 100.577 7.16907 99.13 5.79462 98.7611Z" fill="#41B650"/>
<path d="M6.42385 104.331C6.18513 104.331 5.94641 104.295 5.70046 104.229C4.18133 103.817 2.95157 102.211 2.95157 100.649C2.95157 99.8529 3.26264 99.1729 3.81965 98.7461C4.3839 98.3193 5.11452 98.1964 5.88855 98.4061C7.42938 98.8185 8.63744 100.395 8.63744 101.987C8.63744 102.783 8.32637 103.463 7.76936 103.889C7.38596 104.179 6.923 104.331 6.42385 104.331ZM5.17239 99.0355C4.8324 99.0355 4.5141 99.1368 4.26091 99.3249C3.88475 99.6142 3.67496 100.084 3.67496 100.656C3.67496 101.893 4.68771 103.209 5.88855 103.535C6.43833 103.68 6.95193 103.607 7.3281 103.318C7.70426 103.029 7.91404 102.558 7.91404 101.994C7.91404 100.735 6.923 99.4406 5.70046 99.1151C5.51961 99.0644 5.33877 99.0427 5.16515 99.0427L5.17239 99.0355Z" fill="black"/>
<path d="M157.519 40.7L76.7882 19.1212C76.3325 19.0054 75.6308 19.0778 75.204 19.302L1.41048 58.4449C0.998144 58.6692 1.02711 58.944 1.48284 59.067L82.2137 80.6459C82.6694 80.7616 83.3711 80.6893 83.7979 80.465L157.599 41.3221C158.011 41.0979 157.982 40.823 157.534 40.7H157.526H157.519Z" fill="#DBD9D9"/>
<path d="M82.7054 81.073C82.4957 81.073 82.3003 81.0513 82.1267 81.0079L1.39587 59.429C0.889497 59.2843 0.780992 59.0022 0.766524 58.843C0.752056 58.6839 0.78825 58.3801 1.24399 58.1341L75.0447 18.984C75.5438 18.7236 76.3324 18.6295 76.8894 18.7742L157.635 40.3531C158.127 40.4905 158.235 40.7799 158.25 40.939C158.264 41.0982 158.228 41.402 157.772 41.648L83.9714 80.7981C83.6314 80.9789 83.154 81.073 82.7127 81.073H82.7054ZM1.63461 58.7418L82.3076 80.3062C82.6837 80.4002 83.2842 80.3351 83.6242 80.1543L157.367 41.0403L76.694 19.4759C76.3179 19.3819 75.7102 19.447 75.3702 19.6278L1.62737 58.7418H1.63461Z" fill="black"/>
<path d="M157.584 41.3154L83.7903 80.4583C83.378 80.6825 83.038 81.2396 83.038 81.7098V107.231C83.038 107.694 83.378 107.897 83.7903 107.687L157.584 68.544C157.996 68.3197 158.336 67.7627 158.336 67.2925V41.7712C158.336 41.3082 157.996 41.1056 157.584 41.3154Z" fill="#EDEFEF"/>
<path d="M83.4719 108.128C83.3272 108.128 83.1825 108.092 83.0668 108.019C82.8208 107.867 82.6762 107.578 82.6762 107.231V81.7094C82.6762 81.1162 83.0885 80.429 83.6166 80.1396L157.417 40.9895C157.736 40.8304 158.054 40.8231 158.307 40.975C158.553 41.1269 158.698 41.4163 158.698 41.7635V67.2849C158.698 67.8781 158.285 68.5725 157.75 68.8547L83.9494 108.005C83.783 108.092 83.6166 108.128 83.4647 108.128H83.4719ZM157.75 41.6333L83.9566 80.7762C83.6672 80.9353 83.3923 81.3766 83.3923 81.7094V107.231C83.3923 107.332 83.4213 107.39 83.4357 107.404C83.4502 107.419 83.5225 107.419 83.6166 107.368L157.41 68.2253C157.707 68.0662 157.974 67.6321 157.974 67.2921V41.7708C157.974 41.6695 157.945 41.6116 157.931 41.5972C157.916 41.5827 157.844 41.5899 157.75 41.6333Z" fill="black"/>
<path d="M82.2278 80.6387L1.49695 59.0599C1.04121 58.9441 0.672272 59.219 0.672272 59.682V85.2106C0.672272 85.6736 1.04121 86.1655 1.49695 86.2812L82.2278 107.86C82.6763 107.976 83.0524 107.701 83.0524 107.238V81.7093C83.0524 81.2464 82.6835 80.7545 82.2278 80.6387Z" fill="#EDEFEF"/>
<path d="M82.4228 108.251C82.3288 108.251 82.2276 108.237 82.1335 108.215L1.40266 86.636C0.787775 86.4768 0.303131 85.8547 0.303131 85.2181V59.6895C0.303131 59.3568 0.440546 59.0602 0.679266 58.8793C0.92522 58.6913 1.25075 58.6261 1.58351 58.713L82.3144 80.2918C82.9293 80.451 83.4139 81.0731 83.4139 81.7097V107.238C83.4139 107.571 83.2765 107.86 83.0378 108.048C82.8641 108.179 82.6543 108.251 82.4301 108.251H82.4228ZM1.29418 59.4002C1.22907 59.4002 1.17117 59.4147 1.12777 59.4508C1.04819 59.5087 1.03372 59.6172 1.03372 59.6895V85.2181C1.03372 85.522 1.30139 85.862 1.59075 85.9343L82.3216 107.513C82.4301 107.542 82.5313 107.528 82.5965 107.477C82.676 107.412 82.6977 107.311 82.6977 107.238V81.7097C82.6977 81.4058 82.4301 81.0658 82.1408 80.9935L1.4099 59.4147C1.37373 59.4074 1.33035 59.4002 1.30142 59.4002H1.29418Z" fill="black"/>
<path d="M18.8582 73.846C16.7169 73.2746 14.9735 74.5984 14.9735 76.812C14.9735 79.0256 16.7169 81.2898 18.8582 81.854C20.9994 82.4255 22.7428 81.1017 22.7428 78.8881C22.7428 76.6745 20.9994 74.4103 18.8582 73.846Z" fill="#0C0C0C"/>
<path d="M19.8419 82.3457C19.4946 82.3457 19.1329 82.295 18.764 82.201C16.4708 81.6006 14.6117 79.1844 14.6117 76.8117C14.6117 75.6326 15.0602 74.6343 15.8849 74.0049C16.7096 73.3683 17.7947 73.1875 18.9521 73.4985C21.2453 74.099 23.1044 76.5151 23.1044 78.8878C23.1044 80.067 22.6559 81.0653 21.8312 81.6946C21.2669 82.1286 20.5869 82.3457 19.8419 82.3457ZM17.8815 74.07C17.2955 74.07 16.7602 74.2436 16.3262 74.5764C15.6896 75.0683 15.3351 75.8568 15.3351 76.8117C15.3351 78.8734 16.9555 80.9784 18.9521 81.4993C19.8853 81.7452 20.7533 81.615 21.3972 81.1159C22.0338 80.624 22.3882 79.8355 22.3882 78.8806C22.3882 76.8189 20.7678 74.7138 18.7712 74.193C18.4674 74.1134 18.1708 74.07 17.8815 74.07Z" fill="black"/>
<path d="M17.4627 74.5775C15.3214 74.006 13.578 75.3298 13.578 77.5434C13.578 79.757 15.3214 82.0212 17.4627 82.5927C19.6039 83.1642 21.3473 81.8331 21.3473 79.6195C21.3473 77.406 19.6039 75.1417 17.4627 74.5775Z" fill="#DBD9D9"/>
<path d="M18.4391 83.0847C18.0919 83.0847 17.7302 83.0341 17.3685 82.94C15.0753 82.3324 13.2162 79.909 13.2162 77.5363C13.2162 76.3572 13.6647 75.3589 14.4894 74.7295C15.3141 74.0929 16.4064 73.9121 17.5566 74.2232C19.8497 74.8236 21.7089 77.2397 21.7089 79.6124C21.7089 80.7988 21.2531 81.7971 20.4284 82.4264C19.8642 82.8605 19.1842 83.0775 18.4391 83.0775V83.0847ZM16.4787 74.8019C15.8928 74.8019 15.3575 74.9755 14.9234 75.3082C14.2868 75.8002 13.9324 76.5886 13.9324 77.5435C13.9324 79.6052 15.5528 81.7103 17.5493 82.2456C18.4753 82.4915 19.3434 82.3613 19.9872 81.8622C20.631 81.3703 20.9855 80.5745 20.9855 79.6197C20.9855 77.558 19.3651 75.4529 17.3685 74.9321C17.0647 74.8525 16.7681 74.8091 16.4787 74.8091V74.8019Z" fill="black"/>
<path d="M30.4622 76.9507C28.321 76.3792 26.5775 77.703 26.5775 79.9166C26.5775 82.1302 28.321 84.3944 30.4622 84.9586C32.6035 85.5301 34.3468 84.1991 34.3468 81.9927C34.3468 79.7864 32.6035 77.5149 30.4622 76.9507Z" fill="#0C0C0C"/>
<path d="M31.4387 85.45C31.0914 85.45 30.7297 85.3994 30.3681 85.3053C28.0749 84.7049 26.2157 82.2888 26.2157 79.916C26.2157 78.7369 26.6642 77.7386 27.4889 77.1092C28.3136 76.4727 29.4059 76.299 30.5561 76.6029C32.8493 77.2033 34.7084 79.6194 34.7084 81.9922C34.7084 83.1713 34.2599 84.1696 33.4352 84.7989C32.871 85.233 32.1838 85.4572 31.4459 85.4572L31.4387 85.45ZM29.4855 77.1744C28.8995 77.1744 28.3643 77.348 27.9302 77.6735C27.2936 78.1654 26.9391 78.9539 26.9391 79.9088C26.9391 81.9705 28.5595 84.0755 30.5561 84.5964C31.482 84.8423 32.3502 84.7049 32.994 84.213C33.6306 83.7211 33.985 82.9326 33.985 81.9849C33.985 79.9522 32.3285 77.8037 30.3681 77.2973C30.0642 77.2178 29.7676 77.1744 29.4782 77.1744H29.4855Z" fill="black"/>
<path d="M29.0588 77.6811C26.9176 77.1096 25.1742 78.4335 25.1742 80.647C25.1742 82.8606 26.9176 85.1249 29.0588 85.6891C31.2001 86.2606 32.9435 84.9368 32.9435 82.7232C32.9435 80.5096 31.2001 78.2454 29.0588 77.6811Z" fill="#DBD9D9"/>
<path d="M30.0425 86.1805C29.6953 86.1805 29.3336 86.1298 28.9647 86.0358C26.6715 85.4354 24.8124 83.0192 24.8124 80.6465C24.8124 79.4674 25.2609 78.4691 26.0855 77.8397C26.9102 77.2031 28.0026 77.0295 29.1528 77.3333C31.4459 77.9338 33.3051 80.3499 33.3051 82.7226C33.3051 83.9018 32.8565 84.9 32.0319 85.5294C31.4676 85.9634 30.7876 86.1805 30.0425 86.1805ZM28.0821 77.9048C27.4962 77.9048 26.9609 78.0784 26.5268 78.404C25.8903 78.8959 25.5358 79.6844 25.5358 80.6393C25.5358 82.7009 27.1562 84.806 29.1528 85.3269C30.086 85.5728 30.954 85.4426 31.5978 84.9435C32.2344 84.4515 32.5889 83.663 32.5889 82.7082C32.5889 80.6465 30.9685 78.5414 28.9719 78.0206C28.6681 77.941 28.3715 77.8976 28.0821 77.8976V77.9048Z" fill="black"/>
<path d="M77.852 84.6474C77.172 84.4666 76.6078 84.8934 76.6078 85.5878V100.859C76.6078 101.568 77.1576 102.277 77.852 102.465C78.532 102.645 79.0818 102.233 79.0818 101.524V86.2533C79.0818 85.5444 78.532 84.8355 77.852 84.6474Z" fill="#898989"/>
<path d="M78.1631 102.87C78.0329 102.87 77.8954 102.855 77.7652 102.819C76.9188 102.587 76.2533 101.727 76.2533 100.859V85.5877C76.2533 85.1464 76.4342 84.7486 76.7525 84.5026C77.0708 84.2566 77.512 84.1771 77.946 84.2928C78.7852 84.5315 79.4435 85.3924 79.4435 86.2532V101.524C79.4435 101.98 79.2626 102.363 78.9443 102.609C78.7273 102.776 78.4524 102.87 78.1559 102.87H78.1631ZM77.5482 84.9656C77.4107 84.9656 77.295 85.0017 77.1937 85.0813C77.0491 85.1898 76.9767 85.3707 76.9767 85.5949V100.866C76.9767 101.408 77.418 101.98 77.9533 102.125C78.1703 102.182 78.3729 102.153 78.5103 102.045C78.6478 101.936 78.7273 101.756 78.7273 101.531V86.2605C78.7273 85.7179 78.2933 85.1537 77.7652 85.0017C77.6929 84.98 77.6205 84.9728 77.5554 84.9728L77.5482 84.9656Z" fill="black"/>
<path d="M73.5254 83.4824C72.8454 83.3015 72.2812 83.7283 72.2812 84.4228V99.6936C72.2812 100.403 72.8309 101.111 73.5254 101.307C74.2054 101.488 74.7552 101.075 74.7552 100.366V85.0955C74.7552 84.3866 74.2054 83.6777 73.5254 83.4896V83.4824Z" fill="#898989"/>
<path d="M73.8291 101.705C73.6989 101.705 73.5614 101.69 73.4312 101.654C72.5848 101.422 71.9193 100.562 71.9193 99.6935V84.4227C71.9193 83.9814 72.1002 83.5835 72.4185 83.3376C72.744 83.0916 73.178 83.012 73.6121 83.1278C74.4512 83.3665 75.1095 84.2273 75.1095 85.0882V100.359C75.1095 100.815 74.9359 101.198 74.6103 101.444C74.3933 101.611 74.1185 101.705 73.8219 101.705H73.8291ZM73.2142 83.8005C73.0768 83.8005 72.961 83.8367 72.8597 83.9163C72.7151 84.0248 72.6427 84.2056 72.6427 84.4299V99.7008C72.6427 100.243 73.084 100.815 73.6193 100.959C73.8363 101.017 74.0389 100.988 74.1763 100.88C74.3138 100.771 74.3933 100.591 74.3933 100.366V85.0954C74.3933 84.5529 73.9593 83.9814 73.4312 83.8367C73.3589 83.815 73.2865 83.8078 73.2214 83.8078L73.2142 83.8005Z" fill="black"/>
<path d="M69.1779 82.3251C68.4979 82.1443 67.9482 82.5711 67.9482 83.2655V98.5364C67.9482 99.2453 68.4979 99.9543 69.1779 100.15C69.8579 100.33 70.4222 99.9036 70.4222 99.2092V83.9383C70.4222 83.2294 69.8724 82.5204 69.1779 82.3324V82.3251Z" fill="#898989"/>
<path d="M69.4889 100.548C69.3587 100.548 69.2213 100.533 69.0911 100.497C68.2447 100.258 67.5937 99.4046 67.5937 98.5365V83.2657C67.5937 82.8172 67.7745 82.4265 68.0928 82.1806C68.4111 81.9346 68.8451 81.8623 69.2792 81.978C70.1256 82.2095 70.7839 83.0704 70.7839 83.9384V99.2093C70.7839 99.6506 70.603 100.048 70.2847 100.294C70.0605 100.468 69.7855 100.555 69.4889 100.555V100.548ZM68.8741 82.6508C68.7439 82.6508 68.6209 82.687 68.5269 82.7593C68.3894 82.8678 68.3098 83.0487 68.3098 83.2729V98.5438C68.3098 99.0791 68.7511 99.6578 69.2792 99.8025C69.4962 99.8603 69.6988 99.8314 69.8434 99.7157C69.9881 99.6072 70.0605 99.4263 70.0605 99.2093V83.9384C70.0605 83.3959 69.6264 82.8244 69.0838 82.6797C69.0115 82.658 68.9392 82.6508 68.8741 82.6508Z" fill="black"/>
<path d="M64.8527 81.1747C64.1727 80.9939 63.623 81.4207 63.623 82.1151V97.386C63.623 98.0949 64.1727 98.8039 64.8527 98.9919C65.5327 99.1728 66.097 98.746 66.097 98.0515V82.7807C66.097 82.0718 65.5472 81.3628 64.8527 81.1675V81.1747Z" fill="#898989"/>
<path d="M65.1564 99.3972C65.0262 99.3972 64.8888 99.3827 64.7586 99.3465C63.9122 99.1078 63.2611 98.247 63.2611 97.3862V82.1153C63.2611 81.6668 63.442 81.2762 63.7603 81.0302C64.0786 80.7842 64.5126 80.7119 64.9467 80.8277C65.793 81.0591 66.4513 81.92 66.4513 82.7881V98.0589C66.4513 98.5002 66.2705 98.898 65.9522 99.144C65.7279 99.3176 65.453 99.4044 65.1564 99.4044V99.3972ZM64.5488 81.4932C64.4186 81.4932 64.2956 81.5294 64.2015 81.6017C64.0641 81.7102 63.9845 81.891 63.9845 82.1153V97.3862C63.9845 97.9287 64.4186 98.5002 64.9539 98.6449C65.1709 98.7027 65.3734 98.6738 65.5181 98.558C65.6628 98.4495 65.7351 98.2687 65.7351 98.0444V82.7736C65.7351 82.231 65.3011 81.6596 64.7586 81.5149C64.6862 81.4932 64.6139 81.4859 64.5488 81.4859V81.4932Z" fill="black"/>
<path d="M60.5188 80.0165C59.8388 79.8357 59.289 80.2625 59.289 80.957V96.2278C59.289 96.9367 59.8388 97.6457 60.5188 97.841C61.1987 98.0218 61.763 97.6095 61.763 96.9006V81.6297C61.763 80.9208 61.2132 80.2119 60.5188 80.0238V80.0165Z" fill="#898989"/>
<path d="M60.8297 98.239C60.6995 98.239 60.562 98.2245 60.4246 98.1884C59.5782 97.9496 58.9272 97.096 58.9272 96.2279V80.9571C58.9272 80.5086 59.108 80.118 59.4263 79.872C59.7446 79.626 60.1786 79.5537 60.6127 79.6694C61.459 79.9009 62.1173 80.7618 62.1173 81.6298V96.9007C62.1173 97.3492 61.9365 97.7399 61.6182 97.9858C61.3939 98.1594 61.119 98.2462 60.8224 98.2462L60.8297 98.239ZM60.2148 80.335C60.0846 80.335 59.9616 80.3711 59.8676 80.4435C59.7301 80.552 59.6505 80.7328 59.6505 80.9571V96.2279C59.6505 96.7705 60.0846 97.342 60.6199 97.4867C60.8369 97.5445 61.0395 97.5156 61.1841 97.4071C61.3216 97.2986 61.4012 97.1177 61.4012 96.8935V81.6226C61.4012 81.0801 60.9671 80.5086 60.4246 80.3639C60.3522 80.3422 60.2799 80.335 60.2148 80.335Z" fill="black"/>
<path d="M56.1784 78.8535C55.4984 78.6726 54.9486 79.0994 54.9486 79.7939V95.0647C54.9486 95.7737 55.4984 96.4826 56.1784 96.6779C56.8584 96.8588 57.4226 96.4464 57.4226 95.7375V80.4666C57.4226 79.7577 56.8729 79.0488 56.1784 78.8607V78.8535Z" fill="#898989"/>
<path d="M56.4894 97.0754C56.3592 97.0754 56.2218 97.0609 56.0916 97.0247C55.2452 96.786 54.5941 95.9324 54.5941 95.0644V79.7935C54.5941 79.345 54.775 78.9544 55.0933 78.7084C55.4116 78.4624 55.8456 78.3901 56.2797 78.4986C57.126 78.7301 57.7843 79.5909 57.7843 80.459V95.7299C57.7843 96.1784 57.6034 96.569 57.2852 96.815C57.0609 96.9886 56.786 97.0754 56.4894 97.0754ZM55.8745 79.1714C55.7443 79.1714 55.6214 79.2075 55.5273 79.2799C55.3899 79.3884 55.3103 79.5692 55.3103 79.7935V95.0644C55.3103 95.6141 55.7444 96.1784 56.2797 96.323C56.4967 96.3809 56.6992 96.352 56.8439 96.2435C56.9813 96.135 57.0609 95.9541 57.0609 95.7299V80.459C57.0609 79.9165 56.6269 79.345 56.0843 79.2003C56.012 79.1786 55.9396 79.1714 55.8745 79.1714Z" fill="black"/>
<path d="M51.8452 77.6884C51.1653 77.5076 50.601 77.9344 50.601 78.6288V93.8997C50.601 94.6086 51.1508 95.3175 51.8452 95.5129C52.5252 95.6937 53.0895 95.2814 53.0895 94.5725V79.3016C53.0895 78.5927 52.5397 77.8837 51.8452 77.6956V77.6884Z" fill="#898989"/>
<path d="M52.1567 95.9106C52.0265 95.9106 51.889 95.8961 51.7516 95.86C50.9052 95.6285 50.2397 94.7676 50.2397 93.8996V78.6287C50.2397 78.1874 50.4205 77.7896 50.7388 77.5436C51.0643 77.2977 51.4984 77.2181 51.9324 77.3338C52.7788 77.5653 53.437 78.4262 53.437 79.2942V94.5651C53.437 95.0136 53.2562 95.4042 52.9379 95.6502C52.7136 95.8238 52.4388 95.9106 52.1422 95.9106H52.1567ZM51.5418 78.0066C51.4043 78.0066 51.2813 78.0428 51.1873 78.1223C51.0426 78.2309 50.9703 78.4117 50.9703 78.6287V93.8996C50.9703 94.4493 51.4115 95.0136 51.9469 95.1583C52.1711 95.2162 52.3664 95.1872 52.5111 95.0787C52.6486 94.9702 52.7281 94.7894 52.7281 94.5651V79.2942C52.7281 78.7517 52.2941 78.1802 51.7516 78.0355C51.6792 78.0138 51.6069 78.0066 51.5418 78.0066Z" fill="black"/>
<path d="M47.5054 76.537C46.8254 76.3561 46.2611 76.7685 46.2611 77.4774V92.7482C46.2611 93.4572 46.8109 94.1661 47.5054 94.3614C48.1854 94.5423 48.7496 94.1155 48.7496 93.421V78.1501C48.7496 77.4412 48.1999 76.7323 47.5054 76.537Z" fill="#898989"/>
<path d="M47.8091 94.7592C47.6789 94.7592 47.5487 94.7448 47.4112 94.7086C46.5649 94.4771 45.8993 93.6163 45.8993 92.7482V77.4773C45.8993 77.0288 46.0802 76.6382 46.3985 76.3923C46.7168 76.1463 47.158 76.0667 47.5921 76.1825C48.4385 76.414 49.0967 77.2748 49.0967 78.1429V93.4137C49.0967 93.855 48.9159 94.2529 48.5976 94.4988C48.3733 94.6724 48.0984 94.7592 47.8019 94.7592H47.8091ZM47.1942 76.8552C47.0567 76.8552 46.941 76.8914 46.847 76.9637C46.7095 77.0722 46.63 77.2531 46.63 77.4773V92.7482C46.63 93.2907 47.0712 93.8622 47.6065 94.0069C47.8235 94.0648 48.0261 94.0358 48.1708 93.9201C48.3155 93.8116 48.3878 93.6307 48.3878 93.4137V78.1429C48.3878 77.6003 47.9538 77.0288 47.4112 76.8842C47.3389 76.8625 47.2593 76.8552 47.1942 76.8552Z" fill="black"/>
<path d="M43.1646 75.3797C42.4846 75.1989 41.9203 75.6257 41.9203 76.3201V91.591C41.9203 92.2999 42.4701 93.0088 43.1646 93.2041C43.8446 93.385 44.4088 92.9582 44.4088 92.2637V76.9929C44.4088 76.284 43.859 75.575 43.1646 75.3869V75.3797Z" fill="#898989"/>
<path d="M43.4683 93.6019C43.3381 93.6019 43.2006 93.5874 43.0704 93.5513C42.224 93.3198 41.5585 92.4589 41.5585 91.5909V76.32C41.5585 75.8787 41.7394 75.4809 42.0576 75.2349C42.3759 74.9889 42.8172 74.9094 43.2513 75.0251C44.0976 75.2638 44.7559 76.1174 44.7559 76.9855V92.2564C44.7559 92.6976 44.575 93.0955 44.2567 93.3415C44.0325 93.5151 43.7576 93.6019 43.461 93.6019H43.4683ZM42.8606 75.6979C42.7232 75.6979 42.6074 75.734 42.5061 75.8064C42.3615 75.9149 42.2891 76.0957 42.2891 76.32V91.5909C42.2891 92.1406 42.7304 92.7049 43.2657 92.8496C43.4755 92.9074 43.6853 92.8785 43.83 92.7628C43.9747 92.6542 44.047 92.4734 44.047 92.2491V76.9783C44.047 76.4357 43.613 75.8643 43.0704 75.7196C42.9981 75.6979 42.9257 75.6906 42.8606 75.6906V75.6979Z" fill="black"/>
<path d="M5.79462 71.5383C4.42741 71.1694 3.31339 72.023 3.31339 73.4336C3.31339 74.8442 4.42741 76.291 5.79462 76.6527C7.16184 77.0217 8.27586 76.1681 8.27586 74.7574C8.27586 73.3468 7.16907 71.9 5.79462 71.5311V71.5383Z" fill="#41B650"/>
<path d="M6.42385 77.1015C6.19237 77.1015 5.94641 77.0726 5.70046 77.0003C4.18856 76.6024 2.95157 75.0037 2.95157 73.4339C2.95157 72.6382 3.26264 71.9582 3.81965 71.5314C4.26816 71.1842 4.82516 71.0395 5.43281 71.1046V71.054L5.88855 71.1769C7.42938 71.5893 8.63744 73.1663 8.63744 74.7577C8.63744 75.5535 8.32637 76.2335 7.76936 76.6603C7.38596 76.9569 6.923 77.1015 6.42385 77.1015ZM5.17239 71.8135C4.82517 71.8135 4.5141 71.9148 4.26091 72.1029C3.88475 72.3922 3.67496 72.8624 3.67496 73.4267C3.67496 74.6637 4.68771 75.9803 5.88855 76.2986C6.43833 76.4505 6.95194 76.3709 7.33534 76.0815C7.7115 75.7922 7.92129 75.322 7.92129 74.7577C7.92129 73.5569 7.01703 72.3271 5.87407 71.9293L5.70046 71.8859C5.51961 71.8352 5.33878 71.8135 5.17239 71.8135Z" fill="black"/>
<path d="M78.1258 36.9058C77.1406 35.0141 76.0016 33.1826 74.8976 31.3893L74.8557 31.3275C73.7307 29.5141 72.6127 27.7171 71.6554 25.8547C69.8387 22.3296 68.8465 18.7072 68.8465 15.1264C68.8465 7.22696 75.0374 2.49101 82.6886 4.54116C90.3399 6.59131 96.5308 14.645 96.5308 22.5444C96.5308 26.1252 95.5385 29.2159 93.7008 31.7473C92.7505 33.1131 91.6326 34.3037 90.5006 35.5267C90.4727 35.5627 90.4377 35.5967 90.3958 35.6216C89.2987 36.8034 88.1947 37.9833 87.2165 39.3199C86.2313 40.6763 85.5465 42.0047 84.7849 43.5151C84.694 43.7005 84.6032 43.9221 84.5054 44.1419C84.4634 44.2392 84.4215 44.3292 84.3935 44.423C84.2608 44.7346 84.1141 45.0281 83.9534 45.2672C83.625 45.7506 83.2476 45.9678 82.6956 45.8199C82.1436 45.672 81.7733 45.2545 81.4379 44.5931C81.2771 44.2607 81.1304 43.8959 80.9837 43.5093C80.9418 43.4113 80.9138 43.3097 80.8719 43.2045C80.7671 42.9232 80.6762 42.6457 80.5714 42.3933C79.8308 40.466 79.125 38.7794 78.1398 36.895L78.1188 36.8894L78.1258 36.9058ZM77.0428 17.8507C77.0428 21.0698 79.5652 24.3499 82.6816 25.185C85.798 26.02 88.3205 24.0917 88.3205 20.8726C88.3205 17.6535 85.798 14.3733 82.6816 13.5383C79.5652 12.7033 77.0428 14.6316 77.0428 17.8507Z" fill="#0A8638"/>
<path d="M82.6901 46.2841C81.8656 46.0632 81.4254 45.381 81.132 44.8032C80.9433 44.4271 80.7896 44.017 80.6568 43.6632C80.6359 43.6214 80.6079 43.5488 80.5869 43.4708L80.4472 43.0789C80.3843 42.9029 80.3214 42.7269 80.2515 42.5635C79.6506 41.0063 78.9728 39.3201 78.0225 37.4595L77.8688 37.5124L77.4985 36.7982L77.6312 36.747C76.7299 35.0515 75.7027 33.3945 74.7105 31.7904L74.5079 31.4685C73.4178 29.7151 72.2928 27.9018 71.3425 26.0484C69.4419 22.3635 68.4846 18.6853 68.4846 15.119C68.4846 7.03867 74.8502 2.16867 82.6762 4.26563C90.5021 6.36259 96.8677 14.6439 96.8677 22.7242C96.8677 26.305 95.8965 29.4664 93.9819 32.1074C93.0665 33.4174 91.9765 34.6011 90.9214 35.7362L90.7606 35.9102C90.7257 35.9515 90.6838 35.9981 90.6279 36.041C89.5588 37.1868 88.4548 38.3812 87.4975 39.6945C86.5402 41.015 85.8694 42.3037 85.0868 43.8591C85.003 44.0392 84.9121 44.2463 84.8213 44.4535C84.7724 44.5561 84.7375 44.648 84.7095 44.7274C84.5418 45.1165 84.3951 45.4027 84.2344 45.6345C83.9689 46.0191 83.5217 46.5069 82.6692 46.2785L82.6901 46.2841ZM78.2671 36.5629L78.4348 36.8827C79.5039 38.927 80.2445 40.7604 80.8874 42.4373C80.9572 42.6007 81.0202 42.7912 81.09 42.9907L81.2298 43.3826C81.2508 43.4317 81.2647 43.486 81.2857 43.5351C81.4184 43.8889 81.5652 44.2682 81.7259 44.5934C82.0752 45.2802 82.3617 45.4727 82.6831 45.5589C83.0744 45.6637 83.3539 45.5288 83.6474 45.1083C83.7872 44.907 83.92 44.646 84.0667 44.3092C84.0946 44.2298 84.1366 44.1326 84.1785 44.0281C84.2763 43.8011 84.3672 43.5795 84.458 43.394C85.2476 41.8188 85.9324 40.5121 86.9106 39.1538C87.8818 37.8154 88.9998 36.6175 90.0829 35.4609L90.1388 35.4036C90.1388 35.4036 90.1877 35.3588 90.2087 35.3355L90.3693 35.1615C91.4594 33.9779 92.4866 32.8642 93.3879 31.5793C95.2326 29.0281 96.169 25.9948 96.169 22.5514C96.169 14.869 90.1178 6.99747 82.6762 5.00349C75.2346 3.00951 69.1834 7.63823 69.1834 15.3207C69.1834 18.7496 70.1127 22.29 71.9434 25.8478C72.8728 27.6665 73.9349 29.3762 75.0599 31.1895L75.2625 31.5115C76.2757 33.1502 77.3168 34.8326 78.2391 36.5771L78.2601 36.5827L78.2671 36.5629ZM82.6692 25.6401C79.3641 24.7545 76.6809 21.2649 76.6809 17.8505C76.6809 14.4361 79.3641 12.3844 82.6692 13.27C85.9743 14.1556 88.6575 17.6524 88.6575 21.0596C88.6575 24.4668 85.9743 26.5257 82.6692 25.6401ZM82.6692 13.9934C79.7554 13.2127 77.3797 15.0284 77.3797 18.0377C77.3797 21.047 79.7554 24.1359 82.6692 24.9167C85.583 25.6974 87.9587 23.8817 87.9587 20.8724C87.9587 17.863 85.583 14.7742 82.6692 13.9934Z" fill="black"/>
</svg>
