<svg width="167" height="197" viewBox="0 0 167 197" fill="none" xmlns="http://www.w3.org/2000/svg">
<rect width="102.951" height="87.8005" transform="matrix(0.97437 0.224951 -0.731354 0.681998 65.2134 113.247)" fill="#1B1C1D" stroke="black" stroke-linejoin="round"/>
<rect width="87.5535" height="100.252" rx="1" transform="matrix(0.731354 -0.681998 0 1 100.675 83.791)" fill="#BFBFBF" stroke="black" stroke-linejoin="round"/>
<rect width="59.3984" height="41.1749" rx="4" transform="matrix(0.731354 -0.681998 0 1 111.621 89.1992)" fill="#DEDFDF" stroke="black" stroke-linejoin="round"/>
<rect width="56.6787" height="38.582" rx="4" transform="matrix(0.731354 -0.681998 0 1 111.621 89.281)" fill="#A2A2A2" stroke="black" stroke-linejoin="round"/>
<rect width="59.4663" height="4.80876" rx="1" transform="matrix(0.731354 -0.681998 0 1 111.621 139.14)" fill="#DEDFDF" stroke="black" stroke-linejoin="round"/>
<rect width="56.6107" height="2.96835" rx="1" transform="matrix(0.731354 -0.681998 0 1 111.621 139.334)" fill="#3E464E" stroke="black" stroke-linejoin="round"/>
<rect width="59.4663" height="4.80876" rx="1" transform="matrix(0.731354 -0.681998 0 1 111.621 147.543)" fill="#DEDFDF" stroke="black" stroke-linejoin="round"/>
<rect width="56.6107" height="2.96835" rx="1" transform="matrix(0.731354 -0.681998 0 1 111.621 147.737)" fill="#3E464E" stroke="black" stroke-linejoin="round"/>
<rect width="59.4663" height="4.80876" rx="1" transform="matrix(0.731354 -0.681998 0 1 111.621 155.946)" fill="#DEDFDF" stroke="black" stroke-linejoin="round"/>
<rect width="56.6107" height="2.96835" rx="1" transform="matrix(0.731354 -0.681998 0 1 111.621 156.14)" fill="#3E464E" stroke="black" stroke-linejoin="round"/>
<rect width="102.297" height="100.279" transform="matrix(0.97437 0.224951 0 1 1 60.4346)" fill="#BFBFBF" stroke="black" stroke-linejoin="round"/>
<rect width="86.5038" height="82.2181" transform="matrix(0.97437 0.224951 0 1 8.69434 71.45)" fill="#DEDFDF" stroke="black" stroke-linejoin="round"/>
<rect width="82.2448" height="76.4323" transform="matrix(0.97437 0.224951 0 1 12.8442 73.269)" fill="#1B1C1D" stroke="black" stroke-linejoin="round"/>
<rect width="82.2448" height="23.9874" transform="matrix(0.97437 0.224951 0 1 12.8442 125.714)" fill="#A2A2A2" stroke="black" stroke-linejoin="round"/>
<circle cx="1.20842" cy="1.20842" r="1.20842" transform="matrix(0.97437 0.224951 0 1 14.6382 145.776)" fill="black"/>
<circle cx="1.20842" cy="1.20842" r="1.20842" transform="matrix(0.97437 0.224951 0 1 89.2485 163.518)" fill="black"/>
<circle cx="1.20842" cy="1.20842" r="1.20842" transform="matrix(0.97437 0.224951 0 1 14.2754 128.034)" fill="black"/>
<circle cx="1.20842" cy="1.20842" r="1.20842" transform="matrix(0.97437 0.224951 0 1 88.8853 145.776)" fill="black"/>
<path d="M23.8833 145.113C23.9686 145.045 24.1031 145.066 24.2024 145.159C25.1924 146.087 26.3912 146.774 27.6836 147.072C28.9761 147.371 30.1747 147.237 31.1648 146.766C31.2642 146.719 31.3987 146.76 31.4839 146.867L32.1011 147.643C32.2045 147.773 32.1942 147.946 32.0758 148.007C30.8412 148.64 29.3246 148.833 27.6836 148.454C26.0426 148.075 24.526 147.182 23.2914 145.979C23.173 145.864 23.1627 145.686 23.2662 145.604L23.8833 145.113ZM30.4544 145.573C30.5616 145.708 30.546 145.887 30.417 145.939C29.6224 146.26 28.6864 146.336 27.6836 146.104C26.6809 145.873 25.7449 145.365 24.9503 144.677C24.8213 144.566 24.8057 144.379 24.913 144.294L25.5444 143.792C25.6238 143.729 25.7468 143.743 25.8455 143.821C26.3921 144.251 27.0182 144.569 27.6836 144.723C28.3492 144.876 28.975 144.847 29.5217 144.669C29.6204 144.636 29.7435 144.679 29.8229 144.779L30.4544 145.573ZM22.5854 135.68C22.6707 135.788 22.6803 135.928 22.612 136.014C21.931 136.873 21.532 138.011 21.532 139.337C21.532 140.664 21.9304 141.986 22.6111 143.159C22.6794 143.277 22.6697 143.413 22.5845 143.481L21.9674 143.972C21.8639 144.054 21.693 144.004 21.6072 143.862C20.7133 142.389 20.1855 140.71 20.1855 139.027C20.1856 137.343 20.7139 135.908 21.6081 134.847C21.694 134.746 21.8649 134.775 21.9683 134.905L22.5854 135.68ZM33.399 137.544C33.5024 137.461 33.6733 137.511 33.7591 137.653C34.6537 139.126 35.1826 140.805 35.1827 142.489C35.1827 144.173 34.6534 145.607 33.7591 146.667C33.6733 146.769 33.5024 146.74 33.3989 146.61L32.782 145.835C32.6967 145.728 32.687 145.587 32.7554 145.501C33.4365 144.642 33.8362 143.505 33.8362 142.178C33.8362 140.852 33.4366 139.529 32.7553 138.356C32.687 138.238 32.6966 138.102 32.7819 138.034L33.399 137.544ZM31.7523 138.853C31.8595 138.768 32.0379 138.825 32.1176 138.976C32.6089 139.905 32.8932 140.931 32.8933 141.96C32.8933 142.989 32.6086 143.884 32.1175 144.586C32.0378 144.7 31.8595 144.675 31.7523 144.54L31.1209 143.747C31.0414 143.647 31.0273 143.517 31.0809 143.428C31.3776 142.936 31.5469 142.333 31.5469 141.65C31.5468 140.966 31.3785 140.285 31.0818 139.655C31.0283 139.541 31.0423 139.418 31.1218 139.355L31.7523 138.853ZM24.2455 137.767C24.325 137.867 24.339 137.997 24.2855 138.086C23.9891 138.579 23.8214 139.183 23.8214 139.866C23.8214 140.549 23.9894 141.23 24.2856 141.86C24.3391 141.973 24.325 142.096 24.2456 142.159L23.615 142.661C23.5078 142.746 23.3294 142.689 23.2497 142.538C22.7589 141.61 22.4749 140.584 22.4749 139.555C22.475 138.526 22.7587 137.631 23.2497 136.929C23.3294 136.815 23.5078 136.84 23.615 136.975L24.2455 137.767ZM27.6836 137.899C29.2218 138.254 30.4696 139.822 30.4697 141.401C30.4697 142.98 29.2219 143.971 27.6836 143.616C26.1456 143.261 24.8985 141.693 24.8985 140.115C24.8986 138.536 26.1456 137.544 27.6836 137.899ZM27.6836 139.281C26.8894 139.098 26.246 139.611 26.2459 140.426C26.2459 141.241 26.8893 142.051 27.6836 142.234C28.4782 142.418 29.1223 141.905 29.1223 141.09C29.1222 140.274 28.4781 139.465 27.6836 139.281ZM27.6836 135.412C28.6862 135.643 29.6223 136.151 30.417 136.838C30.546 136.95 30.5616 137.136 30.4544 137.222L29.8229 137.724C29.7434 137.787 29.6204 137.773 29.5217 137.696C28.975 137.265 28.3491 136.947 27.6836 136.794C27.0184 136.64 26.3921 136.668 25.8456 136.846C25.7469 136.878 25.6238 136.835 25.5444 136.735L24.9138 135.943C24.8066 135.808 24.8222 135.628 24.9512 135.576C25.7456 135.256 26.6813 135.181 27.6836 135.412ZM27.6836 133.062C29.3242 133.441 30.8412 134.333 32.0757 135.535C32.1942 135.651 32.2045 135.829 32.101 135.911L31.4839 136.402C31.3987 136.47 31.2642 136.448 31.1648 136.355C30.1748 135.428 28.9757 134.743 27.6836 134.444C26.3913 134.146 25.1924 134.279 24.2024 134.749C24.1031 134.796 23.9686 134.755 23.8833 134.648L23.2662 133.872C23.1628 133.742 23.173 133.569 23.2915 133.508C24.526 132.876 26.0428 132.684 27.6836 133.062Z" fill="black"/>
<path d="M27.6836 147.072L27.6836 147.197L27.6836 147.197V147.072ZM27.6836 148.454L27.6836 148.579L27.6836 148.579V148.454ZM27.6836 146.104L27.6836 146.229L27.6836 146.229V146.104ZM27.6836 144.723L27.6836 144.848L27.6836 144.848V144.723ZM21.532 139.337L21.4102 139.309V139.309L21.532 139.337ZM20.1855 139.027L20.0638 138.998V138.998L20.1855 139.027ZM35.1827 142.489L35.3045 142.517V142.517L35.1827 142.489ZM33.8362 142.178L33.958 142.206V142.206L33.8362 142.178ZM32.8933 141.96L33.0151 141.989V141.989L32.8933 141.96ZM31.5469 141.65L31.6687 141.678V141.678L31.5469 141.65ZM23.8214 139.866L23.6996 139.838V139.838L23.8214 139.866ZM22.4749 139.555L22.3531 139.527V139.527L22.4749 139.555ZM27.6836 137.899V137.774L27.6836 137.774L27.6836 137.899ZM30.4697 141.401L30.5915 141.429V141.429L30.4697 141.401ZM27.6836 143.616L27.6836 143.741L27.6836 143.741V143.616ZM24.8985 140.115L24.7767 140.087V140.087L24.8985 140.115ZM27.6836 139.281V139.156L27.6836 139.156L27.6836 139.281ZM26.2459 140.426L26.1241 140.398V140.398L26.2459 140.426ZM27.6836 142.234L27.6836 142.359L27.6836 142.359V142.234ZM29.1223 141.09L29.2441 141.118V141.118L29.1223 141.09ZM27.6836 135.412V135.287L27.6836 135.287L27.6836 135.412ZM27.6836 136.794V136.669L27.6836 136.669L27.6836 136.794ZM27.6836 133.062V132.937L27.6836 132.937L27.6836 133.062ZM27.6836 134.444V134.319L27.6836 134.319L27.6836 134.444ZM24.2024 134.749L24.1334 134.63L24.2024 134.749ZM32.0757 135.535L32.0043 135.62L32.0757 135.535ZM32.101 135.911L32.0149 135.803L32.101 135.911ZM25.8456 136.846L25.9036 136.969L25.8456 136.846ZM25.5444 136.735L25.6305 136.667L25.5444 136.735ZM29.8229 137.724L29.7367 137.616L29.8229 137.724ZM29.5217 137.696L29.4636 137.792L29.5217 137.696ZM30.417 136.838L30.353 136.93L30.417 136.838ZM30.4544 137.222L30.5405 137.33L30.4544 137.222ZM23.615 136.975L23.7011 136.906L23.615 136.975ZM23.615 142.661L23.5289 142.553L23.615 142.661ZM23.2497 142.538L23.3533 142.496L23.2497 142.538ZM24.2855 138.086L24.3926 138.17L24.2855 138.086ZM31.1209 143.747L31.207 143.678L31.1209 143.747ZM31.0809 143.428L30.9738 143.344L31.0809 143.428ZM32.1176 138.976L32.014 139.018L32.1176 138.976ZM31.7523 138.853L31.6662 138.745L31.7523 138.853ZM32.782 145.835L32.8681 145.766L32.782 145.835ZM32.7554 145.501L32.655 145.407L32.7554 145.501ZM33.7591 146.667L33.6604 146.571L33.7591 146.667ZM33.3989 146.61L33.485 146.541L33.3989 146.61ZM33.7591 137.653L33.8578 137.602L33.7591 137.653ZM33.399 137.544L33.3128 137.435L33.399 137.544ZM21.9683 134.905L21.8822 134.973L21.9683 134.905ZM21.9674 143.972L21.8813 143.863L21.9674 143.972ZM21.6072 143.862L21.7058 143.812L21.6072 143.862ZM22.612 136.014L22.5116 135.92L22.612 136.014ZM24.2856 141.86L24.1785 141.894L24.2856 141.86ZM24.2456 142.159L24.3317 142.268L24.2456 142.159ZM25.5444 143.792L25.6304 143.901L25.5444 143.792ZM25.8455 143.821L25.9036 143.724L25.8455 143.821ZM23.2915 133.508L23.22 133.391L23.2915 133.508ZM24.9503 144.677L24.8862 144.769L24.9503 144.677ZM24.913 144.294L24.9991 144.402L24.913 144.294ZM31.0818 139.655L31.1889 139.62L31.0818 139.655ZM31.1218 139.355L31.2079 139.463L31.1218 139.355ZM30.417 145.939L30.353 145.818L30.417 145.939ZM22.6111 143.159L22.5107 143.207L22.6111 143.159ZM32.1175 144.586L32.0139 144.496L32.1175 144.586ZM31.7523 144.54L31.8383 144.471L31.7523 144.54ZM32.0758 148.007L32.1472 148.125L32.0758 148.007ZM24.9138 135.943L24.8277 136.011L24.9138 135.943ZM24.9512 135.576L25.0153 135.697L24.9512 135.576ZM31.1648 146.766L31.0958 146.648L31.1648 146.766ZM31.4839 136.402L31.57 136.51L31.4839 136.402ZM31.1648 136.355L31.2338 136.268L31.1648 136.355ZM23.2662 145.604L23.1801 145.495L23.2662 145.604ZM29.5217 144.669L29.5798 144.792L29.5217 144.669ZM32.7553 138.356L32.655 138.403L32.7553 138.356ZM32.7819 138.034L32.868 138.143L32.7819 138.034ZM24.2024 145.159L24.1334 145.246L24.2024 145.159ZM23.8833 145.113L23.9694 145.221L23.8833 145.113ZM24.2024 145.159L24.1334 145.246C25.143 146.192 26.3657 146.893 27.6836 147.197L27.6836 147.072L27.6836 146.947C26.4167 146.655 25.2419 145.981 24.2715 145.072L24.2024 145.159ZM27.6836 147.072V147.197C29.0016 147.501 30.2242 147.365 31.2339 146.885L31.1648 146.766L31.0958 146.648C30.1253 147.109 28.9506 147.24 27.6836 146.947V147.072ZM31.4839 146.867L31.3978 146.936L32.0149 147.712L32.1011 147.643L32.1872 147.575L31.5701 146.799L31.4839 146.867ZM32.0758 148.007L32.0043 147.889C30.7897 148.512 29.298 148.702 27.6836 148.329V148.454V148.579C29.3512 148.964 30.8926 148.768 32.1472 148.125L32.0758 148.007ZM27.6836 148.454L27.6836 148.329C26.0692 147.956 24.5774 147.078 23.3629 145.894L23.2914 145.979L23.22 146.064C24.4745 147.286 26.016 148.194 27.6836 148.579L27.6836 148.454ZM23.2662 145.604L23.3523 145.712L23.9694 145.221L23.8833 145.113L23.7972 145.004L23.1801 145.495L23.2662 145.604ZM30.417 145.939L30.353 145.818C29.5769 146.131 28.6631 146.205 27.6836 145.979V146.104V146.229C28.7098 146.466 29.6678 146.389 30.4811 146.06L30.417 145.939ZM27.6836 146.104L27.6836 145.979C26.7042 145.753 25.7903 145.257 25.0143 144.586L24.9503 144.677L24.8862 144.769C25.6994 145.473 26.6575 145.992 27.6836 146.229L27.6836 146.104ZM24.913 144.294L24.9991 144.402L25.6304 143.901L25.5444 143.792L25.4583 143.684L24.827 144.185L24.913 144.294ZM25.8455 143.821L25.7875 143.917C26.3514 144.361 26.9974 144.689 27.6836 144.848L27.6836 144.723L27.6836 144.598C27.039 144.449 26.4328 144.141 25.9036 143.724L25.8455 143.821ZM27.6836 144.723V144.848C28.3701 145.006 29.0158 144.976 29.5798 144.792L29.5217 144.669L29.4636 144.545C28.9342 144.718 28.3283 144.746 27.6836 144.598V144.723ZM29.8229 144.779L29.7368 144.848L30.3683 145.642L30.4544 145.573L30.5405 145.505L29.909 144.711L29.8229 144.779ZM22.612 136.014L22.5116 135.92C21.8172 136.796 21.4102 137.957 21.4102 139.309L21.532 139.337L21.6538 139.366C21.6538 138.065 22.0449 136.95 22.7123 136.108L22.612 136.014ZM21.532 139.337L21.4102 139.309C21.4102 140.662 21.8166 142.011 22.5107 143.207L22.6111 143.159L22.7114 143.112C22.0443 141.962 21.6538 140.666 21.6538 139.366L21.532 139.337ZM22.5845 143.481L22.4984 143.372L21.8813 143.863L21.9674 143.972L22.0535 144.08L22.6706 143.589L22.5845 143.481ZM21.6072 143.862L21.7058 143.812C20.8265 142.362 20.3073 140.711 20.3073 139.055L20.1855 139.027L20.0638 138.998C20.0638 140.709 20.6002 142.416 21.5085 143.913L21.6072 143.862ZM20.1855 139.027L20.3073 139.055C20.3074 137.398 20.827 135.987 21.7068 134.943L21.6081 134.847L21.5095 134.751C20.6008 135.829 20.0638 137.287 20.0638 138.998L20.1855 139.027ZM21.9683 134.905L21.8822 134.973L22.4993 135.749L22.5854 135.68L22.6715 135.612L22.0544 134.836L21.9683 134.905ZM33.7591 137.653L33.6605 137.703C34.5406 139.153 35.0608 140.804 35.0609 142.461L35.1827 142.489L35.3045 142.517C35.3044 140.806 34.7668 139.099 33.8578 137.602L33.7591 137.653ZM35.1827 142.489L35.0609 142.461C35.0609 144.117 34.5403 145.528 33.6604 146.571L33.7591 146.667L33.8577 146.763C34.7665 145.686 35.3045 144.228 35.3045 142.517L35.1827 142.489ZM33.3989 146.61L33.485 146.541L32.8681 145.766L32.782 145.835L32.6959 145.904L33.3128 146.679L33.3989 146.61ZM32.7554 145.501L32.8557 145.595C33.5503 144.719 33.958 143.559 33.958 142.206L33.8362 142.178L33.7144 142.15C33.7144 143.45 33.3227 144.565 32.655 145.407L32.7554 145.501ZM33.8362 142.178L33.958 142.206C33.958 140.854 33.5504 139.505 32.8557 138.308L32.7553 138.356L32.655 138.403C33.3227 139.554 33.7144 140.85 33.7144 142.15L33.8362 142.178ZM32.7819 138.034L32.868 138.143L33.4851 137.652L33.399 137.544L33.3128 137.435L32.6957 137.926L32.7819 138.034ZM32.1176 138.976L32.014 139.018C32.4938 139.925 32.7714 140.927 32.7715 141.932L32.8933 141.96L33.0151 141.989C33.015 140.935 32.724 139.885 32.2212 138.934L32.1176 138.976ZM32.8933 141.96L32.7715 141.932C32.7715 142.937 32.4936 143.81 32.0139 144.496L32.1175 144.586L32.2211 144.675C32.7237 143.957 33.0151 143.041 33.0151 141.989L32.8933 141.96ZM31.7523 144.54L31.8383 144.471L31.207 143.678L31.1209 143.747L31.0348 143.815L31.6662 144.608L31.7523 144.54ZM31.0809 143.428L31.1879 143.513C31.494 143.005 31.6687 142.382 31.6687 141.678L31.5469 141.65L31.4251 141.621C31.4251 142.283 31.2611 142.867 30.9738 143.344L31.0809 143.428ZM31.5469 141.65L31.6687 141.678C31.6686 140.973 31.495 140.27 31.1889 139.62L31.0818 139.655L30.9748 139.69C31.262 140.299 31.425 140.96 31.4251 141.621L31.5469 141.65ZM31.1218 139.355L31.2079 139.463L31.8384 138.962L31.7523 138.853L31.6662 138.745L31.0356 139.247L31.1218 139.355ZM24.2855 138.086L24.1784 138.002C23.8726 138.51 23.6996 139.134 23.6996 139.838L23.8214 139.866L23.9432 139.894C23.9432 139.232 24.1057 138.647 24.3926 138.17L24.2855 138.086ZM23.8214 139.866L23.6996 139.838C23.6996 140.542 23.8729 141.245 24.1785 141.894L24.2856 141.86L24.3927 141.825C24.1059 141.215 23.9432 140.556 23.9432 139.894L23.8214 139.866ZM24.2456 142.159L24.1594 142.051L23.5289 142.553L23.615 142.661L23.7012 142.769L24.3317 142.268L24.2456 142.159ZM23.2497 142.538L23.3533 142.496C22.8741 141.59 22.5967 140.588 22.5967 139.583L22.4749 139.555L22.3531 139.527C22.3531 140.58 22.6438 141.63 23.1461 142.58L23.2497 142.538ZM22.4749 139.555L22.5967 139.583C22.5968 138.578 22.8738 137.704 23.3533 137.018L23.2497 136.929L23.1461 136.839C22.6435 137.558 22.3532 138.474 22.3531 139.527L22.4749 139.555ZM23.615 136.975L23.5288 137.043L24.1594 137.836L24.2455 137.767L24.3316 137.699L23.7011 136.906L23.615 136.975ZM27.6836 137.899V138.024C29.1546 138.364 30.3478 139.863 30.3479 141.373L30.4697 141.401L30.5915 141.429C30.5914 139.781 29.289 138.145 27.6836 137.774V137.899ZM30.4697 141.401L30.3479 141.373C30.3479 142.882 29.1547 143.831 27.6836 143.491V143.616V143.741C29.2891 144.112 30.5915 143.077 30.5915 141.429L30.4697 141.401ZM27.6836 143.616L27.6836 143.491C26.2128 143.151 25.0203 141.652 25.0203 140.143L24.8985 140.115L24.7767 140.087C24.7767 141.734 26.0783 143.37 27.6836 143.741L27.6836 143.616ZM24.8985 140.115L25.0203 140.143C25.0204 138.633 26.2129 137.685 27.6836 138.024L27.6836 137.899L27.6836 137.774C26.0784 137.404 24.7768 138.439 24.7767 140.087L24.8985 140.115ZM27.6836 139.281L27.6836 139.156C26.822 138.957 26.1242 139.514 26.1241 140.398L26.2459 140.426L26.3677 140.454C26.3678 139.708 26.9567 139.238 27.6837 139.406L27.6836 139.281ZM26.2459 140.426L26.1241 140.398C26.1241 141.282 26.8219 142.16 27.6836 142.359L27.6836 142.234L27.6837 142.109C26.9566 141.941 26.3677 141.2 26.3677 140.454L26.2459 140.426ZM27.6836 142.234V142.359C28.5454 142.558 29.2441 142.002 29.2441 141.118L29.1223 141.09L29.0006 141.062C29.0006 141.808 28.4109 142.277 27.6836 142.109V142.234ZM29.1223 141.09L29.2441 141.118C29.244 140.234 28.5454 139.355 27.6836 139.156V139.281V139.406C28.4108 139.574 29.0004 140.315 29.0006 141.062L29.1223 141.09ZM27.6836 135.412V135.537C28.6629 135.763 29.577 136.259 30.353 136.93L30.417 136.838L30.481 136.747C29.6677 136.043 28.7095 135.524 27.6836 135.287V135.412ZM30.4544 137.222L30.3682 137.113L29.7367 137.616L29.8229 137.724L29.909 137.832L30.5405 137.33L30.4544 137.222ZM29.5217 137.696L29.5797 137.599C29.0158 137.155 28.3699 136.827 27.6836 136.669V136.794V136.919C28.3282 137.068 28.9343 137.375 29.4636 137.792L29.5217 137.696ZM27.6836 136.794L27.6836 136.669C26.9976 136.511 26.3515 136.539 25.7876 136.723L25.8456 136.846L25.9036 136.969C26.4328 136.797 27.0391 136.77 27.6836 136.919L27.6836 136.794ZM25.5444 136.735L25.6305 136.667L25 135.874L24.9138 135.943L24.8277 136.011L25.4583 136.804L25.5444 136.735ZM24.9512 135.576L25.0153 135.697C25.791 135.385 26.7046 135.311 27.6836 135.537L27.6836 135.412L27.6836 135.287C26.658 135.05 25.7002 135.127 24.8872 135.455L24.9512 135.576ZM27.6836 133.062V133.187C29.2977 133.56 30.7898 134.437 32.0043 135.62L32.0757 135.535L32.1471 135.451C30.8925 134.229 29.3508 133.322 27.6836 132.937V133.062ZM32.101 135.911L32.0149 135.803L31.3978 136.294L31.4839 136.402L31.57 136.51L32.1871 136.019L32.101 135.911ZM31.1648 136.355L31.2338 136.268C30.2242 135.323 29.0011 134.623 27.6836 134.319V134.444V134.569C28.9503 134.862 30.1255 135.534 31.0958 136.442L31.1648 136.355ZM27.6836 134.444L27.6836 134.319C26.3659 134.015 25.143 134.15 24.1334 134.63L24.2024 134.749L24.2714 134.868C25.2418 134.407 26.4168 134.277 27.6836 134.569L27.6836 134.444ZM23.8833 134.648L23.9694 134.579L23.3523 133.804L23.2662 133.872L23.1801 133.941L23.7972 134.717L23.8833 134.648ZM23.2915 133.508L23.3629 133.626C24.5774 133.004 26.0694 132.815 27.6836 133.187L27.6836 133.062L27.6836 132.937C26.0162 132.552 24.4745 132.748 23.22 133.391L23.2915 133.508ZM24.2024 134.749L24.1334 134.63C24.0804 134.655 24.0114 134.632 23.9694 134.579L23.8833 134.648L23.7972 134.717C23.9257 134.878 24.1258 134.937 24.2714 134.868L24.2024 134.749ZM32.0757 135.535L32.0043 135.62C32.0596 135.674 32.0676 135.761 32.0149 135.803L32.101 135.911L32.1871 136.019C32.3414 135.897 32.3288 135.628 32.1471 135.451L32.0757 135.535ZM25.8456 136.846L25.7876 136.723C25.733 136.74 25.6693 136.716 25.6305 136.667L25.5444 136.735L25.4583 136.804C25.5783 136.955 25.7607 137.016 25.9036 136.969L25.8456 136.846ZM29.8229 137.724L29.7367 137.616C29.6979 137.647 29.6342 137.642 29.5797 137.599L29.5217 137.696L29.4636 137.792C29.6066 137.905 29.789 137.928 29.909 137.832L29.8229 137.724ZM30.417 136.838L30.353 136.93C30.4109 136.98 30.4234 137.07 30.3682 137.113L30.4544 137.222L30.5405 137.33C30.6998 137.203 30.681 136.92 30.481 136.747L30.417 136.838ZM23.2497 136.929L23.3533 137.018C23.3891 136.967 23.4737 136.974 23.5288 137.043L23.615 136.975L23.7011 136.906C23.5418 136.706 23.2696 136.662 23.1461 136.839L23.2497 136.929ZM23.615 142.661L23.5289 142.553C23.4738 142.597 23.3891 142.564 23.3533 142.496L23.2497 142.538L23.1461 142.58C23.2696 142.814 23.5419 142.896 23.7012 142.769L23.615 142.661ZM24.2855 138.086L24.3926 138.17C24.4701 138.041 24.4517 137.85 24.3316 137.699L24.2455 137.767L24.1594 137.836C24.1982 137.885 24.208 137.952 24.1784 138.002L24.2855 138.086ZM31.1209 143.747L31.207 143.678C31.1681 143.629 31.1584 143.562 31.1879 143.513L31.0809 143.428L30.9738 143.344C30.8962 143.473 30.9147 143.664 31.0348 143.815L31.1209 143.747ZM32.1176 138.976L32.2212 138.934C32.0976 138.7 31.8255 138.618 31.6662 138.745L31.7523 138.853L31.8384 138.962C31.8936 138.918 31.9782 138.95 32.014 139.018L32.1176 138.976ZM32.782 145.835L32.8681 145.766C32.8261 145.714 32.8192 145.641 32.8557 145.595L32.7554 145.501L32.655 145.407C32.5548 145.534 32.5672 145.742 32.6959 145.904L32.782 145.835ZM33.7591 146.667L33.6604 146.571C33.6204 146.618 33.5377 146.608 33.485 146.541L33.3989 146.61L33.3128 146.679C33.4671 146.872 33.7261 146.919 33.8577 146.763L33.7591 146.667ZM33.7591 137.653L33.8578 137.602C33.7262 137.385 33.4671 137.313 33.3128 137.435L33.399 137.544L33.4851 137.652C33.5377 137.61 33.6205 137.637 33.6605 137.703L33.7591 137.653ZM21.6081 134.847L21.7068 134.943C21.7468 134.896 21.8295 134.907 21.8822 134.973L21.9683 134.905L22.0544 134.836C21.9002 134.642 21.6411 134.595 21.5095 134.751L21.6081 134.847ZM21.9674 143.972L21.8813 143.863C21.8286 143.905 21.7459 143.878 21.7058 143.812L21.6072 143.862L21.5085 143.913C21.6401 144.13 21.8993 144.203 22.0535 144.08L21.9674 143.972ZM22.612 136.014L22.7123 136.108C22.8125 135.982 22.8001 135.773 22.6715 135.612L22.5854 135.68L22.4993 135.749C22.5413 135.802 22.5481 135.874 22.5116 135.92L22.612 136.014ZM24.2856 141.86L24.1785 141.894C24.208 141.957 24.1983 142.02 24.1594 142.051L24.2456 142.159L24.3317 142.268C24.4517 142.172 24.4701 141.989 24.3927 141.825L24.2856 141.86ZM25.5444 143.792L25.6304 143.901C25.6693 143.87 25.733 143.874 25.7875 143.917L25.8455 143.821L25.9036 143.724C25.7607 143.612 25.5783 143.589 25.4583 143.684L25.5444 143.792ZM23.2662 133.872L23.3523 133.804C23.2997 133.737 23.3077 133.654 23.3629 133.626L23.2915 133.508L23.22 133.391C23.0384 133.484 23.0259 133.747 23.1801 133.941L23.2662 133.872ZM24.9503 144.677L25.0143 144.586C24.9563 144.536 24.9439 144.446 24.9991 144.402L24.913 144.294L24.827 144.185C24.6676 144.312 24.6862 144.596 24.8862 144.769L24.9503 144.677ZM31.0818 139.655L31.1889 139.62C31.1593 139.557 31.1691 139.494 31.2079 139.463L31.1218 139.355L31.0356 139.247C30.9156 139.342 30.8972 139.525 30.9748 139.69L31.0818 139.655ZM30.417 145.939L30.4811 146.06C30.681 145.98 30.6998 145.705 30.5405 145.505L30.4544 145.573L30.3683 145.642C30.4234 145.711 30.411 145.795 30.353 145.818L30.417 145.939ZM22.6111 143.159L22.5107 143.207C22.5472 143.27 22.5403 143.339 22.4984 143.372L22.5845 143.481L22.6706 143.589C22.7992 143.487 22.8116 143.284 22.7114 143.112L22.6111 143.159ZM32.1175 144.586L32.0139 144.496C31.9781 144.547 31.8935 144.541 31.8383 144.471L31.7523 144.54L31.6662 144.608C31.8255 144.809 32.0976 144.852 32.2211 144.675L32.1175 144.586ZM32.1011 147.643L32.0149 147.712C32.0676 147.778 32.0596 147.861 32.0043 147.889L32.0758 148.007L32.1472 148.125C32.3289 148.032 32.3414 147.769 32.1872 147.575L32.1011 147.643ZM24.9138 135.943L25 135.874C24.9448 135.805 24.9573 135.721 25.0153 135.697L24.9512 135.576L24.8872 135.455C24.6872 135.536 24.6684 135.811 24.8277 136.011L24.9138 135.943ZM31.1648 146.766L31.2339 146.885C31.2869 146.86 31.3559 146.883 31.3978 146.936L31.4839 146.867L31.5701 146.799C31.4415 146.637 31.2414 146.578 31.0958 146.648L31.1648 146.766ZM31.4839 136.402L31.3978 136.294C31.3558 136.327 31.2869 136.318 31.2338 136.268L31.1648 136.355L31.0958 136.442C31.2415 136.579 31.4415 136.612 31.57 136.51L31.4839 136.402ZM23.2914 145.979L23.3629 145.894C23.3076 145.84 23.2996 145.754 23.3523 145.712L23.2662 145.604L23.1801 145.495C23.0259 145.618 23.0384 145.887 23.22 146.064L23.2914 145.979ZM29.5217 144.669L29.5798 144.792C29.6342 144.774 29.6979 144.799 29.7368 144.848L29.8229 144.779L29.909 144.711C29.789 144.56 29.6065 144.499 29.4636 144.545L29.5217 144.669ZM32.7553 138.356L32.8557 138.308C32.8192 138.245 32.826 138.176 32.868 138.143L32.7819 138.034L32.6957 137.926C32.5672 138.028 32.5548 138.231 32.655 138.403L32.7553 138.356ZM24.2024 145.159L24.2715 145.072C24.1258 144.936 23.9257 144.902 23.7972 145.004L23.8833 145.113L23.9694 145.221C24.0114 145.188 24.0803 145.196 24.1334 145.246L24.2024 145.159Z" fill="black"/>
<path d="M43.4062 149.509C43.4915 149.441 43.626 149.462 43.7254 149.556C44.7154 150.483 45.9141 151.17 47.2066 151.469C48.499 151.767 49.6977 151.633 50.6878 151.163C50.7871 151.116 50.9216 151.157 51.0069 151.264L51.624 152.04C51.7274 152.17 51.7172 152.343 51.5987 152.403C50.3641 153.036 48.8476 153.229 47.2066 152.85C45.5656 152.472 44.0489 151.579 42.8144 150.375C42.6959 150.26 42.6857 150.082 42.7891 150L43.4062 149.509ZM49.9773 149.97C50.0846 150.104 50.069 150.284 49.94 150.336C49.1453 150.657 48.2094 150.732 47.2066 150.501C46.2038 150.269 45.2678 149.761 44.4732 149.074C44.3442 148.962 44.3287 148.775 44.436 148.69L45.0673 148.189C45.1468 148.126 45.2698 148.14 45.3685 148.217C45.9151 148.648 46.5411 148.965 47.2066 149.119C47.8722 149.273 48.4979 149.243 49.0446 149.065C49.1433 149.033 49.2664 149.076 49.3458 149.176L49.9773 149.97ZM42.1084 140.077C42.1936 140.184 42.2032 140.324 42.1349 140.411C41.454 141.269 41.055 142.408 41.0549 143.734C41.0549 145.06 41.4541 146.383 42.1349 147.556C42.2033 147.674 42.1936 147.81 42.1084 147.877L41.4913 148.368C41.3878 148.451 41.2169 148.401 41.1311 148.259C40.2369 146.786 39.7085 145.107 39.7085 143.423C39.7086 141.739 40.2369 140.304 41.1311 139.244C41.2169 139.142 41.3878 139.171 41.4913 139.301L42.1084 140.077ZM52.9219 141.941C53.0254 141.859 53.1962 141.909 53.282 142.05C54.1764 143.523 54.7055 145.201 54.7056 146.885C54.7056 148.569 54.1763 150.003 53.282 151.064C53.1962 151.165 53.0253 151.136 52.9219 151.006L52.3049 150.231C52.2196 150.124 52.2099 149.984 52.2783 149.898C52.9595 149.039 53.3592 147.901 53.3592 146.575C53.3591 145.248 52.9595 143.926 52.2783 142.752C52.21 142.635 52.2196 142.499 52.305 142.431L52.9219 141.941ZM43.7685 142.164C43.8479 142.264 43.862 142.393 43.8084 142.482C43.5121 142.975 43.3444 143.579 43.3443 144.262C43.3443 144.945 43.5124 145.627 43.8086 146.256C43.8621 146.37 43.848 146.493 43.7687 146.556L43.138 147.058C43.0308 147.144 42.8523 147.086 42.7725 146.936C42.2817 146.007 41.9979 144.981 41.9979 143.952C41.998 142.923 42.2816 142.027 42.7726 141.325C42.8523 141.211 43.0307 141.236 43.1379 141.371L43.7685 142.164ZM51.2753 143.25C51.3825 143.165 51.5608 143.222 51.6406 143.372C52.1319 144.301 52.4161 145.328 52.4162 146.357C52.4162 147.386 52.1316 148.28 51.6405 148.982C51.5608 149.096 51.3824 149.071 51.2752 148.936L50.6439 148.143C50.5644 148.043 50.5502 147.914 50.6038 147.825C50.9005 147.332 51.0698 146.729 51.0698 146.046C51.0697 145.363 50.9014 144.681 50.6048 144.051C50.5512 143.938 50.5653 143.815 50.6447 143.751L51.2753 143.25ZM47.2066 142.296C48.7448 142.651 49.9926 144.219 49.9927 145.797C49.9927 147.376 48.7448 148.368 47.2066 148.013C45.6685 147.657 44.4214 146.09 44.4214 144.511C44.4215 142.933 45.6686 141.941 47.2066 142.296ZM47.2066 143.678C46.4123 143.494 45.7689 144.007 45.7688 144.822C45.7688 145.638 46.4123 146.447 47.2066 146.631C48.0011 146.814 48.6453 146.302 48.6453 145.486C48.6452 144.671 48.0011 143.861 47.2066 143.678ZM47.2066 139.808C48.2092 140.04 49.1453 140.547 49.9399 141.235C50.0689 141.346 50.0845 141.533 49.9773 141.618L49.3458 142.121C49.2664 142.184 49.1434 142.17 49.0446 142.092C48.498 141.662 47.872 141.344 47.2066 141.19C46.5413 141.037 45.9151 141.065 45.3686 141.242C45.2698 141.274 45.1468 141.232 45.0673 141.132L44.4368 140.339C44.3296 140.204 44.3452 140.025 44.4742 139.973C45.2686 139.652 46.2042 139.577 47.2066 139.808ZM47.2066 137.459C48.8472 137.838 50.3641 138.729 51.5986 139.932C51.7171 140.047 51.7274 140.225 51.624 140.307L51.0069 140.798C50.9216 140.866 50.7871 140.845 50.6878 140.752C49.6978 139.825 48.4987 139.139 47.2066 138.841C45.9143 138.542 44.7153 138.675 43.7254 139.145C43.626 139.193 43.4915 139.152 43.4063 139.044L42.7892 138.269C42.6857 138.139 42.696 137.966 42.8144 137.905C44.0489 137.272 45.5657 137.08 47.2066 137.459Z" fill="black"/>
<path d="M47.2066 151.469L47.2066 151.594L47.2066 151.594V151.469ZM47.2066 152.85L47.2066 152.975L47.2066 152.975V152.85ZM47.2066 150.501L47.2066 150.626L47.2066 150.626V150.501ZM47.2066 149.119L47.2066 149.244L47.2066 149.244V149.119ZM41.0549 143.734L40.9331 143.706V143.706L41.0549 143.734ZM39.7085 143.423L39.5867 143.395V143.395L39.7085 143.423ZM54.7056 146.885L54.8274 146.914V146.914L54.7056 146.885ZM53.3592 146.575L53.481 146.603V146.603L53.3592 146.575ZM43.3443 144.262L43.2225 144.234V144.234L43.3443 144.262ZM41.9979 143.952L41.8761 143.924V143.924L41.9979 143.952ZM52.4162 146.357L52.538 146.385V146.385L52.4162 146.357ZM51.0698 146.046L51.1916 146.074V146.074L51.0698 146.046ZM47.2066 142.296V142.171L47.2066 142.171L47.2066 142.296ZM49.9927 145.797L50.1145 145.826V145.825L49.9927 145.797ZM47.2066 148.013L47.2066 148.138L47.2066 148.138V148.013ZM44.4214 144.511L44.2996 144.483V144.483L44.4214 144.511ZM47.2066 143.678V143.553L47.2065 143.553L47.2066 143.678ZM45.7688 144.822L45.647 144.794V144.794L45.7688 144.822ZM47.2066 146.631L47.2065 146.756L47.2066 146.756V146.631ZM48.6453 145.486L48.7671 145.514V145.514L48.6453 145.486ZM47.2066 139.808V139.683L47.2066 139.683L47.2066 139.808ZM47.2066 141.19V141.065L47.2066 141.065L47.2066 141.19ZM47.2066 137.459V137.334L47.2066 137.334L47.2066 137.459ZM47.2066 138.841V138.716L47.2066 138.716L47.2066 138.841ZM43.7254 139.145L43.6563 139.026L43.7254 139.145ZM51.5986 139.932L51.5272 140.017L51.5986 139.932ZM51.624 140.307L51.5378 140.199L51.624 140.307ZM45.3686 141.242L45.4266 141.366L45.3686 141.242ZM45.0673 141.132L44.9812 141.2L45.0673 141.132ZM49.3458 142.121L49.2597 142.012L49.3458 142.121ZM49.0446 142.092L49.1027 141.996L49.0446 142.092ZM49.9399 141.235L49.8759 141.326L49.9399 141.235ZM49.9773 141.618L49.8912 141.51L49.9773 141.618ZM50.6048 144.051L50.4977 144.086L50.6048 144.051ZM50.6447 143.751L50.7308 143.86L50.6447 143.751ZM50.6439 148.143L50.7299 148.075L50.6439 148.143ZM50.6038 147.825L50.4968 147.74L50.6038 147.825ZM51.6406 143.372L51.537 143.414L51.6406 143.372ZM51.2753 143.25L51.1891 143.142L51.2753 143.25ZM43.138 147.058L43.2241 147.166L43.138 147.058ZM42.7725 146.936L42.6689 146.977L42.7725 146.936ZM52.3049 150.231L52.391 150.163L52.3049 150.231ZM52.2783 149.898L52.178 149.804L52.2783 149.898ZM53.282 151.064L53.1834 150.967L53.282 151.064ZM52.9219 151.006L53.008 150.938L52.9219 151.006ZM53.282 142.05L53.1834 142.101L53.282 142.05ZM52.9219 141.941L52.8358 141.833L52.9219 141.941ZM41.4913 139.301L41.4051 139.37L41.4913 139.301ZM41.4913 148.368L41.5774 148.477L41.4913 148.368ZM41.1311 148.259L41.0324 148.31L41.1311 148.259ZM42.1349 140.411L42.0346 140.316L42.1349 140.411ZM51.6405 148.982L51.5369 148.893L51.6405 148.982ZM51.2752 148.936L51.3613 148.868L51.2752 148.936ZM45.0673 148.189L45.1534 148.297L45.0673 148.189ZM45.3685 148.217L45.4266 148.121L45.3685 148.217ZM42.8144 137.905L42.743 137.787L42.8144 137.905ZM44.4732 149.074L44.4092 149.165L44.4732 149.074ZM44.436 148.69L44.5221 148.799L44.436 148.69ZM42.7726 141.325L42.8762 141.415L42.7726 141.325ZM49.94 150.336L49.8759 150.215L49.94 150.336ZM42.1349 147.556L42.2353 147.508L42.1349 147.556ZM42.1084 147.877L42.1945 147.986L42.1084 147.877ZM43.8086 146.256L43.7015 146.291L43.8086 146.256ZM43.7687 146.556L43.6825 146.448L43.7687 146.556ZM51.5987 152.403L51.6702 152.521L51.5987 152.403ZM50.6878 151.163L50.6188 151.044L50.6878 151.163ZM51.0069 140.798L51.093 140.907L51.0069 140.798ZM50.6878 140.752L50.7568 140.665L50.6878 140.752ZM42.7891 150L42.703 149.892L42.7891 150ZM49.0446 149.065L49.1027 149.188L49.0446 149.065ZM52.2783 142.752L52.3787 142.705L52.2783 142.752ZM52.305 142.431L52.391 142.539L52.305 142.431ZM43.7254 149.556L43.6563 149.643L43.7254 149.556ZM43.4062 149.509L43.4924 149.617L43.4062 149.509ZM43.7254 149.556L43.6563 149.643C44.6659 150.589 45.8886 151.289 47.2066 151.594L47.2066 151.469L47.2066 151.344C45.9396 151.051 44.7648 150.378 43.7944 149.469L43.7254 149.556ZM47.2066 151.469V151.594C48.5245 151.898 49.7471 151.762 50.7568 151.282L50.6878 151.163L50.6188 151.044C49.6482 151.505 48.4735 151.636 47.2066 151.344V151.469ZM51.0069 151.264L50.9208 151.332L51.5379 152.108L51.624 152.04L51.7101 151.971L51.093 151.195L51.0069 151.264ZM51.5987 152.403L51.5273 152.286C50.3126 152.908 48.8209 153.098 47.2066 152.725V152.85V152.975C48.8742 153.36 50.4156 153.164 51.6702 152.521L51.5987 152.403ZM47.2066 152.85L47.2066 152.725C45.5922 152.353 44.1004 151.474 42.8859 150.291L42.8144 150.375L42.7429 150.46C43.9974 151.683 45.5389 152.59 47.2066 152.975L47.2066 152.85ZM42.7891 150L42.8753 150.108L43.4924 149.617L43.4062 149.509L43.3201 149.401L42.703 149.892L42.7891 150ZM49.94 150.336L49.8759 150.215C49.0999 150.528 48.186 150.602 47.2066 150.376V150.501V150.626C48.2327 150.863 49.1908 150.785 50.004 150.457L49.94 150.336ZM47.2066 150.501L47.2066 150.376C46.2272 150.15 45.3132 149.654 44.5373 148.982L44.4732 149.074L44.4092 149.165C45.2224 149.869 46.1805 150.389 47.2066 150.626L47.2066 150.501ZM44.436 148.69L44.5221 148.799L45.1534 148.297L45.0673 148.189L44.9812 148.08L44.3499 148.582L44.436 148.69ZM45.3685 148.217L45.3104 148.314C45.8743 148.758 46.5203 149.086 47.2066 149.244L47.2066 149.119L47.2066 148.994C46.5619 148.845 45.9558 148.538 45.4266 148.121L45.3685 148.217ZM47.2066 149.119V149.244C47.8931 149.402 48.5388 149.372 49.1027 149.188L49.0446 149.065L48.9865 148.942C48.4571 149.114 47.8512 149.143 47.2066 148.994V149.119ZM49.3458 149.176L49.2597 149.244L49.8912 150.038L49.9773 149.97L50.0635 149.901L49.432 149.107L49.3458 149.176ZM42.1349 140.411L42.0346 140.316C41.3401 141.192 40.9332 142.353 40.9331 143.706L41.0549 143.734L41.1767 143.762C41.1768 142.462 41.5678 141.346 42.2353 140.505L42.1349 140.411ZM41.0549 143.734L40.9331 143.706C40.9331 145.058 41.3402 146.407 42.0346 147.604L42.1349 147.556L42.2353 147.508C41.5679 146.358 41.1767 145.062 41.1767 143.762L41.0549 143.734ZM42.1084 147.877L42.0223 147.769L41.4052 148.26L41.4913 148.368L41.5774 148.477L42.1945 147.986L42.1084 147.877ZM41.1311 148.259L41.2297 148.209C40.3501 146.759 39.8303 145.108 39.8303 143.451L39.7085 143.423L39.5867 143.395C39.5867 145.106 40.1238 146.812 41.0324 148.31L41.1311 148.259ZM39.7085 143.423L39.8303 143.451C39.8304 141.795 40.35 140.383 41.2297 139.34L41.1311 139.244L41.0324 139.148C40.1237 140.225 39.5868 141.684 39.5867 143.395L39.7085 143.423ZM41.4913 139.301L41.4051 139.37L42.0223 140.145L42.1084 140.077L42.1945 140.008L41.5774 139.233L41.4913 139.301ZM53.282 142.05L53.1834 142.101C54.0633 143.55 54.5837 145.201 54.5838 146.857L54.7056 146.885L54.8274 146.914C54.8273 145.202 54.2895 143.497 53.3806 141.999L53.282 142.05ZM54.7056 146.885L54.5838 146.857C54.5838 148.514 54.0632 149.924 53.1834 150.967L53.282 151.064L53.3806 151.16C54.2894 150.082 54.8274 148.625 54.8274 146.914L54.7056 146.885ZM52.9219 151.006L53.008 150.938L52.391 150.163L52.3049 150.231L52.2189 150.3L52.8358 151.075L52.9219 151.006ZM52.2783 149.898L52.3787 149.992C53.0733 149.116 53.481 147.955 53.481 146.603L53.3592 146.575L53.2374 146.546C53.2374 147.847 52.8456 148.962 52.178 149.804L52.2783 149.898ZM53.3592 146.575L53.481 146.603C53.4809 145.25 53.0734 143.901 52.3787 142.705L52.2783 142.752L52.178 142.8C52.8457 143.95 53.2373 145.246 53.2374 146.546L53.3592 146.575ZM52.305 142.431L52.391 142.539L53.008 142.049L52.9219 141.941L52.8358 141.833L52.2189 142.323L52.305 142.431ZM43.8084 142.482L43.7014 142.398C43.3955 142.906 43.2226 143.53 43.2225 144.234L43.3443 144.262L43.4661 144.291C43.4662 143.629 43.6286 143.044 43.9155 142.567L43.8084 142.482ZM43.3443 144.262L43.2225 144.234C43.2225 144.938 43.3959 145.642 43.7015 146.291L43.8086 146.256L43.9157 146.221C43.6289 145.612 43.4661 144.952 43.4661 144.291L43.3443 144.262ZM43.7687 146.556L43.6825 146.448L43.0518 146.95L43.138 147.058L43.2241 147.166L43.8548 146.664L43.7687 146.556ZM42.7725 146.936L42.8762 146.894C42.3968 145.987 42.1197 144.985 42.1197 143.98L41.9979 143.952L41.8761 143.924C41.8761 144.976 42.1665 146.027 42.6689 146.977L42.7725 146.936ZM41.9979 143.952L42.1197 143.98C42.1198 142.975 42.3968 142.1 42.8762 141.415L42.7726 141.325L42.669 141.236C42.1665 141.954 41.8762 142.871 41.8761 143.924L41.9979 143.952ZM43.1379 141.371L43.0518 141.44L43.6823 142.232L43.7685 142.164L43.8546 142.095L43.224 141.303L43.1379 141.371ZM51.6406 143.372L51.537 143.414C52.0168 144.321 52.2943 145.324 52.2944 146.329L52.4162 146.357L52.538 146.385C52.5379 145.332 52.247 144.281 51.7442 143.331L51.6406 143.372ZM52.4162 146.357L52.2944 146.329C52.2944 147.334 52.0165 148.207 51.5369 148.893L51.6405 148.982L51.7441 149.072C52.2467 148.353 52.538 147.438 52.538 146.385L52.4162 146.357ZM51.2752 148.936L51.3613 148.868L50.7299 148.075L50.6439 148.143L50.5578 148.212L51.1891 149.005L51.2752 148.936ZM50.6038 147.825L50.7109 147.909C51.0169 147.401 51.1916 146.779 51.1916 146.074L51.0698 146.046L50.948 146.018C50.948 146.68 50.7841 147.263 50.4968 147.74L50.6038 147.825ZM51.0698 146.046L51.1916 146.074C51.1915 145.37 51.0179 144.666 50.7118 144.016L50.6048 144.051L50.4977 144.086C50.7849 144.696 50.9479 145.356 50.948 146.018L51.0698 146.046ZM50.6447 143.751L50.7308 143.86L51.3614 143.358L51.2753 143.25L51.1891 143.142L50.5586 143.643L50.6447 143.751ZM47.2066 142.296V142.421C48.6776 142.76 49.8708 144.26 49.8709 145.769L49.9927 145.797L50.1145 145.825C50.1144 144.178 48.812 142.541 47.2066 142.171V142.296ZM49.9927 145.797L49.8709 145.769C49.8709 147.279 48.6776 148.227 47.2066 147.888V148.013V148.138C48.812 148.508 50.1145 147.473 50.1145 145.826L49.9927 145.797ZM47.2066 148.013L47.2066 147.888C45.7358 147.548 44.5432 146.049 44.5432 144.539L44.4214 144.511L44.2996 144.483C44.2996 146.131 45.6013 147.767 47.2066 148.138L47.2066 148.013ZM44.4214 144.511L44.5432 144.539C44.5433 143.03 45.7358 142.081 47.2066 142.421L47.2066 142.296L47.2066 142.171C45.6013 141.8 44.2997 142.836 44.2996 144.483L44.4214 144.511ZM47.2066 143.678L47.2065 143.553C46.3449 143.354 45.6471 143.91 45.647 144.794L45.7688 144.822L45.8906 144.85C45.8907 144.104 46.4797 143.635 47.2066 143.803L47.2066 143.678ZM45.7688 144.822L45.647 144.794C45.647 145.678 46.3449 146.557 47.2065 146.756L47.2066 146.631L47.2066 146.506C46.4796 146.338 45.8906 145.597 45.8906 144.85L45.7688 144.822ZM47.2066 146.631V146.756C48.0684 146.955 48.7671 146.399 48.7671 145.514L48.6453 145.486L48.5235 145.458C48.5235 146.205 47.9338 146.674 47.2066 146.506V146.631ZM48.6453 145.486L48.7671 145.514C48.767 144.63 48.0683 143.752 47.2066 143.553V143.678V143.803C47.9338 143.97 48.5234 144.712 48.5235 145.458L48.6453 145.486ZM47.2066 139.808V139.933C48.1859 140.16 49.0999 140.655 49.8759 141.326L49.9399 141.235L50.0039 141.143C49.1907 140.44 48.2325 139.92 47.2066 139.683V139.808ZM49.9773 141.618L49.8912 141.51L49.2597 142.012L49.3458 142.121L49.4319 142.229L50.0634 141.726L49.9773 141.618ZM49.0446 142.092L49.1027 141.996C48.5387 141.551 47.8929 141.224 47.2066 141.065V141.19V141.315C47.8512 141.464 48.4572 141.772 48.9866 142.188L49.0446 142.092ZM47.2066 141.19L47.2066 141.065C46.5206 140.907 45.8745 140.936 45.3105 141.119L45.3686 141.242L45.4266 141.366C45.9557 141.193 46.562 141.167 47.2066 141.315L47.2066 141.19ZM45.0673 141.132L45.1535 141.063L44.5229 140.271L44.4368 140.339L44.3507 140.408L44.9812 141.2L45.0673 141.132ZM44.4742 139.973L44.5382 140.094C45.3139 139.781 46.2276 139.707 47.2066 139.933L47.2066 139.808L47.2066 139.683C46.1809 139.447 45.2232 139.524 44.4102 139.852L44.4742 139.973ZM47.2066 137.459V137.584C48.8206 137.956 50.3127 138.834 51.5272 140.017L51.5986 139.932L51.6701 139.847C50.4155 138.625 48.8737 137.719 47.2066 137.334V137.459ZM51.624 140.307L51.5378 140.199L50.9207 140.69L51.0069 140.798L51.093 140.907L51.7101 140.416L51.624 140.307ZM50.6878 140.752L50.7568 140.665C49.7471 139.719 48.5241 139.02 47.2066 138.716V138.841V138.966C48.4732 139.258 49.6484 139.93 50.6188 140.839L50.6878 140.752ZM47.2066 138.841L47.2066 138.716C45.8888 138.412 44.6659 138.547 43.6563 139.026L43.7254 139.145L43.7944 139.264C44.7647 138.803 45.9397 138.673 47.2066 138.966L47.2066 138.841ZM43.4063 139.044L43.4924 138.976L42.8753 138.2L42.7892 138.269L42.703 138.337L43.3201 139.113L43.4063 139.044ZM42.8144 137.905L42.8859 138.023C44.1003 137.4 45.5923 137.211 47.2066 137.584L47.2066 137.459L47.2066 137.334C45.5392 136.949 43.9975 137.144 42.743 137.787L42.8144 137.905ZM43.7254 139.145L43.6563 139.026C43.6033 139.052 43.5344 139.029 43.4924 138.976L43.4063 139.044L43.3201 139.113C43.4487 139.275 43.6488 139.334 43.7944 139.264L43.7254 139.145ZM51.5986 139.932L51.5272 140.017C51.5825 140.07 51.5905 140.157 51.5378 140.199L51.624 140.307L51.7101 140.416C51.8643 140.293 51.8518 140.024 51.6701 139.847L51.5986 139.932ZM45.3686 141.242L45.3105 141.119C45.256 141.137 45.1923 141.112 45.1535 141.063L45.0673 141.132L44.9812 141.2C45.1012 141.351 45.2836 141.412 45.4266 141.366L45.3686 141.242ZM49.3458 142.121L49.2597 142.012C49.2209 142.043 49.1572 142.038 49.1027 141.996L49.0446 142.092L48.9866 142.188C49.1295 142.301 49.3119 142.324 49.4319 142.229L49.3458 142.121ZM49.9399 141.235L49.8759 141.326C49.9339 141.376 49.9463 141.466 49.8912 141.51L49.9773 141.618L50.0634 141.726C50.2227 141.6 50.2039 141.316 50.0039 141.143L49.9399 141.235ZM50.6048 144.051L50.7118 144.016C50.6823 143.954 50.692 143.891 50.7308 143.86L50.6447 143.751L50.5586 143.643C50.4385 143.739 50.4202 143.922 50.4977 144.086L50.6048 144.051ZM50.6439 148.143L50.7299 148.075C50.6911 148.026 50.6813 147.958 50.7109 147.909L50.6038 147.825L50.4968 147.74C50.4192 147.869 50.4376 148.061 50.5578 148.212L50.6439 148.143ZM51.6406 143.372L51.7442 143.331C51.6205 143.097 51.3484 143.015 51.1891 143.142L51.2753 143.25L51.3614 143.358C51.4165 143.314 51.5011 143.347 51.537 143.414L51.6406 143.372ZM43.138 147.058L43.0518 146.95C42.9966 146.994 42.912 146.962 42.8762 146.894L42.7725 146.936L42.6689 146.977C42.7925 147.211 43.0649 147.293 43.2241 147.166L43.138 147.058ZM43.8084 142.482L43.9155 142.567C43.993 142.438 43.9746 142.246 43.8546 142.095L43.7685 142.164L43.6823 142.232C43.7212 142.281 43.7309 142.349 43.7014 142.398L43.8084 142.482ZM52.3049 150.231L52.391 150.163C52.349 150.11 52.3422 150.038 52.3787 149.992L52.2783 149.898L52.178 149.804C52.0777 149.93 52.0902 150.138 52.2189 150.3L52.3049 150.231ZM53.282 151.064L53.1834 150.967C53.1433 151.015 53.0606 151.004 53.008 150.938L52.9219 151.006L52.8358 151.075C52.9901 151.269 53.2491 151.316 53.3806 151.16L53.282 151.064ZM53.282 142.05L53.3806 141.999C53.2491 141.783 52.9901 141.71 52.8358 141.833L52.9219 141.941L53.008 142.049C53.0606 142.007 53.1433 142.035 53.1834 142.101L53.282 142.05ZM41.1311 139.244L41.2297 139.34C41.2698 139.292 41.3525 139.303 41.4051 139.37L41.4913 139.301L41.5774 139.233C41.4232 139.039 41.164 138.992 41.0324 139.148L41.1311 139.244ZM41.4913 148.368L41.4052 148.26C41.3525 148.302 41.2698 148.275 41.2297 148.209L41.1311 148.259L41.0324 148.31C41.164 148.527 41.4232 148.599 41.5774 148.477L41.4913 148.368ZM42.1349 140.411L42.2353 140.505C42.3354 140.378 42.323 140.17 42.1945 140.008L42.1084 140.077L42.0223 140.145C42.0642 140.198 42.0711 140.27 42.0346 140.316L42.1349 140.411ZM51.6405 148.982L51.5369 148.893C51.501 148.944 51.4165 148.937 51.3613 148.868L51.2752 148.936L51.1891 149.005C51.3484 149.205 51.6205 149.248 51.7441 149.072L51.6405 148.982ZM45.0673 148.189L45.1534 148.297C45.1922 148.266 45.2559 148.271 45.3104 148.314L45.3685 148.217L45.4266 148.121C45.2836 148.008 45.1013 147.985 44.9812 148.08L45.0673 148.189ZM42.7892 138.269L42.8753 138.2C42.8226 138.134 42.8306 138.051 42.8859 138.023L42.8144 137.905L42.743 137.787C42.5613 137.88 42.5488 138.143 42.703 138.337L42.7892 138.269ZM44.4732 149.074L44.5373 148.982C44.4793 148.932 44.4669 148.842 44.5221 148.799L44.436 148.69L44.3499 148.582C44.1905 148.709 44.2092 148.992 44.4092 149.165L44.4732 149.074ZM42.7726 141.325L42.8762 141.415C42.9121 141.364 42.9966 141.37 43.0518 141.44L43.1379 141.371L43.224 141.303C43.0648 141.102 42.7926 141.059 42.669 141.236L42.7726 141.325ZM49.94 150.336L50.004 150.457C50.204 150.376 50.2227 150.101 50.0635 149.901L49.9773 149.97L49.8912 150.038C49.9464 150.107 49.9339 150.191 49.8759 150.215L49.94 150.336ZM42.1349 147.556L42.0346 147.604C42.0711 147.667 42.0642 147.736 42.0223 147.769L42.1084 147.877L42.1945 147.986C42.323 147.883 42.3355 147.681 42.2353 147.508L42.1349 147.556ZM43.8086 146.256L43.7015 146.291C43.731 146.354 43.7213 146.417 43.6825 146.448L43.7687 146.556L43.8548 146.664C43.9747 146.569 43.9931 146.386 43.9157 146.221L43.8086 146.256ZM51.624 152.04L51.5379 152.108C51.5905 152.174 51.5826 152.257 51.5273 152.286L51.5987 152.403L51.6702 152.521C51.8518 152.428 51.8643 152.165 51.7101 151.971L51.624 152.04ZM44.4368 140.339L44.5229 140.271C44.4678 140.201 44.4802 140.117 44.5382 140.094L44.4742 139.973L44.4102 139.852C44.2102 139.932 44.1914 140.207 44.3507 140.408L44.4368 140.339ZM50.6878 151.163L50.7568 151.282C50.8099 151.257 50.8788 151.28 50.9208 151.332L51.0069 151.264L51.093 151.195C50.9645 151.034 50.7644 150.975 50.6188 151.044L50.6878 151.163ZM51.0069 140.798L50.9207 140.69C50.8788 140.723 50.8098 140.714 50.7568 140.665L50.6878 140.752L50.6188 140.839C50.7644 140.975 50.9645 141.009 51.093 140.907L51.0069 140.798ZM42.8144 150.375L42.8859 150.291C42.8306 150.237 42.8226 150.15 42.8753 150.108L42.7891 150L42.703 149.892C42.5488 150.014 42.5613 150.283 42.7429 150.46L42.8144 150.375ZM49.0446 149.065L49.1027 149.188C49.1572 149.171 49.2209 149.195 49.2597 149.244L49.3458 149.176L49.432 149.107C49.3119 148.956 49.1295 148.895 48.9865 148.942L49.0446 149.065ZM52.2783 142.752L52.3787 142.705C52.3422 142.642 52.349 142.573 52.391 142.539L52.305 142.431L52.2189 142.323C52.0902 142.425 52.0778 142.627 52.178 142.8L52.2783 142.752ZM43.7254 149.556L43.7944 149.469C43.6488 149.332 43.4487 149.299 43.3201 149.401L43.4062 149.509L43.4924 149.617C43.5343 149.584 43.6033 149.593 43.6563 149.643L43.7254 149.556Z" fill="black"/>
<path d="M63.0874 154.693C63.1727 154.625 63.3072 154.646 63.4065 154.739C64.3965 155.667 65.5953 156.354 66.8877 156.652C68.1802 156.951 69.3788 156.817 70.3689 156.347C70.4683 156.3 70.6028 156.341 70.688 156.448L71.3052 157.223C71.4086 157.354 71.3983 157.527 71.2799 157.587C70.0453 158.22 68.5287 158.413 66.8877 158.034C65.2467 157.655 63.7301 156.762 62.4955 155.559C62.3771 155.444 62.3668 155.266 62.4703 155.184L63.0874 154.693ZM69.6585 155.153C69.7657 155.288 69.7501 155.468 69.6211 155.52C68.8265 155.84 67.8905 155.916 66.8877 155.685C65.8849 155.453 64.9489 154.945 64.1543 154.258C64.0253 154.146 64.0097 153.959 64.1169 153.874L64.7475 153.372C64.8269 153.309 64.95 153.323 65.0488 153.401C65.5955 153.832 66.222 154.149 66.8877 154.303C67.5533 154.457 68.1791 154.427 68.7258 154.249C68.8245 154.217 68.9476 154.26 69.027 154.359L69.6585 155.153ZM61.7895 145.261C61.8748 145.368 61.8844 145.508 61.8161 145.594C61.1351 146.453 60.7361 147.592 60.7361 148.918C60.7361 150.244 61.1346 151.566 61.8152 152.74C61.8835 152.857 61.8739 152.993 61.7886 153.061L61.1715 153.552C61.068 153.634 60.8971 153.584 60.8113 153.443C59.9174 151.969 59.3896 150.291 59.3896 148.607C59.3897 146.923 59.918 145.488 60.8122 144.428C60.8981 144.326 61.069 144.355 61.1724 144.485L61.7895 145.261ZM72.6031 147.124C72.7065 147.042 72.8774 147.092 72.9632 147.233C73.8578 148.706 74.3867 150.385 74.3868 152.069C74.3868 153.753 73.8577 155.188 72.9632 156.248C72.8774 156.35 72.7065 156.321 72.603 156.191L71.9859 155.415C71.9007 155.308 71.8911 155.168 71.9594 155.082C72.6406 154.223 73.0403 153.085 73.0403 151.758C73.0403 150.432 72.6407 149.109 71.9594 147.936C71.8911 147.818 71.9007 147.683 71.986 147.615L72.6031 147.124ZM70.9564 148.434C71.0636 148.348 71.242 148.406 71.3217 148.556C71.8132 149.486 72.0974 150.512 72.0974 151.542C72.0973 152.571 71.8128 153.465 71.3217 154.167C71.242 154.281 71.0636 154.256 70.9564 154.121L70.3258 153.328C70.2464 153.228 70.2323 153.099 70.2859 153.01C70.5824 152.517 70.7509 151.914 70.751 151.231C70.751 150.548 70.5819 149.866 70.285 149.236C70.2314 149.122 70.2455 148.999 70.3249 148.936L70.9564 148.434ZM63.4506 147.349C63.53 147.449 63.5441 147.578 63.4905 147.667C63.194 148.16 63.0255 148.764 63.0255 149.447C63.0255 150.13 63.1937 150.811 63.4897 151.44C63.5432 151.554 63.5291 151.677 63.4497 151.74L62.8191 152.241C62.7119 152.327 62.5335 152.269 62.4538 152.119C61.9632 151.19 61.6791 150.165 61.679 149.136C61.679 148.107 61.9626 147.211 62.4538 146.509C62.5335 146.395 62.7119 146.42 62.8191 146.555L63.4506 147.349ZM66.8877 147.48C68.4259 147.835 69.6727 149.402 69.6729 150.981C69.6729 152.56 68.426 153.552 66.8877 153.196C65.3496 152.841 64.1026 151.274 64.1026 149.695C64.1027 148.117 65.3497 147.125 66.8877 147.48ZM66.8877 148.861C66.0935 148.678 65.4492 149.191 65.449 150.006C65.449 150.821 66.0934 151.631 66.8877 151.815C67.6823 151.998 68.3264 151.486 68.3264 150.67C68.3263 149.855 67.6822 149.045 66.8877 148.861ZM66.8877 144.992C67.8901 145.224 68.8257 145.731 69.6202 146.418C69.7492 146.53 69.7648 146.717 69.6577 146.802L69.027 147.304C68.9476 147.367 68.8245 147.354 68.7257 147.276C68.1791 146.845 67.5531 146.528 66.8877 146.374C66.2222 146.221 65.5955 146.248 65.0488 146.426C64.95 146.458 64.8269 146.415 64.7475 146.315L64.117 145.523C64.0097 145.388 64.0253 145.208 64.1543 145.156C64.9489 144.836 65.8851 144.761 66.8877 144.992ZM66.8877 142.643C68.5283 143.021 70.0453 143.913 71.2798 145.116C71.3983 145.231 71.4086 145.409 71.3051 145.491L70.688 145.982C70.6028 146.05 70.4683 146.029 70.3689 145.936C69.3789 145.009 68.1798 144.323 66.8877 144.025C65.5954 143.726 64.3965 143.859 63.4065 144.329C63.3072 144.376 63.1727 144.336 63.0874 144.228L62.4703 143.453C62.3669 143.322 62.3771 143.149 62.4956 143.089C63.7301 142.456 65.2469 142.264 66.8877 142.643Z" fill="black"/>
<path d="M66.8877 156.652L66.8877 156.777L66.8877 156.777V156.652ZM66.8877 158.034L66.8877 158.159L66.8877 158.159V158.034ZM66.8877 155.685L66.8877 155.81L66.8877 155.81V155.685ZM66.8877 154.303L66.8877 154.428L66.8877 154.428V154.303ZM60.7361 148.918L60.6143 148.89V148.89L60.7361 148.918ZM59.3896 148.607L59.2679 148.579V148.579L59.3896 148.607ZM74.3868 152.069L74.5086 152.097V152.097L74.3868 152.069ZM73.0403 151.758L73.1621 151.787V151.787L73.0403 151.758ZM72.0974 151.542L72.2192 151.57V151.57L72.0974 151.542ZM70.751 151.231L70.8728 151.259V151.259L70.751 151.231ZM63.0255 149.447L62.9037 149.419V149.419L63.0255 149.447ZM61.679 149.136L61.5572 149.108V149.108L61.679 149.136ZM66.8877 147.48V147.355L66.8877 147.355L66.8877 147.48ZM69.6729 150.981L69.7947 151.009V151.009L69.6729 150.981ZM66.8877 153.196L66.8877 153.321L66.8877 153.321V153.196ZM64.1026 149.695L63.9808 149.667V149.667L64.1026 149.695ZM66.8877 148.861V148.736L66.8877 148.736L66.8877 148.861ZM65.449 150.006L65.3272 149.978V149.978L65.449 150.006ZM66.8877 151.815L66.8877 151.94L66.8877 151.94V151.815ZM68.3264 150.67L68.4482 150.698V150.698L68.3264 150.67ZM66.8877 144.992V144.867L66.8877 144.867L66.8877 144.992ZM66.8877 146.374V146.249L66.8877 146.249L66.8877 146.374ZM66.8877 142.643V142.518L66.8877 142.518L66.8877 142.643ZM66.8877 144.025V143.9L66.8877 143.9L66.8877 144.025ZM63.4065 144.329L63.3375 144.21L63.4065 144.329ZM71.2798 145.116L71.2084 145.2L71.2798 145.116ZM71.3051 145.491L71.219 145.383L71.3051 145.491ZM69.027 147.304L69.1131 147.412L69.027 147.304ZM68.7257 147.276L68.6676 147.372L68.7257 147.276ZM69.6202 146.418L69.6842 146.327L69.6202 146.418ZM69.6577 146.802L69.5715 146.694L69.6577 146.802ZM62.8191 146.555L62.9052 146.487L62.8191 146.555ZM62.8191 152.241L62.733 152.133L62.8191 152.241ZM62.4538 152.119L62.5574 152.077L62.4538 152.119ZM63.4905 147.667L63.3835 147.583L63.4905 147.667ZM70.2859 153.01L70.1788 152.926L70.2859 153.01ZM71.3217 148.556L71.4253 148.514L71.3217 148.556ZM70.9564 148.434L71.0425 148.542L70.9564 148.434ZM71.9594 155.082L72.0597 155.176L71.9594 155.082ZM72.9632 156.248L73.0619 156.344L72.9632 156.248ZM72.9632 147.233L73.0619 147.182L72.9632 147.233ZM72.6031 147.124L72.5169 147.016L72.6031 147.124ZM61.1724 144.485L61.0863 144.553L61.1724 144.485ZM61.1715 153.552L61.0854 153.444L61.1715 153.552ZM60.8113 153.443L60.9099 153.392L60.8113 153.443ZM61.8161 145.594L61.7157 145.5L61.8161 145.594ZM63.4897 151.44L63.3826 151.475L63.4897 151.44ZM64.7475 153.372L64.8336 153.481L64.7475 153.372ZM62.4956 143.089L62.4241 142.971L62.4956 143.089ZM64.1543 154.258L64.2183 154.166L64.1543 154.258ZM64.1169 153.874L64.0308 153.766L64.1169 153.874ZM70.285 149.236L70.392 149.201L70.285 149.236ZM70.3249 148.936L70.2388 148.828L70.3249 148.936ZM69.6211 155.52L69.5571 155.399L69.6211 155.52ZM61.8152 152.74L61.7148 152.787L61.8152 152.74ZM71.3217 154.167L71.2181 154.077L71.3217 154.167ZM71.2799 157.587L71.3513 157.705L71.2799 157.587ZM64.1543 145.156L64.0903 145.035L64.1543 145.156ZM70.3689 156.347L70.2999 156.228L70.3689 156.347ZM70.688 145.982L70.7741 146.09L70.688 145.982ZM70.3689 145.936L70.4379 145.849L70.3689 145.936ZM62.4703 155.184L62.3842 155.076L62.4703 155.184ZM68.7258 154.249L68.6677 154.126L68.7258 154.249ZM71.9594 147.936L71.8591 147.984L71.9594 147.936ZM71.986 147.615L72.0721 147.723L71.986 147.615ZM63.4065 154.739L63.3375 154.826L63.4065 154.739ZM63.0874 154.693L63.1735 154.801L63.0874 154.693ZM63.4065 154.739L63.3375 154.826C64.3471 155.773 65.5698 156.473 66.8877 156.777L66.8877 156.652L66.8877 156.527C65.6208 156.235 64.446 155.562 63.4756 154.652L63.4065 154.739ZM66.8877 156.652V156.777C68.2057 157.082 69.4283 156.946 70.438 156.466L70.3689 156.347L70.2999 156.228C69.3294 156.689 68.1547 156.82 66.8877 156.527V156.652ZM70.688 156.448L70.6019 156.516L71.219 157.292L71.3052 157.223L71.3913 157.155L70.7742 156.379L70.688 156.448ZM71.2799 157.587L71.2084 157.47C69.9938 158.092 68.5021 158.282 66.8877 157.909V158.034V158.159C68.5553 158.544 70.0967 158.348 71.3513 157.705L71.2799 157.587ZM66.8877 158.034L66.8877 157.909C65.2733 157.536 63.7815 156.658 62.567 155.475L62.4955 155.559L62.4241 155.644C63.6786 156.867 65.2201 157.774 66.8877 158.159L66.8877 158.034ZM62.4703 155.184L62.5564 155.292L63.1735 154.801L63.0874 154.693L63.0013 154.585L62.3842 155.076L62.4703 155.184ZM69.6211 155.52L69.5571 155.399C68.781 155.712 67.8672 155.786 66.8877 155.56V155.685V155.81C67.9139 156.047 68.8719 155.969 69.6852 155.641L69.6211 155.52ZM66.8877 155.685L66.8877 155.56C65.9082 155.333 64.9943 154.838 64.2183 154.166L64.1543 154.258L64.0902 154.349C64.9034 155.053 65.8615 155.573 66.8877 155.81L66.8877 155.685ZM64.1169 153.874L64.2031 153.982L64.8336 153.481L64.7475 153.372L64.6614 153.264L64.0308 153.766L64.1169 153.874ZM65.0488 153.401L64.9907 153.497C65.5549 153.942 66.2012 154.269 66.8877 154.428L66.8877 154.303L66.8877 154.178C66.2428 154.029 65.6362 153.721 65.1069 153.305L65.0488 153.401ZM66.8877 154.303V154.428C67.5743 154.586 68.2199 154.556 68.7839 154.372L68.7258 154.249L68.6677 154.126C68.1383 154.298 67.5324 154.327 66.8877 154.178V154.303ZM69.027 154.359L68.9409 154.428L69.5724 155.222L69.6585 155.153L69.7446 155.085L69.1131 154.291L69.027 154.359ZM61.8161 145.594L61.7157 145.5C61.0213 146.376 60.6144 147.537 60.6143 148.89L60.7361 148.918L60.8579 148.946C60.8579 147.646 61.249 146.53 61.9164 145.688L61.8161 145.594ZM60.7361 148.918L60.6143 148.89C60.6143 150.242 61.0207 151.591 61.7148 152.787L61.8152 152.74L61.9155 152.692C61.2484 151.542 60.8579 150.246 60.8579 148.946L60.7361 148.918ZM61.7886 153.061L61.7025 152.953L61.0854 153.444L61.1715 153.552L61.2576 153.66L61.8747 153.169L61.7886 153.061ZM60.8113 153.443L60.9099 153.392C60.0306 151.943 59.5114 150.292 59.5114 148.635L59.3896 148.607L59.2679 148.579C59.2679 150.29 59.8043 151.996 60.7126 153.493L60.8113 153.443ZM59.3896 148.607L59.5114 148.635C59.5115 146.978 60.0311 145.567 60.9109 144.524L60.8122 144.428L60.7136 144.332C59.8049 145.409 59.2679 146.868 59.2679 148.579L59.3896 148.607ZM61.1724 144.485L61.0863 144.553L61.7034 145.329L61.7895 145.261L61.8756 145.192L61.2585 144.416L61.1724 144.485ZM72.9632 147.233L72.8646 147.284C73.7447 148.733 74.2649 150.384 74.265 152.041L74.3868 152.069L74.5086 152.097C74.5085 150.386 73.9709 148.68 73.0619 147.182L72.9632 147.233ZM74.3868 152.069L74.265 152.041C74.265 153.698 73.7446 155.109 72.8646 156.152L72.9632 156.248L73.0619 156.344C73.9708 155.267 74.5086 153.809 74.5086 152.097L74.3868 152.069ZM72.603 156.191L72.6892 156.123L72.0721 155.347L71.9859 155.415L71.8998 155.484L72.5169 156.26L72.603 156.191ZM71.9594 155.082L72.0597 155.176C72.7544 154.3 73.1621 153.139 73.1621 151.787L73.0403 151.758L72.9185 151.73C72.9185 153.031 72.5268 154.146 71.8591 154.988L71.9594 155.082ZM73.0403 151.758L73.1621 151.787C73.1621 150.434 72.7545 149.085 72.0598 147.888L71.9594 147.936L71.8591 147.984C72.5268 149.134 72.9185 150.43 72.9185 151.73L73.0403 151.758ZM71.986 147.615L72.0721 147.723L72.6892 147.232L72.6031 147.124L72.5169 147.016L71.8998 147.506L71.986 147.615ZM71.3217 148.556L71.2181 148.598C71.6981 149.506 71.9756 150.508 71.9756 151.514L72.0974 151.542L72.2192 151.57C72.2192 150.516 71.9283 149.466 71.4253 148.514L71.3217 148.556ZM72.0974 151.542L71.9756 151.514C71.9755 152.518 71.6977 153.392 71.2181 154.077L71.3217 154.167L71.4253 154.257C71.9279 153.538 72.2191 152.623 72.2192 151.57L72.0974 151.542ZM70.9564 154.121L71.0425 154.052L70.412 153.26L70.3258 153.328L70.2397 153.397L70.8703 154.189L70.9564 154.121ZM70.2859 153.01L70.393 153.094C70.6988 152.586 70.8727 151.963 70.8728 151.259L70.751 151.231L70.6292 151.203C70.6291 151.864 70.4659 152.449 70.1788 152.926L70.2859 153.01ZM70.751 151.231L70.8728 151.259C70.8728 150.554 70.6983 149.851 70.392 149.201L70.285 149.236L70.178 149.271C70.4654 149.881 70.6292 150.541 70.6292 151.203L70.751 151.231ZM70.3249 148.936L70.411 149.044L71.0425 148.542L70.9564 148.434L70.8703 148.325L70.2388 148.828L70.3249 148.936ZM63.4905 147.667L63.3835 147.583C63.0775 148.091 62.9037 148.715 62.9037 149.419L63.0255 149.447L63.1473 149.475C63.1473 148.814 63.3104 148.229 63.5976 147.752L63.4905 147.667ZM63.0255 149.447L62.9037 149.419C62.9037 150.123 63.0772 150.826 63.3826 151.475L63.4897 151.44L63.5968 151.405C63.3102 150.796 63.1473 150.137 63.1473 149.475L63.0255 149.447ZM63.4497 151.74L63.3636 151.631L62.733 152.133L62.8191 152.241L62.9053 152.35L63.5358 151.848L63.4497 151.74ZM62.4538 152.119L62.5574 152.077C62.0783 151.17 61.8009 150.169 61.8008 149.165L61.679 149.136L61.5572 149.108C61.5573 150.161 61.8481 151.21 62.3502 152.16L62.4538 152.119ZM61.679 149.136L61.8008 149.165C61.8008 148.159 62.0778 147.285 62.5574 146.599L62.4538 146.509L62.3502 146.419C61.8475 147.138 61.5572 148.055 61.5572 149.108L61.679 149.136ZM62.8191 146.555L62.733 146.624L63.3645 147.417L63.4506 147.349L63.5367 147.28L62.9052 146.487L62.8191 146.555ZM66.8877 147.48V147.605C68.3586 147.944 69.5509 149.443 69.5511 150.953L69.6729 150.981L69.7947 151.009C69.7945 149.361 68.4932 147.725 66.8877 147.355V147.48ZM69.6729 150.981L69.5511 150.953C69.5511 152.463 68.3587 153.411 66.8877 153.071V153.196V153.321C68.4932 153.692 69.7947 152.657 69.7947 151.009L69.6729 150.981ZM66.8877 153.196L66.8877 153.071C65.4169 152.732 64.2244 151.233 64.2244 149.723L64.1026 149.695L63.9808 149.667C63.9808 151.315 65.2824 152.951 66.8877 153.321L66.8877 153.196ZM64.1026 149.695L64.2244 149.723C64.2245 148.214 65.417 147.265 66.8877 147.605L66.8877 147.48L66.8877 147.355C65.2825 146.984 63.981 148.019 63.9808 149.667L64.1026 149.695ZM66.8877 148.861L66.8877 148.736C66.0262 148.538 65.3274 149.094 65.3272 149.978L65.449 150.006L65.5708 150.034C65.5709 149.288 66.1607 148.819 66.8878 148.986L66.8877 148.861ZM65.449 150.006L65.3272 149.978C65.3272 150.862 66.0261 151.74 66.8877 151.94L66.8877 151.815L66.8878 151.69C66.1606 151.522 65.5708 150.78 65.5708 150.034L65.449 150.006ZM66.8877 151.815V151.94C67.7495 152.139 68.4482 151.583 68.4482 150.698L68.3264 150.67L68.2047 150.642C68.2047 151.388 67.615 151.857 66.8877 151.69V151.815ZM68.3264 150.67L68.4482 150.698C68.4481 149.814 67.7495 148.935 66.8877 148.736V148.861V148.986C67.6149 149.154 68.2045 149.896 68.2047 150.642L68.3264 150.67ZM66.8877 144.992V145.117C67.8667 145.343 68.7803 145.839 69.5562 146.51L69.6202 146.418L69.6842 146.327C68.8711 145.624 67.9134 145.104 66.8877 144.867V144.992ZM69.6577 146.802L69.5715 146.694L68.9408 147.196L69.027 147.304L69.1131 147.412L69.7439 146.91L69.6577 146.802ZM68.7257 147.276L68.7837 147.179C68.2198 146.735 67.5739 146.408 66.8877 146.249V146.374V146.499C67.5323 146.648 68.1383 146.955 68.6676 147.372L68.7257 147.276ZM66.8877 146.374L66.8877 146.249C66.2015 146.091 65.5549 146.119 64.9907 146.303L65.0488 146.426L65.1068 146.549C65.6361 146.377 66.2429 146.35 66.8877 146.499L66.8877 146.374ZM64.7475 146.315L64.8336 146.247L64.2031 145.454L64.117 145.523L64.0308 145.591L64.6614 146.384L64.7475 146.315ZM64.1543 145.156L64.2183 145.277C64.9942 144.964 65.9084 144.891 66.8877 145.117L66.8877 144.992L66.8877 144.867C65.8618 144.631 64.9035 144.707 64.0903 145.035L64.1543 145.156ZM66.8877 142.643V142.768C68.5018 143.14 69.9939 144.018 71.2084 145.2L71.2798 145.116L71.3512 145.031C70.0966 143.809 68.5549 142.903 66.8877 142.518V142.643ZM71.3051 145.491L71.219 145.383L70.6019 145.874L70.688 145.982L70.7741 146.09L71.3912 145.6L71.3051 145.491ZM70.3689 145.936L70.4379 145.849C69.4283 144.903 68.2052 144.204 66.8877 143.9V144.025V144.15C68.1544 144.442 69.3296 145.114 70.2999 146.023L70.3689 145.936ZM66.8877 144.025L66.8877 143.9C65.57 143.595 64.3471 143.731 63.3375 144.21L63.4065 144.329L63.4755 144.448C64.4459 143.987 65.6209 143.857 66.8877 144.15L66.8877 144.025ZM63.0874 144.228L63.1735 144.16L62.5564 143.384L62.4703 143.453L62.3842 143.521L63.0013 144.297L63.0874 144.228ZM62.4956 143.089L62.567 143.206C63.7815 142.584 65.2735 142.395 66.8877 142.768L66.8877 142.643L66.8877 142.518C65.2203 142.133 63.6786 142.328 62.4241 142.971L62.4956 143.089ZM63.4065 144.329L63.3375 144.21C63.2845 144.236 63.2155 144.213 63.1735 144.16L63.0874 144.228L63.0013 144.297C63.1298 144.458 63.3299 144.517 63.4755 144.448L63.4065 144.329ZM71.2798 145.116L71.2084 145.2C71.2637 145.254 71.2717 145.341 71.219 145.383L71.3051 145.491L71.3912 145.6C71.5455 145.477 71.5329 145.208 71.3512 145.031L71.2798 145.116ZM65.0488 146.426L64.9907 146.303C64.9362 146.32 64.8724 146.296 64.8336 146.247L64.7475 146.315L64.6614 146.384C64.7814 146.535 64.9639 146.596 65.1068 146.549L65.0488 146.426ZM69.027 147.304L68.9408 147.196C68.902 147.227 68.8383 147.222 68.7837 147.179L68.7257 147.276L68.6676 147.372C68.8107 147.485 68.9931 147.508 69.1131 147.412L69.027 147.304ZM69.6202 146.418L69.5562 146.51C69.6142 146.56 69.6266 146.65 69.5715 146.694L69.6577 146.802L69.7439 146.91C69.903 146.783 69.8842 146.5 69.6842 146.327L69.6202 146.418ZM62.4538 146.509L62.5574 146.599C62.5932 146.547 62.6778 146.554 62.733 146.624L62.8191 146.555L62.9052 146.487C62.7459 146.286 62.4737 146.243 62.3502 146.419L62.4538 146.509ZM62.8191 152.241L62.733 152.133C62.6779 152.177 62.5932 152.145 62.5574 152.077L62.4538 152.119L62.3502 152.16C62.4737 152.394 62.746 152.476 62.9053 152.35L62.8191 152.241ZM63.4905 147.667L63.5976 147.752C63.6751 147.623 63.6567 147.431 63.5367 147.28L63.4506 147.349L63.3645 147.417C63.4033 147.466 63.413 147.534 63.3835 147.583L63.4905 147.667ZM70.3258 153.328L70.412 153.26C70.3732 153.211 70.3634 153.143 70.393 153.094L70.2859 153.01L70.1788 152.926C70.1013 153.054 70.1197 153.246 70.2397 153.397L70.3258 153.328ZM71.3217 148.556L71.4253 148.514C71.3017 148.281 71.0296 148.199 70.8703 148.325L70.9564 148.434L71.0425 148.542C71.0977 148.498 71.1823 148.53 71.2181 148.598L71.3217 148.556ZM71.9859 155.415L72.0721 155.347C72.0301 155.294 72.0233 155.222 72.0597 155.176L71.9594 155.082L71.8591 154.988C71.7589 155.114 71.7713 155.322 71.8998 155.484L71.9859 155.415ZM72.9632 156.248L72.8646 156.152C72.8245 156.2 72.7418 156.189 72.6892 156.123L72.603 156.191L72.5169 156.26C72.6711 156.453 72.9303 156.5 73.0619 156.344L72.9632 156.248ZM72.9632 147.233L73.0619 147.182C72.9303 146.966 72.6712 146.893 72.5169 147.016L72.6031 147.124L72.6892 147.232C72.7419 147.19 72.8246 147.218 72.8646 147.284L72.9632 147.233ZM60.8122 144.428L60.9109 144.524C60.9509 144.476 61.0336 144.487 61.0863 144.553L61.1724 144.485L61.2585 144.416C61.1043 144.223 60.8452 144.176 60.7136 144.332L60.8122 144.428ZM61.1715 153.552L61.0854 153.444C61.0327 153.486 60.95 153.458 60.9099 153.392L60.8113 153.443L60.7126 153.493C60.8442 153.71 61.1034 153.783 61.2576 153.66L61.1715 153.552ZM61.8161 145.594L61.9164 145.688C62.0166 145.562 62.0042 145.354 61.8756 145.192L61.7895 145.261L61.7034 145.329C61.7454 145.382 61.7522 145.454 61.7157 145.5L61.8161 145.594ZM63.4897 151.44L63.3826 151.475C63.4121 151.537 63.4024 151.601 63.3636 151.631L63.4497 151.74L63.5358 151.848C63.6558 151.753 63.6742 151.57 63.5968 151.405L63.4897 151.44ZM64.7475 153.372L64.8336 153.481C64.8724 153.45 64.9362 153.455 64.9907 153.497L65.0488 153.401L65.1069 153.305C64.9639 153.192 64.7814 153.169 64.6614 153.264L64.7475 153.372ZM62.4703 143.453L62.5564 143.384C62.5038 143.318 62.5118 143.235 62.567 143.206L62.4956 143.089L62.4241 142.971C62.2425 143.064 62.23 143.327 62.3842 143.521L62.4703 143.453ZM64.1543 154.258L64.2183 154.166C64.1604 154.116 64.1479 154.026 64.2031 153.982L64.1169 153.874L64.0308 153.766C63.8716 153.892 63.8903 154.176 64.0902 154.349L64.1543 154.258ZM70.285 149.236L70.392 149.201C70.3625 149.138 70.3722 149.075 70.411 149.044L70.3249 148.936L70.2388 148.828C70.1187 148.923 70.1003 149.106 70.178 149.271L70.285 149.236ZM69.6211 155.52L69.6852 155.641C69.8851 155.56 69.9039 155.285 69.7446 155.085L69.6585 155.153L69.5724 155.222C69.6275 155.291 69.6151 155.375 69.5571 155.399L69.6211 155.52ZM61.8152 152.74L61.7148 152.787C61.7513 152.85 61.7444 152.919 61.7025 152.953L61.7886 153.061L61.8747 153.169C62.0033 153.067 62.0157 152.865 61.9155 152.692L61.8152 152.74ZM71.3217 154.167L71.2181 154.077C71.1823 154.129 71.0977 154.122 71.0425 154.052L70.9564 154.121L70.8703 154.189C71.0295 154.39 71.3017 154.433 71.4253 154.257L71.3217 154.167ZM71.3052 157.223L71.219 157.292C71.2717 157.358 71.2637 157.441 71.2084 157.47L71.2799 157.587L71.3513 157.705C71.533 157.612 71.5455 157.349 71.3913 157.155L71.3052 157.223ZM64.117 145.523L64.2031 145.454C64.1479 145.385 64.1604 145.301 64.2183 145.277L64.1543 145.156L64.0903 145.035C63.8903 145.116 63.8716 145.391 64.0308 145.591L64.117 145.523ZM70.3689 156.347L70.438 156.466C70.491 156.441 70.56 156.463 70.6019 156.516L70.688 156.448L70.7742 156.379C70.6456 156.218 70.4455 156.159 70.2999 156.228L70.3689 156.347ZM70.688 145.982L70.6019 145.874C70.5599 145.907 70.491 145.898 70.4379 145.849L70.3689 145.936L70.2999 146.023C70.4456 146.159 70.6456 146.193 70.7741 146.09L70.688 145.982ZM62.4955 155.559L62.567 155.475C62.5117 155.421 62.5037 155.334 62.5564 155.292L62.4703 155.184L62.3842 155.076C62.23 155.198 62.2425 155.467 62.4241 155.644L62.4955 155.559ZM68.7258 154.249L68.7839 154.372C68.8383 154.354 68.902 154.379 68.9409 154.428L69.027 154.359L69.1131 154.291C68.9931 154.14 68.8107 154.079 68.6677 154.126L68.7258 154.249ZM71.9594 147.936L72.0598 147.888C72.0233 147.826 72.0301 147.756 72.0721 147.723L71.986 147.615L71.8998 147.506C71.7713 147.609 71.7589 147.811 71.8591 147.984L71.9594 147.936ZM63.4065 154.739L63.4756 154.652C63.3299 154.516 63.1298 154.482 63.0013 154.585L63.0874 154.693L63.1735 154.801C63.2155 154.768 63.2844 154.777 63.3375 154.826L63.4065 154.739Z" fill="black"/>
<rect width="7.27622" height="10.7602" transform="matrix(0.97437 0.224951 0 1 79.6035 148.272)" fill="#616569" stroke="black" stroke-linejoin="round"/>
<rect width="4.35652" height="7.54829" transform="matrix(0.97437 0.224951 0 1 80.9331 150.185)" fill="#DB1C1C" stroke="black" stroke-linejoin="round"/>
<path d="M78.4863 151.351L82.7312 152.331L85.1756 158.735L80.9308 157.755L78.4863 151.351Z" fill="#DB1C1C" stroke="black" stroke-linejoin="round"/>
<path d="M80.927 150.185L85.1718 151.165L82.6995 152.312L78.4546 151.332L80.927 150.185Z" fill="#FF8A7C" stroke="black" stroke-linejoin="round"/>
<rect width="82.2448" height="23.9874" transform="matrix(0.97437 0.224951 0 1 12.8442 72.4661)" fill="#A2A2A2" stroke="black" stroke-linejoin="round"/>
<circle cx="1.20842" cy="1.20842" r="1.20842" transform="matrix(0.97437 0.224951 0 1 14.6382 92.5278)" fill="black"/>
<circle cx="1.20842" cy="1.20842" r="1.20842" transform="matrix(0.97437 0.224951 0 1 89.2485 110.27)" fill="black"/>
<circle cx="1.20842" cy="1.20842" r="1.20842" transform="matrix(0.97437 0.224951 0 1 14.2754 74.7859)" fill="black"/>
<circle cx="1.20842" cy="1.20842" r="1.20842" transform="matrix(0.97437 0.224951 0 1 88.8853 92.5281)" fill="black"/>
<rect width="1.54975" height="19.093" rx="0.774874" transform="matrix(0.97437 0.224951 0 1 19.2725 76.0469)" fill="black"/>
<rect width="1.54975" height="19.093" rx="0.774874" transform="matrix(0.97437 0.224951 0 1 22.333 76.7729)" fill="black"/>
<rect width="1.54975" height="19.093" rx="0.774874" transform="matrix(0.97437 0.224951 0 1 25.3926 77.499)" fill="black"/>
<rect width="1.54975" height="19.093" rx="0.774874" transform="matrix(0.97437 0.224951 0 1 28.4536 78.2253)" fill="black"/>
<rect width="1.54975" height="19.093" rx="0.774874" transform="matrix(0.97437 0.224951 0 1 31.5132 78.9514)" fill="black"/>
<rect width="1.54975" height="19.093" rx="0.774874" transform="matrix(0.97437 0.224951 0 1 34.5742 79.6777)" fill="black"/>
<rect width="1.54975" height="19.093" rx="0.774874" transform="matrix(0.97437 0.224951 0 1 37.6333 80.4038)" fill="black"/>
<rect width="1.54975" height="19.093" rx="0.774874" transform="matrix(0.97437 0.224951 0 1 40.6943 81.1299)" fill="black"/>
<rect width="1.54975" height="19.093" rx="0.774874" transform="matrix(0.97437 0.224951 0 1 43.7539 81.8562)" fill="black"/>
<circle cx="2.99643" cy="2.99643" r="2.99643" transform="matrix(0.97437 0.224951 0 1 79.9844 97.6274)" fill="#54FC1D" stroke="black"/>
<circle cx="2.99643" cy="2.99643" r="2.99643" transform="matrix(0.97437 0.224951 0 1 67.9512 94.9604)" fill="#690004" stroke="black"/>
<rect width="82.2448" height="23.9874" transform="matrix(0.97437 0.224951 0 1 12.8442 99.2703)" fill="#A2A2A2" stroke="black" stroke-linejoin="round"/>
<circle cx="1.20842" cy="1.20842" r="1.20842" transform="matrix(0.97437 0.224951 0 1 14.6382 119.332)" fill="black"/>
<circle cx="1.20842" cy="1.20842" r="1.20842" transform="matrix(0.97437 0.224951 0 1 89.2485 137.074)" fill="black"/>
<circle cx="1.20842" cy="1.20842" r="1.20842" transform="matrix(0.97437 0.224951 0 1 14.2754 101.59)" fill="black"/>
<circle cx="1.20842" cy="1.20842" r="1.20842" transform="matrix(0.97437 0.224951 0 1 88.8853 119.332)" fill="black"/>
<rect width="1.54975" height="19.093" rx="0.774874" transform="matrix(0.97437 0.224951 0 1 19.2725 102.851)" fill="black"/>
<rect width="1.54975" height="19.093" rx="0.774874" transform="matrix(0.97437 0.224951 0 1 22.333 103.577)" fill="black"/>
<rect width="1.54975" height="19.093" rx="0.774874" transform="matrix(0.97437 0.224951 0 1 25.3926 104.303)" fill="black"/>
<rect width="1.54975" height="19.093" rx="0.774874" transform="matrix(0.97437 0.224951 0 1 28.4536 105.03)" fill="black"/>
<rect width="1.54975" height="19.093" rx="0.774874" transform="matrix(0.97437 0.224951 0 1 31.5132 105.756)" fill="black"/>
<rect width="1.54975" height="19.093" rx="0.774874" transform="matrix(0.97437 0.224951 0 1 34.5742 106.482)" fill="black"/>
<rect width="1.54975" height="19.093" rx="0.774874" transform="matrix(0.97437 0.224951 0 1 37.6333 107.208)" fill="black"/>
<rect width="1.54975" height="19.093" rx="0.774874" transform="matrix(0.97437 0.224951 0 1 40.6943 107.934)" fill="black"/>
<rect width="1.54975" height="19.093" rx="0.774874" transform="matrix(0.97437 0.224951 0 1 43.7539 108.66)" fill="black"/>
<circle cx="2.99643" cy="2.99643" r="2.99643" transform="matrix(0.97437 0.224951 0 1 79.9844 124.431)" fill="#54FC1D" stroke="black"/>
<circle cx="2.99643" cy="2.99643" r="2.99643" transform="matrix(0.97437 0.224951 0 1 67.9512 121.765)" fill="#690004" stroke="black"/>
<rect width="102.297" height="87.2424" transform="matrix(0.97437 0.224951 -0.731354 0.681998 64.8052 0.935547)" fill="#EDEFEF" stroke="black" stroke-linejoin="round"/>
<path d="M102.177 22.6694C108.944 24.2318 110.314 29.3439 105.234 34.0806L102.066 37.0358L103.933 37.467C106.792 38.1271 107.375 40.3027 105.229 42.3038L87.5562 58.7843C85.4103 60.7853 81.3186 61.8816 78.4596 61.2217L50.2047 54.6986C47.3457 54.0385 46.7628 51.863 48.9087 49.8618L66.5819 33.3813C68.7279 31.3802 72.8196 30.2838 75.6785 30.9438L77.5455 31.3749L80.7144 28.4197C85.7942 23.683 95.4093 21.107 102.177 22.6694ZM54.9579 50.8329L82.2384 57.1311L99.1802 41.3326L71.8997 35.0344L54.9579 50.8329ZM80.969 42.446C83.8279 43.1061 84.411 45.2817 82.265 47.2828C80.119 49.2837 76.0273 50.3801 73.1684 49.7202C70.3094 49.0602 69.7267 46.8845 71.8724 44.8834C74.0184 42.8823 78.1099 41.7859 80.969 42.446ZM97.9108 26.6475C94.2715 25.8073 89.1298 27.1846 86.3979 29.7319L83.229 32.687L96.382 35.7236L99.551 32.7685C102.282 30.2212 101.55 27.4878 97.9108 26.6475Z" fill="#848484" stroke="black"/>
</svg>
