<svg width="25" height="24" viewBox="0 0 25 24" fill="none" xmlns="http://www.w3.org/2000/svg">
<path d="M19.9322 12.98C19.9722 12.66 20.0022 12.34 20.0022 12C20.0022 11.66 19.9722 11.34 19.9322 11.02L22.0422 9.37C22.2322 9.22 22.2822 8.95 22.1622 8.73L20.1622 5.27C20.0722 5.11 19.9022 5.02 19.7222 5.02C19.6622 5.02 19.6022 5.03 19.5522 5.05L17.0622 6.05C16.5422 5.65 15.9822 5.32 15.3722 5.07L14.9922 2.42C14.9622 2.18 14.7522 2 14.5022 2H10.5022C10.2522 2 10.0422 2.18 10.0122 2.42L9.63221 5.07C9.02221 5.32 8.46221 5.66 7.94221 6.05L5.45221 5.05C5.39221 5.03 5.33221 5.02 5.27221 5.02C5.10221 5.02 4.93221 5.11 4.84221 5.27L2.84221 8.73C2.71221 8.95 2.77221 9.22 2.96221 9.37L5.07221 11.02C5.03221 11.34 5.00221 11.67 5.00221 12C5.00221 12.33 5.03221 12.66 5.07221 12.98L2.96221 14.63C2.77221 14.78 2.72221 15.05 2.84221 15.27L4.84221 18.73C4.93221 18.89 5.10221 18.98 5.28221 18.98C5.34221 18.98 5.40221 18.97 5.45221 18.95L7.94221 17.95C8.46221 18.35 9.02221 18.68 9.63221 18.93L10.0122 21.58C10.0422 21.82 10.2522 22 10.5022 22H14.5022C14.7522 22 14.9622 21.82 14.9922 21.58L15.3722 18.93C15.9822 18.68 16.5422 18.34 17.0622 17.95L19.5522 18.95C19.6122 18.97 19.6722 18.98 19.7322 18.98C19.9022 18.98 20.0722 18.89 20.1622 18.73L22.1622 15.27C22.2822 15.05 22.2322 14.78 22.0422 14.63L19.9322 12.98ZM17.9522 11.27C17.9922 11.58 18.0022 11.79 18.0022 12C18.0022 12.21 17.9822 12.43 17.9522 12.73L17.8122 13.86L18.7022 14.56L19.7822 15.4L19.0822 16.61L17.8122 16.1L16.7722 15.68L15.8722 16.36C15.4422 16.68 15.0322 16.92 14.6222 17.09L13.5622 17.52L13.4022 18.65L13.2022 20H11.8022L11.4522 17.52L10.3922 17.09C9.96221 16.91 9.56221 16.68 9.16221 16.38L8.25221 15.68L7.19221 16.11L5.92221 16.62L5.22221 15.41L6.30221 14.57L7.19221 13.87L7.05221 12.74C7.02221 12.43 7.00221 12.2 7.00221 12C7.00221 11.8 7.02221 11.57 7.05221 11.27L7.19221 10.14L6.30221 9.44L5.22221 8.6L5.92221 7.39L7.19221 7.9L8.23221 8.32L9.13221 7.64C9.56221 7.32 9.97221 7.08 10.3822 6.91L11.4422 6.48L11.6022 5.35L11.8022 4H13.1922L13.5422 6.48L14.6022 6.91C15.0322 7.09 15.4322 7.32 15.8322 7.62L16.7422 8.32L17.8022 7.89L19.0722 7.38L19.7722 8.59L18.7022 9.44L17.8122 10.14L17.9522 11.27ZM12.5022 8C10.2922 8 8.50221 9.79 8.50221 12C8.50221 14.21 10.2922 16 12.5022 16C14.7122 16 16.5022 14.21 16.5022 12C16.5022 9.79 14.7122 8 12.5022 8ZM12.5022 14C11.4022 14 10.5022 13.1 10.5022 12C10.5022 10.9 11.4022 10 12.5022 10C13.6022 10 14.5022 10.9 14.5022 12C14.5022 13.1 13.6022 14 12.5022 14Z" fill="#1B1C1D"/>
</svg>
