<svg width="25" height="24" viewBox="0 0 25 24" fill="none" xmlns="http://www.w3.org/2000/svg">
<path d="M18.416 16.12C17.656 16.12 16.976 16.42 16.456 16.89L9.32602 12.74C9.37602 12.51 9.41602 12.28 9.41602 12.04C9.41602 11.8 9.37602 11.57 9.32602 11.34L16.376 7.22998C16.916 7.72998 17.626 8.03998 18.416 8.03998C20.076 8.03998 21.416 6.69998 21.416 5.03998C21.416 3.37998 20.076 2.03998 18.416 2.03998C16.756 2.03998 15.416 3.37998 15.416 5.03998C15.416 5.27998 15.456 5.50998 15.506 5.73998L8.45602 9.84998C7.91602 9.34998 7.20602 9.03998 6.41602 9.03998C4.75602 9.03998 3.41602 10.38 3.41602 12.04C3.41602 13.7 4.75602 15.04 6.41602 15.04C7.20602 15.04 7.91602 14.73 8.45602 14.23L15.576 18.39C15.526 18.6 15.496 18.82 15.496 19.04C15.496 20.65 16.806 21.96 18.416 21.96C20.026 21.96 21.336 20.65 21.336 19.04C21.336 17.43 20.026 16.12 18.416 16.12ZM18.416 4.03998C18.966 4.03998 19.416 4.48998 19.416 5.03998C19.416 5.58998 18.966 6.03998 18.416 6.03998C17.866 6.03998 17.416 5.58998 17.416 5.03998C17.416 4.48998 17.866 4.03998 18.416 4.03998ZM6.41602 13.04C5.86602 13.04 5.41602 12.59 5.41602 12.04C5.41602 11.49 5.86602 11.04 6.41602 11.04C6.96602 11.04 7.41602 11.49 7.41602 12.04C7.41602 12.59 6.96602 13.04 6.41602 13.04ZM18.416 20.06C17.866 20.06 17.416 19.61 17.416 19.06C17.416 18.51 17.866 18.06 18.416 18.06C18.966 18.06 19.416 18.51 19.416 19.06C19.416 19.61 18.966 20.06 18.416 20.06Z" fill="#012D2D"/>
</svg>
