<svg width="181" height="180" viewBox="0 0 181 180" fill="none" xmlns="http://www.w3.org/2000/svg">
<g clip-path="url(#clip0_60_11874)">
<path d="M72.725 19.52L86.385 16.33L104.605 52.24L126.035 55.42L115.435 91.83L144.845 128.69L128.285 132.35L107.105 126.32L90.065 143.06L74.125 146.52L64.935 104.21L38.005 77.93L64.475 60.32L72.725 19.52Z" fill="#D5A129" stroke="black"/>
<path d="M87.515 17.53L112.095 48.46L143.055 50.91L132.455 87.32L145.305 127.84L114.165 119.42L91.145 142.01L82.505 100.39L55.425 73.84L81.225 56.54L87.515 17.53Z" fill="#FEC111" stroke="black"/>
<path d="M55.865 74.16L38.975 77.96" stroke="black"/>
<path d="M73.815 153.77C73.955 153.72 74.315 153.72 74.775 153.75L107.705 156.43C107.895 156.44 108.065 156.45 108.215 156.45L147.595 156.61C148.725 156.61 150.335 156.98 149.745 157.1L136.075 159.84C135.805 159.89 136.005 160.02 136.565 160.14L150.785 163.22C151.585 163.39 151.605 163.56 150.825 163.55L108.425 162.86C108.325 162.86 108.225 162.86 108.145 162.86L75.765 164.85C75.175 164.89 74.005 164.74 73.495 164.56L64.385 161.39C64.025 161.27 63.315 161.15 62.685 161.11L31.495 159.15C30.135 159.06 28.965 158.69 29.925 158.65L63.385 157.22C63.515 157.22 63.605 157.2 63.665 157.18L73.795 153.75L73.815 153.77Z" fill="#040504"/>
</g>
<defs>
<clipPath id="clip0_60_11874">
<rect width="121.81" height="149.74" fill="white" transform="translate(29.595 15.13)"/>
</clipPath>
</defs>
</svg>
