<svg width="181" height="180" viewBox="0 0 181 180" fill="none" xmlns="http://www.w3.org/2000/svg">
<path d="M83.3316 131.567C51.1565 142.645 47.8688 127.445 36.9147 110.99C9.82026 65.3231 57.9955 44.1754 62.9361 40.0946C67.8767 36.0137 80.2118 44.1935 93.4525 31.9666C106.693 19.7397 120.433 25.0643 124.563 27.472C127.752 29.3311 137.904 36.6747 142.676 44.3709C153.076 61.1443 151.928 77.5064 146.795 89.3548C140.649 103.543 130.92 107.376 116.854 116.053C95.2607 129.374 94.7988 127.619 83.3316 131.567Z" stroke="black" stroke-width="2"/>
<path fill-rule="evenodd" clip-rule="evenodd" d="M66.8904 38.3968C96.0994 20.8463 129.977 24.2844 142.559 46.0761C155.14 67.8677 141.661 99.7609 112.452 117.311C83.2427 134.862 49.3649 131.424 36.7834 109.632C24.202 87.8405 37.6813 55.9474 66.8904 38.3968ZM120.35 58.8008C114.811 49.2073 96.5247 49.72 79.5061 59.9459C62.4874 70.1717 53.1812 86.2384 58.7199 95.8318C64.2587 105.425 82.5451 104.913 99.5637 94.6867C116.582 84.4608 125.889 68.3942 120.35 58.8008Z" fill="white"/>
<path d="M142.987 45.8185C136.598 34.7529 124.822 28.3832 111.013 26.9818C97.2042 25.5804 81.3271 29.1391 66.6404 37.9638L67.1404 38.8298C81.6626 30.104 97.3289 26.6065 110.906 27.9844C124.484 29.3624 135.937 35.6075 142.13 46.3336L142.987 45.8185ZM112.702 117.744C127.388 108.92 138.138 96.4796 143.632 83.4795C149.127 70.4796 149.376 56.8841 142.987 45.8185L142.13 46.3336C148.323 57.0596 148.123 70.3066 142.721 83.0888C137.319 95.8708 126.724 108.153 112.202 116.878L112.702 117.744ZM36.3549 109.89C42.7436 120.955 54.5198 127.325 68.3288 128.726C82.1378 130.128 98.015 126.569 112.702 117.744L112.202 116.878C97.6794 125.604 82.0131 129.102 68.4357 127.724C54.8581 126.346 43.4047 120.101 37.212 109.375L36.3549 109.89ZM66.6404 37.9638C51.9536 46.7885 41.2042 59.2286 35.7098 72.2287C30.2155 85.2287 29.9661 98.8241 36.3549 109.89L37.212 109.375C31.0193 98.6486 31.2189 85.4017 36.6212 72.6195C42.0234 59.8374 52.6181 47.5557 67.1404 38.8298L66.6404 37.9638ZM79.7561 60.3789C88.2063 55.3015 96.9506 52.6491 104.242 52.4447C111.553 52.2397 117.283 54.4893 119.921 59.0583L120.778 58.5432C117.878 53.5188 111.695 51.228 104.223 51.4375C96.7327 51.6475 87.8245 54.3644 79.2561 59.5128L79.7561 60.3789ZM59.1485 95.5743C56.5106 91.0053 57.3606 84.8018 61.0811 78.3786C64.7921 71.972 71.3059 65.4563 79.7561 60.3789L79.2561 59.5128C70.6877 64.6613 64.039 71.2919 60.2268 77.8733C56.4242 84.4383 55.3905 91.0649 58.2913 96.0893L59.1485 95.5743ZM99.3137 94.2537C90.8635 99.3311 82.1192 101.983 74.8274 102.188C67.5168 102.393 61.7864 100.143 59.1485 95.5743L58.2913 96.0893C61.1922 101.114 67.3744 103.405 74.8464 103.195C82.3371 102.985 91.2453 100.268 99.8137 95.1197L99.3137 94.2537ZM119.921 59.0583C122.559 63.6273 121.709 69.8307 117.989 76.2539C114.278 82.6606 107.764 89.1763 99.3137 94.2537L99.8137 95.1197C108.382 89.9713 115.031 83.3407 118.843 76.7592C122.646 70.1942 123.679 63.5677 120.778 58.5432L119.921 59.0583Z" fill="black"/>
<path d="M100.042 123.991L99.9008 123.51L100.042 123.991C103.704 122.852 109.303 120.453 114.83 117.149C120.351 113.848 125.85 109.616 129.263 104.793L128.861 104.501L129.263 104.793C129.421 104.57 129.452 104.276 129.327 104.022C126.909 99.0782 120.437 89.2544 109.646 86.9469L109.54 87.4399L109.646 86.9469C109.415 86.8976 109.168 86.9598 108.985 87.1316L109.32 87.5004L108.985 87.1317C107.166 88.8384 101.241 93.5053 94.3811 96.9175C94.2358 96.9898 94.1096 97.1102 94.0335 97.2735C92.28 101.037 90.6336 109.995 99.2063 123.675C99.3732 123.941 99.7048 124.096 100.042 123.991ZM47.8286 120.267C46.732 117.032 46.0318 112.512 47.5289 108.451C49.0088 104.436 52.6824 100.748 60.5919 99.2219C61.1687 99.1106 61.4447 98.3653 61.0053 97.9147C60.2355 97.1253 59.2528 95.8192 58.5264 94.2462C57.7996 92.6725 57.3459 90.868 57.5807 89.0648C57.6132 88.8147 57.5248 88.5462 57.307 88.3735C54.6876 86.2967 50.3209 84.5633 45.614 85.2177C40.8758 85.8766 35.8748 88.9431 32.0051 96.3137C31.9444 96.4294 31.9088 96.5673 31.9177 96.7152C32.2421 102.065 35.6626 113.468 46.6959 121.148C47.296 121.566 48.0594 120.948 47.8286 120.267ZM75.5879 63.1222C78.3483 61.1101 84.7037 57.1815 89.4511 55.5685C89.9405 55.4023 90.137 54.7888 89.8064 54.3703C87.9536 52.0249 85.7384 48.3052 84.6072 44.0602C83.4774 39.8203 83.4371 35.0942 85.8693 30.6755C86.1556 30.1554 85.7576 29.424 85.0861 29.5635C79.8163 30.6583 68.0296 35.3783 55.9678 45.5943C55.6565 45.8579 55.6566 46.2478 55.7609 46.5011C55.8644 46.7523 56.1248 47.012 56.5052 46.9989C59.7285 46.8878 66.5305 49.1802 74.511 62.8924C74.7243 63.2591 75.2179 63.3919 75.5879 63.1222ZM132.9 34.9473C125.09 34.9639 120.594 38.2543 118.201 42.428C115.832 46.5606 115.564 51.4884 116.038 54.7737C116.071 55.0068 116.207 55.1934 116.385 55.3032C118.467 56.5874 119.985 59.0154 120.873 61.6278C121.072 62.2144 121.818 62.2932 122.173 61.8417C127.176 55.4897 132.148 53.1853 136.302 53.0754C140.467 52.9651 143.901 55.0564 145.843 57.6808C146.084 58.0054 146.47 58.036 146.739 57.9304C147.013 57.8231 147.292 57.5206 147.223 57.0945C145.695 47.6239 139.549 39.2574 133.309 35.0706C133.184 34.9866 133.04 34.947 132.9 34.9473Z" fill="#DB1C1C" stroke="black"/>
<path fill-rule="evenodd" clip-rule="evenodd" d="M154.272 150.984C158.491 154.35 135.379 157.734 102.65 158.541C69.9214 159.348 39.9692 157.273 35.7503 153.907C31.5313 150.54 54.6432 147.157 87.3722 146.35C120.101 145.543 150.053 147.618 154.272 150.984ZM101.3 156.895C119.358 156.449 131.5 154.096 128.419 151.637C125.338 149.179 108.201 147.547 90.1425 147.992C72.0838 148.437 59.942 150.791 63.0229 153.25C66.1038 155.708 83.2409 157.34 101.3 156.895Z" fill="black"/>
<path d="M103.432 159.164C119.834 158.76 133.849 157.71 143.251 156.333C147.944 155.646 151.529 154.872 153.68 154.044C154.752 153.631 155.509 153.189 155.844 152.712C156.173 152.243 156.144 151.655 155.272 150.959L153.272 151.009C153.455 151.154 153.627 151.409 153.372 151.772C153.122 152.128 152.51 152.509 151.497 152.899C149.479 153.677 146.031 154.43 141.383 155.111C132.101 156.469 118.196 157.514 101.869 157.917L103.432 159.164ZM34.7506 153.931C35.623 154.627 37.0246 155.181 38.4753 155.607C39.9483 156.038 41.7342 156.418 43.746 156.754C47.7829 157.431 53.0348 157.987 59.1177 158.408C71.3015 159.252 87.0304 159.569 103.432 159.164L101.869 157.917C85.5413 158.32 69.9296 158.003 57.9004 157.169C51.8768 156.752 46.8041 156.209 43.0155 155.574C41.1146 155.256 39.6127 154.927 38.5123 154.604C37.3896 154.275 36.9323 154.027 36.75 153.882L34.7506 153.931ZM86.5905 145.726C70.1889 146.131 56.1733 147.181 46.7719 148.557C42.0782 149.244 38.4935 150.018 36.3425 150.847C35.2705 151.26 34.5133 151.702 34.1788 152.178C33.8495 152.648 33.8782 153.235 34.7506 153.931L36.75 153.882C36.5676 153.736 36.3957 153.482 36.6506 153.119C36.9004 152.763 37.5123 152.382 38.5252 151.991C40.5439 151.214 43.9916 150.46 48.6396 149.78C57.9217 148.421 71.8265 147.376 88.1538 146.974L86.5905 145.726ZM155.272 150.959C154.399 150.263 152.998 149.709 151.547 149.284C150.074 148.852 148.288 148.473 146.276 148.136C142.24 147.46 136.988 146.904 130.905 146.482C118.721 145.638 102.992 145.322 86.5905 145.726L88.1538 146.974C104.481 146.571 120.093 146.888 132.122 147.721C138.146 148.139 143.218 148.682 147.007 149.316C148.908 149.635 150.41 149.964 151.51 150.286C152.633 150.616 153.09 150.863 153.272 151.009L155.272 150.959ZM127.42 151.662C127.545 151.762 127.669 151.919 127.615 152.142C127.561 152.369 127.329 152.622 126.868 152.89C125.948 153.425 124.234 153.947 121.81 154.417C116.976 155.354 109.498 156.05 100.518 156.271L102.081 157.518C111.16 157.295 118.782 156.591 123.764 155.625C126.247 155.143 128.12 154.588 129.174 153.976C129.7 153.671 130.053 153.334 130.143 152.959C130.234 152.582 130.064 152.127 129.419 151.613L127.42 151.662ZM90.9242 148.616C99.904 148.394 108.625 148.691 115.448 149.34C118.869 149.666 121.75 150.075 123.915 150.533C124.999 150.763 125.834 150.991 126.436 151.201C127.03 151.409 127.294 151.562 127.42 151.662L129.419 151.613C128.774 151.098 127.829 150.662 126.825 150.312C125.83 149.964 124.68 149.664 123.442 149.402C120.962 148.877 117.853 148.445 114.347 148.111C107.316 147.442 98.4398 147.145 89.3609 147.368L90.9242 148.616ZM64.0226 153.225C63.8972 153.125 63.773 152.968 63.8268 152.745C63.8814 152.518 64.1131 152.264 64.5741 151.997C65.4944 151.462 67.2083 150.94 69.6322 150.47C74.4663 149.533 81.9444 148.837 90.9242 148.616L89.3609 147.368C80.282 147.592 72.6598 148.296 67.6785 149.262C65.1947 149.744 63.3222 150.299 62.2681 150.911C61.7418 151.216 61.3893 151.553 61.299 151.928C61.208 152.305 61.3783 152.76 62.0232 153.274L64.0226 153.225ZM100.518 156.271C91.5382 156.492 82.8169 156.196 75.994 155.547C72.5731 155.221 69.6922 154.812 67.5276 154.353C66.4434 154.124 65.6082 153.896 65.006 153.686C64.4121 153.478 64.148 153.325 64.0226 153.225L62.0232 153.274C62.6681 153.789 63.6134 154.225 64.617 154.575C65.6122 154.923 66.7624 155.223 68.0002 155.485C70.4796 156.01 73.5894 156.442 77.0952 156.776C84.1258 157.445 93.0024 157.742 102.081 157.518L100.518 156.271Z" fill="black"/>
</svg>
