<svg width="24" height="25" viewBox="0 0 24 25" fill="none" xmlns="http://www.w3.org/2000/svg">
<g clip-path="url(#clip0_152_17364)">
<path d="M12 2.71387C6.48 2.71387 2 7.19387 2 12.7139C2 18.2339 6.48 22.7139 12 22.7139C17.52 22.7139 22 18.2339 22 12.7139C22 7.19387 17.52 2.71387 12 2.71387ZM19.46 9.83387L16.68 10.9839C16.17 9.62387 15.1 8.54387 13.73 8.04387L14.88 5.26387C16.98 6.06387 18.65 7.73387 19.46 9.83387ZM12 15.7139C10.34 15.7139 9 14.3739 9 12.7139C9 11.0539 10.34 9.71387 12 9.71387C13.66 9.71387 15 11.0539 15 12.7139C15 14.3739 13.66 15.7139 12 15.7139ZM9.13 5.25387L10.3 8.03387C8.92 8.53387 7.83 9.62387 7.32 11.0039L4.54 9.84387C5.35 7.73387 7.02 6.06387 9.13 5.25387ZM4.54 15.5839L7.32 14.4339C7.83 15.8139 8.91 16.8939 10.29 17.3939L9.12 20.1739C7.02 19.3639 5.35 17.6939 4.54 15.5839ZM14.88 20.1739L13.73 17.3939C15.1 16.8839 16.18 15.8039 16.68 14.4239L19.46 15.5939C18.65 17.6939 16.98 19.3639 14.88 20.1739Z" fill="#040404"/>
</g>
<defs>
<clipPath id="clip0_152_17364">
<rect width="24" height="24" fill="white" transform="translate(0 0.713867)"/>
</clipPath>
</defs>
</svg>
