<svg width="325" height="168" viewBox="0 0 325 168" fill="none" xmlns="http://www.w3.org/2000/svg">
<rect x="41.4877" y="0.5" width="245.478" height="166.513" rx="15.5" fill="#EDEFEF" stroke="#DEDFDF"/>
<rect x="75.9192" y="26.4867" width="175.838" height="11.5082" rx="2" fill="#BFBFBF"/>
<rect x="75.9192" y="43.9949" width="175.838" height="11.5082" rx="2" fill="#BFBFBF"/>
<rect x="75.9192" y="61.5031" width="175.838" height="11.5082" rx="2" fill="#BFBFBF"/>
<rect x="55.9877" y="91.0442" width="215.701" height="28.1344" rx="4" fill="#4389F6"/>
<rect x="55.9877" y="125.008" width="215.701" height="28.1344" rx="4" fill="#BABABA"/>
<path d="M105.467 143.274C104.658 143.274 103.965 143.094 103.387 142.735C102.809 142.372 102.363 141.858 102.051 141.194C101.742 140.53 101.588 139.749 101.588 138.85V138.838C101.588 137.932 101.744 137.149 102.057 136.489C102.373 135.829 102.821 135.319 103.399 134.96C103.981 134.6 104.67 134.42 105.467 134.42C106.268 134.42 106.957 134.6 107.535 134.96C108.117 135.319 108.565 135.831 108.877 136.495C109.19 137.155 109.346 137.936 109.346 138.838V138.85C109.346 139.749 109.19 140.53 108.877 141.194C108.569 141.854 108.123 142.366 107.541 142.729C106.963 143.092 106.272 143.274 105.467 143.274ZM105.467 142.301C106.045 142.301 106.543 142.159 106.961 141.874C107.379 141.588 107.701 141.188 107.928 140.672C108.155 140.153 108.268 139.545 108.268 138.85V138.838C108.268 138.135 108.155 137.526 107.928 137.01C107.701 136.495 107.379 136.096 106.961 135.815C106.543 135.534 106.045 135.393 105.467 135.393C104.893 135.393 104.397 135.534 103.979 135.815C103.561 136.096 103.237 136.495 103.006 137.01C102.78 137.526 102.666 138.135 102.666 138.838V138.85C102.666 139.545 102.778 140.153 103 140.672C103.223 141.188 103.543 141.588 103.961 141.874C104.379 142.159 104.881 142.301 105.467 142.301ZM111.045 145.184V136.758H112.065V137.766H112.158C112.287 137.532 112.449 137.333 112.645 137.169C112.84 137.001 113.063 136.872 113.313 136.782C113.563 136.692 113.834 136.647 114.127 136.647C114.662 136.647 115.127 136.784 115.522 137.057C115.92 137.327 116.229 137.706 116.447 138.194C116.666 138.682 116.776 139.254 116.776 139.911V139.922C116.776 140.583 116.666 141.157 116.447 141.645C116.229 142.133 115.92 142.512 115.522 142.782C115.127 143.051 114.662 143.186 114.127 143.186C113.838 143.186 113.565 143.141 113.307 143.051C113.053 142.958 112.826 142.829 112.627 142.665C112.432 142.501 112.276 142.305 112.158 142.079H112.065V145.184H111.045ZM113.893 142.284C114.28 142.284 114.61 142.19 114.883 142.003C115.156 141.811 115.365 141.54 115.51 141.188C115.658 140.833 115.733 140.411 115.733 139.922V139.911C115.733 139.419 115.658 138.997 115.51 138.645C115.365 138.294 115.156 138.024 114.883 137.836C114.61 137.645 114.28 137.549 113.893 137.549C113.51 137.549 113.18 137.645 112.903 137.836C112.625 138.028 112.412 138.299 112.264 138.651C112.115 139.003 112.041 139.422 112.041 139.911V139.922C112.041 140.407 112.115 140.827 112.264 141.182C112.412 141.534 112.625 141.805 112.903 141.997C113.18 142.188 113.51 142.284 113.893 142.284ZM120.947 143.186C120.346 143.186 119.828 143.053 119.395 142.788C118.965 142.522 118.633 142.147 118.399 141.663C118.168 141.174 118.053 140.6 118.053 139.94V139.934C118.053 139.282 118.168 138.71 118.399 138.217C118.633 137.725 118.963 137.34 119.389 137.063C119.815 136.786 120.313 136.647 120.883 136.647C121.457 136.647 121.949 136.78 122.36 137.045C122.774 137.311 123.09 137.682 123.309 138.159C123.531 138.631 123.643 139.182 123.643 139.811V140.21H118.58V139.395H123.121L122.617 140.139V139.735C122.617 139.239 122.543 138.831 122.395 138.51C122.246 138.19 122.041 137.952 121.78 137.795C121.518 137.635 121.217 137.555 120.877 137.555C120.537 137.555 120.233 137.639 119.963 137.807C119.697 137.971 119.487 138.215 119.33 138.54C119.174 138.864 119.096 139.262 119.096 139.735V140.139C119.096 140.588 119.172 140.973 119.324 141.294C119.477 141.61 119.694 141.854 119.975 142.026C120.256 142.194 120.588 142.278 120.971 142.278C121.256 142.278 121.504 142.239 121.715 142.161C121.926 142.083 122.1 141.983 122.237 141.862C122.373 141.741 122.469 141.618 122.524 141.493L122.547 141.44H123.567L123.555 141.487C123.5 141.702 123.403 141.911 123.262 142.114C123.125 142.313 122.947 142.495 122.729 142.659C122.51 142.819 122.25 142.948 121.949 143.045C121.653 143.139 121.319 143.186 120.947 143.186ZM125.225 143.075V136.758H126.244V137.708H126.338C126.498 137.372 126.729 137.112 127.03 136.928C127.33 136.741 127.713 136.647 128.178 136.647C128.889 136.647 129.434 136.85 129.813 137.256C130.196 137.659 130.387 138.235 130.387 138.985V143.075H129.367V139.231C129.367 138.661 129.246 138.239 129.004 137.965C128.766 137.688 128.395 137.549 127.891 137.549C127.555 137.549 127.264 137.622 127.018 137.766C126.772 137.911 126.58 138.116 126.444 138.381C126.311 138.647 126.244 138.965 126.244 139.336V143.075H125.225ZM138.508 143.274C137.891 143.274 137.352 143.174 136.891 142.975C136.434 142.772 136.071 142.495 135.801 142.143C135.535 141.788 135.381 141.381 135.338 140.924L135.332 140.86H136.387L136.393 140.924C136.42 141.206 136.528 141.45 136.715 141.657C136.906 141.86 137.16 142.018 137.477 142.131C137.797 142.245 138.16 142.301 138.567 142.301C138.949 142.301 139.289 142.241 139.586 142.12C139.887 141.995 140.123 141.823 140.295 141.604C140.467 141.385 140.553 141.133 140.553 140.848V140.842C140.553 140.491 140.424 140.196 140.166 139.958C139.908 139.715 139.488 139.53 138.906 139.401L137.969 139.196C137.121 139.008 136.504 138.719 136.117 138.329C135.735 137.934 135.543 137.43 135.543 136.817V136.811C135.547 136.342 135.674 135.928 135.924 135.569C136.178 135.21 136.528 134.928 136.973 134.725C137.422 134.522 137.938 134.42 138.52 134.42C139.082 134.42 139.58 134.522 140.014 134.725C140.447 134.924 140.791 135.194 141.045 135.534C141.303 135.874 141.446 136.254 141.473 136.676L141.479 136.758H140.424L140.412 136.682C140.373 136.432 140.272 136.211 140.108 136.02C139.944 135.825 139.725 135.67 139.451 135.557C139.178 135.444 138.858 135.389 138.49 135.393C138.139 135.393 137.822 135.448 137.541 135.557C137.26 135.667 137.035 135.825 136.867 136.032C136.703 136.235 136.621 136.485 136.621 136.782V136.788C136.621 137.124 136.746 137.407 136.996 137.637C137.246 137.868 137.658 138.045 138.233 138.17L139.17 138.381C139.76 138.51 140.235 138.678 140.594 138.885C140.953 139.092 141.215 139.346 141.379 139.647C141.547 139.944 141.631 140.295 141.631 140.702V140.708C141.631 141.235 141.502 141.69 141.244 142.073C140.987 142.456 140.623 142.753 140.155 142.963C139.686 143.17 139.137 143.274 138.508 143.274ZM143.799 145.29C143.733 145.29 143.658 145.286 143.576 145.278C143.494 145.274 143.418 145.266 143.348 145.254V144.417C143.41 144.428 143.479 144.436 143.553 144.44C143.627 144.444 143.699 144.446 143.77 144.446C144.059 144.446 144.295 144.372 144.479 144.223C144.666 144.075 144.817 143.819 144.93 143.456L145.047 143.081L142.709 136.758H143.799L145.744 142.594L145.34 141.956H145.821L145.416 142.594L147.356 136.758H148.428L145.961 143.461C145.789 143.934 145.608 144.303 145.416 144.569C145.225 144.835 145 145.02 144.742 145.126C144.488 145.235 144.174 145.29 143.799 145.29ZM151.768 143.186C151.299 143.186 150.885 143.116 150.526 142.975C150.166 142.831 149.877 142.629 149.658 142.372C149.444 142.114 149.317 141.811 149.278 141.463H150.321C150.406 141.725 150.574 141.936 150.824 142.096C151.074 142.256 151.401 142.336 151.803 142.336C152.088 142.336 152.338 142.295 152.553 142.213C152.772 142.128 152.944 142.012 153.069 141.868C153.194 141.719 153.256 141.549 153.256 141.358V141.346C153.256 141.131 153.17 140.95 152.998 140.801C152.826 140.649 152.545 140.526 152.155 140.432L151.176 140.198C150.781 140.104 150.457 139.983 150.203 139.835C149.949 139.682 149.762 139.497 149.641 139.278C149.52 139.055 149.459 138.794 149.459 138.493V138.487C149.459 138.135 149.561 137.821 149.764 137.544C149.971 137.266 150.252 137.047 150.608 136.887C150.963 136.727 151.363 136.647 151.809 136.647C152.25 136.647 152.641 136.717 152.981 136.858C153.324 136.995 153.6 137.19 153.807 137.444C154.018 137.698 154.147 137.997 154.194 138.34H153.192C153.125 138.09 152.973 137.887 152.735 137.731C152.496 137.575 152.186 137.497 151.803 137.497C151.553 137.497 151.33 137.538 151.135 137.62C150.94 137.698 150.785 137.807 150.672 137.948C150.559 138.088 150.502 138.253 150.502 138.44V138.452C150.502 138.592 150.539 138.717 150.613 138.827C150.688 138.936 150.803 139.032 150.959 139.114C151.115 139.196 151.317 139.268 151.563 139.331L152.535 139.565C153.129 139.71 153.571 139.917 153.86 140.186C154.153 140.456 154.299 140.817 154.299 141.27V141.282C154.299 141.657 154.188 141.989 153.965 142.278C153.742 142.563 153.44 142.786 153.057 142.946C152.678 143.106 152.248 143.186 151.768 143.186ZM158.067 143.122C157.418 143.122 156.947 142.991 156.655 142.729C156.365 142.467 156.221 142.036 156.221 141.434V137.602H155.225V136.758H156.221V135.124H157.276V136.758H158.658V137.602H157.276V141.176C157.276 141.547 157.346 141.815 157.487 141.979C157.627 142.139 157.862 142.219 158.19 142.219C158.28 142.219 158.356 142.217 158.418 142.213C158.485 142.21 158.565 142.204 158.658 142.196V143.063C158.561 143.079 158.463 143.092 158.365 143.104C158.268 143.116 158.168 143.122 158.067 143.122ZM162.678 143.186C162.076 143.186 161.559 143.053 161.125 142.788C160.696 142.522 160.363 142.147 160.129 141.663C159.899 141.174 159.783 140.6 159.783 139.94V139.934C159.783 139.282 159.899 138.71 160.129 138.217C160.363 137.725 160.694 137.34 161.119 137.063C161.545 136.786 162.043 136.647 162.613 136.647C163.188 136.647 163.68 136.78 164.09 137.045C164.504 137.311 164.821 137.682 165.039 138.159C165.262 138.631 165.373 139.182 165.373 139.811V140.21H160.311V139.395H164.852L164.348 140.139V139.735C164.348 139.239 164.274 138.831 164.125 138.51C163.977 138.19 163.772 137.952 163.51 137.795C163.248 137.635 162.947 137.555 162.608 137.555C162.268 137.555 161.963 137.639 161.694 137.807C161.428 137.971 161.217 138.215 161.061 138.54C160.905 138.864 160.826 139.262 160.826 139.735V140.139C160.826 140.588 160.903 140.973 161.055 141.294C161.207 141.61 161.424 141.854 161.705 142.026C161.987 142.194 162.319 142.278 162.701 142.278C162.987 142.278 163.235 142.239 163.446 142.161C163.656 142.083 163.83 141.983 163.967 141.862C164.104 141.741 164.199 141.618 164.254 141.493L164.278 141.44H165.297L165.285 141.487C165.231 141.702 165.133 141.911 164.992 142.114C164.856 142.313 164.678 142.495 164.459 142.659C164.24 142.819 163.981 142.948 163.68 143.045C163.383 143.139 163.049 143.186 162.678 143.186ZM166.955 143.075V136.758H167.975V137.719H168.069C168.209 137.379 168.424 137.116 168.713 136.928C169.006 136.741 169.36 136.647 169.774 136.647C170.059 136.647 170.315 136.694 170.541 136.788C170.768 136.881 170.963 137.012 171.127 137.18C171.291 137.344 171.422 137.536 171.52 137.754H171.613C171.727 137.532 171.879 137.338 172.071 137.174C172.262 137.006 172.483 136.878 172.733 136.788C172.987 136.694 173.258 136.647 173.547 136.647C173.977 136.647 174.34 136.727 174.637 136.887C174.938 137.047 175.166 137.282 175.322 137.59C175.479 137.895 175.557 138.268 175.557 138.71V143.075H174.537V138.944C174.537 138.631 174.488 138.374 174.391 138.17C174.297 137.963 174.153 137.809 173.957 137.708C173.762 137.602 173.516 137.549 173.219 137.549C172.926 137.549 172.67 137.616 172.451 137.749C172.233 137.881 172.063 138.059 171.942 138.282C171.821 138.501 171.76 138.745 171.76 139.014V143.075H170.74V138.786C170.74 138.536 170.686 138.319 170.576 138.135C170.471 137.948 170.319 137.803 170.119 137.702C169.924 137.6 169.694 137.549 169.428 137.549C169.155 137.549 168.906 137.622 168.684 137.766C168.465 137.911 168.291 138.106 168.162 138.352C168.037 138.594 167.975 138.864 167.975 139.161V143.075H166.955ZM183.672 143.274C183.055 143.274 182.516 143.174 182.055 142.975C181.598 142.772 181.235 142.495 180.965 142.143C180.699 141.788 180.545 141.381 180.502 140.924L180.496 140.86H181.551L181.557 140.924C181.584 141.206 181.692 141.45 181.879 141.657C182.071 141.86 182.324 142.018 182.641 142.131C182.961 142.245 183.324 142.301 183.731 142.301C184.113 142.301 184.453 142.241 184.75 142.12C185.051 141.995 185.287 141.823 185.459 141.604C185.631 141.385 185.717 141.133 185.717 140.848V140.842C185.717 140.491 185.588 140.196 185.33 139.958C185.072 139.715 184.653 139.53 184.071 139.401L183.133 139.196C182.285 139.008 181.668 138.719 181.281 138.329C180.899 137.934 180.707 137.43 180.707 136.817V136.811C180.711 136.342 180.838 135.928 181.088 135.569C181.342 135.21 181.692 134.928 182.137 134.725C182.586 134.522 183.102 134.42 183.684 134.42C184.246 134.42 184.744 134.522 185.178 134.725C185.612 134.924 185.955 135.194 186.209 135.534C186.467 135.874 186.61 136.254 186.637 136.676L186.643 136.758H185.588L185.576 136.682C185.537 136.432 185.436 136.211 185.272 136.02C185.108 135.825 184.889 135.67 184.615 135.557C184.342 135.444 184.022 135.389 183.655 135.393C183.303 135.393 182.987 135.448 182.705 135.557C182.424 135.667 182.199 135.825 182.031 136.032C181.867 136.235 181.785 136.485 181.785 136.782V136.788C181.785 137.124 181.91 137.407 182.16 137.637C182.41 137.868 182.822 138.045 183.397 138.17L184.334 138.381C184.924 138.51 185.399 138.678 185.758 138.885C186.117 139.092 186.379 139.346 186.543 139.647C186.711 139.944 186.795 140.295 186.795 140.702V140.708C186.795 141.235 186.666 141.69 186.408 142.073C186.151 142.456 185.787 142.753 185.319 142.963C184.85 143.17 184.301 143.274 183.672 143.274ZM191.002 143.186C190.401 143.186 189.883 143.053 189.449 142.788C189.02 142.522 188.688 142.147 188.453 141.663C188.223 141.174 188.108 140.6 188.108 139.94V139.934C188.108 139.282 188.223 138.71 188.453 138.217C188.688 137.725 189.018 137.34 189.444 137.063C189.869 136.786 190.367 136.647 190.938 136.647C191.512 136.647 192.004 136.78 192.414 137.045C192.828 137.311 193.145 137.682 193.363 138.159C193.586 138.631 193.697 139.182 193.697 139.811V140.21H188.635V139.395H193.176L192.672 140.139V139.735C192.672 139.239 192.598 138.831 192.449 138.51C192.301 138.19 192.096 137.952 191.834 137.795C191.572 137.635 191.272 137.555 190.932 137.555C190.592 137.555 190.287 137.639 190.018 137.807C189.752 137.971 189.541 138.215 189.385 138.54C189.229 138.864 189.151 139.262 189.151 139.735V140.139C189.151 140.588 189.227 140.973 189.379 141.294C189.531 141.61 189.748 141.854 190.03 142.026C190.311 142.194 190.643 142.278 191.026 142.278C191.311 142.278 191.559 142.239 191.77 142.161C191.981 142.083 192.155 141.983 192.291 141.862C192.428 141.741 192.524 141.618 192.578 141.493L192.602 141.44H193.621L193.61 141.487C193.555 141.702 193.457 141.911 193.317 142.114C193.18 142.313 193.002 142.495 192.783 142.659C192.565 142.819 192.305 142.948 192.004 143.045C191.707 143.139 191.373 143.186 191.002 143.186ZM197.524 143.122C196.875 143.122 196.405 142.991 196.112 142.729C195.822 142.467 195.678 142.036 195.678 141.434V137.602H194.682V136.758H195.678V135.124H196.733V136.758H198.115V137.602H196.733V141.176C196.733 141.547 196.803 141.815 196.944 141.979C197.084 142.139 197.319 142.219 197.647 142.219C197.737 142.219 197.813 142.217 197.875 142.213C197.942 142.21 198.022 142.204 198.115 142.196V143.063C198.018 143.079 197.92 143.092 197.822 143.104C197.725 143.116 197.625 143.122 197.524 143.122ZM201.883 143.122C201.235 143.122 200.764 142.991 200.471 142.729C200.182 142.467 200.037 142.036 200.037 141.434V137.602H199.041V136.758H200.037V135.124H201.092V136.758H202.475V137.602H201.092V141.176C201.092 141.547 201.162 141.815 201.303 141.979C201.444 142.139 201.678 142.219 202.006 142.219C202.096 142.219 202.172 142.217 202.235 142.213C202.301 142.21 202.381 142.204 202.475 142.196V143.063C202.377 143.079 202.28 143.092 202.182 143.104C202.084 143.116 201.985 143.122 201.883 143.122ZM204.022 143.075V136.758H205.041V143.075H204.022ZM204.537 135.54C204.346 135.54 204.18 135.471 204.039 135.335C203.903 135.194 203.834 135.028 203.834 134.836C203.834 134.641 203.903 134.475 204.039 134.338C204.18 134.202 204.346 134.133 204.537 134.133C204.733 134.133 204.899 134.202 205.035 134.338C205.172 134.475 205.24 134.641 205.24 134.836C205.24 135.028 205.172 135.194 205.035 135.335C204.899 135.471 204.733 135.54 204.537 135.54ZM206.963 143.075V136.758H207.983V137.708H208.076C208.237 137.372 208.467 137.112 208.768 136.928C209.069 136.741 209.451 136.647 209.916 136.647C210.627 136.647 211.172 136.85 211.551 137.256C211.934 137.659 212.125 138.235 212.125 138.985V143.075H211.106V139.231C211.106 138.661 210.985 138.239 210.742 137.965C210.504 137.688 210.133 137.549 209.629 137.549C209.293 137.549 209.002 137.622 208.756 137.766C208.51 137.911 208.319 138.116 208.182 138.381C208.049 138.647 207.983 138.965 207.983 139.336V143.075H206.963ZM216.572 145.301C216.065 145.301 215.621 145.229 215.242 145.085C214.863 144.944 214.561 144.743 214.334 144.481C214.112 144.223 213.973 143.922 213.918 143.579L213.93 143.573H214.985L214.99 143.579C215.045 143.817 215.209 144.012 215.483 144.165C215.756 144.321 216.119 144.399 216.572 144.399C217.139 144.399 217.58 144.27 217.897 144.012C218.217 143.758 218.377 143.399 218.377 142.934V141.657H218.283C218.151 141.887 217.985 142.085 217.785 142.249C217.586 142.413 217.362 142.538 217.112 142.624C216.862 142.706 216.592 142.747 216.303 142.747C215.76 142.747 215.289 142.618 214.891 142.36C214.496 142.098 214.192 141.739 213.977 141.282C213.762 140.825 213.655 140.301 213.655 139.711V139.7C213.655 139.11 213.762 138.586 213.977 138.129C214.196 137.669 214.504 137.307 214.903 137.045C215.301 136.78 215.776 136.647 216.326 136.647C216.623 136.647 216.897 136.694 217.147 136.788C217.397 136.881 217.617 137.014 217.809 137.186C218.004 137.358 218.166 137.563 218.295 137.801H218.365V136.758H219.385V142.987C219.385 143.456 219.27 143.864 219.039 144.211C218.813 144.559 218.488 144.827 218.067 145.014C217.645 145.206 217.147 145.301 216.572 145.301ZM216.526 141.844C216.916 141.844 217.25 141.754 217.528 141.575C217.809 141.391 218.024 141.139 218.172 140.819C218.324 140.499 218.401 140.129 218.401 139.711V139.7C218.401 139.282 218.324 138.911 218.172 138.586C218.024 138.262 217.809 138.008 217.528 137.825C217.25 137.641 216.916 137.549 216.526 137.549C216.135 137.549 215.803 137.641 215.53 137.825C215.26 138.008 215.053 138.262 214.908 138.586C214.768 138.911 214.697 139.282 214.697 139.7V139.711C214.697 140.129 214.768 140.499 214.908 140.819C215.053 141.139 215.26 141.391 215.53 141.575C215.803 141.754 216.135 141.844 216.526 141.844ZM223.451 143.186C222.983 143.186 222.569 143.116 222.209 142.975C221.85 142.831 221.561 142.629 221.342 142.372C221.127 142.114 221 141.811 220.961 141.463H222.004C222.09 141.725 222.258 141.936 222.508 142.096C222.758 142.256 223.084 142.336 223.487 142.336C223.772 142.336 224.022 142.295 224.237 142.213C224.455 142.128 224.627 142.012 224.752 141.868C224.877 141.719 224.94 141.549 224.94 141.358V141.346C224.94 141.131 224.854 140.95 224.682 140.801C224.51 140.649 224.229 140.526 223.838 140.432L222.86 140.198C222.465 140.104 222.141 139.983 221.887 139.835C221.633 139.682 221.446 139.497 221.324 139.278C221.203 139.055 221.143 138.794 221.143 138.493V138.487C221.143 138.135 221.244 137.821 221.447 137.544C221.655 137.266 221.936 137.047 222.291 136.887C222.647 136.727 223.047 136.647 223.492 136.647C223.934 136.647 224.324 136.717 224.664 136.858C225.008 136.995 225.283 137.19 225.49 137.444C225.701 137.698 225.83 137.997 225.877 138.34H224.875C224.809 138.09 224.656 137.887 224.418 137.731C224.18 137.575 223.869 137.497 223.487 137.497C223.237 137.497 223.014 137.538 222.819 137.62C222.623 137.698 222.469 137.807 222.356 137.948C222.242 138.088 222.186 138.253 222.186 138.44V138.452C222.186 138.592 222.223 138.717 222.297 138.827C222.371 138.936 222.487 139.032 222.643 139.114C222.799 139.196 223 139.268 223.246 139.331L224.219 139.565C224.813 139.71 225.254 139.917 225.543 140.186C225.836 140.456 225.983 140.817 225.983 141.27V141.282C225.983 141.657 225.871 141.989 225.649 142.278C225.426 142.563 225.123 142.786 224.74 142.946C224.362 143.106 223.932 143.186 223.451 143.186Z" fill="black"/>
<path d="M2.9877 137.513C1.88313 137.513 0.987702 138.408 0.987701 139.513C0.987701 140.618 1.88313 141.513 2.9877 141.513L2.9877 139.513L2.9877 137.513ZM53.4485 140.927C54.2295 140.146 54.2295 138.88 53.4485 138.099L40.7206 125.371C39.9395 124.59 38.6732 124.59 37.8921 125.371C37.1111 126.152 37.1111 127.418 37.8921 128.199L49.2059 139.513L37.8921 150.827C37.1111 151.608 37.1111 152.874 37.8921 153.655C38.6732 154.436 39.9395 154.436 40.7206 153.655L53.4485 140.927ZM2.9877 139.513L2.9877 141.513L52.0343 141.513L52.0343 139.513L52.0343 137.513L2.9877 137.513L2.9877 139.513Z" fill="black"/>
</svg>
