<svg width="325" height="168" viewBox="0 0 325 168" fill="none" xmlns="http://www.w3.org/2000/svg">
<rect x="41.4877" y="0.5" width="245.478" height="166.513" rx="15.5" fill="#EDEFEF" stroke="#DEDFDF"/>
<rect x="75.9192" y="26.4867" width="175.838" height="11.5082" rx="2" fill="#BFBFBF"/>
<rect x="75.9192" y="43.9949" width="175.838" height="11.5082" rx="2" fill="#BFBFBF"/>
<rect x="75.9192" y="61.5031" width="175.838" height="11.5082" rx="2" fill="#BFBFBF"/>
<rect x="55.9877" y="91.0442" width="215.701" height="28.1344" rx="4" fill="#4389F6"/>
<rect x="55.9877" y="125.008" width="215.701" height="28.1344" rx="4" fill="#BABABA"/>
<path d="M100.353 144.291C99.4768 144.291 98.7256 144.096 98.0993 143.707C97.473 143.313 96.9906 142.757 96.6521 142.037C96.3178 141.318 96.1506 140.471 96.1506 139.498V139.485C96.1506 138.504 96.3199 137.655 96.6584 136.94C97.0012 136.225 97.4857 135.673 98.112 135.283C98.7426 134.894 99.4895 134.699 100.353 134.699C101.22 134.699 101.967 134.894 102.593 135.283C103.224 135.673 103.709 136.227 104.047 136.946C104.386 137.662 104.555 138.508 104.555 139.485V139.498C104.555 140.471 104.386 141.318 104.047 142.037C103.713 142.752 103.23 143.307 102.6 143.7C101.974 144.094 101.224 144.291 100.353 144.291ZM100.353 143.237C100.979 143.237 101.519 143.082 101.971 142.773C102.424 142.465 102.773 142.031 103.019 141.472C103.264 140.909 103.387 140.251 103.387 139.498V139.485C103.387 138.724 103.264 138.064 103.019 137.505C102.773 136.946 102.424 136.515 101.971 136.21C101.519 135.905 100.979 135.753 100.353 135.753C99.7307 135.753 99.1932 135.905 98.7404 136.21C98.2876 136.515 97.9364 136.946 97.6867 137.505C97.4413 138.064 97.3186 138.724 97.3186 139.485V139.498C97.3186 140.251 97.4392 140.909 97.6804 141.472C97.9216 142.031 98.2686 142.465 98.7214 142.773C99.1742 143.082 99.718 143.237 100.353 143.237ZM106.396 146.36V137.232H107.5V138.324H107.602C107.741 138.07 107.917 137.854 108.129 137.676C108.34 137.494 108.581 137.355 108.852 137.257C109.123 137.16 109.417 137.111 109.735 137.111C110.314 137.111 110.818 137.26 111.245 137.556C111.677 137.848 112.011 138.258 112.248 138.787C112.485 139.316 112.604 139.936 112.604 140.647V140.66C112.604 141.375 112.485 141.997 112.248 142.526C112.011 143.055 111.677 143.465 111.245 143.757C110.818 144.049 110.314 144.195 109.735 144.195C109.421 144.195 109.125 144.147 108.846 144.049C108.571 143.948 108.325 143.808 108.11 143.63C107.898 143.453 107.729 143.241 107.602 142.996H107.5V146.36H106.396ZM109.481 143.218C109.9 143.218 110.257 143.116 110.553 142.913C110.85 142.706 111.076 142.412 111.233 142.031C111.393 141.646 111.474 141.189 111.474 140.66V140.647C111.474 140.114 111.393 139.657 111.233 139.276C111.076 138.895 110.85 138.603 110.553 138.4C110.257 138.193 109.9 138.089 109.481 138.089C109.066 138.089 108.708 138.193 108.408 138.4C108.107 138.607 107.877 138.901 107.716 139.282C107.555 139.663 107.475 140.118 107.475 140.647V140.66C107.475 141.184 107.555 141.639 107.716 142.024C107.877 142.405 108.107 142.699 108.408 142.907C108.708 143.114 109.066 143.218 109.481 143.218ZM117.123 144.195C116.472 144.195 115.911 144.051 115.441 143.764C114.976 143.476 114.616 143.07 114.362 142.545C114.112 142.016 113.988 141.394 113.988 140.679V140.672C113.988 139.966 114.112 139.346 114.362 138.813C114.616 138.279 114.974 137.863 115.435 137.562C115.896 137.262 116.436 137.111 117.053 137.111C117.676 137.111 118.209 137.255 118.653 137.543C119.102 137.831 119.444 138.233 119.681 138.749C119.923 139.261 120.043 139.858 120.043 140.539V140.971H114.559V140.088H119.478L118.932 140.895V140.457C118.932 139.919 118.852 139.477 118.691 139.13C118.53 138.783 118.308 138.525 118.025 138.356C117.741 138.182 117.415 138.095 117.047 138.095C116.679 138.095 116.349 138.186 116.057 138.368C115.769 138.546 115.541 138.81 115.371 139.162C115.202 139.513 115.117 139.945 115.117 140.457V140.895C115.117 141.381 115.2 141.798 115.365 142.145C115.53 142.488 115.765 142.752 116.07 142.939C116.374 143.121 116.734 143.211 117.149 143.211C117.458 143.211 117.726 143.169 117.955 143.085C118.183 143 118.372 142.892 118.52 142.761C118.668 142.63 118.772 142.496 118.831 142.361L118.856 142.304H119.961L119.948 142.355C119.889 142.587 119.783 142.814 119.631 143.034C119.482 143.25 119.29 143.446 119.053 143.624C118.816 143.798 118.535 143.937 118.209 144.043C117.887 144.145 117.525 144.195 117.123 144.195ZM121.757 144.075V137.232H122.862V138.26H122.963C123.137 137.896 123.386 137.615 123.712 137.416C124.038 137.213 124.453 137.111 124.956 137.111C125.726 137.111 126.317 137.331 126.727 137.772C127.142 138.207 127.349 138.832 127.349 139.644V144.075H126.245V139.911C126.245 139.293 126.114 138.836 125.851 138.54C125.593 138.239 125.191 138.089 124.645 138.089C124.281 138.089 123.966 138.167 123.699 138.324C123.433 138.48 123.225 138.703 123.077 138.99C122.933 139.278 122.862 139.623 122.862 140.025V144.075H121.757ZM136.147 144.291C135.479 144.291 134.895 144.183 134.395 143.967C133.9 143.747 133.507 143.446 133.215 143.065C132.927 142.68 132.76 142.24 132.713 141.745L132.707 141.675H133.849L133.856 141.745C133.885 142.05 134.002 142.314 134.205 142.539C134.412 142.759 134.687 142.93 135.03 143.053C135.377 143.176 135.771 143.237 136.211 143.237C136.625 143.237 136.994 143.171 137.315 143.04C137.641 142.905 137.897 142.718 138.083 142.482C138.269 142.245 138.363 141.972 138.363 141.663V141.656C138.363 141.275 138.223 140.956 137.944 140.698C137.664 140.435 137.209 140.234 136.579 140.095L135.563 139.873C134.645 139.669 133.976 139.356 133.557 138.933C133.143 138.506 132.935 137.96 132.935 137.295V137.289C132.94 136.781 133.077 136.333 133.348 135.943C133.623 135.554 134.002 135.249 134.484 135.029C134.971 134.809 135.529 134.699 136.16 134.699C136.769 134.699 137.309 134.809 137.779 135.029C138.248 135.245 138.621 135.537 138.896 135.905C139.175 136.273 139.329 136.686 139.359 137.143L139.365 137.232H138.223L138.21 137.149C138.168 136.879 138.058 136.64 137.88 136.432C137.702 136.221 137.465 136.053 137.169 135.931C136.873 135.808 136.526 135.749 136.128 135.753C135.747 135.753 135.405 135.812 135.1 135.931C134.795 136.049 134.552 136.221 134.37 136.445C134.192 136.665 134.103 136.936 134.103 137.257V137.264C134.103 137.628 134.239 137.934 134.509 138.184C134.78 138.434 135.227 138.626 135.849 138.762L136.864 138.99C137.503 139.13 138.018 139.312 138.407 139.536C138.796 139.76 139.08 140.036 139.258 140.361C139.44 140.683 139.53 141.064 139.53 141.504V141.51C139.53 142.082 139.391 142.575 139.112 142.989C138.832 143.404 138.439 143.726 137.931 143.954C137.423 144.178 136.829 144.291 136.147 144.291ZM141.879 146.474C141.807 146.474 141.727 146.47 141.638 146.461C141.549 146.457 141.467 146.449 141.39 146.436V145.528C141.458 145.541 141.532 145.55 141.613 145.554C141.693 145.558 141.771 145.56 141.847 145.56C142.161 145.56 142.417 145.48 142.615 145.319C142.819 145.158 142.981 144.881 143.104 144.487L143.231 144.081L140.698 137.232H141.879L143.987 143.554L143.549 142.862H144.069L143.631 143.554L145.732 137.232H146.894L144.221 144.494C144.035 145.006 143.838 145.406 143.631 145.693C143.424 145.981 143.18 146.182 142.901 146.296C142.626 146.415 142.285 146.474 141.879 146.474ZM150.512 144.195C150.004 144.195 149.556 144.119 149.166 143.967C148.777 143.81 148.464 143.592 148.227 143.313C147.994 143.034 147.856 142.706 147.814 142.329H148.944C149.037 142.613 149.219 142.841 149.49 143.015C149.761 143.188 150.114 143.275 150.55 143.275C150.859 143.275 151.13 143.231 151.363 143.142C151.599 143.049 151.786 142.924 151.921 142.767C152.057 142.606 152.124 142.422 152.124 142.215V142.202C152.124 141.969 152.031 141.773 151.845 141.612C151.659 141.447 151.354 141.314 150.931 141.212L149.871 140.958C149.443 140.857 149.092 140.725 148.817 140.565C148.542 140.399 148.339 140.198 148.208 139.961C148.077 139.72 148.011 139.437 148.011 139.111V139.105C148.011 138.724 148.121 138.383 148.341 138.083C148.565 137.782 148.87 137.545 149.255 137.372C149.64 137.198 150.074 137.111 150.556 137.111C151.035 137.111 151.458 137.188 151.826 137.34C152.198 137.488 152.497 137.7 152.721 137.975C152.949 138.25 153.089 138.573 153.14 138.946H152.054C151.982 138.675 151.817 138.455 151.559 138.286C151.301 138.116 150.965 138.032 150.55 138.032C150.279 138.032 150.038 138.076 149.826 138.165C149.615 138.25 149.448 138.368 149.325 138.521C149.202 138.673 149.141 138.851 149.141 139.054V139.066C149.141 139.219 149.181 139.354 149.261 139.473C149.342 139.591 149.467 139.695 149.636 139.784C149.805 139.873 150.023 139.951 150.29 140.019L151.343 140.273C151.987 140.429 152.465 140.653 152.778 140.945C153.095 141.237 153.254 141.629 153.254 142.12V142.132C153.254 142.539 153.134 142.898 152.892 143.211C152.651 143.52 152.323 143.762 151.908 143.935C151.498 144.109 151.032 144.195 150.512 144.195ZM157.336 144.126C156.633 144.126 156.123 143.984 155.806 143.7C155.493 143.417 155.336 142.949 155.336 142.297V138.146H154.257V137.232H155.336V135.461H156.479V137.232H157.977V138.146H156.479V142.018C156.479 142.42 156.555 142.71 156.707 142.888C156.86 143.061 157.113 143.148 157.469 143.148C157.566 143.148 157.649 143.146 157.717 143.142C157.788 143.137 157.875 143.131 157.977 143.123V144.062C157.871 144.079 157.765 144.094 157.659 144.107C157.554 144.119 157.446 144.126 157.336 144.126ZM162.331 144.195C161.68 144.195 161.119 144.051 160.649 143.764C160.184 143.476 159.824 143.07 159.57 142.545C159.32 142.016 159.196 141.394 159.196 140.679V140.672C159.196 139.966 159.32 139.346 159.57 138.813C159.824 138.279 160.182 137.863 160.643 137.562C161.104 137.262 161.644 137.111 162.261 137.111C162.884 137.111 163.417 137.255 163.861 137.543C164.31 137.831 164.652 138.233 164.889 138.749C165.131 139.261 165.251 139.858 165.251 140.539V140.971H159.767V140.088H164.686L164.14 140.895V140.457C164.14 139.919 164.06 139.477 163.899 139.13C163.738 138.783 163.516 138.525 163.233 138.356C162.949 138.182 162.623 138.095 162.255 138.095C161.887 138.095 161.557 138.186 161.265 138.368C160.977 138.546 160.749 138.81 160.579 139.162C160.41 139.513 160.325 139.945 160.325 140.457V140.895C160.325 141.381 160.408 141.798 160.573 142.145C160.738 142.488 160.973 142.752 161.278 142.939C161.582 143.121 161.942 143.211 162.357 143.211C162.666 143.211 162.934 143.169 163.163 143.085C163.391 143 163.58 142.892 163.728 142.761C163.876 142.63 163.98 142.496 164.039 142.361L164.064 142.304H165.169L165.156 142.355C165.097 142.587 164.991 142.814 164.839 143.034C164.69 143.25 164.498 143.446 164.261 143.624C164.024 143.798 163.743 143.937 163.417 144.043C163.095 144.145 162.733 144.195 162.331 144.195ZM166.965 144.075V137.232H168.07V138.273H168.171C168.323 137.905 168.556 137.619 168.869 137.416C169.187 137.213 169.57 137.111 170.018 137.111C170.327 137.111 170.604 137.162 170.85 137.264C171.095 137.365 171.307 137.507 171.485 137.689C171.662 137.867 171.804 138.074 171.91 138.311H172.011C172.134 138.07 172.299 137.86 172.507 137.683C172.714 137.501 172.953 137.361 173.224 137.264C173.499 137.162 173.793 137.111 174.106 137.111C174.572 137.111 174.965 137.198 175.287 137.372C175.613 137.545 175.86 137.799 176.03 138.133C176.199 138.463 176.283 138.868 176.283 139.346V144.075H175.179V139.6C175.179 139.261 175.126 138.982 175.02 138.762C174.919 138.537 174.762 138.37 174.551 138.26C174.339 138.146 174.072 138.089 173.751 138.089C173.433 138.089 173.156 138.161 172.919 138.305C172.682 138.449 172.498 138.641 172.367 138.882C172.236 139.119 172.17 139.384 172.17 139.676V144.075H171.066V139.428C171.066 139.157 171.006 138.923 170.888 138.724C170.774 138.521 170.609 138.364 170.393 138.254C170.181 138.144 169.932 138.089 169.644 138.089C169.348 138.089 169.079 138.167 168.838 138.324C168.601 138.48 168.412 138.692 168.273 138.959C168.137 139.221 168.07 139.513 168.07 139.835V144.075H166.965ZM185.075 144.291C184.406 144.291 183.822 144.183 183.323 143.967C182.828 143.747 182.434 143.446 182.142 143.065C181.855 142.68 181.687 142.24 181.641 141.745L181.634 141.675H182.777L182.783 141.745C182.813 142.05 182.929 142.314 183.133 142.539C183.34 142.759 183.615 142.93 183.958 143.053C184.305 143.176 184.698 143.237 185.138 143.237C185.553 143.237 185.921 143.171 186.243 143.04C186.569 142.905 186.825 142.718 187.011 142.482C187.197 142.245 187.29 141.972 187.29 141.663V141.656C187.29 141.275 187.151 140.956 186.871 140.698C186.592 140.435 186.137 140.234 185.507 140.095L184.491 139.873C183.573 139.669 182.904 139.356 182.485 138.933C182.07 138.506 181.863 137.96 181.863 137.295V137.289C181.867 136.781 182.005 136.333 182.276 135.943C182.551 135.554 182.929 135.249 183.412 135.029C183.898 134.809 184.457 134.699 185.088 134.699C185.697 134.699 186.237 134.809 186.706 135.029C187.176 135.245 187.548 135.537 187.823 135.905C188.103 136.273 188.257 136.686 188.287 137.143L188.293 137.232H187.151L187.138 137.149C187.096 136.879 186.986 136.64 186.808 136.432C186.63 136.221 186.393 136.053 186.097 135.931C185.801 135.808 185.454 135.749 185.056 135.753C184.675 135.753 184.332 135.812 184.028 135.931C183.723 136.049 183.48 136.221 183.298 136.445C183.12 136.665 183.031 136.936 183.031 137.257V137.264C183.031 137.628 183.166 137.934 183.437 138.184C183.708 138.434 184.155 138.626 184.777 138.762L185.792 138.99C186.431 139.13 186.945 139.312 187.335 139.536C187.724 139.76 188.008 140.036 188.185 140.361C188.367 140.683 188.458 141.064 188.458 141.504V141.51C188.458 142.082 188.319 142.575 188.039 142.989C187.76 143.404 187.366 143.726 186.859 143.954C186.351 144.178 185.756 144.291 185.075 144.291ZM193.016 144.195C192.364 144.195 191.803 144.051 191.334 143.764C190.868 143.476 190.509 143.07 190.255 142.545C190.005 142.016 189.88 141.394 189.88 140.679V140.672C189.88 139.966 190.005 139.346 190.255 138.813C190.509 138.279 190.866 137.863 191.327 137.562C191.789 137.262 192.328 137.111 192.946 137.111C193.568 137.111 194.101 137.255 194.546 137.543C194.994 137.831 195.337 138.233 195.574 138.749C195.815 139.261 195.936 139.858 195.936 140.539V140.971H190.451V140.088H195.371L194.825 140.895V140.457C194.825 139.919 194.745 139.477 194.584 139.13C194.423 138.783 194.201 138.525 193.917 138.356C193.634 138.182 193.308 138.095 192.94 138.095C192.572 138.095 192.241 138.186 191.949 138.368C191.662 138.546 191.433 138.81 191.264 139.162C191.095 139.513 191.01 139.945 191.01 140.457V140.895C191.01 141.381 191.092 141.798 191.258 142.145C191.423 142.488 191.657 142.752 191.962 142.939C192.267 143.121 192.627 143.211 193.041 143.211C193.35 143.211 193.619 143.169 193.847 143.085C194.076 143 194.264 142.892 194.412 142.761C194.56 142.63 194.664 142.496 194.723 142.361L194.749 142.304H195.853L195.841 142.355C195.781 142.587 195.676 142.814 195.523 143.034C195.375 143.25 195.183 143.446 194.946 143.624C194.709 143.798 194.427 143.937 194.101 144.043C193.78 144.145 193.418 144.195 193.016 144.195ZM200.081 144.126C199.378 144.126 198.868 143.984 198.551 143.7C198.238 143.417 198.081 142.949 198.081 142.297V138.146H197.002V137.232H198.081V135.461H199.224V137.232H200.722V138.146H199.224V142.018C199.224 142.42 199.3 142.71 199.452 142.888C199.605 143.061 199.859 143.148 200.214 143.148C200.311 143.148 200.394 143.146 200.462 143.142C200.534 143.137 200.62 143.131 200.722 143.123V144.062C200.616 144.079 200.51 144.094 200.405 144.107C200.299 144.119 200.191 144.126 200.081 144.126ZM204.803 144.126C204.101 144.126 203.591 143.984 203.274 143.7C202.961 143.417 202.804 142.949 202.804 142.297V138.146H201.725V137.232H202.804V135.461H203.947V137.232H205.445V138.146H203.947V142.018C203.947 142.42 204.023 142.71 204.175 142.888C204.327 143.061 204.581 143.148 204.937 143.148C205.034 143.148 205.117 143.146 205.184 143.142C205.256 143.137 205.343 143.131 205.445 143.123V144.062C205.339 144.079 205.233 144.094 205.127 144.107C205.021 144.119 204.913 144.126 204.803 144.126ZM207.12 144.075V137.232H208.225V144.075H207.12ZM207.679 135.912C207.472 135.912 207.292 135.838 207.139 135.69C206.991 135.537 206.917 135.357 206.917 135.15C206.917 134.938 206.991 134.759 207.139 134.61C207.292 134.462 207.472 134.388 207.679 134.388C207.891 134.388 208.07 134.462 208.218 134.61C208.367 134.759 208.441 134.938 208.441 135.15C208.441 135.357 208.367 135.537 208.218 135.69C208.07 135.838 207.891 135.912 207.679 135.912ZM210.307 144.075V137.232H211.411V138.26H211.513C211.686 137.896 211.936 137.615 212.262 137.416C212.588 137.213 213.002 137.111 213.506 137.111C214.276 137.111 214.867 137.331 215.277 137.772C215.692 138.207 215.899 138.832 215.899 139.644V144.075H214.795V139.911C214.795 139.293 214.663 138.836 214.401 138.54C214.143 138.239 213.741 138.089 213.195 138.089C212.831 138.089 212.516 138.167 212.249 138.324C211.983 138.48 211.775 138.703 211.627 138.99C211.483 139.278 211.411 139.623 211.411 140.025V144.075H210.307ZM220.717 146.487C220.167 146.487 219.687 146.409 219.276 146.252C218.866 146.1 218.538 145.882 218.292 145.598C218.051 145.319 217.901 144.993 217.842 144.621L217.854 144.614H218.997L219.003 144.621C219.062 144.879 219.24 145.09 219.536 145.255C219.833 145.425 220.226 145.509 220.717 145.509C221.331 145.509 221.809 145.37 222.152 145.09C222.499 144.815 222.672 144.426 222.672 143.922V142.539H222.571C222.427 142.788 222.247 143.002 222.031 143.18C221.815 143.357 221.572 143.493 221.301 143.586C221.03 143.675 220.738 143.719 220.425 143.719C219.837 143.719 219.327 143.58 218.895 143.3C218.468 143.017 218.138 142.628 217.905 142.132C217.672 141.637 217.556 141.07 217.556 140.431V140.419C217.556 139.78 217.672 139.212 217.905 138.717C218.142 138.218 218.476 137.827 218.908 137.543C219.34 137.255 219.854 137.111 220.45 137.111C220.772 137.111 221.068 137.162 221.339 137.264C221.61 137.365 221.849 137.509 222.056 137.695C222.268 137.882 222.444 138.104 222.583 138.362H222.659V137.232H223.764V143.98C223.764 144.487 223.639 144.93 223.389 145.306C223.144 145.683 222.793 145.973 222.336 146.176C221.879 146.383 221.339 146.487 220.717 146.487ZM220.666 142.742C221.089 142.742 221.451 142.644 221.752 142.45C222.056 142.251 222.289 141.978 222.45 141.631C222.615 141.284 222.697 140.884 222.697 140.431V140.419C222.697 139.966 222.615 139.564 222.45 139.212C222.289 138.861 222.056 138.586 221.752 138.387C221.451 138.188 221.089 138.089 220.666 138.089C220.243 138.089 219.883 138.188 219.587 138.387C219.295 138.586 219.071 138.861 218.914 139.212C218.762 139.564 218.686 139.966 218.686 140.419V140.431C218.686 140.884 218.762 141.284 218.914 141.631C219.071 141.978 219.295 142.251 219.587 142.45C219.883 142.644 220.243 142.742 220.666 142.742ZM228.169 144.195C227.661 144.195 227.213 144.119 226.823 143.967C226.434 143.81 226.121 143.592 225.884 143.313C225.651 143.034 225.514 142.706 225.471 142.329H226.601C226.694 142.613 226.876 142.841 227.147 143.015C227.418 143.188 227.771 143.275 228.207 143.275C228.516 143.275 228.787 143.231 229.02 143.142C229.257 143.049 229.443 142.924 229.578 142.767C229.714 142.606 229.781 142.422 229.781 142.215V142.202C229.781 141.969 229.688 141.773 229.502 141.612C229.316 141.447 229.011 141.314 228.588 141.212L227.528 140.958C227.101 140.857 226.749 140.725 226.474 140.565C226.199 140.399 225.996 140.198 225.865 139.961C225.734 139.72 225.668 139.437 225.668 139.111V139.105C225.668 138.724 225.778 138.383 225.998 138.083C226.223 137.782 226.527 137.545 226.912 137.372C227.297 137.198 227.731 137.111 228.214 137.111C228.692 137.111 229.115 137.188 229.483 137.34C229.856 137.488 230.154 137.7 230.378 137.975C230.607 138.25 230.746 138.573 230.797 138.946H229.712C229.64 138.675 229.475 138.455 229.217 138.286C228.958 138.116 228.622 138.032 228.207 138.032C227.936 138.032 227.695 138.076 227.484 138.165C227.272 138.25 227.105 138.368 226.982 138.521C226.859 138.673 226.798 138.851 226.798 139.054V139.066C226.798 139.219 226.838 139.354 226.919 139.473C226.999 139.591 227.124 139.695 227.293 139.784C227.462 139.873 227.68 139.951 227.947 140.019L229.001 140.273C229.644 140.429 230.122 140.653 230.435 140.945C230.753 141.237 230.911 141.629 230.911 142.12V142.132C230.911 142.539 230.791 142.898 230.55 143.211C230.308 143.52 229.98 143.762 229.566 143.935C229.155 144.109 228.69 144.195 228.169 144.195Z" fill="black"/>
<path d="M2.9877 137.513C1.88313 137.513 0.987702 138.408 0.987701 139.513C0.987701 140.618 1.88313 141.513 2.9877 141.513L2.9877 139.513L2.9877 137.513ZM53.4485 140.927C54.2295 140.146 54.2295 138.88 53.4485 138.099L40.7206 125.371C39.9395 124.59 38.6732 124.59 37.8921 125.371C37.1111 126.152 37.1111 127.418 37.8921 128.199L49.2059 139.513L37.8921 150.827C37.1111 151.608 37.1111 152.874 37.8921 153.655C38.6732 154.436 39.9395 154.436 40.7206 153.655L53.4485 140.927ZM2.9877 139.513L2.9877 141.513L52.0343 141.513L52.0343 139.513L52.0343 137.513L2.9877 137.513L2.9877 139.513Z" fill="black"/>
</svg>
