<svg width="24" height="25" viewBox="0 0 24 25" fill="none" xmlns="http://www.w3.org/2000/svg">
<path d="M12.025 23.9888L8.65002 20.7138H4.00002V16.0638L0.650024 12.7138L4.00002 9.36377V4.71377H8.65002L12.025 1.36377L15.35 4.71377H20V9.36377L23.35 12.7138L20 16.0638V20.7138H15.35L12.025 23.9888ZM12.025 19.2138C13.825 19.2138 15.3542 18.5804 16.6125 17.3138C17.8709 16.0471 18.5 14.5054 18.5 12.6888C18.5 10.8888 17.8709 9.3596 16.6125 8.10127C15.3542 6.84294 13.825 6.21377 12.025 6.21377V19.2138ZM12.025 21.8888L14.725 19.2138H18.5V15.4388L21.225 12.7138L18.5 9.98877V6.21377H14.725L12.025 3.48877L9.27502 6.21377H5.50002V9.98877L2.77502 12.7138L5.50002 15.4388V19.2138H9.25002L12.025 21.8888Z" fill="#012D2D"/>
</svg>
