<svg width="24" height="25" viewBox="0 0 24 25" fill="none" xmlns="http://www.w3.org/2000/svg">
<path d="M18 21.5708H7V8.5708L14 1.5708L15.25 2.8208C15.3667 2.93747 15.4625 3.0958 15.5375 3.2958C15.6125 3.4958 15.65 3.68747 15.65 3.8708V4.2208L14.55 8.5708H21C21.5333 8.5708 22 8.7708 22.4 9.1708C22.8 9.5708 23 10.0375 23 10.5708V12.5708C23 12.6875 22.9833 12.8125 22.95 12.9458C22.9167 13.0791 22.8833 13.2041 22.85 13.3208L19.85 20.3708C19.7 20.7041 19.45 20.9875 19.1 21.2208C18.75 21.4541 18.3833 21.5708 18 21.5708ZM9 19.5708H18L21 12.5708V10.5708H12L13.35 5.0708L9 9.4208V19.5708ZM7 8.5708V10.5708H4V19.5708H7V21.5708H2V8.5708H7Z" fill="#040404"/>
</svg>
