<svg width="24" height="25" viewBox="0 0 24 25" fill="none" xmlns="http://www.w3.org/2000/svg">
<g clip-path="url(#clip0_142_17352)">
<path d="M12.87 15.9269L10.33 13.4169L10.36 13.3869C12.1 11.4469 13.34 9.21693 14.07 6.85693H17V4.85693H10V2.85693H8V4.85693H1V6.84693H12.17C11.5 8.77693 10.44 10.6069 9 12.2069C8.07 11.1769 7.3 10.0469 6.69 8.85693H4.69C5.42 10.4869 6.42 12.0269 7.67 13.4169L2.58 18.4369L4 19.8569L9 14.8569L12.11 17.9669L12.87 15.9269ZM18.5 10.8569H16.5L12 22.8569H14L15.12 19.8569H19.87L21 22.8569H23L18.5 10.8569ZM15.88 17.8569L17.5 13.5269L19.12 17.8569H15.88Z" fill="#040404"/>
</g>
<defs>
<clipPath id="clip0_142_17352">
<rect width="24" height="24" fill="white" transform="translate(0 0.856934)"/>
</clipPath>
</defs>
</svg>
