<svg width="24" height="25" viewBox="0 0 24 25" fill="none" xmlns="http://www.w3.org/2000/svg">
<g clip-path="url(#clip0_152_17378)">
<path d="M21 10.2611H14.22L16.96 7.44111C14.23 4.74111 9.81 4.64111 7.08 7.34111C4.35 10.0511 4.35 14.4211 7.08 17.1311C9.81 19.8411 14.23 19.8411 16.96 17.1311C18.32 15.7911 19 14.2211 19 12.2411H21C21 14.2211 20.12 16.7911 18.36 18.5311C14.85 22.0111 9.15 22.0111 5.64 18.5311C2.14 15.0611 2.11 9.42111 5.62 5.95111C9.13 2.48111 14.76 2.48111 18.27 5.95111L21 3.14111V10.2611ZM12.5 8.14111V12.3911L16 14.4711L15.28 15.6811L11 13.1411V8.14111H12.5Z" fill="#040404"/>
</g>
<defs>
<clipPath id="clip0_152_17378">
<rect width="24" height="24" fill="white" transform="translate(0 0.141113)"/>
</clipPath>
</defs>
</svg>
