<svg width="24" height="24" viewBox="0 0 24 24" fill="none" xmlns="http://www.w3.org/2000/svg">
<path d="M4.47 20.5037H19.53C21.07 20.5037 22.03 18.8337 21.26 17.5037L13.73 4.49375C12.96 3.16375 11.04 3.16375 10.27 4.49375L2.74 17.5037C1.97 18.8337 2.93 20.5037 4.47 20.5037ZM12 13.5037C11.45 13.5037 11 13.0537 11 12.5037V10.5037C11 9.95375 11.45 9.50375 12 9.50375C12.55 9.50375 13 9.95375 13 10.5037V12.5037C13 13.0537 12.55 13.5037 12 13.5037ZM13 17.5037H11V15.5037H13V17.5037Z" fill="#1B1C1D"/>
</svg>
