<svg width="25" height="25" viewBox="0 0 25 25" fill="none" xmlns="http://www.w3.org/2000/svg">
<g clip-path="url(#clip0_62_6659)">
<path d="M24.7 24.9L11.9256 23.1019V13.7063H24.7V24.9Z" fill="#1B1C1D"/>
<path d="M24.7 12.0956H11.9087V11.8744C11.9087 8.9094 11.9087 5.94502 11.9087 2.98127C11.9087 2.79377 11.965 2.74315 12.1431 2.7169C14.0443 2.4469 15.9437 2.16565 17.8431 1.89002L24.4525 0.933774L24.7 0.900024V12.0956Z" fill="#1B1C1D"/>
<path d="M10.2944 22.9013L9.00998 22.7251L5.38748 22.2301L2.13623 21.782C1.70873 21.722 1.27936 21.662 0.851857 21.6095C0.737482 21.5963 0.699982 21.5513 0.699982 21.4332C0.699982 18.8907 0.699982 16.347 0.699982 13.802C0.699982 13.7757 0.699982 13.7495 0.709357 13.7101H10.2906L10.2944 22.9013Z" fill="#1B1C1D"/>
<path d="M10.2962 2.9906V12.0937H0.718719V4.29185L10.2962 2.9906Z" fill="#1B1C1D"/>
</g>
<defs>
<clipPath id="clip0_62_6659">
<rect width="24" height="24" fill="white" transform="translate(0.699982 0.900024)"/>
</clipPath>
</defs>
</svg>
