<svg width="24" height="25" viewBox="0 0 24 25" fill="none" xmlns="http://www.w3.org/2000/svg">
<path d="M22.46 6.14285C21.69 6.49285 20.86 6.72285 20 6.83285C20.88 6.30285 21.56 5.46285 21.88 4.45285C21.05 4.95285 20.13 5.30285 19.16 5.50285C18.37 4.64285 17.26 4.14285 16 4.14285C13.65 4.14285 11.73 6.06285 11.73 8.43285C11.73 8.77285 11.77 9.10285 11.84 9.41285C8.28001 9.23285 5.11001 7.52285 3.00001 4.93285C2.63001 5.56285 2.42001 6.30285 2.42001 7.08285C2.42001 8.57285 3.17001 9.89285 4.33001 10.6429C3.62001 10.6429 2.96001 10.4429 2.38001 10.1429C2.38001 10.1429 2.38001 10.1429 2.38001 10.1729C2.38001 12.2529 3.86001 13.9929 5.82001 14.3829C5.46001 14.4829 5.08001 14.5329 4.69001 14.5329C4.42001 14.5329 4.15001 14.5029 3.89001 14.4529C4.43001 16.1429 6.00001 17.4029 7.89001 17.4329C6.43001 18.5929 4.58001 19.2729 2.56001 19.2729C2.22001 19.2729 1.88001 19.2529 1.54001 19.2129C3.44001 20.4329 5.70001 21.1429 8.12001 21.1429C16 21.1429 20.33 14.6029 20.33 8.93285C20.33 8.74285 20.33 8.56285 20.32 8.37285C21.16 7.77285 21.88 7.01285 22.46 6.14285Z" fill="black"/>
</svg>
