<?xml version="1.0" encoding="utf-8"?>
<!-- Generator: Adobe Illustrator 19.0.1, SVG Export Plug-In . SVG Version: 6.00 Build 0)  -->
<svg version="1.1" id="Layer_1" xmlns="http://www.w3.org/2000/svg" xmlns:xlink="http://www.w3.org/1999/xlink" x="0px" y="0px"
	 viewBox="0 0 374.7 30.3" style="enable-background:new 0 0 374.7 30.3;" xml:space="preserve">
<style type="text/css">
	.st0{opacity:0.87;}
	.st1{fill:#010101;}
</style>
<g>
	<path class="st1" d="M24.6,4.1h1v19h-1v-7.9c-1.2,1.2-2.5,2.5-3.6,3.5l-0.6-0.8c1-0.9,2.6-2.4,4.2-3.9V4.1z M23.5,11.1
		c-0.5-1-1.8-2.6-2.9-3.6l0.7-0.5c1.2,1,2.5,2.5,3,3.5L23.5,11.1z M39.2,15.3h-2.7v6.4c0,0.7-0.2,1-0.7,1.2s-1.6,0.2-3.3,0.2
		c0-0.3-0.2-0.7-0.4-1c1.4,0,2.6,0,2.9,0c0.4,0,0.4-0.1,0.4-0.4v-6.4h-8.8v-1h8.8v-2.9h1v2.9h2.7V15.3z M31.7,6.7
		c-1.2,1-2.6,1.9-4.1,2.6c-0.1-0.2-0.4-0.5-0.7-0.6c2.5-1.1,4.8-2.8,5.9-4.6l1,0.3c-0.3,0.5-0.7,0.9-1.2,1.4h5.1l0.2,0l0.6,0.4
		c-2,4.1-6.7,6.4-11.1,7.4c-0.1-0.3-0.3-0.6-0.5-0.8c1.8-0.4,3.6-1,5.3-1.8c-0.5-0.7-1.4-1.7-2.2-2.3L31,8.1
		c0.8,0.7,1.8,1.6,2.3,2.3c1.7-1,3.1-2.2,4-3.7H31.7z M29.3,16.3c1.2,1.1,2.4,2.7,3,3.7l-0.9,0.5c-0.5-1.1-1.8-2.7-2.9-3.8
		L29.3,16.3z"/>
	<path class="st1" d="M47.8,15.9c-0.3-0.6-1.2-2.1-1.9-3v10.3h-0.9V13.1c-0.8,2.3-2,4.7-3,6.1c-0.1-0.3-0.4-0.7-0.6-0.9
		c1.3-1.6,2.7-4.6,3.5-7.2h-3.1v-1h3.3V6.2c-0.9,0.2-1.9,0.4-2.8,0.5c-0.1-0.2-0.2-0.5-0.4-0.8c2.1-0.4,4.5-1,5.8-1.6l0.7,0.8
		c-0.7,0.3-1.6,0.6-2.5,0.9v4.2h2.7v1h-2.7v0.6c0.5,0.6,2.2,2.8,2.5,3.4L47.8,15.9z M60.4,13.9c-1.9,5.5-6.8,8.2-11.8,9.3
		c-0.1-0.3-0.3-0.7-0.5-0.9c2.5-0.5,4.9-1.4,7-2.8c-0.7-0.7-1.7-1.6-2.7-2.3l0.8-0.5c0.9,0.6,2,1.5,2.7,2.2c1.4-1.2,2.6-2.6,3.3-4.4
		h-4.7c-1.2,1.3-2.8,2.5-4.8,3.4c-0.1-0.2-0.4-0.5-0.7-0.7c3.2-1.5,5.5-3.7,6.5-5.6l1.1,0.2c-0.4,0.6-0.8,1.2-1.3,1.8h4.3l0.2,0
		L60.4,13.9z M52.8,7.1c-1,0.9-2.1,1.7-3.5,2.5c-0.2-0.2-0.5-0.6-0.7-0.7c2.6-1.3,4.5-3.2,5.4-4.8l1.1,0.2c-0.4,0.6-0.9,1.3-1.4,1.9
		h4.6v0l0.1-0.1L59,6.5c-1.8,3.8-5.9,6-10,7c-0.1-0.3-0.4-0.6-0.5-0.8c1.7-0.4,3.5-1,5.1-2C53,10.2,52.1,9.5,51.3,9L52,8.5
		c0.8,0.5,1.8,1.2,2.4,1.8c1.3-0.9,2.5-2,3.3-3.2H52.8z"/>
	<path class="st1" d="M71.1,20.3c-0.1-0.5-0.3-1-0.5-1.6c-6.2,1.3-6.8,1.4-7.2,1.7v0c-0.1-0.2-0.2-0.8-0.4-1
		c0.3-0.1,0.6-0.7,0.9-1.5c0.3-0.7,1.3-3.4,1.9-6h-3.1v-0.9h9.2v0.9h-5c-0.6,2.5-1.5,5.1-2.4,7.1l5.8-1.2c-0.4-1.2-0.9-2.5-1.4-3.6
		l0.9-0.2c0.8,1.9,1.8,4.5,2.2,6L71.1,20.3z M71.5,6.8h-8V5.9h8V6.8z M81.2,9.7c-0.3,8.7-0.6,11.6-1.3,12.5
		c-0.4,0.5-0.8,0.6-1.4,0.7c-0.6,0-1.8,0-3-0.1c0-0.3-0.1-0.7-0.3-1c1.3,0.1,2.5,0.1,2.9,0.1c0.4,0,0.7,0,0.8-0.3
		c0.6-0.7,0.9-3.5,1.2-11.5h-3.7c-0.3,5.1-1.2,10.1-4.3,13c-0.1-0.2-0.5-0.5-0.8-0.7c3-2.7,3.9-7.5,4.2-12.3h-3.3v-1h3.4
		c0.1-1.6,0.1-3.1,0.1-4.6h1c0,1.5,0,3.1-0.1,4.6h4.7V9.7z"/>
	<path class="st1" d="M85.8,12.9c0,0.5,0,1,0,1.6h4.4v8.7h-0.9v-7.7h-3.5c-0.1,2.8-0.5,5.5-1.8,7.8c-0.2-0.1-0.5-0.4-0.8-0.6
		c1.5-2.7,1.7-6.4,1.7-9.6V4.5h1V10h2.7V4h0.9v6h2.1V11h-5.8V12.9z M101.8,10.5c-0.6,3.6-1.7,6.4-3.3,8.5c1.1,1.4,2.4,2.5,4,3.2
		c-0.2,0.2-0.5,0.6-0.7,0.8c-1.6-0.7-2.9-1.8-3.9-3.2c-1.2,1.4-2.6,2.5-4.2,3.2c-0.1-0.2-0.4-0.6-0.6-0.8c1.5-0.7,3-1.8,4.2-3.3
		c-1.3-2.1-2.2-4.7-2.8-7.7h-0.8v1.6c0,3.5-0.3,7.3-2,10.2c-0.2-0.1-0.6-0.4-0.8-0.6c1.6-2.8,1.8-6.4,1.8-9.6V5.6
		c3.1-0.3,6.7-0.8,8.7-1.3l0.8,0.8c-2.2,0.6-5.5,1-8.5,1.3v4h7.3l0.2,0L101.8,10.5z M95.3,11.3c0.5,2.6,1.4,5,2.6,6.9
		c1.3-1.8,2.3-4.1,2.8-6.9H95.3z"/>
	<path class="st1" d="M105.7,6.3h1.3v14.2h7v1.1h-8.2V6.3z"/>
	<path class="st1" d="M115.7,18.8c0-2.5,2.2-3.7,7.1-4.2c0-1.7-0.4-3.4-2.6-3.4c-1.5,0-2.8,0.7-3.5,1.3l-0.5-0.9
		c0.9-0.6,2.4-1.5,4.2-1.5c2.7,0,3.6,1.9,3.6,4.4v7.1h-1l-0.1-1.4h0c-1.1,0.9-2.5,1.7-3.9,1.7C117.2,21.8,115.7,20.8,115.7,18.8z
		 M122.9,19.1v-3.6c-4.4,0.5-5.9,1.5-5.9,3.3c0,1.5,1.1,2.1,2.3,2.1S121.5,20.2,122.9,19.1z"/>
	<path class="st1" d="M128,10.4h1l0.1,1.7h0c1.1-1.1,2.3-2,3.8-2c2.3,0,3.4,1.4,3.4,4.3v7.2h-1.2v-7c0-2.3-0.7-3.4-2.5-3.4
		c-1.3,0-2.2,0.7-3.5,2v8.4H128V10.4z"/>
	<path class="st1" d="M140.7,18.4v-7H139v-0.9l1.8-0.1l0.1-3.2h1v3.2h3.2v1h-3.2v7.1c0,1.4,0.4,2.3,1.9,2.3c0.4,0,1-0.1,1.4-0.3
		l0.3,0.9c-0.7,0.2-1.4,0.4-1.9,0.4C141.4,21.8,140.7,20.5,140.7,18.4z"/>
	<path class="st1" d="M146.6,16c0-3.6,2.4-5.9,4.9-5.9c2.7,0,4.3,1.9,4.3,5.2c0,0.3,0,0.6-0.1,0.9h-7.9c0.1,2.7,1.7,4.6,4.1,4.6
		c1.2,0,2.1-0.4,3-1l0.5,0.9c-0.9,0.6-2,1.1-3.6,1.1C149,21.8,146.6,19.7,146.6,16z M154.8,15.2c0-2.7-1.2-4.1-3.2-4.1
		c-1.8,0-3.5,1.5-3.7,4.1H154.8z"/>
	<path class="st1" d="M158.9,10.4h1l0.1,2.1h0c0.8-1.4,1.9-2.4,3.2-2.4c0.4,0,0.8,0.1,1.1,0.3l-0.3,1.1c-0.4-0.1-0.6-0.2-1-0.2
		c-1,0-2.2,0.7-3,2.8v7.5h-1.2V10.4z"/>
	<path class="st1" d="M166.4,10.4h1l0.1,1.7h0c1.1-1.1,2.3-2,3.8-2c2.3,0,3.4,1.4,3.4,4.3v7.2h-1.2v-7c0-2.3-0.7-3.4-2.5-3.4
		c-1.3,0-2.2,0.7-3.5,2v8.4h-1.2V10.4z"/>
	<path class="st1" d="M184.8,4.9c-1.4,3.5-3.6,6.4-6.1,8.4c-0.2-0.2-0.6-0.6-0.9-0.7c2.5-1.8,4.7-4.7,6-8L184.8,4.9z M193.7,12.1
		c0,0,0,0.4,0,0.5c-0.4,6.5-0.7,8.9-1.4,9.7c-0.4,0.4-0.8,0.5-1.5,0.5c-0.7,0-2,0-3.4-0.1c0-0.3-0.1-0.7-0.4-1
		c1.5,0.1,2.9,0.2,3.4,0.2c0.5,0,0.7,0,0.9-0.3c0.6-0.6,0.9-2.8,1.3-8.6h-6.5c-0.6,4.2-2,8.2-7.2,10c-0.1-0.2-0.4-0.6-0.6-0.8
		c5.1-1.7,6.3-5.4,6.8-9.2h-4.4v-1H193.7z M190.7,4.5c1.3,2.9,3.9,6.2,6.1,7.7c-0.3,0.2-0.6,0.5-0.8,0.8c-2.2-1.7-4.7-5.1-6.2-8.2
		L190.7,4.5z"/>
	<path class="st1" d="M217.6,18.9h-8.8v3c0,0.7-0.2,0.9-0.8,1.1c-0.6,0.2-1.7,0.1-3.6,0.1c-0.1-0.3-0.2-0.6-0.4-0.9
		c1.6,0,2.9,0,3.2,0c0.4,0,0.5-0.1,0.5-0.4v-3H199V18h8.7v-1.5c1.7-0.3,3.7-0.9,5.2-1.5h-12v-0.9h13.6l0.3-0.1l0.7,0.6
		c-1.8,1-4.4,1.9-6.8,2.5V18h8.8V18.9z M217.3,7h-18.2V6.1h8.9c-0.3-0.6-0.6-1.3-1-1.9l1-0.2c0.4,0.7,0.8,1.5,1.1,2.1h8.1V7z
		 M201.9,12.6v-4h12.8v4H201.9z M202.9,11.7h10.8V9.4h-10.8V11.7z"/>
	<path class="st1" d="M226.5,15.2c0,0.3,0,0.7,0,0.9c-5.4,1.1-6,1.3-6.3,1.5c-0.1-0.2-0.2-0.7-0.4-1c0.4-0.1,0.9-0.6,1.6-1.4
		c0.4-0.5,1.4-1.7,2.5-3.2c-3,0.4-3.5,0.5-3.8,0.7c0-0.2-0.2-0.8-0.3-1c0.3-0.1,0.7-0.6,1.1-1.3c0.5-0.7,2-3.5,2.8-6.1l1,0.4
		c-1,2.4-2.2,4.9-3.4,6.8l3.3-0.4c0.5-0.8,1-1.6,1.4-2.4l0.9,0.5c-1.5,2.5-3.2,5.1-5,7L226.5,15.2z M219.8,20.6c1.8-0.4,4.4-1,7-1.6
		l0.1,0.9c-2.5,0.6-5,1.2-6.9,1.7L219.8,20.6z M233.2,4.4c-0.1,0.2-0.1,0.4-0.2,0.6c1.2,2.6,3.5,5.3,5.6,6.5
		c-0.3,0.2-0.6,0.6-0.8,0.9c-2-1.3-4-3.7-5.3-6.3c-1.2,2.6-3,4.9-5.2,6.5c-0.2-0.2-0.5-0.5-0.8-0.7c2.7-1.9,4.7-4.7,5.6-7.7
		L233.2,4.4z M228.3,14.7h8.3v8.4h-1V22h-6.3v1.2h-1V14.7z M235.7,11V12h-6.5V11H235.7z M229.3,15.7V21h6.3v-5.4H229.3z"/>
	<path class="st1" d="M246.6,4.4c-0.6,1.6-1.4,3.2-2.3,4.6v14h-1V10.6c-0.8,1.2-1.7,2.2-2.6,3.1c-0.1-0.2-0.4-0.7-0.6-0.9
		c2.2-2.1,4.2-5.4,5.5-8.7L246.6,4.4z M253.9,9.2v12.5c0,0.7-0.2,1-0.6,1.2c-0.5,0.2-1.3,0.2-2.6,0.2c-0.1-0.3-0.2-0.7-0.4-1
		c1.1,0,2,0,2.2,0c0.3,0,0.4-0.1,0.4-0.4V9.2h-3.7c-0.6,1.5-1.3,2.8-2.1,3.9c-0.2-0.1-0.6-0.5-0.8-0.6c1.6-2,2.7-5.1,3.4-8.3l1,0.2
		c-0.3,1.3-0.7,2.6-1.1,3.9h9.3l0.2,0l0.7,0.2c-0.3,1.4-0.7,3.2-0.9,4.2l-0.9-0.2c0.2-0.8,0.4-2.1,0.6-3.2H253.9z M250.5,13
		c-0.7,2.8-1.9,5.5-3.2,7.2c-0.2-0.1-0.6-0.4-0.9-0.6c1.4-1.7,2.4-4.3,3.1-6.9L250.5,13z M256.7,12.7c1.3,2.3,2.4,5.2,2.8,7.2
		l-1,0.3c-0.4-1.9-1.5-5-2.7-7.2L256.7,12.7z"/>
	<path class="st1" d="M267.2,4.3c-0.4,1-0.8,2.3-1.1,3.2h3.7v13.4h-6v1.7h-0.9V7.4h2.3c0.4-1,0.8-2.4,1-3.4L267.2,4.3z M268.7,8.4
		h-5v5h5V8.4z M268.7,19.9v-5.6h-5v5.6H268.7z M280,8c-0.4,9.7-0.7,12.9-1.5,13.9c-0.4,0.5-0.8,0.6-1.5,0.7s-1.9,0-3-0.1
		c0-0.3-0.1-0.7-0.3-1c1.4,0.1,2.6,0.1,3.1,0.1c0.4,0,0.7,0,0.9-0.3c0.7-0.8,1.1-4,1.4-13h-5.9c-0.6,1.5-1.3,2.8-2.1,3.9
		c-0.2-0.1-0.6-0.4-0.9-0.5c1.5-1.9,2.6-4.8,3.2-7.8l1,0.2c-0.3,1.1-0.6,2.2-0.9,3.3h6.5V8z M275.9,17.4c-0.7-1.3-2.1-3.4-3.4-4.9
		l0.8-0.5c1.2,1.5,2.8,3.5,3.4,4.8L275.9,17.4z"/>
	<path class="st1" d="M291.1,21.3c0,0.7-0.2,1-0.6,1.2c-0.5,0.2-1.4,0.2-2.8,0.2c-0.1-0.3-0.2-0.7-0.3-0.9c1.1,0,2.1,0,2.4,0
		c0.3,0,0.4-0.1,0.4-0.4v-5.5h-4.6c-0.2,2.5-0.7,5.2-2.1,7.3c-0.2-0.2-0.6-0.4-0.8-0.5c1.8-2.8,2-6.8,2-9.8V5.4h6.4V21.3z
		 M290.1,14.9V11h-4.5v1.8c0,0.7,0,1.4,0,2.1H290.1z M285.6,6.3v3.8h4.5V6.3H285.6z M300.5,21.4c0,0.8-0.2,1.1-0.7,1.3
		c-0.5,0.2-1.6,0.2-3.2,0.2c-0.1-0.3-0.2-0.7-0.4-1c1.3,0,2.5,0,2.8,0c0.4,0,0.5-0.1,0.5-0.5v-5.6h-5.1c-0.2,2.5-0.8,5.3-2.4,7.3
		c-0.2-0.2-0.6-0.5-0.8-0.6c2.1-2.8,2.3-6.8,2.3-9.9V5.4h6.9V21.4z M299.5,14.9V11h-5v1.7c0,0.7,0,1.4-0.1,2.2H299.5z M294.5,6.3
		v3.8h5V6.3H294.5z"/>
	<path class="st1" d="M319.8,12.2c-0.9,3-2.4,5.3-4.4,7.1c2,1.4,4.5,2.4,7.4,3c-0.2,0.2-0.5,0.6-0.6,0.9c-3-0.6-5.5-1.7-7.5-3.2
		c-2,1.6-4.3,2.6-6.8,3.2c-0.1-0.3-0.4-0.7-0.6-0.9c2.4-0.6,4.6-1.6,6.6-3c-1.7-1.5-3.1-3.4-4.1-5.7c-0.9,3.3-2.5,6.7-5.2,8.9
		c-0.2-0.2-0.6-0.5-0.9-0.7c3.9-3.1,5.4-8.9,6-13h-5.4v-1h5.5c0.2-1.9,0.3-3.3,0.3-3.7h1c0,0.5-0.1,1.9-0.3,3.7h11.5v1h-11.6
		c-0.1,1-0.3,2-0.6,3.1h8.8l0.2-0.1L319.8,12.2z M310.4,12.9c0.9,2.3,2.3,4.2,4.1,5.8c1.7-1.5,3.1-3.4,3.9-5.8H310.4z"/>
	<path class="st1" d="M329.7,4.5c-0.4,1.6-1,3.1-1.6,4.5v14.1h-1V11c-0.6,1.1-1.2,2.1-1.8,3c-0.1-0.2-0.4-0.7-0.7-0.9
		c1.7-2.2,3.2-5.5,4.1-8.8L329.7,4.5z M331.1,8.1h1v15.1h-1V8.1z M332.8,4.1c0.9,1.3,2,3,2.5,4.1l-0.9,0.5c-0.5-1.1-1.5-2.8-2.4-4.1
		L332.8,4.1z M342.9,21.6c0,0.8-0.2,1.1-0.8,1.3c-0.6,0.2-1.6,0.2-3.3,0.2c0-0.3-0.2-0.7-0.4-1c1.4,0,2.6,0,2.9,0
		c0.4,0,0.5-0.1,0.5-0.5V5.8h-6V4.9h7.1V21.6z"/>
	<path class="st1" d="M348.6,20.2c0-0.9,0.7-1.4,1.4-1.4c0.7,0,1.4,0.5,1.4,1.4s-0.7,1.4-1.4,1.4C349.3,21.6,348.6,21.1,348.6,20.2z
		 M349.2,8l0-2.1h1.7l0,2.1l-0.4,8.7h-0.9L349.2,8z"/>
</g>
</svg>
