<?xml version="1.0" encoding="utf-8"?>
<!-- Generator: Adobe Illustrator 19.0.1, SVG Export Plug-In . SVG Version: 6.00 Build 0)  -->
<svg version="1.1" id="Layer_1" xmlns="http://www.w3.org/2000/svg" xmlns:xlink="http://www.w3.org/1999/xlink" x="0px" y="0px"
	 viewBox="0 0 374.7 30.3" style="enable-background:new 0 0 374.7 30.3;" xml:space="preserve">
<style type="text/css">
	.st0{opacity:0.87;}
	.st1{fill:#010101;}
</style>
<g>
	<path class="st0" d="M18,7.5h-5.2v14.1h-1.2V7.5H6.3V6.5H18V7.5z"/>
	<path class="st0" d="M22.4,21.9c-1.4,0-2.6-0.5-3.5-1.6c-0.9-1-1.4-2.4-1.4-4v-0.6c0-1.6,0.5-2.9,1.4-4c0.9-1.1,2.1-1.6,3.4-1.6
		c1.4,0,2.5,0.4,3.3,1.3s1.2,2,1.2,3.5V16h-8v0.3c0,1.3,0.3,2.3,1,3.2c0.7,0.9,1.6,1.3,2.7,1.3c0.8,0,1.4-0.1,2-0.3
		c0.5-0.2,1-0.5,1.4-0.9l0.5,0.9c-0.4,0.4-1,0.8-1.6,1.1C24.1,21.7,23.3,21.9,22.4,21.9z M22.3,11.2c-0.9,0-1.7,0.4-2.3,1.1
		c-0.6,0.7-1,1.6-1.1,2.6l0,0.1h6.6v-0.3c0-1-0.3-1.8-0.9-2.5C24,11.6,23.3,11.2,22.3,11.2z"/>
	<path class="st0" d="M30.6,21.6h-1.2V5.4h1.2V21.6z"/>
	<path class="st0" d="M35.2,21.6h-1.2V5.4h1.2V21.6z"/>
	<path class="st0" d="M47.4,18.6l0.4,1.3h0.1l3.4-9.6h1.4l-4.9,13.1c-0.3,0.8-0.7,1.4-1.1,1.9c-0.5,0.5-1.1,0.8-2,0.8
		c-0.1,0-0.3,0-0.5,0c-0.2,0-0.4-0.1-0.5-0.1l0.1-1c0.1,0,0.2,0,0.4,0c0.2,0,0.3,0,0.4,0c0.5,0,1-0.2,1.3-0.6
		c0.3-0.4,0.6-0.9,0.8-1.5l0.6-1.5L43,10.4h1.4L47.4,18.6z"/>
	<path class="st0" d="M53.7,15.8c0-1.7,0.5-3,1.4-4.1s2.1-1.6,3.6-1.6c1.5,0,2.7,0.5,3.6,1.6s1.4,2.4,1.4,4.1v0.3
		c0,1.7-0.5,3-1.4,4.1s-2.1,1.6-3.6,1.6c-1.5,0-2.7-0.5-3.6-1.6s-1.4-2.4-1.4-4.1V15.8z M55,16.2c0,1.3,0.3,2.4,1,3.3
		s1.6,1.3,2.8,1.3c1.2,0,2.1-0.4,2.7-1.3c0.7-0.9,1-2,1-3.3v-0.3c0-1.3-0.3-2.4-1-3.3s-1.6-1.3-2.8-1.3s-2.1,0.4-2.7,1.3s-1,2-1,3.3
		V16.2z"/>
	<path class="st0" d="M73.7,19.8c-0.4,0.7-0.8,1.2-1.5,1.5s-1.3,0.5-2.2,0.5c-1.2,0-2.1-0.4-2.8-1.2c-0.7-0.8-1-2.1-1-3.7v-6.5h1.3
		v6.6c0,1.4,0.2,2.4,0.7,3c0.5,0.6,1.1,0.9,2,0.9c0.9,0,1.7-0.2,2.3-0.6c0.6-0.4,1-1,1.2-1.8v-8h1.3v11.3h-1.1L73.7,19.8z"/>
	<path class="st0" d="M83.3,11.4l-0.9-0.1c-0.8,0-1.4,0.2-1.9,0.7c-0.5,0.4-0.9,1-1.1,1.8v7.8h-1.3V10.4h1.1l0.2,1.9v0.1
		c0.3-0.7,0.8-1.2,1.3-1.6s1.2-0.6,2-0.6c0.2,0,0.3,0,0.5,0s0.3,0.1,0.4,0.1L83.3,11.4z"/>
	<path class="st0" d="M99.9,14.5h-7.4v7.1h-1.2V6.5h9.7v1.1h-8.4v5.9h7.4V14.5z"/>
	<path class="st0" d="M108.1,11.4l-0.9-0.1c-0.8,0-1.4,0.2-1.9,0.7c-0.5,0.4-0.9,1-1.1,1.8v7.8h-1.3V10.4h1.1l0.2,1.9v0.1
		c0.3-0.7,0.8-1.2,1.3-1.6s1.2-0.6,2-0.6c0.2,0,0.3,0,0.5,0s0.3,0.1,0.4,0.1L108.1,11.4z"/>
	<path class="st0" d="M111.6,7.1h-1.2V5.4h1.2V7.1z M111.6,21.6h-1.2V10.4h1.2V21.6z"/>
	<path class="st0" d="M119.2,21.9c-1.4,0-2.6-0.5-3.5-1.6c-0.9-1-1.4-2.4-1.4-4v-0.6c0-1.6,0.5-2.9,1.4-4c0.9-1.1,2.1-1.6,3.4-1.6
		c1.4,0,2.5,0.4,3.3,1.3s1.2,2,1.2,3.5V16h-8v0.3c0,1.3,0.3,2.3,1,3.2c0.7,0.9,1.6,1.3,2.7,1.3c0.8,0,1.4-0.1,2-0.3
		c0.5-0.2,1-0.5,1.4-0.9l0.5,0.9c-0.4,0.4-1,0.8-1.6,1.1C120.9,21.7,120.1,21.9,119.2,21.9z M119.1,11.2c-0.9,0-1.7,0.4-2.3,1.1
		c-0.6,0.7-1,1.6-1.1,2.6l0,0.1h6.6v-0.3c0-1-0.3-1.8-0.9-2.5C120.9,11.6,120.1,11.2,119.1,11.2z"/>
	<path class="st0" d="M127.1,10.4l0.1,2c0.4-0.7,0.8-1.2,1.5-1.6c0.6-0.4,1.3-0.6,2.2-0.6c1.2,0,2.2,0.4,2.8,1.1
		c0.6,0.7,1,1.9,1,3.5v6.9h-1.2v-6.9c0-1.3-0.2-2.2-0.7-2.7s-1.2-0.8-2.1-0.8c-0.9,0-1.6,0.2-2.1,0.7c-0.6,0.5-1,1.1-1.2,1.8v7.9
		H126V10.4H127.1z"/>
	<path class="st0" d="M137.4,16.1c0-1.8,0.4-3.2,1.1-4.3c0.8-1.1,1.8-1.6,3.2-1.6c0.8,0,1.5,0.2,2,0.5c0.6,0.3,1.1,0.8,1.4,1.4V5.4
		h1.2v16.2h-1.1l-0.1-1.6c-0.4,0.6-0.9,1.1-1.4,1.4s-1.3,0.5-2.1,0.5c-1.3,0-2.4-0.5-3.2-1.5c-0.8-1-1.1-2.3-1.1-4V16.1z
		 M138.6,16.3c0,1.4,0.3,2.5,0.8,3.3c0.5,0.8,1.4,1.2,2.5,1.2c0.8,0,1.5-0.2,2-0.5c0.5-0.4,1-0.9,1.3-1.5v-5.3
		c-0.3-0.7-0.7-1.2-1.2-1.6c-0.5-0.4-1.2-0.6-2-0.6c-1.1,0-1.9,0.5-2.5,1.4c-0.6,0.9-0.8,2.1-0.8,3.5V16.3z"/>
	<path class="st0" d="M156.3,18.8c0-0.5-0.2-1-0.7-1.4s-1.2-0.7-2.3-1c-1.3-0.3-2.3-0.7-3-1.2c-0.6-0.5-1-1.2-1-2
		c0-0.9,0.4-1.6,1.1-2.2c0.7-0.6,1.7-0.9,2.9-0.9c1.3,0,2.3,0.3,3,0.9c0.7,0.6,1.1,1.4,1.1,2.4l0,0.1h-1.2c0-0.6-0.3-1.2-0.8-1.6
		s-1.2-0.7-2.1-0.7c-0.9,0-1.6,0.2-2,0.6c-0.5,0.4-0.7,0.8-0.7,1.4c0,0.5,0.2,0.9,0.6,1.3c0.4,0.3,1.2,0.6,2.4,0.9
		c1.3,0.3,2.3,0.7,3,1.2s1,1.2,1,2.1c0,0.9-0.4,1.7-1.1,2.3s-1.8,0.9-3,0.9c-1.4,0-2.4-0.3-3.2-1c-0.8-0.7-1.2-1.4-1.1-2.3l0-0.1
		h1.1c0,0.8,0.4,1.4,1,1.8c0.6,0.4,1.3,0.5,2.2,0.5c0.9,0,1.6-0.2,2.1-0.6C156.1,19.8,156.3,19.3,156.3,18.8z"/>
	<path class="st0" d="M173.2,21.6c-0.1-0.4-0.1-0.7-0.2-1c0-0.3-0.1-0.6-0.1-0.8c-0.4,0.6-1,1.1-1.7,1.5c-0.7,0.4-1.5,0.6-2.3,0.6
		c-1.1,0-2-0.3-2.6-0.9c-0.6-0.6-0.9-1.4-0.9-2.3c0-1,0.5-1.9,1.3-2.5s2.1-0.9,3.6-0.9h2.5v-1.4c0-0.8-0.3-1.4-0.8-1.9
		s-1.2-0.7-2.2-0.7c-0.9,0-1.6,0.2-2.2,0.7c-0.6,0.4-0.9,1-0.9,1.6l-1.1,0l0-0.1c0-0.8,0.3-1.6,1.2-2.3c0.8-0.7,1.8-1,3.1-1
		c1.2,0,2.2,0.3,3,0.9c0.8,0.6,1.1,1.5,1.1,2.7v5.5c0,0.4,0,0.8,0.1,1.2c0,0.4,0.1,0.7,0.2,1.1H173.2z M169.1,20.8
		c0.9,0,1.7-0.2,2.4-0.6c0.7-0.4,1.2-1,1.5-1.6v-2.4h-2.5c-1.1,0-2,0.2-2.7,0.7c-0.7,0.5-1,1.1-1,1.8c0,0.6,0.2,1.1,0.6,1.5
		C167.8,20.6,168.3,20.8,169.1,20.8z"/>
	<path class="st0" d="M186.5,16.3c0,1.7-0.4,3-1.1,4c-0.8,1-1.8,1.5-3.2,1.5c-0.8,0-1.5-0.2-2.1-0.5c-0.6-0.3-1.1-0.8-1.4-1.4
		l-0.1,1.7h-1.1V5.4h1.3v6.7c0.4-0.6,0.9-1.1,1.4-1.5c0.6-0.3,1.3-0.5,2.1-0.5c1.4,0,2.4,0.5,3.2,1.6c0.8,1.1,1.1,2.5,1.1,4.3V16.3z
		 M185.3,16.1c0-1.4-0.3-2.6-0.8-3.5c-0.6-0.9-1.4-1.4-2.5-1.4c-0.9,0-1.6,0.2-2.1,0.6c-0.5,0.4-0.9,1-1.2,1.7v5.1
		c0.3,0.7,0.7,1.2,1.2,1.6c0.6,0.4,1.2,0.6,2.1,0.6c1.1,0,1.9-0.4,2.5-1.2s0.8-1.9,0.8-3.3V16.1z"/>
	<path class="st0" d="M188.7,15.8c0-1.7,0.5-3,1.4-4.1s2.1-1.6,3.6-1.6c1.5,0,2.7,0.5,3.6,1.6s1.4,2.4,1.4,4.1v0.3
		c0,1.7-0.5,3-1.4,4.1s-2.1,1.6-3.6,1.6c-1.5,0-2.7-0.5-3.6-1.6s-1.4-2.4-1.4-4.1V15.8z M189.9,16.2c0,1.3,0.3,2.4,1,3.3
		s1.6,1.3,2.8,1.3c1.2,0,2.1-0.4,2.7-1.3c0.7-0.9,1-2,1-3.3v-0.3c0-1.3-0.3-2.4-1-3.3s-1.6-1.3-2.8-1.3s-2.1,0.4-2.7,1.3s-1,2-1,3.3
		V16.2z"/>
	<path class="st0" d="M208.6,19.8c-0.4,0.7-0.8,1.2-1.5,1.5s-1.3,0.5-2.2,0.5c-1.2,0-2.1-0.4-2.8-1.2c-0.7-0.8-1-2.1-1-3.7v-6.5h1.3
		v6.6c0,1.4,0.2,2.4,0.7,3c0.5,0.6,1.1,0.9,2,0.9c0.9,0,1.7-0.2,2.3-0.6c0.6-0.4,1-1,1.2-1.8v-8h1.3v11.3h-1.1L208.6,19.8z"/>
	<path class="st0" d="M215.1,7.5v2.9h2.5v1h-2.5v7.3c0,0.7,0.1,1.3,0.4,1.6s0.6,0.5,1.1,0.5c0.2,0,0.4,0,0.6,0c0.2,0,0.4,0,0.7-0.1
		l0.2,0.9c-0.2,0.1-0.5,0.2-0.8,0.2c-0.3,0-0.6,0.1-0.9,0.1c-0.8,0-1.4-0.2-1.8-0.8c-0.4-0.5-0.7-1.3-0.7-2.4v-7.3h-1.9v-1h1.9V7.5
		H215.1z"/>
	<path class="st0" d="M227.5,20.6h7.5v1.1h-8.8V6.5h1.3V20.6z"/>
	<path class="st0" d="M244.5,21.6c-0.1-0.4-0.1-0.7-0.2-1c0-0.3-0.1-0.6-0.1-0.8c-0.4,0.6-1,1.1-1.7,1.5c-0.7,0.4-1.5,0.6-2.3,0.6
		c-1.1,0-2-0.3-2.6-0.9c-0.6-0.6-0.9-1.4-0.9-2.3c0-1,0.5-1.9,1.3-2.5s2.1-0.9,3.6-0.9h2.5v-1.4c0-0.8-0.3-1.4-0.8-1.9
		s-1.2-0.7-2.2-0.7c-0.9,0-1.6,0.2-2.2,0.7c-0.6,0.4-0.9,1-0.9,1.6l-1.1,0l0-0.1c0-0.8,0.3-1.6,1.2-2.3c0.8-0.7,1.8-1,3.1-1
		c1.2,0,2.2,0.3,3,0.9c0.8,0.6,1.1,1.5,1.1,2.7v5.5c0,0.4,0,0.8,0.1,1.2c0,0.4,0.1,0.7,0.2,1.1H244.5z M240.4,20.8
		c0.9,0,1.7-0.2,2.4-0.6c0.7-0.4,1.2-1,1.5-1.6v-2.4h-2.5c-1.1,0-2,0.2-2.7,0.7c-0.7,0.5-1,1.1-1,1.8c0,0.6,0.2,1.1,0.6,1.5
		C239.1,20.6,239.7,20.8,240.4,20.8z"/>
	<path class="st0" d="M249.9,10.4l0.1,2c0.4-0.7,0.8-1.2,1.5-1.6c0.6-0.4,1.3-0.6,2.2-0.6c1.2,0,2.2,0.4,2.8,1.1
		c0.6,0.7,1,1.9,1,3.5v6.9h-1.2v-6.9c0-1.3-0.2-2.2-0.7-2.7s-1.2-0.8-2.1-0.8c-0.9,0-1.6,0.2-2.1,0.7c-0.6,0.5-1,1.1-1.2,1.8v7.9
		h-1.3V10.4H249.9z"/>
	<path class="st0" d="M262.3,7.5v2.9h2.5v1h-2.5v7.3c0,0.7,0.1,1.3,0.4,1.6s0.6,0.5,1.1,0.5c0.2,0,0.4,0,0.6,0c0.2,0,0.4,0,0.7-0.1
		l0.2,0.9c-0.2,0.1-0.5,0.2-0.8,0.2c-0.3,0-0.6,0.1-0.9,0.1c-0.8,0-1.4-0.2-1.8-0.8c-0.4-0.5-0.7-1.3-0.7-2.4v-7.3h-1.9v-1h1.9V7.5
		H262.3z"/>
	<path class="st0" d="M271.2,21.9c-1.4,0-2.6-0.5-3.5-1.6c-0.9-1-1.4-2.4-1.4-4v-0.6c0-1.6,0.5-2.9,1.4-4c0.9-1.1,2.1-1.6,3.4-1.6
		c1.4,0,2.5,0.4,3.3,1.3s1.2,2,1.2,3.5V16h-8v0.3c0,1.3,0.3,2.3,1,3.2c0.7,0.9,1.6,1.3,2.7,1.3c0.8,0,1.4-0.1,2-0.3
		c0.5-0.2,1-0.5,1.4-0.9l0.5,0.9c-0.4,0.4-1,0.8-1.6,1.1C272.9,21.7,272.1,21.9,271.2,21.9z M271,11.2c-0.9,0-1.7,0.4-2.3,1.1
		c-0.6,0.7-1,1.6-1.1,2.6l0,0.1h6.6v-0.3c0-1-0.3-1.8-0.9-2.5C272.8,11.6,272,11.2,271,11.2z"/>
	<path class="st0" d="M283.2,11.4l-0.9-0.1c-0.8,0-1.4,0.2-1.9,0.7c-0.5,0.4-0.9,1-1.1,1.8v7.8H278V10.4h1.1l0.2,1.9v0.1
		c0.3-0.7,0.8-1.2,1.3-1.6s1.2-0.6,2-0.6c0.2,0,0.3,0,0.5,0s0.3,0.1,0.4,0.1L283.2,11.4z"/>
	<path class="st0" d="M286.5,10.4l0.1,2c0.4-0.7,0.8-1.2,1.5-1.6c0.6-0.4,1.3-0.6,2.2-0.6c1.2,0,2.2,0.4,2.8,1.1
		c0.6,0.7,1,1.9,1,3.5v6.9h-1.2v-6.9c0-1.3-0.2-2.2-0.7-2.7s-1.2-0.8-2.1-0.8c-0.9,0-1.6,0.2-2.1,0.7c-0.6,0.5-1,1.1-1.2,1.8v7.9
		h-1.3V10.4H286.5z"/>
	<path class="st0" d="M304.9,6.5l5.6,13.4h0.1l5.6-13.4h1.6v15.2h-1.2v-6.7l0.1-6.6l-0.1,0l-5.6,13.4H310l-5.6-13.3l-0.1,0l0.1,6.6
		v6.7h-1.2V6.5H304.9z"/>
	<path class="st0" d="M320.7,15.8c0-1.7,0.5-3,1.4-4.1s2.1-1.6,3.6-1.6c1.5,0,2.7,0.5,3.6,1.6s1.4,2.4,1.4,4.1v0.3
		c0,1.7-0.5,3-1.4,4.1s-2.1,1.6-3.6,1.6c-1.5,0-2.7-0.5-3.6-1.6s-1.4-2.4-1.4-4.1V15.8z M321.9,16.2c0,1.3,0.3,2.4,1,3.3
		s1.6,1.3,2.8,1.3c1.2,0,2.1-0.4,2.7-1.3c0.7-0.9,1-2,1-3.3v-0.3c0-1.3-0.3-2.4-1-3.3s-1.6-1.3-2.8-1.3s-2.1,0.4-2.7,1.3s-1,2-1,3.3
		V16.2z"/>
	<path class="st0" d="M342.4,16.3c0,1.7-0.4,3-1.1,4c-0.8,1-1.8,1.5-3.2,1.5c-0.8,0-1.5-0.2-2.1-0.5c-0.6-0.3-1.1-0.8-1.4-1.4
		l-0.1,1.7h-1.1V5.4h1.3v6.7c0.4-0.6,0.9-1.1,1.4-1.5c0.6-0.3,1.3-0.5,2.1-0.5c1.4,0,2.4,0.5,3.2,1.6c0.8,1.1,1.1,2.5,1.1,4.3V16.3z
		 M341.1,16.1c0-1.4-0.3-2.6-0.8-3.5c-0.6-0.9-1.4-1.4-2.5-1.4c-0.9,0-1.6,0.2-2.1,0.6c-0.5,0.4-0.9,1-1.2,1.7v5.1
		c0.3,0.7,0.7,1.2,1.2,1.6c0.6,0.4,1.2,0.6,2.1,0.6c1.1,0,1.9-0.4,2.5-1.2s0.8-1.9,0.8-3.3V16.1z"/>
	<path class="st0" d="M346.5,7.1h-1.2V5.4h1.2V7.1z M346.5,21.6h-1.2V10.4h1.2V21.6z"/>
	<path class="st0" d="M351.1,21.6h-1.2V5.4h1.2V21.6z"/>
	<path class="st0" d="M358.7,21.9c-1.4,0-2.6-0.5-3.5-1.6c-0.9-1-1.4-2.4-1.4-4v-0.6c0-1.6,0.5-2.9,1.4-4c0.9-1.1,2.1-1.6,3.4-1.6
		c1.4,0,2.5,0.4,3.3,1.3s1.2,2,1.2,3.5V16h-8v0.3c0,1.3,0.3,2.3,1,3.2c0.7,0.9,1.6,1.3,2.7,1.3c0.8,0,1.4-0.1,2-0.3
		c0.5-0.2,1-0.5,1.4-0.9l0.5,0.9c-0.4,0.4-1,0.8-1.6,1.1C360.4,21.7,359.6,21.9,358.7,21.9z M358.6,11.2c-0.9,0-1.7,0.4-2.3,1.1
		c-0.6,0.7-1,1.6-1.1,2.6l0,0.1h6.6v-0.3c0-1-0.3-1.8-0.9-2.5C360.3,11.6,359.5,11.2,358.6,11.2z"/>
	<path class="st0" d="M367,21.6h-1.5v-1.7h1.5V21.6z M366.8,16.7h-1.2V6.5h1.2V16.7z"/>
</g>
</svg>
