<?xml version="1.0" encoding="utf-8"?>
<!-- Generator: Adobe Illustrator 19.0.1, SVG Export Plug-In . SVG Version: 6.00 Build 0)  -->
<svg version="1.1" id="Layer_1" xmlns="http://www.w3.org/2000/svg" xmlns:xlink="http://www.w3.org/1999/xlink" x="0px" y="0px"
	 viewBox="0 0 2672.7 839.6" style="enable-background:new 0 0 2672.7 839.6;" xml:space="preserve">
<style type="text/css">
	.st0{opacity:0.53;}
	.st1{fill:none;stroke:#89D3E2;stroke-width:4;stroke-linejoin:round;stroke-miterlimit:10;}
	.st2{fill:none;stroke:#89D3E2;stroke-width:4;stroke-linejoin:round;stroke-miterlimit:10;stroke-dasharray:8.3949,8.3949;}
	.st3{fill:#FFFFFF;stroke:#89D3E2;stroke-miterlimit:10;}
	.st4{fill:none;stroke:#89D3E2;stroke-width:4;stroke-linejoin:round;stroke-miterlimit:10;stroke-dasharray:10.2869,10.2869;}
	.st5{fill:none;stroke:#89D3E2;stroke-width:4;stroke-linejoin:round;stroke-miterlimit:10;stroke-dasharray:4.9095,4.9095;}
	.st6{fill:none;stroke:#89D3E2;stroke-width:4;stroke-linejoin:round;stroke-miterlimit:10;stroke-dasharray:2.8711,2.8711;}
	.st7{opacity:0.54;fill:none;stroke:#89D3E2;stroke-width:4;stroke-linejoin:round;stroke-miterlimit:10;}
	.st8{opacity:0.54;}
	.st9{fill:none;stroke:#89D3E2;stroke-width:6.7227;stroke-linecap:round;stroke-linejoin:round;stroke-miterlimit:10;}
	.st10{fill:none;stroke:#89D3E2;stroke-width:5.2015;stroke-linecap:round;stroke-linejoin:round;stroke-miterlimit:10;}
	.st11{fill:none;stroke:#89D3E2;stroke-width:4;stroke-linecap:round;stroke-linejoin:round;stroke-miterlimit:10;}
	.st12{fill:#89D3E2;}
	.st13{fill:#FCE700;stroke:#26BCD3;stroke-width:8.5301;stroke-miterlimit:10;}
	.st14{fill:none;stroke:#89D3E2;stroke-width:7;stroke-miterlimit:10;}
	.st15{fill:none;stroke:#89D3E2;stroke-width:6.1252;stroke-miterlimit:10;}
	.st16{fill:#E1F3F7;stroke:#26BCD3;stroke-width:3.7554;stroke-miterlimit:10;}
	.st17{fill:#26BCD3;}
	.st18{fill:none;stroke:#26BCD3;stroke-width:1.7381;stroke-miterlimit:10;}
	.st19{fill:#F5EA1A;}
	.st20{fill:url(#SVGID_1_);}
	.st21{fill:#01838F;}
	.st22{fill:#B6E3EB;}
	.st23{fill:#0297A7;stroke:#016064;stroke-width:1.4271;stroke-miterlimit:10;}
	.st24{fill:#26BCD3;stroke:#5AC7DA;stroke-width:2.1407;stroke-miterlimit:10;}
	.st25{fill:#B6E3EB;stroke:#0297A7;stroke-width:1.4271;stroke-miterlimit:10;}
	.st26{fill:#FEE900;stroke:#E5EB9D;stroke-width:1.4271;stroke-miterlimit:10;}
	.st27{fill:#E1F3F7;}
	.st28{fill:#00ABC1;stroke:#0297A7;stroke-width:1.4271;stroke-miterlimit:10;}
	.st29{fill:#3CC2D6;}
	.st30{fill:#FEFCE9;}
	.st31{fill:#B6E3EB;stroke:#0297A7;stroke-width:1.995;stroke-miterlimit:10;}
</style>
<g>
	<g class="st0">
		<g>
			<polygon class="st1" points="235.4,237.4 151.5,214.9 151.5,186.9 235.4,209.4 			"/>
			<polygon class="st1" points="319.4,259.9 235.4,237.4 235.4,209.4 319.4,231.9 			"/>
			<polygon class="st1" points="403.3,282.4 319.4,259.9 319.4,231.9 403.3,254.4 			"/>
			<polygon class="st1" points="403.3,254.4 361.3,243.2 361.3,215.2 403.3,226.4 			"/>
			<polygon class="st1" points="403.3,366.5 361.3,355.2 361.3,327.2 403.3,338.5 			"/>
			<polygon class="st1" points="403.3,310.5 361.3,299.3 361.3,271.3 403.3,282.5 			"/>
			<polygon class="st1" points="193.4,198.2 151.5,186.9 151.5,158.9 193.4,170.2 			"/>
			<polygon class="st1" points="193.4,310.2 151.5,299 151.5,271 193.4,282.3 			"/>
			<polygon class="st1" points="193.4,254.3 151.5,243 151.5,215 193.4,226.3 			"/>
			<polygon class="st1" points="235.4,293.5 151.5,271 151.5,243 235.4,265.5 			"/>
			<polygon class="st1" points="319.4,316 235.4,293.5 235.4,265.5 319.4,288 			"/>
			<polygon class="st1" points="403.3,338.5 319.4,316 319.4,288 403.3,310.5 			"/>
			<polygon class="st1" points="361.3,299.3 277.4,276.8 277.4,248.8 361.3,271.3 			"/>
			<polygon class="st1" points="277.4,276.8 193.4,254.3 193.4,226.3 277.4,248.8 			"/>
			<polygon class="st1" points="361.3,355.2 277.4,332.7 277.4,304.7 361.3,327.2 			"/>
			<polygon class="st1" points="277.4,332.7 193.4,310.2 193.4,282.3 277.4,304.7 			"/>
			<polygon class="st1" points="361.3,243.2 277.4,220.7 277.4,192.7 361.3,215.2 			"/>
			<polygon class="st1" points="277.4,220.7 193.4,198.2 193.4,170.2 277.4,192.7 			"/>
		</g>
		<polygon class="st1" points="423.4,355.2 403.3,366.5 403.3,338.5 423.4,327.2 		"/>
		<polygon class="st1" points="423.4,327.1 403.3,338.4 403.3,310.4 423.4,299.1 		"/>
		<polygon class="st1" points="423.4,299.2 403.3,310.4 403.3,282.5 423.4,271.2 		"/>
		<polygon class="st1" points="423.4,271.1 403.3,282.3 403.3,254.3 423.4,243.1 		"/>
		<polygon class="st1" points="423.4,243.2 403.3,254.4 403.3,226.4 423.4,215.2 		"/>
		<polygon class="st1" points="193.4,170.2 213.6,158.9 171.6,147.7 151.5,158.9 		"/>
		<polygon class="st1" points="403.3,226.3 423.4,215 381.5,203.8 361.3,215 		"/>
		<polygon class="st1" points="361.3,215 381.5,203.8 297.5,181.3 277.4,192.5 		"/>
		<polygon class="st1" points="277.4,192.7 297.5,181.4 213.6,158.9 193.4,170.2 		"/>
		<path class="st2" d="M156.5,400.9c-7.8-203.1,186.4-403,301.2-180.2"/>
		<circle class="st3" cx="156.2" cy="400.9" r="9"/>
		<circle class="st3" cx="457.7" cy="220.7" r="9"/>
	</g>
	<g class="st0">
		<g>
			<polygon class="st1" points="2035.5,627.8 2138.4,600.2 2138.4,566 2035.5,593.5 			"/>
			<polygon class="st1" points="1932.6,655.4 2035.5,627.8 2035.5,593.5 1932.6,621.1 			"/>
			<polygon class="st1" points="1829.8,682.9 1932.6,655.4 1932.6,621.1 1829.8,648.7 			"/>
			<polygon class="st1" points="1829.8,648.7 1881.2,634.9 1881.2,600.6 1829.8,614.4 			"/>
			<polygon class="st1" points="1829.8,786 1881.2,772.2 1881.2,737.9 1829.8,751.7 			"/>
			<polygon class="st1" points="1829.8,717.4 1881.2,703.6 1881.2,669.3 1829.8,683.1 			"/>
			<polygon class="st1" points="2086.9,579.7 2138.4,566 2138.4,531.7 2086.9,545.5 			"/>
			<polygon class="st1" points="2086.9,717.1 2138.4,703.3 2138.4,669 2086.9,682.8 			"/>
			<polygon class="st1" points="2086.9,648.5 2138.4,634.7 2138.4,600.4 2086.9,614.2 			"/>
			<polygon class="st1" points="2035.5,696.6 2138.4,669 2138.4,634.7 2035.5,662.3 			"/>
			<polygon class="st1" points="1932.6,724.1 2035.5,696.6 2035.5,662.3 1932.6,689.8 			"/>
			<polygon class="st1" points="1829.8,751.7 1932.6,724.1 1932.6,689.8 1829.8,717.4 			"/>
			<polygon class="st1" points="1881.2,703.6 1984.1,676.1 1984.1,641.8 1881.2,669.3 			"/>
			<polygon class="st1" points="1984.1,676.1 2086.9,648.5 2086.9,614.2 1984.1,641.8 			"/>
			<polygon class="st1" points="1881.2,772.2 1984.1,744.6 1984.1,710.3 1881.2,737.9 			"/>
			<polygon class="st1" points="1984.1,744.6 2086.9,717.1 2086.9,682.8 1984.1,710.3 			"/>
			<polygon class="st1" points="1881.2,634.9 1984.1,607.3 1984.1,573 1881.2,600.6 			"/>
			<polygon class="st1" points="1984.1,607.3 2086.9,579.7 2086.9,545.5 1984.1,573 			"/>
		</g>
		<polygon class="st1" points="1805.1,772.2 1829.8,786 1829.8,751.7 1805.1,737.9 		"/>
		<polygon class="st1" points="1805.1,737.7 1829.8,751.5 1829.8,717.2 1805.1,703.5 		"/>
		<polygon class="st1" points="1805.1,703.5 1829.8,717.3 1829.8,683 1805.1,669.2 		"/>
		<polygon class="st1" points="1805.1,669.1 1829.8,682.9 1829.8,648.6 1805.1,634.8 		"/>
		<polygon class="st1" points="1805.1,634.9 1829.8,648.7 1829.8,614.4 1805.1,600.6 		"/>
		<polygon class="st1" points="2086.9,545.5 2062.3,531.7 2113.7,517.9 2138.4,531.7 		"/>
		<polygon class="st1" points="1829.8,614.2 1805.1,600.4 1856.5,586.6 1881.2,600.4 		"/>
		<polygon class="st1" points="1881.2,600.4 1856.5,586.6 1959.4,559.1 1984.1,572.8 		"/>
		<polygon class="st1" points="1984.1,573 1959.4,559.2 2062.3,531.7 2086.9,545.5 		"/>
		<path class="st4" d="M2132.2,828.1c9.6-248.9-228.4-493.8-369.1-220.8"/>
		<circle class="st3" cx="2132.5" cy="828.1" r="11"/>
		<circle class="st3" cx="1763.2" cy="607.3" r="11"/>
	</g>
	<g class="st0">
		<g>
			<polygon class="st1" points="1423.7,106.1 1472.8,92.9 1472.8,76.6 1423.7,89.7 			"/>
			<polygon class="st1" points="1374.6,119.3 1423.7,106.1 1423.7,89.7 1374.6,102.9 			"/>
			<polygon class="st1" points="1325.5,132.4 1374.6,119.3 1374.6,102.9 1325.5,116 			"/>
			<polygon class="st1" points="1325.5,116 1350,109.5 1350,93.1 1325.5,99.7 			"/>
			<polygon class="st1" points="1325.5,181.6 1350,175 1350,158.6 1325.5,165.2 			"/>
			<polygon class="st1" points="1325.5,148.9 1350,142.3 1350,125.9 1325.5,132.5 			"/>
			<polygon class="st1" points="1448.2,83.2 1472.8,76.6 1472.8,60.2 1448.2,66.8 			"/>
			<polygon class="st1" points="1448.2,148.7 1472.8,142.1 1472.8,125.8 1448.2,132.3 			"/>
			<polygon class="st1" points="1448.2,116 1472.8,109.4 1472.8,93 1448.2,99.6 			"/>
			<polygon class="st1" points="1423.7,138.9 1472.8,125.8 1472.8,109.4 1423.7,122.6 			"/>
			<polygon class="st1" points="1374.6,152.1 1423.7,138.9 1423.7,122.6 1374.6,135.7 			"/>
			<polygon class="st1" points="1325.5,165.2 1374.6,152.1 1374.6,135.7 1325.5,148.9 			"/>
			<polygon class="st1" points="1350,142.3 1399.1,129.1 1399.1,112.8 1350,125.9 			"/>
			<polygon class="st1" points="1399.1,129.1 1448.2,116 1448.2,99.6 1399.1,112.8 			"/>
			<polygon class="st1" points="1350,175 1399.1,161.9 1399.1,145.5 1350,158.6 			"/>
			<polygon class="st1" points="1399.1,161.9 1448.2,148.7 1448.2,132.3 1399.1,145.5 			"/>
			<polygon class="st1" points="1350,109.5 1399.1,96.3 1399.1,80 1350,93.1 			"/>
			<polygon class="st1" points="1399.1,96.3 1448.2,83.2 1448.2,66.8 1399.1,80 			"/>
		</g>
		<polygon class="st1" points="1313.7,175 1325.5,181.6 1325.5,165.2 1313.7,158.6 		"/>
		<polygon class="st1" points="1313.7,158.6 1325.5,165.1 1325.5,148.8 1313.7,142.2 		"/>
		<polygon class="st1" points="1313.7,142.2 1325.5,148.8 1325.5,132.5 1313.7,125.9 		"/>
		<polygon class="st1" points="1313.7,125.8 1325.5,132.4 1325.5,116 1313.7,109.4 		"/>
		<polygon class="st1" points="1313.7,109.5 1325.5,116 1325.5,99.7 1313.7,93.1 		"/>
		<polygon class="st1" points="1448.2,66.8 1436.5,60.2 1461,53.6 1472.8,60.2 		"/>
		<polygon class="st1" points="1325.5,99.6 1313.7,93 1338.3,86.5 1350,93 		"/>
		<polygon class="st1" points="1350,93 1338.3,86.5 1387.4,73.3 1399.1,79.9 		"/>
		<polygon class="st1" points="1399.1,80 1387.4,73.4 1436.5,60.2 1448.2,66.8 		"/>
		<path class="st5" d="M1469.9,201.7c4.6-118.8-109-235.7-176.1-105.4"/>
		<circle class="st3" cx="1470" cy="201.7" r="5.2"/>
		<circle class="st3" cx="1293.7" cy="96.3" r="5.2"/>
	</g>
	<g class="st0">
		<g>
			<polygon class="st1" points="556.6,776.2 585.4,768.5 585.4,758.9 556.6,766.6 			"/>
			<polygon class="st1" points="527.9,783.9 556.6,776.2 556.6,766.6 527.9,774.3 			"/>
			<polygon class="st1" points="499.2,791.6 527.9,783.9 527.9,774.3 499.2,782 			"/>
			<polygon class="st1" points="499.2,782 513.6,778.2 513.6,768.6 499.2,772.4 			"/>
			<polygon class="st1" points="499.2,820.3 513.6,816.5 513.6,806.9 499.2,810.8 			"/>
			<polygon class="st1" points="499.2,801.2 513.6,797.3 513.6,787.8 499.2,791.6 			"/>
			<polygon class="st1" points="571,762.8 585.4,758.9 585.4,749.4 571,753.2 			"/>
			<polygon class="st1" points="571,801.1 585.4,797.2 585.4,787.7 571,791.5 			"/>
			<polygon class="st1" points="571,782 585.4,778.1 585.4,768.5 571,772.4 			"/>
			<polygon class="st1" points="556.6,795.4 585.4,787.7 585.4,778.1 556.6,785.8 			"/>
			<polygon class="st1" points="527.9,803.1 556.6,795.4 556.6,785.8 527.9,793.5 			"/>
			<polygon class="st1" points="499.2,810.8 527.9,803.1 527.9,793.5 499.2,801.2 			"/>
			<polygon class="st1" points="513.6,797.3 542.3,789.6 542.3,780.1 513.6,787.8 			"/>
			<polygon class="st1" points="542.3,789.6 571,782 571,772.4 542.3,780.1 			"/>
			<polygon class="st1" points="513.6,816.5 542.3,808.8 542.3,799.2 513.6,806.9 			"/>
			<polygon class="st1" points="542.3,808.8 571,801.1 571,791.5 542.3,799.2 			"/>
			<polygon class="st1" points="513.6,778.2 542.3,770.5 542.3,760.9 513.6,768.6 			"/>
			<polygon class="st1" points="542.3,770.5 571,762.8 571,753.2 542.3,760.9 			"/>
		</g>
		<polygon class="st1" points="492.3,816.5 499.2,820.3 499.2,810.8 492.3,806.9 		"/>
		<polygon class="st1" points="492.3,806.9 499.2,810.7 499.2,801.1 492.3,797.3 		"/>
		<polygon class="st1" points="492.3,797.3 499.2,801.2 499.2,791.6 492.3,787.7 		"/>
		<polygon class="st1" points="492.3,787.7 499.2,791.5 499.2,782 492.3,778.1 		"/>
		<polygon class="st1" points="492.3,778.2 499.2,782 499.2,772.4 492.3,768.6 		"/>
		<polygon class="st1" points="571,753.2 564.1,749.4 578.5,745.5 585.4,749.4 		"/>
		<polygon class="st1" points="499.2,772.4 492.3,768.5 506.7,764.7 513.6,768.5 		"/>
		<polygon class="st1" points="513.6,768.5 506.7,764.7 535.4,757 542.3,760.8 		"/>
		<polygon class="st1" points="542.3,760.9 535.4,757 564.1,749.4 571,753.2 		"/>
		<path class="st6" d="M583.6,832.1c2.7-69.5-63.7-137.8-103-61.6"/>
		<circle class="st3" cx="583.7" cy="832.1" r="3.1"/>
		<circle class="st3" cx="480.6" cy="770.5" r="3.1"/>
	</g>
	<g>
		<polygon class="st7" points="714.2,103.3 742,110.2 701.3,153.1 729.5,160.2 656.6,239.1 704.2,167.4 676.3,160.4 		"/>
	</g>
	<g>
		<polygon class="st7" points="1913.1,197.6 1940.8,204.5 1900.2,247.4 1928.4,254.4 1855.5,333.4 1903.1,261.7 1875.2,254.7 		"/>
	</g>
	<g>
		<polygon class="st7" points="2436.8,71.2 2471.5,73.2 2432.6,133.7 2467.9,135.7 2398.6,246.7 2439.3,150.1 2404.3,148.1 		"/>
	</g>
	<g>
		<polygon class="st7" points="1725.1,2 1690.3,4 1729.2,64.5 1693.9,66.5 1763.2,177.5 1722.5,80.9 1757.5,78.9 		"/>
	</g>
	<g>
		<polygon class="st7" points="2494.1,513.7 2551.9,524.8 2473.1,617.5 2531.9,628.8 2391.1,799.4 2480.7,646.6 2422.6,635.4 		"/>
	</g>
	<g>
		<polygon class="st7" points="36.8,574.7 2,575 37.9,637.3 2.5,637.6 66.1,751.8 30.3,653.4 65.3,653.1 		"/>
	</g>
	<g>
		<polygon class="st7" points="2214.9,397.7 2193.4,403.5 2225.6,436.3 2203.8,442.1 2261.5,502.6 2223.5,447.4 2245.1,441.6 		"/>
	</g>
	<g>
		<polygon class="st7" points="935.3,441.9 957.5,443 933,481.9 955.6,482.9 912.1,554.3 937.4,492.3 915.1,491.2 		"/>
	</g>
	<g>
		<polygon class="st7" points="2639.2,23.7 2661.4,24.8 2636.9,63.7 2659.5,64.8 2616,136.2 2641.3,74.2 2619,73.1 		"/>
	</g>
	<g>
		<polygon class="st7" points="556.1,27 533.9,28 558.4,66.9 535.8,68 579.4,139.4 554,77.4 576.4,76.3 		"/>
	</g>
	<g>
		<polygon class="st7" points="57.3,27 79.5,28 55,66.9 77.6,68 34.1,139.4 59.4,77.4 37.1,76.3 		"/>
	</g>
	<g>
		<polygon class="st7" points="631.2,420.9 583.7,426.2 641.5,506.3 593.2,511.7 696.3,658.9 633.5,529.4 681.3,524 		"/>
	</g>
	<g>
		<polygon class="st7" points="1279.7,542.8 1232.2,548.1 1290,628.2 1241.7,633.6 1344.8,780.8 1282,651.2 1329.8,645.9 		"/>
	</g>
	<g class="st8">
		<g>
			<path class="st9" d="M2146,251.4c0,0,15.6,33.8,54.8,22.3c0,0,25.3,4.9,35.1-12.8c0.9-1.6,3.2-1.8,5-2.2
				c6.7-1.5,20.7-6,26.2-19.1c0,0,14-10.4,5.2-41"/>
			<path class="st9" d="M2273.7,228.5c0,0,39.9-2.2,25.7-37.4s0.5-1.8,0.5-1.8s19.8-45.2-9.4-55.9c0,0-4.7-27.6-28.4-24.4"/>
			<path class="st9" d="M2161.3,268.8c0,0-27.2,21.8-38.2-2.9c-11.1-24.6-5.1-38.6-1.4-46.7c0,0-14.3-30.6,14.8-43.6
				c0,0,5.7-20.9,17.1-22.8c0,0,4.9-18,17.3-20.1c0,0,10.4-35.4,40.9-28.8c0,0,7.2-11.1,22-2.9c0,0,17.3-2,19.7-0.4
				c2.4,1.6,11.1,1.7,12.5,31.6"/>
			<path class="st9" d="M2121.7,262.6c0,0-12.7,16.4-30.8,1.9c0,0-32.5-2.6-27-51c0,0-5.8-13.5,7.5-18.5c0,0-4.1-35.4,20.1-39.7
				c0,0-7.3-37.2,32.8-36.7c0,0,7.8-15.1,22.3-12c0,0,5,0.6,11.1-3.7s12-8.7,17.3-9.5c0,0,17.3-3.5,29.9,8"/>
		</g>
		<g>
			<path class="st9" d="M2124.8,219.4c0,0,26.4,22,52-15c0.6-0.9,6.7,0.9,11.6-2.5c9.2-6.3,12.6-17.9,25.7-20.5
				c9.8-1.9,15.1,1,16.5,2.6"/>
			<path class="st9" d="M2139.7,196c0,0,20.9,15.7,26.9-12.1c0,0,12,2.1,16.3-4.3c4.3-6.4,10.8-26.5,19.1-28.1c0,0,17.6-6.2,18.6,10
				c0,0,0.7,5.8-8.7,6.5"/>
			<path class="st9" d="M2161.2,249.2c0,0,24.4,13.3,43.9-10.2c19.5-23.5,24.4-15,31.8-17.8c7.4-2.8,28.2-4.5,7-27.1"/>
			<path class="st9" d="M2250.8,131c0,0-10.9,12-5.3,15.4c0,0,32.3-1.1,29.4,24.5s-13.3,18.7-13.3,18.7"/>
			<path class="st9" d="M2167.6,158.1c0,0,7.3-21.9,22.1-18.5c0,0,9.6-30,38.2-22.6"/>
			<path class="st9" d="M2278.7,133.7c0,0,12.3,11.7,4.2,21.7"/>
			<path class="st9" d="M2218.1,254.7c0,0,7-15.5,19.1-11.2"/>
			<path class="st9" d="M2181.4,227.4c0,0,15.5-20.4,32.6-19.1"/>
			<path class="st9" d="M2249.9,174.5c0,0-14.7-9.4-14.1-17.4c0,0,5-11.5-12.6-20.7"/>
			<path class="st9" d="M2088.2,158.9c-2.1,1.3,17.9-7.4,27.3-1.5"/>
			<path class="st9" d="M2159,105.5c0,0-22.6,9.5-17.7,22.2c0,0-14.6,12.3-18.7,11.1"/>
			<path class="st9" d="M2093.8,263.9c0,0-12.9-8.9-1.9-27.6s4.2-24.7,4.2-24.7"/>
			<path class="st9" d="M2084.8,217.4c0,0-5.7-40.3,14.7-45.9c21.8-6,39.1-17.2,41.4-26.6c0,0-0.4-11.5,9-14.7"/>
			<path class="st9" d="M2065.4,211.1c0.8,0.8,4.9,15.1,13.8,15.1"/>
		</g>
	</g>
	<g class="st8">
		<g>
			<path class="st10" d="M346.8,684.2c0,0-15.6,33.7-54.7,22.2c0,0-25.2,4.9-35.1-12.8c-0.9-1.6-3.2-1.8-5-2.2
				c-6.7-1.5-20.7-6-26.2-19.1c0,0-13.9-10.4-5.2-40.9"/>
			<path class="st10" d="M219.3,661.5c0,0-39.8-2.2-25.7-37.3c14.1-35.1-0.5-1.8-0.5-1.8s-19.8-45.2,9.3-55.8
				c0,0,4.7-27.5,28.3-24.3"/>
			<path class="st10" d="M331.5,701.6c0,0,27.1,21.7,38.2-2.8s5.1-38.6,1.4-46.6c0,0,14.3-30.5-14.8-43.5c0,0-5.6-20.9-17.1-22.8
				c0,0-4.9-18-17.3-20c0,0-10.4-35.3-40.8-28.8c0,0-7.2-11.1-22-2.9c0,0-17.3-2-19.7-0.4c-2.4,1.6-11.1,1.7-12.4,31.6"/>
			<path class="st10" d="M371.1,695.5c0,0,12.7,16.4,30.8,1.9c0,0,32.4-2.6,26.9-50.9c0,0,5.7-13.5-7.5-18.5c0,0,4.1-35.3-20-39.7
				c0,0,7.2-37.1-32.8-36.6c0,0-7.8-15.1-22.3-12c0,0-5,0.6-11.1-3.7c-6.1-4.2-12-8.6-17.2-9.5c0,0-17.2-3.5-29.9,7.9"/>
		</g>
		<g>
			<path class="st10" d="M367.9,652.4c0,0-26.4,21.9-51.9-15c-0.6-0.9-6.7,0.9-11.6-2.4c-9.1-6.3-12.5-17.9-25.6-20.4
				c-9.8-1.9-15,1-16.5,2.6"/>
			<path class="st10" d="M353.1,629c0,0-20.9,15.7-26.8-12.1c0,0-12,2.1-16.3-4.3c-4.3-6.4-10.8-26.5-19.1-28c0,0-17.5-6.2-18.6,10
				c0,0-0.7,5.8,8.7,6.5"/>
			<path class="st10" d="M331.6,682.1c0,0-24.3,13.3-43.8-10.2s-24.4-14.9-31.7-17.8c-7.4-2.8-28.2-4.5-7-27"/>
			<path class="st10" d="M242.2,564.1c0,0,10.9,12,5.3,15.4c0,0-32.2-1.1-29.3,24.5c2.9,25.6,13.3,18.7,13.3,18.7"/>
			<path class="st10" d="M325.2,591.1c0,0-7.3-21.8-22.1-18.5c0,0-9.6-29.9-38.1-22.5"/>
			<path class="st10" d="M214.3,566.8c0,0-12.3,11.7-4.2,21.6"/>
			<path class="st10" d="M274.8,687.6c0,0-6.9-15.4-19-11.1"/>
			<path class="st10" d="M311.4,660.3c0,0-15.4-20.4-32.6-19.1"/>
			<path class="st10" d="M243.1,607.6c0,0,14.6-9.3,14.1-17.4c0,0-5-11.5,12.6-20.7"/>
			<path class="st10" d="M404.5,592c2.1,1.3-17.9-7.3-27.2-1.5"/>
			<path class="st10" d="M333.8,538.6c0,0,22.5,9.5,17.6,22.2c0,0,14.6,12.3,18.7,11"/>
			<path class="st10" d="M398.9,696.8c0,0,12.8-8.9,1.9-27.5c-10.9-18.6-4.2-24.7-4.2-24.7"/>
			<path class="st10" d="M407.9,650.3c0,0,5.7-40.2-14.7-45.8c-21.7-6-39-17.1-41.3-26.5c0,0,0.4-11.5-8.9-14.6"/>
			<path class="st10" d="M427.2,644c-0.8,0.8-4.9,15.1-13.8,15.1"/>
		</g>
	</g>
	<g class="st8">
		<g>
			<path class="st11" d="M785.1,369.5c0,0,3.7,15.8,21.4,14.3c0,0,10.3,4.3,16.1-2.4c0.5-0.6,1.5-0.5,2.3-0.5c3,0,9.3-0.8,12.8-5.8
				c0,0,6.9-3.2,5.8-17"/>
			<path class="st11" d="M841.5,370.9c0,0,17.2,2.5,14.2-13.7s0.4-0.7,0.4-0.7s12.4-17.5,0.9-24.6c0,0,0.4-12.2-10-12.9"/>
			<path class="st11" d="M790.1,378.2c0,0-13.5,6.9-16-4.6c-2.6-11.4,1.2-16.9,3.5-20c0,0-3.4-14.3,10.1-17.3c0,0,4.2-8.4,9.3-8.2
				c0,0,3.7-7.2,9.1-7c0,0,7.5-14.2,19.9-8.7c0,0,4-4.1,9.6,0.7c0,0,7.5,0.7,8.4,1.6c0.9,0.9,4.6,1.7,2.5,14.6"/>
			<path class="st11" d="M773.8,372.1c0,0-6.9,5.9-13.3-1.9c0,0-13.6-4-7-24.1c0,0-1.3-6.2,4.8-7.2c0,0,1.3-15.4,12-15.2
				c0,0,0.2-16.5,17.2-12.7c0,0,4.7-5.7,10.6-3.2c0,0,2.1,0.7,5-0.6c3-1.3,5.9-2.6,8.2-2.5c0,0,7.7,0,12.1,6"/>
		</g>
		<g>
			<path class="st11" d="M778.9,354.1c0,0,9.3,11.7,23.5-1.8c0.4-0.3,2.8,1,5.1,0c4.4-1.9,6.9-6.5,12.7-6.5c4.4,0,6.3,1.8,6.8,2.5"
				/>
			<path class="st11" d="M787.3,345.4c0,0,7.5,8.5,12.5-2.8c0,0,4.9,1.9,7.3-0.4s6.9-10.4,10.6-10.3c0,0,8-1.1,7.1,5.9
				c0,0-0.2,2.5-4.3,2"/>
			<path class="st11" d="M791.8,369.9c0,0,9.2,7.8,19.6-0.5c10.4-8.3,11.7-4.2,15.1-4.8c3.4-0.6,12.4,0.6,5.4-10.9"/>
			<path class="st11" d="M840.3,327.4c0,0-5.7,4.2-3.6,6.1c0,0,13.8,2.4,10.4,13c-3.5,10.6-7.3,6.8-7.3,6.8"/>
			<path class="st11" d="M802.5,331.7c0,0,5-8.7,11-5.9c0,0,6.7-11.9,18.2-6.3"/>
			<path class="st11" d="M851.9,331c0,0,4.2,6-0.1,9.6"/>
			<path class="st11" d="M815.5,377.2c0,0,4.3-6,9.1-3.1"/>
			<path class="st11" d="M802.3,362.4c0,0,8.4-7.4,15.6-5.3"/>
			<path class="st11" d="M836.1,345.9c0,0-5.4-5.3-4.5-8.7c0,0,3.1-4.5-3.5-9.9"/>
			<path class="st11" d="M768.6,325.1c-1,0.4,8.3-1.6,11.8,1.8"/>
			<path class="st11" d="M803.4,308.5c0,0-10.4,2.1-9.5,7.9c0,0-7.3,4-8.9,3.1"/>
			<path class="st11" d="M761.8,370.3c0,0-4.7-4.9,1.6-11.9c6.3-7,4-10.2,4-10.2"/>
			<path class="st11" d="M762,349.7c0,0,1.1-17.6,10.3-18.3c9.8-0.7,18.1-3.9,20-7.7c0,0,0.8-4.9,5.1-5.5"/>
			<path class="st11" d="M754.3,345.3c0.3,0.4,0.8,6.9,4.6,7.7"/>
		</g>
	</g>
	<g class="st8">
		<g>
			<path class="st11" d="M2595.7,823c0,0,2.9,12.3,16.6,11.1c0,0,8.1,3.3,12.5-1.9c0.4-0.5,1.2-0.4,1.8-0.4c2.3,0,7.3-0.6,10-4.5
				c0,0,5.3-2.5,4.5-13.2"/>
			<path class="st11" d="M2639.6,824.2c0,0,13.4,2,11.1-10.6c-2.3-12.6,0.3-0.6,0.3-0.6s9.7-13.6,0.7-19.2c0,0,0.3-9.5-7.8-10"/>
			<path class="st11" d="M2599.6,829.8c0,0-10.5,5.4-12.5-3.5c-2-8.9,0.9-13.2,2.7-15.6c0,0-2.7-11.1,7.9-13.4c0,0,3.3-6.6,7.2-6.4
				c0,0,2.9-5.6,7.1-5.5c0,0,5.9-11,15.5-6.8c0,0,3.2-3.2,7.5,0.5c0,0,5.9,0.5,6.6,1.2s3.6,1.3,2,11.3"/>
			<path class="st11" d="M2586.9,825.1c0,0-5.3,4.6-10.4-1.5c0,0-10.6-3.1-5.5-18.7c0,0-1-4.9,3.8-5.6c0,0,1-12,9.4-11.8
				c0,0,0.1-12.8,13.4-9.9c0,0,3.6-4.5,8.2-2.5c0,0,1.6,0.5,3.9-0.5c2.3-1,4.6-2.1,6.4-2c0,0,6,0,9.4,4.7"/>
		</g>
		<g>
			<path class="st11" d="M2590.9,811c0,0,7.3,9.1,18.3-1.4c0.3-0.3,2.2,0.8,4,0c3.5-1.5,5.4-5.1,9.9-5c3.4,0,4.9,1.4,5.3,2"/>
			<path class="st11" d="M2597.4,804.3c0,0,5.9,6.6,9.7-2.2c0,0,3.8,1.5,5.7-0.3c1.9-1.8,5.4-8.1,8.2-8c0,0,6.2-0.9,5.5,4.6
				c0,0-0.2,2-3.3,1.6"/>
			<path class="st11" d="M2600.9,823.3c0,0,7.2,6.1,15.2-0.4s9.1-3.3,11.7-3.7c2.6-0.4,9.7,0.4,4.2-8.5"/>
			<path class="st11" d="M2638.7,790.3c0,0-4.4,3.2-2.8,4.8c0,0,10.8,1.8,8.1,10.1s-5.7,5.3-5.7,5.3"/>
			<path class="st11" d="M2609.2,793.6c0,0,3.9-6.8,8.6-4.6c0,0,5.2-9.3,14.2-4.9"/>
			<path class="st11" d="M2647.7,793.1c0,0,3.3,4.7-0.1,7.5"/>
			<path class="st11" d="M2619.4,829c0,0,3.4-4.7,7.1-2.4"/>
			<path class="st11" d="M2609.1,817.5c0,0,6.5-5.7,12.1-4.1"/>
			<path class="st11" d="M2635.4,804.6c0,0-4.2-4.1-3.5-6.7c0,0,2.4-3.5-2.8-7.7"/>
			<path class="st11" d="M2582.9,788.5c-0.8,0.3,6.4-1.2,9.1,1.4"/>
			<path class="st11" d="M2610,775.5c0,0-8.1,1.6-7.4,6.2c0,0-5.7,3.1-7,2.4"/>
			<path class="st11" d="M2577.6,823.6c0,0-3.7-3.8,1.2-9.3c4.9-5.4,3.1-7.9,3.1-7.9"/>
			<path class="st11" d="M2577.7,807.6c0,0,0.9-13.7,8-14.2c7.6-0.5,14.1-3,15.5-6c0,0,0.7-3.8,4-4.3"/>
			<path class="st11" d="M2571.8,804.2c0.2,0.3,0.6,5.3,3.6,6"/>
		</g>
	</g>
	<g class="st8">
		<g>
			<path class="st11" d="M878,812.1c0,0,9.4,20.4,33.1,13.5c0,0,15.3,2.9,21.2-7.7c0.5-1,1.9-1.1,3-1.3c4-0.9,12.5-3.6,15.9-11.5
				c0,0,8.4-6.3,3.2-24.8"/>
			<path class="st11" d="M955.1,798.3c0,0,24.1-1.3,15.6-22.6c-8.6-21.2,0.3-1.1,0.3-1.1s12-27.3-5.7-33.8c0,0-2.8-16.7-17.2-14.7"
				/>
			<path class="st11" d="M887.2,822.7c0,0-16.4,13.2-23.1-1.7c-6.7-14.9-3.1-23.4-0.9-28.2c0,0-8.6-18.5,8.9-26.3
				c0,0,3.4-12.6,10.3-13.8c0,0,3-10.9,10.5-12.1c0,0,6.3-21.4,24.7-17.4c0,0,4.4-6.7,13.3-1.8c0,0,10.5-1.2,11.9-0.2
				c1.5,1,6.7,1,7.5,19.1"/>
			<path class="st11" d="M863.3,818.9c0,0-7.7,9.9-18.6,1.2c0,0-19.6-1.6-16.3-30.8c0,0-3.5-8.1,4.5-11.2c0,0-2.5-21.4,12.1-24
				c0,0-4.4-22.5,19.8-22.2c0,0,4.7-9.1,13.5-7.3c0,0,3,0.3,6.7-2.2c3.7-2.6,7.2-5.2,10.4-5.8c0,0,10.4-2.1,18.1,4.8"/>
		</g>
		<g>
			<path class="st11" d="M865.2,792.9c0,0,16,13.3,31.4-9.1c0.4-0.6,4.1,0.5,7-1.5c5.5-3.8,7.6-10.8,15.5-12.4
				c5.9-1.2,9.1,0.6,10,1.6"/>
			<path class="st11" d="M874.2,778.7c0,0,12.6,9.5,16.2-7.3c0,0,7.2,1.2,9.9-2.6c2.6-3.9,6.5-16,11.5-17c0,0,10.6-3.8,11.3,6.1
				c0,0,0.4,3.5-5.3,3.9"/>
			<path class="st11" d="M887.2,810.8c0,0,14.7,8.1,26.5-6.2s14.8-9,19.2-10.7c4.5-1.7,17.1-2.7,4.2-16.4"/>
			<path class="st11" d="M941.3,739.4c0,0-6.6,7.2-3.2,9.3c0,0,19.5-0.6,17.7,14.8c-1.8,15.5-8,11.3-8,11.3"/>
			<path class="st11" d="M891,755.8c0,0,4.4-13.2,13.4-11.2c0,0,5.8-18.1,23.1-13.6"/>
			<path class="st11" d="M958.2,741c0,0,7.4,7.1,2.6,13.1"/>
			<path class="st11" d="M921.5,814.1c0,0,4.2-9.3,11.5-6.7"/>
			<path class="st11" d="M899.4,797.7c0,0,9.3-12.4,19.7-11.6"/>
			<path class="st11" d="M940.7,765.7c0,0-8.9-5.7-8.6-10.5c0,0,3-6.9-7.6-12.5"/>
			<path class="st11" d="M843,756.3c-1.3,0.8,10.8-4.4,16.5-0.9"/>
			<path class="st11" d="M885.8,724c0,0-13.6,5.7-10.7,13.4c0,0-8.8,7.5-11.3,6.7"/>
			<path class="st11" d="M846.4,819.7c0,0-7.8-5.4-1.1-16.7c6.6-11.3,2.5-14.9,2.5-14.9"/>
			<path class="st11" d="M841,791.6c0,0-3.4-24.3,8.9-27.7c13.2-3.6,23.6-10.4,25-16.1c0,0-0.2-7,5.4-8.9"/>
			<path class="st11" d="M829.3,787.8c0.5,0.5,3,9.1,8.4,9.2"/>
		</g>
	</g>
	<g class="st8">
		<g>
			<path class="st11" d="M2602.6,447.1c0,0-12.8,27.6-44.7,18.2c0,0-20.7,4-28.7-10.5c-0.7-1.3-2.6-1.4-4.1-1.8
				c-5.5-1.2-16.9-4.9-21.4-15.6c0,0-11.4-8.5-4.3-33.5"/>
			<path class="st11" d="M2498.3,428.5c0,0-32.6-1.8-21-30.5c11.6-28.7-0.4-1.5-0.4-1.5s-16.2-37,7.6-45.6c0,0,3.8-22.5,23.2-19.9"
				/>
			<path class="st11" d="M2590.1,461.4c0,0,22.2,17.8,31.2-2.3c9-20.1,4.2-31.6,1.2-38.1c0,0,11.7-25-12.1-35.6
				c0,0-4.6-17.1-14-18.6c0,0-4-14.7-14.2-16.4c0,0-8.5-28.9-33.4-23.6c0,0-5.9-9.1-18-2.4c0,0-14.1-1.6-16.1-0.3
				s-9.1,1.4-10.2,25.8"/>
			<path class="st11" d="M2622.5,456.3c0,0,10.4,13.4,25.2,1.6c0,0,26.5-2.2,22-41.7c0,0,4.7-11-6.1-15.1c0,0,3.4-28.9-16.4-32.4
				c0,0,5.9-30.4-26.8-29.9c0,0-6.4-12.3-18.2-9.8c0,0-4.1,0.5-9.1-3c-5-3.4-9.8-7.1-14.1-7.8c0,0-14.1-2.9-24.5,6.5"/>
		</g>
		<g>
			<path class="st11" d="M2619.9,421.1c0,0-21.6,17.9-42.5-12.3c-0.5-0.8-5.5,0.7-9.5-2c-7.5-5.1-10.3-14.6-21-16.7
				c-8-1.6-12.3,0.8-13.5,2.1"/>
			<path class="st11" d="M2607.7,402c0,0-17.1,12.8-21.9-9.9c0,0-9.8,1.7-13.3-3.5c-3.5-5.2-8.8-21.7-15.6-22.9
				c0,0-14.3-5.1-15.2,8.2c0,0-0.5,4.8,7.1,5.3"/>
			<path class="st11" d="M2590.2,445.4c0,0-19.9,10.9-35.9-8.3c-15.9-19.2-20-12.2-25.9-14.5c-6-2.3-23.1-3.7-5.7-22.1"/>
			<path class="st11" d="M2517,348.8c0,0,8.9,9.8,4.4,12.6c0,0-26.3-0.9-24,20c2.4,20.9,10.8,15.3,10.8,15.3"/>
			<path class="st11" d="M2584.9,370.9c0,0-6-17.9-18-15.1c0,0-7.9-24.5-31.2-18.4"/>
			<path class="st11" d="M2494.2,351c0,0-10,9.5-3.5,17.7"/>
			<path class="st11" d="M2543.7,449.8c0,0-5.7-12.6-15.6-9.1"/>
			<path class="st11" d="M2573.6,427.6c0,0-12.6-16.7-26.7-15.6"/>
			<path class="st11" d="M2517.7,384.4c0,0,12-7.6,11.6-14.3c0,0-4.1-9.4,10.3-16.9"/>
			<path class="st11" d="M2649.8,371.6c1.7,1.1-14.6-6-22.3-1.2"/>
			<path class="st11" d="M2592,328c0,0,18.4,7.8,14.4,18.1c0,0,11.9,10.1,15.3,9"/>
			<path class="st11" d="M2645.2,457.4c0,0,10.5-7.3,1.6-22.5c-9-15.2-3.4-20.2-3.4-20.2"/>
			<path class="st11" d="M2652.6,419.4c0,0,4.6-32.9-12-37.5c-17.8-4.9-31.9-14-33.8-21.7c0,0,0.3-9.4-7.3-12"/>
			<path class="st11" d="M2668.4,414.2c-0.7,0.7-4,12.3-11.3,12.4"/>
		</g>
	</g>
</g>
</svg>
