<?xml version="1.0" encoding="utf-8"?>
<!-- Generator: Adobe Illustrator 19.0.1, SVG Export Plug-In . SVG Version: 6.00 Build 0)  -->
<svg version="1.1" id="Layer_1" xmlns="http://www.w3.org/2000/svg" xmlns:xlink="http://www.w3.org/1999/xlink" x="0px" y="0px"
	 viewBox="0 0 109 16.8" style="enable-background:new 0 0 109 16.8;" xml:space="preserve">
<style type="text/css">
	.st0{fill:#747475;}
	.st1{fill:#6E6F71;}
</style>
<g>
	<path class="st1" d="M5.3,10c0,0.7-0.2,1.2-0.6,1.6C4.4,12,3.8,12.2,3,12.2H2.4c-0.6,0-1-0.2-1.3-0.6s-0.5-1-0.5-1.7
		c0-0.4,0-0.7,0.1-1.1C0.7,8.4,0.8,8,1,7.7h0.7C1.5,8.3,1.4,9,1.4,9.9c0,0.5,0.1,0.9,0.3,1.2c0.2,0.3,0.5,0.4,0.9,0.4H3
		c0.5,0,0.9-0.1,1.1-0.4s0.4-0.6,0.4-1.1V3.2h0.8v6.1h1c0,0,0,0,0,0V10c0,0,0,0,0,0H5.3z"/>
	<path class="st1" d="M6.2,10C6.2,10,6.1,10,6.2,10l0-0.7c0,0,0,0,0,0h1.5V5.6h0.8v3.7h1.3c0,0,0,0,0,0V10c0,0,0,0,0,0H6.2z
		 M7.3,11.8c-0.1,0-0.3,0-0.4-0.1c-0.1-0.1-0.1-0.2-0.1-0.4s0-0.3,0.1-0.4c0.1-0.1,0.2-0.1,0.4-0.1c0.2,0,0.3,0,0.4,0.1
		c0.1,0.1,0.1,0.2,0.1,0.4c0,0.2,0,0.3-0.1,0.4C7.6,11.8,7.4,11.8,7.3,11.8z M8.8,11.8c-0.2,0-0.3,0-0.4-0.1s-0.1-0.2-0.1-0.4
		s0-0.3,0.1-0.4c0.1-0.1,0.2-0.1,0.4-0.1c0.2,0,0.3,0,0.4,0.1c0.1,0.1,0.1,0.2,0.1,0.4s0,0.3-0.1,0.4S9,11.8,8.8,11.8z"/>
	<path class="st1" d="M9.7,10C9.7,10,9.7,10,9.7,10l0-0.7c0,0,0,0,0,0h1.1c-0.2-0.6-0.3-1.1-0.3-1.5c0-0.5,0.1-1,0.3-1.4
		C11,6.1,11.3,6,11.6,5.9s0.6-0.2,0.9-0.2c0.4,0,0.7,0.1,1,0.2s0.5,0.4,0.7,0.7s0.2,0.7,0.2,1c0,0.4-0.1,0.7-0.2,1.1
		c0.1,0.2,0.3,0.3,0.4,0.4c0.2,0.1,0.4,0.1,0.6,0.1h0c0,0,0,0,0,0V10c0,0,0,0,0,0h0c-0.3,0-0.6,0-0.8-0.1c-0.2-0.1-0.4-0.2-0.7-0.5
		c-0.2,0.2-0.4,0.3-0.7,0.4C12.8,10,12.5,10,12.3,10H9.7z M11.3,7.6c0,0.3,0,0.6,0.1,0.8c0,0.3,0.1,0.6,0.3,0.9h0.6
		c0.4,0,0.7-0.1,0.9-0.4s0.3-0.7,0.3-1.2c0-0.4-0.1-0.7-0.3-0.9c-0.2-0.2-0.5-0.4-0.8-0.4c-0.2,0-0.4,0-0.6,0.1
		c-0.2,0.1-0.3,0.2-0.5,0.3c0,0.1-0.1,0.3-0.1,0.4C11.3,7.3,11.3,7.4,11.3,7.6z"/>
	<path class="st1" d="M15.2,10C15.1,10,15.1,10,15.2,10l0-0.7c0,0,0,0,0,0h1.7V5.6h0.8V10H15.2z M15.7,11.8c-0.1,0-0.3,0-0.4-0.1
		c-0.1-0.1-0.1-0.2-0.1-0.4s0-0.3,0.1-0.4c0.1-0.1,0.2-0.1,0.4-0.1c0.2,0,0.3,0,0.4,0.1c0.1,0.1,0.1,0.2,0.1,0.4
		c0,0.2,0,0.3-0.1,0.4C16,11.8,15.9,11.8,15.7,11.8z M17.3,11.8c-0.2,0-0.3,0-0.4-0.1s-0.1-0.2-0.1-0.4s0-0.3,0.1-0.4
		c0.1-0.1,0.2-0.1,0.4-0.1c0.2,0,0.3,0,0.4,0.1c0.1,0.1,0.1,0.2,0.1,0.4s0,0.3-0.1,0.4S17.5,11.8,17.3,11.8z"/>
	<path class="st1" d="M19.5,3.2h0.8V10h-0.8V3.2z"/>
	<path class="st1" d="M32.3,9.3C32.4,9.3,32.4,9.3,32.3,9.3l0,0.7c0,0,0,0,0,0h-1v0.1c0,1.4-0.8,2.1-2.3,2.1h-2.1
		c-0.7,0-1.2-0.2-1.6-0.6c-0.4-0.4-0.6-0.9-0.6-1.6c0-0.8,0.1-1.5,0.4-2.1h0.7c-0.2,0.6-0.3,1.3-0.3,2.1c0,0.5,0.1,0.9,0.4,1.1
		c0.3,0.3,0.6,0.4,1.1,0.4h1.8c0.6,0,1-0.1,1.3-0.3c0.3-0.2,0.4-0.6,0.4-1.1V10h-0.8c-0.7,0-1.2-0.2-1.5-0.5
		c-0.3-0.4-0.5-0.9-0.5-1.5c0-0.7,0.2-1.3,0.7-1.7c0.4-0.4,1-0.6,1.8-0.6h1.2v3.7H32.3z M30.6,9.3v-3h-0.4c-0.5,0-0.9,0.1-1.2,0.4
		c-0.3,0.3-0.4,0.7-0.4,1.2c0,0.5,0.1,0.8,0.3,1c0.2,0.2,0.5,0.3,0.9,0.3H30.6z M29.2,4.8c-0.1,0-0.3,0-0.4-0.1
		c-0.1-0.1-0.1-0.2-0.1-0.4s0-0.3,0.1-0.4c0.1-0.1,0.2-0.1,0.4-0.1c0.2,0,0.3,0,0.4,0.1c0.1,0.1,0.1,0.2,0.1,0.4
		c0,0.2,0,0.3-0.1,0.4C29.5,4.7,29.4,4.8,29.2,4.8z M30.8,4.8c-0.2,0-0.3,0-0.4-0.1c-0.1-0.1-0.1-0.2-0.1-0.4s0-0.3,0.1-0.4
		c0.1-0.1,0.2-0.1,0.4-0.1c0.2,0,0.3,0,0.4,0.1c0.1,0.1,0.1,0.2,0.1,0.4s0,0.3-0.1,0.4C31.1,4.7,30.9,4.8,30.8,4.8z"/>
	<path class="st1" d="M32.2,10C32.2,10,32.2,10,32.2,10l0-0.7c0,0,0,0,0,0H34V5.6h0.8V10H32.2z M32.8,11.8c-0.1,0-0.3,0-0.4-0.1
		c-0.1-0.1-0.1-0.2-0.1-0.4s0-0.3,0.1-0.4c0.1-0.1,0.2-0.1,0.4-0.1c0.2,0,0.3,0,0.4,0.1c0.1,0.1,0.1,0.2,0.1,0.4
		c0,0.2,0,0.3-0.1,0.4C33.1,11.8,33,11.8,32.8,11.8z M34.4,11.8c-0.2,0-0.3,0-0.4-0.1s-0.1-0.2-0.1-0.4s0-0.3,0.1-0.4
		c0.1-0.1,0.2-0.1,0.4-0.1c0.2,0,0.3,0,0.4,0.1c0.1,0.1,0.1,0.2,0.1,0.4s0,0.3-0.1,0.4S34.5,11.8,34.4,11.8z"/>
	<path class="st1" d="M37.8,10v0.2c0,0.6-0.1,1.1-0.4,1.4s-0.7,0.5-1.2,0.5c-0.3,0-0.6-0.1-0.9-0.3l0.2-0.6c0.1,0.1,0.3,0.1,0.4,0.1
		c0.1,0,0.2,0,0.3,0c0.3,0,0.5-0.1,0.6-0.3c0.2-0.2,0.2-0.5,0.2-0.9V5.6h0.8v3.7h1.1c0,0,0,0,0,0V10c0,0,0,0,0,0H37.8z"/>
	<path class="st1" d="M38.8,10C38.8,10,38.8,10,38.8,10l0-0.7c0,0,0,0,0,0h1.1V3.2h0.8v4.4c0.3-0.7,0.6-1.2,1.1-1.5
		c0.4-0.3,0.9-0.5,1.4-0.5c0.7,0,1.2,0.2,1.5,0.6c0.3,0.4,0.5,0.9,0.5,1.7V10H38.8z M44.5,9.3V7.9c0-0.6-0.1-1-0.4-1.2
		c-0.2-0.3-0.6-0.4-1.1-0.4c-0.9,0-1.7,0.8-2.3,2.3v0.7H44.5z"/>
	<path class="st1" d="M49.5,12.2c-0.3,0-0.6-0.1-0.9-0.3l0.2-0.6c0.1,0.1,0.3,0.1,0.4,0.1c0.1,0,0.2,0,0.3,0c0.3,0,0.5-0.1,0.6-0.3
		c0.2-0.2,0.2-0.5,0.2-0.9V5.6h0.8v4.6c0,0.6-0.1,1.1-0.4,1.4S50,12.2,49.5,12.2z M50.6,4.8c-0.2,0-0.3,0-0.4-0.1
		c-0.1-0.1-0.1-0.2-0.1-0.4s0-0.3,0.1-0.4c0.1-0.1,0.2-0.1,0.4-0.1c0.2,0,0.3,0,0.4,0.1c0.1,0.1,0.1,0.2,0.1,0.4s0,0.3-0.1,0.4
		C50.9,4.7,50.8,4.8,50.6,4.8z"/>
	<path class="st1" d="M52.7,3.2h0.8V10h-0.8V3.2z"/>
	<path class="st1" d="M60.4,10c-0.7,0-1.3-0.2-1.7-0.5c-0.4-0.4-0.6-0.9-0.6-1.5c0-0.7,0.2-1.3,0.7-1.7s1-0.6,1.8-0.6h0.6V5.1h0.8
		v4.2h1c0,0,0,0,0,0V10c0,0,0,0,0,0H60.4z M61.1,9.3v-3h-0.6c-0.5,0-1,0.1-1.2,0.4C59,7,58.9,7.4,58.9,7.9c0,0.4,0.1,0.8,0.4,1
		s0.6,0.4,1.1,0.4H61.1z"/>
	<path class="st1" d="M62.8,10C62.8,10,62.8,10,62.8,10l0-0.7c0,0,0,0,0,0H64c-0.2-0.6-0.3-1.1-0.3-1.5c0-0.5,0.1-1,0.3-1.4
		c0.2-0.2,0.5-0.3,0.8-0.4s0.6-0.2,0.9-0.2c0.4,0,0.7,0.1,1,0.2s0.5,0.4,0.7,0.7s0.2,0.7,0.2,1c0,0.5-0.1,0.9-0.3,1.2
		c-0.2,0.3-0.4,0.6-0.7,0.8c-0.3,0.2-0.7,0.3-1.1,0.3H62.8z M64.4,7.6c0,0.3,0,0.6,0.1,0.8c0,0.3,0.1,0.6,0.3,0.9h0.6
		c0.4,0,0.7-0.1,0.9-0.4s0.3-0.7,0.3-1.2c0-0.4-0.1-0.7-0.3-0.9c-0.2-0.2-0.5-0.4-0.8-0.4c-0.2,0-0.4,0-0.6,0.1
		c-0.2,0.1-0.3,0.2-0.5,0.3c0,0.1-0.1,0.3-0.1,0.4C64.4,7.3,64.4,7.4,64.4,7.6z"/>
	<path class="st1" d="M69,3.2h0.8v6.1h1.2c0,0,0,0,0,0V10c0,0,0,0,0,0h-2V3.2z"/>
	<path class="st1" d="M70.8,10C70.8,10,70.8,10,70.8,10l0-0.7c0,0,0,0,0,0H72V5.6h0.8V10H70.8z M72.4,4.8c-0.2,0-0.3,0-0.4-0.1
		s-0.1-0.2-0.1-0.4s0-0.3,0.1-0.4c0.1-0.1,0.2-0.1,0.4-0.1c0.2,0,0.3,0,0.4,0.1c0.1,0.1,0.1,0.2,0.1,0.4s0,0.3-0.1,0.4
		C72.7,4.7,72.6,4.8,72.4,4.8z"/>
	<path class="st1" d="M75.8,10v0.2c0,0.6-0.1,1.1-0.4,1.4s-0.7,0.5-1.2,0.5c-0.3,0-0.6-0.1-0.9-0.3l0.2-0.6c0.1,0.1,0.3,0.1,0.4,0.1
		c0.1,0,0.2,0,0.3,0c0.3,0,0.5-0.1,0.6-0.3c0.2-0.2,0.2-0.5,0.2-0.9V5.6h0.8v3.7h1.1c0,0,0,0,0,0V10c0,0,0,0,0,0H75.8z"/>
	<path class="st1" d="M76.8,10C76.8,10,76.7,10,76.8,10l0-0.7c0,0,0,0,0,0H78V5.6h0.8V10H76.8z M78.3,11.8c-0.2,0-0.3,0-0.4-0.1
		s-0.1-0.2-0.1-0.4s0-0.3,0.1-0.4c0.1-0.1,0.2-0.1,0.4-0.1c0.2,0,0.3,0,0.4,0.1c0.1,0.1,0.1,0.2,0.1,0.4s0,0.3-0.1,0.4
		S78.5,11.8,78.3,11.8z"/>
	<path class="st1" d="M84.9,10c-0.5,0-0.9-0.2-1.2-0.5c-0.3-0.3-0.5-0.7-0.5-1.3c0-0.2,0-0.4,0.1-0.7c0-0.3,0.1-0.5,0.2-0.7h0.7
		C84,7.3,84,7.8,84,8.2c0,0.3,0.1,0.6,0.2,0.8s0.4,0.3,0.6,0.3h3.2V5.6h0.8v3.7H90c0,0,0,0,0,0V10c0,0,0,0,0,0H84.9z M85.2,5.6
		c-0.1,0-0.3,0-0.4-0.1c-0.1-0.1-0.1-0.2-0.1-0.4s0-0.3,0.1-0.4c0.1-0.1,0.2-0.1,0.4-0.1c0.2,0,0.3,0,0.4,0.1
		c0.1,0.1,0.1,0.2,0.1,0.4c0,0.2,0,0.3-0.1,0.4C85.5,5.6,85.4,5.6,85.2,5.6z M86.8,5.6c-0.2,0-0.3,0-0.4-0.1s-0.1-0.2-0.1-0.4
		s0-0.3,0.1-0.4c0.1-0.1,0.2-0.1,0.4-0.1c0.2,0,0.3,0,0.4,0.1c0.1,0.1,0.1,0.2,0.1,0.4s0,0.3-0.1,0.4C87.1,5.6,86.9,5.6,86.8,5.6z"
		/>
	<path class="st1" d="M89.9,10C89.9,10,89.9,10,89.9,10l0-0.7c0,0,0,0,0,0h1.4C91.2,9.1,91,8.9,91,8.7s-0.1-0.5-0.1-0.7
		c0-0.7,0.2-1.3,0.7-1.7c0.4-0.4,1-0.6,1.8-0.6h1.2V10H89.9z M93.7,9.3v-3h-0.4c-0.5,0-0.9,0.1-1.2,0.4c-0.3,0.3-0.4,0.7-0.4,1.2
		c0,0.9,0.4,1.4,1.2,1.4H93.7z M92.8,4.8c-0.2,0-0.3,0-0.4-0.1c-0.1-0.1-0.1-0.2-0.1-0.4s0-0.3,0.1-0.4c0.1-0.1,0.2-0.1,0.4-0.1
		c0.2,0,0.3,0,0.4,0.1c0.1,0.1,0.1,0.2,0.1,0.4s0,0.3-0.1,0.4C93.1,4.7,92.9,4.8,92.8,4.8z"/>
	<path class="st1" d="M96.1,3.2h0.8v6.1h1.2c0,0,0,0,0,0V10c0,0,0,0,0,0h-2V3.2z"/>
	<path class="st1" d="M98,10C98,10,98,10,98,10l0-0.7c0,0,0,0,0,0h1.7V5.6h0.8V10H98z M98.6,11.8c-0.1,0-0.3,0-0.4-0.1
		c-0.1-0.1-0.1-0.2-0.1-0.4s0-0.3,0.1-0.4c0.1-0.1,0.2-0.1,0.4-0.1c0.2,0,0.3,0,0.4,0.1c0.1,0.1,0.1,0.2,0.1,0.4
		c0,0.2,0,0.3-0.1,0.4C98.9,11.8,98.8,11.8,98.6,11.8z M100.2,11.8c-0.2,0-0.3,0-0.4-0.1s-0.1-0.2-0.1-0.4s0-0.3,0.1-0.4
		c0.1-0.1,0.2-0.1,0.4-0.1c0.2,0,0.3,0,0.4,0.1c0.1,0.1,0.1,0.2,0.1,0.4s0,0.3-0.1,0.4S100.3,11.8,100.2,11.8z"/>
	<path class="st1" d="M102,12.2c-0.3,0-0.6-0.1-0.9-0.3l0.2-0.6c0.1,0.1,0.3,0.1,0.4,0.1c0.1,0,0.2,0,0.3,0c0.3,0,0.5-0.1,0.6-0.3
		c0.2-0.2,0.2-0.5,0.2-0.9V5.6h0.8v4.6c0,0.6-0.1,1.1-0.4,1.4S102.5,12.2,102,12.2z"/>
	<path class="st1" d="M104.8,9.3h3c-0.1-0.8-0.3-1.5-0.7-2.1c-0.3-0.6-0.8-1.1-1.4-1.5l0.3-0.7c0.7,0.4,1.3,0.9,1.7,1.6
		c0.4,0.7,0.7,1.6,0.9,2.6V10h-3.8V9.3z"/>
</g>
</svg>
