<?xml version="1.0" encoding="utf-8"?>
<!-- Generator: Adobe Illustrator 19.0.1, SVG Export Plug-In . SVG Version: 6.00 Build 0)  -->
<svg version="1.1" id="Layer_1" xmlns="http://www.w3.org/2000/svg" xmlns:xlink="http://www.w3.org/1999/xlink" x="0px" y="0px"
	 viewBox="-103.2 -65 42 42" style="enable-background:new -103.2 -65 42 42;" xml:space="preserve">
<style type="text/css">
	.st0{fill:#FFFFFF;stroke:#5AC7D9;stroke-width:0.6116;stroke-miterlimit:10;}
	.st1{fill:#BCE5ED;stroke:#5AC7D9;stroke-width:0.6116;stroke-miterlimit:10;}
	.st2{fill:#FFFFFF;stroke:#5AC7D9;stroke-width:0.2513;stroke-miterlimit:10;}
	.st3{fill:#BCE5ED;stroke:#5AC7D9;stroke-width:0.2513;stroke-miterlimit:10;}
</style>
<g>
	<g>
		<g>
			<g>
				<ellipse class="st0" cx="-80.9" cy="-43.3" rx="10.7" ry="5.9"/>
				<ellipse class="st0" cx="-80.9" cy="-45.1" rx="10.7" ry="5.9"/>
			</g>
			<g>
				<ellipse class="st0" cx="-80.9" cy="-46.4" rx="10.7" ry="5.9"/>
				<ellipse class="st1" cx="-80.9" cy="-48.3" rx="10.7" ry="5.9"/>
			</g>
			<g>
				<path class="st2" d="M-84.2-48.6l-2.3,2.1c0,0,7.1,3.1,10,2c0.1,0,0.1-0.1,0.2-0.1C-76.3-44.7-84.2-48.6-84.2-48.6z"/>
				<g>
					<path class="st2" d="M-81.6-50.5l3.1-1.8c0,0,5.2,4.2,4,6.2c0,0.1-0.1,0.1-0.1,0.2l0,0.1L-81.6-50.5z"/>
					<path class="st3" d="M-82.1-51.9l-0.7-0.5l-1.5,0.5c0-0.1-0.1-0.2-0.3-0.3c-0.5-0.3-1.5-0.1-2.2,0.4c-0.7,0.5-0.9,1.1-0.4,1.4
						c0.2,0.1,0.4,0.1,0.6,0.1l-0.7,1c0,0,0.9,0.3,0.8,0.4c-0.1,0.1-1.6,1.7-1.6,1.7l1.3,0.6c0.6-0.5,2.3-2.1,2.3-2.1
						c0,0,0.1,0,0.1,0c0.3,0.1,7.8,3.9,7.8,3.9l0,0l0,0l0.6-0.2l0.5-0.2l0.7-0.8l-7-4.6l3.1-1.8l-1-0.7L-82.1-51.9z M-86.8-50.5
						c-0.4-0.2-0.2-0.7,0.3-1.1c0.6-0.4,1.3-0.5,1.7-0.3c0.1,0.1,0.2,0.2,0.2,0.3l-1.2,0.4l-0.6,0.9C-86.5-50.4-86.7-50.4-86.8-50.5
						z"/>
				</g>
			</g>
		</g>
		<g>
			<g>
				<ellipse class="st0" cx="-80.9" cy="-48.2" rx="10.7" ry="5.9"/>
				<ellipse class="st0" cx="-80.9" cy="-50" rx="10.7" ry="5.9"/>
			</g>
			<g>
				<ellipse class="st0" cx="-80.9" cy="-51.3" rx="10.7" ry="5.9"/>
				<ellipse class="st1" cx="-80.9" cy="-53.2" rx="10.7" ry="5.9"/>
			</g>
			<g>
				<path class="st2" d="M-84.2-53.5l-2.3,2.1c0,0,7.1,3.1,10,2c0.1,0,0.1-0.1,0.2-0.1C-76.3-49.6-84.2-53.5-84.2-53.5z"/>
				<g>
					<path class="st2" d="M-81.6-55.4l3.1-1.8c0,0,5.2,4.2,4,6.2c0,0.1-0.1,0.1-0.1,0.2l0,0.1L-81.6-55.4z"/>
					<path class="st3" d="M-82.1-56.8l-0.7-0.5l-1.5,0.5c0-0.1-0.1-0.2-0.3-0.3c-0.5-0.3-1.5-0.1-2.2,0.4c-0.7,0.5-0.9,1.1-0.4,1.4
						c0.2,0.1,0.4,0.1,0.6,0.1l-0.7,1c0,0,0.9,0.3,0.8,0.4c-0.1,0.1-1.6,1.7-1.6,1.7l1.3,0.6c0.6-0.5,2.3-2.1,2.3-2.1
						c0,0,0.1,0,0.1,0c0.3,0.1,7.8,3.9,7.8,3.9l0,0l0,0l0.6-0.2l0.5-0.2l0.7-0.8l-7-4.6l3.1-1.8l-1-0.7L-82.1-56.8z M-86.8-55.4
						c-0.4-0.2-0.2-0.7,0.3-1.1c0.6-0.4,1.3-0.5,1.7-0.3c0.1,0.1,0.2,0.2,0.2,0.3l-1.2,0.4l-0.6,0.9C-86.5-55.3-86.7-55.3-86.8-55.4
						z"/>
				</g>
			</g>
		</g>
		<g>
			<g>
				<ellipse class="st0" cx="-80.9" cy="-53.1" rx="10.7" ry="5.9"/>
				<ellipse class="st0" cx="-80.9" cy="-54.9" rx="10.7" ry="5.9"/>
			</g>
			<g>
				<ellipse class="st0" cx="-80.9" cy="-56.2" rx="10.7" ry="5.9"/>
				<ellipse class="st1" cx="-80.9" cy="-58.1" rx="10.7" ry="5.9"/>
			</g>
			<g>
				<path class="st2" d="M-84.2-58.4l-2.3,2.1c0,0,7.1,3.1,10,2c0.1,0,0.1-0.1,0.2-0.1C-76.3-54.4-84.2-58.4-84.2-58.4z"/>
				<g>
					<path class="st2" d="M-81.6-60.3l3.1-1.8c0,0,5.2,4.2,4,6.2c0,0.1-0.1,0.1-0.1,0.2l0,0.1L-81.6-60.3z"/>
					<path class="st3" d="M-82.1-61.7l-0.7-0.5l-1.5,0.5c0-0.1-0.1-0.2-0.3-0.3c-0.5-0.3-1.5-0.1-2.2,0.4c-0.7,0.5-0.9,1.1-0.4,1.4
						c0.2,0.1,0.4,0.1,0.6,0.1l-0.7,1c0,0,0.9,0.3,0.8,0.4c-0.1,0.1-1.6,1.7-1.6,1.7l1.3,0.6c0.6-0.5,2.3-2.1,2.3-2.1
						c0,0,0.1,0,0.1,0c0.3,0.1,7.8,3.9,7.8,3.9l0,0l0,0l0.6-0.2l0.5-0.2l0.7-0.8l-7-4.6l3.1-1.8l-1-0.7L-82.1-61.7z M-86.8-60.3
						c-0.4-0.2-0.2-0.7,0.3-1.1c0.6-0.4,1.3-0.5,1.7-0.3c0.1,0.1,0.2,0.2,0.2,0.3l-1.2,0.4l-0.6,0.9C-86.5-60.2-86.7-60.2-86.8-60.3
						z"/>
				</g>
			</g>
		</g>
	</g>
	<g>
		<g>
			<g>
				<ellipse class="st0" cx="-89.5" cy="-33.9" rx="10.7" ry="5.9"/>
				<ellipse class="st0" cx="-89.5" cy="-35.7" rx="10.7" ry="5.9"/>
			</g>
			<g>
				<ellipse class="st0" cx="-89.5" cy="-37" rx="10.7" ry="5.9"/>
				<ellipse class="st1" cx="-89.5" cy="-38.8" rx="10.7" ry="5.9"/>
			</g>
			<g>
				<path class="st2" d="M-92.8-39.2l-2.3,2.1c0,0,7.1,3.1,10,2c0.1,0,0.1-0.1,0.2-0.1C-84.9-35.2-92.8-39.2-92.8-39.2z"/>
				<g>
					<path class="st2" d="M-90.2-41l3.1-1.8c0,0,5.2,4.2,4,6.2c0,0.1-0.1,0.1-0.1,0.2l0,0.1L-90.2-41z"/>
					<path class="st3" d="M-90.7-42.4l-0.7-0.5l-1.5,0.5c0-0.1-0.1-0.2-0.3-0.3c-0.5-0.3-1.5-0.1-2.2,0.4s-0.9,1.1-0.4,1.4
						c0.2,0.1,0.4,0.1,0.6,0.1l-0.7,1c0,0,0.9,0.3,0.8,0.4c-0.1,0.1-1.6,1.7-1.6,1.7l1.3,0.6c0.6-0.5,2.3-2.1,2.3-2.1
						c0,0,0.1,0,0.1,0c0.3,0.1,7.8,3.9,7.8,3.9l0,0l0,0l0.6-0.2l0.5-0.2l0.7-0.8l-7-4.6l3.1-1.8l-1-0.7L-90.7-42.4z M-95.4-41.1
						c-0.4-0.2-0.2-0.7,0.3-1.1c0.6-0.4,1.3-0.5,1.7-0.3c0.1,0.1,0.2,0.2,0.2,0.3l-1.2,0.4L-95-41C-95.1-41-95.3-41-95.4-41.1z"/>
				</g>
			</g>
		</g>
		<g>
			<g>
				<ellipse class="st0" cx="-89.5" cy="-38.8" rx="10.7" ry="5.9"/>
				<ellipse class="st0" cx="-89.5" cy="-40.6" rx="10.7" ry="5.9"/>
			</g>
			<g>
				<ellipse class="st0" cx="-89.5" cy="-41.9" rx="10.7" ry="5.9"/>
				<ellipse class="st1" cx="-89.5" cy="-43.7" rx="10.7" ry="5.9"/>
			</g>
			<g>
				<path class="st2" d="M-92.8-44.1l-2.3,2.1c0,0,7.1,3.1,10,2c0.1,0,0.1-0.1,0.2-0.1C-84.9-40.1-92.8-44.1-92.8-44.1z"/>
				<g>
					<path class="st2" d="M-90.2-45.9l3.1-1.8c0,0,5.2,4.2,4,6.2c0,0.1-0.1,0.1-0.1,0.2l0,0.1L-90.2-45.9z"/>
					<path class="st3" d="M-90.7-47.3l-0.7-0.5l-1.5,0.5c0-0.1-0.1-0.2-0.3-0.3c-0.5-0.3-1.5-0.1-2.2,0.4c-0.7,0.5-0.9,1.1-0.4,1.4
						c0.2,0.1,0.4,0.1,0.6,0.1l-0.7,1c0,0,0.9,0.3,0.8,0.4c-0.1,0.1-1.6,1.7-1.6,1.7l1.3,0.6c0.6-0.5,2.3-2.1,2.3-2.1
						c0,0,0.1,0,0.1,0c0.3,0.1,7.8,3.9,7.8,3.9l0,0l0,0l0.6-0.2l0.5-0.2l0.7-0.8l-7-4.6l3.1-1.8l-1-0.7L-90.7-47.3z M-95.4-46
						c-0.4-0.2-0.2-0.7,0.3-1.1c0.6-0.4,1.3-0.5,1.7-0.3c0.1,0.1,0.2,0.2,0.2,0.3l-1.2,0.4l-0.6,0.9C-95.1-45.9-95.3-45.9-95.4-46z"
						/>
				</g>
			</g>
		</g>
		<g>
			<g>
				<ellipse class="st0" cx="-89.5" cy="-43.7" rx="10.7" ry="5.9"/>
				<ellipse class="st0" cx="-89.5" cy="-45.5" rx="10.7" ry="5.9"/>
			</g>
			<g>
				<ellipse class="st0" cx="-89.5" cy="-46.8" rx="10.7" ry="5.9"/>
				<ellipse class="st1" cx="-89.5" cy="-48.6" rx="10.7" ry="5.9"/>
			</g>
			<g>
				<path class="st2" d="M-92.8-49l-2.3,2.1c0,0,7.1,3.1,10,2C-85-45-85-45-84.9-45C-84.9-45-92.8-49-92.8-49z"/>
				<g>
					<path class="st2" d="M-90.2-50.8l3.1-1.8c0,0,5.2,4.2,4,6.2c0,0.1-0.1,0.1-0.1,0.2l0,0.1L-90.2-50.8z"/>
					<path class="st3" d="M-90.7-52.2l-0.7-0.5l-1.5,0.5c0-0.1-0.1-0.2-0.3-0.3c-0.5-0.3-1.5-0.1-2.2,0.4c-0.7,0.5-0.9,1.1-0.4,1.4
						c0.2,0.1,0.4,0.1,0.6,0.1l-0.7,1c0,0,0.9,0.3,0.8,0.4c-0.1,0.1-1.6,1.7-1.6,1.7l1.3,0.6c0.6-0.5,2.3-2.1,2.3-2.1
						c0,0,0.1,0,0.1,0C-92.5-48.8-85-45-85-45l0,0l0,0l0.6-0.2l0.5-0.2l0.7-0.8l-7-4.6l3.1-1.8l-1-0.7L-90.7-52.2z M-95.4-50.9
						c-0.4-0.2-0.2-0.7,0.3-1.1c0.6-0.4,1.3-0.5,1.7-0.3c0.1,0.1,0.2,0.2,0.2,0.3l-1.2,0.4l-0.6,0.9C-95.1-50.8-95.3-50.8-95.4-50.9
						z"/>
				</g>
			</g>
		</g>
	</g>
	<g>
		<g>
			<ellipse class="st0" cx="-74.8" cy="-29.8" rx="10.7" ry="5.9"/>
			<ellipse class="st0" cx="-74.8" cy="-31.7" rx="10.7" ry="5.9"/>
		</g>
		<g>
			<g>
				<ellipse class="st0" cx="-74.8" cy="-33" rx="10.7" ry="5.9"/>
				<ellipse class="st1" cx="-74.8" cy="-34.8" rx="10.7" ry="5.9"/>
			</g>
			<g>
				<path class="st2" d="M-78.1-35.2l-2.3,2.1c0,0,7.1,3.1,10,2c0.1,0,0.1-0.1,0.2-0.1C-70.2-31.2-78.1-35.2-78.1-35.2z"/>
				<g>
					<path class="st2" d="M-75.5-37l3.1-1.8c0,0,5.2,4.2,4,6.2c0,0.1-0.1,0.1-0.1,0.2l0,0.1L-75.5-37z"/>
					<path class="st3" d="M-76-38.4l-0.7-0.5l-1.5,0.5c0-0.1-0.1-0.2-0.3-0.3c-0.5-0.3-1.5-0.1-2.2,0.4s-0.9,1.1-0.4,1.4
						c0.2,0.1,0.4,0.1,0.6,0.1l-0.7,1c0,0,0.9,0.3,0.8,0.4c-0.1,0.1-1.6,1.7-1.6,1.7l1.3,0.6c0.6-0.5,2.3-2.1,2.3-2.1
						c0,0,0.1,0,0.1,0c0.3,0.1,7.8,3.9,7.8,3.9l0,0l0,0l0.6-0.2l0.5-0.2l0.7-0.8l-7-4.6l3.1-1.8l-1-0.7L-76-38.4z M-80.7-37
						c-0.4-0.2-0.2-0.7,0.3-1.1c0.6-0.4,1.3-0.5,1.7-0.3c0.1,0.1,0.2,0.2,0.2,0.3l-1.2,0.4l-0.6,0.9C-80.4-36.9-80.6-37-80.7-37z"/>
				</g>
			</g>
		</g>
	</g>
</g>
</svg>
