<?xml version="1.0" encoding="utf-8"?>
<!-- Generator: Adobe Illustrator 19.0.1, SVG Export Plug-In . SVG Version: 6.00 Build 0)  -->
<svg version="1.1" id="Layer_1" xmlns="http://www.w3.org/2000/svg" xmlns:xlink="http://www.w3.org/1999/xlink" x="0px" y="0px"
	 viewBox="16.2 -90.4 37 37" style="enable-background:new 16.2 -90.4 37 37;" xml:space="preserve">
<style type="text/css">
	.st0{fill:#026165;}
</style>
<g>
	<defs>
		<path id="SVGID_1_" d="M-645.6-169.4v4.1h-2.6v-4.1h-4.1v-2.6h4.1v-4.1h2.6v4.1h4.1v2.6H-645.6L-645.6-169.4z M-655.1-185.1h-2.8
			c2.1,1.8,3.2,3.8,3.2,6c0,1.5-0.4,2.7-1.2,3.8c-0.5,0.7-1.4,1.5-2.6,2.5c-0.8,0.8-1.2,1.6-1.2,2.2c0,0.7,0.4,1.3,1.2,1.9l1.6,1.2
			c1.2,1,2.1,1.8,2.6,2.5c0.7,1.1,1.1,2.3,1.1,3.7c0,2.3-1,4.2-3,5.8c-2.2,1.8-5.1,2.6-8.7,2.6c-3.1,0-5.5-0.7-7.2-2
			c-1.6-1.2-2.4-2.6-2.4-4.4c0-2.3,1.1-4.1,3.4-5.4c1.8-1.1,4.7-1.8,8.5-2c-0.9-1.1-1.3-2.1-1.3-3c0-0.4,0.1-1,0.4-1.7
			c-0.7,0-1.1,0-1.4,0c-2.3,0-4.1-0.7-5.5-2.2c-1.3-1.3-1.9-2.9-1.9-4.8c0-2.4,1-4.4,2.9-6c1.9-1.6,4.6-2.4,7.9-2.4h9.2
			L-655.1-185.1L-655.1-185.1z M-666.7-164.6c-2.6,0.9-3.8,2.4-3.8,4.6c0,1.6,0.7,2.9,2.2,3.9c1.4,1,3.3,1.5,5.7,1.5
			c2.1,0,3.7-0.5,4.9-1.4c1.1-0.9,1.6-2,1.6-3.4c0-1.1-0.4-2-1.2-2.9c-0.6-0.7-1.8-1.6-3.7-3c-0.2,0-0.6,0-1,0
			C-663.8-165.4-665.3-165.1-666.7-164.6L-666.7-164.6z M-660-182.3c-1.1-1.9-2.5-2.9-4.2-2.9c-1.5,0-2.7,0.7-3.4,2
			c-0.4,0.7-0.7,1.7-0.7,2.8c0,1.8,0.4,3.5,1.3,5.1c1.1,1.9,2.5,2.9,4.2,2.9c1.2,0,2.2-0.4,3-1.2c0.7-0.7,1.1-1.8,1.1-3.3
			C-658.6-178.9-659.1-180.7-660-182.3L-660-182.3z"/>
	</defs>
	<use xlink:href="#SVGID_1_"  style="overflow:visible;fill:#026165;"/>
	<clipPath id="SVGID_2_">
		<use xlink:href="#SVGID_1_"  style="overflow:visible;"/>
	</clipPath>
</g>
<g>
	<g>
		<g>
			<defs>
				<path id="SVGID_5_" d="M52.2-87.4c-1.5,0.9-3.1,1.5-4.8,1.8C46-87,44-87.9,41.8-87.9c-4.2,0-7.6,3.4-7.6,7.6
					c0,0.6,0.1,1.2,0.2,1.7C28.2-79,22.6-82,18.8-86.6c-0.7,1.1-1,2.4-1,3.8c0,2.6,1.3,4.9,3.4,6.3c-1.2,0-2.4-0.4-3.4-1v0.1
					c0,3.7,2.6,6.7,6.1,7.4c-0.6,0.2-1.3,0.3-2,0.3c-0.5,0-1,0-1.4-0.1c1,3,3.8,5.2,7.1,5.3c-2.6,2-5.9,3.2-9.4,3.2
					c-0.6,0-1.2,0-1.8-0.1c3.4,2.1,7.3,3.4,11.6,3.4c14,0,21.6-11.5,21.6-21.6l0-1c1.5-1.1,2.8-2.4,3.8-3.9c-1.4,0.6-2.8,1-4.4,1.2
					C50.4-84.1,51.6-85.6,52.2-87.4L52.2-87.4z"/>
			</defs>
			<use xlink:href="#SVGID_5_"  style="overflow:visible;fill:#026165;"/>
			<clipPath id="SVGID_3_">
				<use xlink:href="#SVGID_5_"  style="overflow:visible;"/>
			</clipPath>
		</g>
	</g>
</g>
<path class="st0" d="M-567.2-180.9h-30c-2.1,0-3.7,1.7-3.7,3.8l0,22.5c0,2.1,1.7,3.8,3.8,3.8h30c2.1,0,3.8-1.7,3.8-3.8v-22.5
	C-563.5-179.2-565.2-180.9-567.2-180.9z M-567.2-173.4l-15,9.4l-15-9.4v-3.8l15,9.4l15-9.4V-173.4z"/>
<g>
	<path class="st0" d="M-471.1-130.8c0-0.4,0.1-0.8,0.1-1.2c0.2-1.4,0.7-2.6,1.4-3.8c1.1-2,2.5-3.7,4.2-5.3c1.5-1.5,3.2-2.8,5.1-3.9
		c1.2-0.7,2.4-1.2,3.8-1.4c0.7-0.1,1.3-0.1,2,0.1c1.1,0.3,1.7,1.1,1.9,2.2c0.1,0.9,0,1.8-0.3,2.6c0,0,0,0.1,0,0.1
		c-0.1,0.5,0,0.7,0.5,0.6c0.4-0.1,0.8-0.3,1.2-0.4c1.5-0.5,2.9-0.9,4.5-0.9c0.7,0,1.4,0.1,2,0.5c0.9,0.5,1.3,1.2,1.4,2.2
		c0,0.7-0.1,1.4-0.4,2.1c0,0.1-0.1,0.3-0.1,0.4c-0.1,0.3,0,0.5,0.3,0.7c0.3,0.1,0.6,0.2,0.9,0.3c0.9,0.4,1.8,0.9,2.5,1.6
		c1.3,1.3,1.6,2.9,1.2,4.7c-0.3,1.3-1.1,2.4-1.9,3.4c-1.4,1.6-3.2,2.8-5.1,3.7c-2,0.9-4,1.5-6.2,1.8c-0.8,0.1-1.5,0.1-2.3,0.2
		c-0.1,0-0.2,0-0.2,0c-0.5,0-1.1,0-1.6,0c-0.1,0-0.2,0-0.2,0c-0.5,0-1-0.1-1.6-0.1c-2-0.2-4-0.7-5.9-1.5c-1.7-0.7-3.2-1.6-4.5-2.8
		c-1.2-1.1-2-2.5-2.3-4.1c-0.1-0.4-0.1-0.8-0.1-1.1C-471.1-130.6-471.1-130.7-471.1-130.8z M-456.6-122.9c0.4,0,1.2-0.1,2-0.2
		c1.9-0.3,3.7-0.9,5.4-1.9c1.3-0.8,2.4-1.7,3.2-3c0.7-1.2,1-2.5,0.7-3.8c-0.2-1.1-0.8-2.1-1.7-2.9c-1.2-1.2-2.7-1.9-4.4-2.4
		c-2-0.6-4.1-0.7-6.1-0.4c-1.8,0.2-3.5,0.7-5.1,1.5c-1.5,0.8-2.8,1.7-3.8,3.1c-0.6,0.9-1.1,1.9-1.1,3.1c0,1.5,0.5,2.7,1.5,3.7
		c1,1.1,2.3,1.8,3.7,2.3C-460.6-123.1-458.8-122.8-456.6-122.9z"/>
	<path class="st0" d="M-443.7-150.8c0.1,0,0.2,0,0.2,0.1c2.6,0.1,4.8,1.2,6.6,3.1c1.3,1.4,2.2,3.1,2.5,5c0.3,1.6,0.2,3.2-0.3,4.7
		c-0.2,0.7-0.9,1-1.4,0.9c-0.7-0.1-1.2-0.6-1.3-1.3c0-0.2,0-0.4,0.1-0.6c0.2-0.7,0.3-1.4,0.3-2.1c0-1.3-0.3-2.4-1-3.5
		c-1.2-1.9-2.8-3-5.1-3.4c-0.8-0.1-1.7-0.1-2.5,0.1c-0.6,0.1-1.4-0.3-1.6-1c-0.2-0.8,0.3-1.5,1.1-1.7c0.5-0.1,1-0.1,1.6-0.2
		c0.1,0,0.2,0,0.2-0.1C-444-150.8-443.8-150.8-443.7-150.8z"/>
	<path class="st0" d="M-439.1-141c-0.1,0.5-0.2,1-0.3,1.4c-0.1,0.5-0.6,0.9-1.2,0.9c-0.5,0-1-0.4-1.1-0.9c0-0.2,0-0.5,0-0.7
		c0.3-1-0.1-2-0.9-2.6c-0.6-0.4-1.2-0.5-1.9-0.4c-0.6,0.1-1.2-0.3-1.4-0.9c-0.2-0.6,0.2-1.3,0.8-1.4c1-0.3,1.9-0.2,2.8,0.2
		c1.7,0.7,2.7,2,3,3.9C-439.2-141.3-439.2-141.1-439.1-141C-439.2-141-439.1-141-439.1-141z"/>
	<path class="st0" d="M-456.8-134.6c1.6,0,2.8,0.4,3.9,1.2c1.7,1.4,2.2,3.5,1.3,5.5c-0.7,1.5-1.9,2.5-3.4,3.1
		c-1.5,0.6-3.1,0.7-4.7,0.1c-1.3-0.5-2.4-1.3-2.9-2.6c-0.6-1.5-0.4-2.9,0.4-4.3c1-1.5,2.4-2.4,4.1-2.8
		C-457.5-134.6-457-134.6-456.8-134.6z M-458.8-130.3c-0.8,0.1-1.6,0.5-2,1.4c-0.5,1,0.1,2.1,1.2,2.3c0.9,0.2,1.6-0.1,2.2-0.8
		c0.4-0.5,0.6-1,0.5-1.6C-457.1-129.8-457.8-130.3-458.8-130.3z M-455.1-130.6c0-0.3-0.2-0.5-0.4-0.6c-0.4-0.1-0.9,0.2-1.1,0.6
		c-0.1,0.3,0,0.6,0.3,0.7C-455.8-129.6-455.1-130-455.1-130.6z"/>
</g>
</svg>
