<?xml version="1.0" encoding="utf-8"?>
<!-- Generator: Adobe Illustrator 19.0.1, SVG Export Plug-In . SVG Version: 6.00 Build 0)  -->
<svg version="1.1" id="Layer_1" xmlns="http://www.w3.org/2000/svg" xmlns:xlink="http://www.w3.org/1999/xlink" x="0px" y="0px"
	 viewBox="-641 -15.5 37 37" style="enable-background:new -641 -15.5 37 37;" xml:space="preserve">
<style type="text/css">
	.st0{fill:#026165;}
</style>
<g>
	<defs>
		<path id="SVGID_1_" d="M-608.9,3.7v4.1h-2.6V3.7h-4.1V1.1h4.1V-3h2.6v4.1h4.1v2.6H-608.9L-608.9,3.7z M-618.4-12h-2.8
			c2.1,1.8,3.2,3.8,3.2,6c0,1.5-0.4,2.7-1.2,3.8c-0.5,0.7-1.4,1.5-2.6,2.5c-0.8,0.8-1.2,1.6-1.2,2.2c0,0.7,0.4,1.3,1.2,1.9l1.6,1.2
			c1.2,1,2.1,1.8,2.6,2.5c0.7,1.1,1.1,2.3,1.1,3.7c0,2.3-1,4.2-3,5.8c-2.2,1.8-5.1,2.6-8.7,2.6c-3.1,0-5.5-0.7-7.2-2
			c-1.6-1.2-2.4-2.6-2.4-4.4c0-2.3,1.1-4.1,3.4-5.4c1.8-1.1,4.7-1.8,8.5-2c-0.9-1.1-1.3-2.1-1.3-3c0-0.4,0.1-1,0.4-1.7
			c-0.7,0-1.1,0-1.4,0c-2.3,0-4.1-0.7-5.5-2.2c-1.3-1.3-1.9-2.9-1.9-4.8c0-2.4,1-4.4,2.9-6c1.9-1.6,4.6-2.4,7.9-2.4h9.2L-618.4-12
			L-618.4-12z M-630,8.5c-2.6,0.9-3.8,2.4-3.8,4.6c0,1.6,0.7,2.9,2.2,3.9c1.4,1,3.3,1.5,5.7,1.5c2.1,0,3.7-0.5,4.9-1.4
			c1.1-0.9,1.6-2,1.6-3.4c0-1.1-0.4-2-1.2-2.9c-0.6-0.7-1.8-1.6-3.7-3c-0.2,0-0.6,0-1,0C-627.1,7.7-628.6,8-630,8.5L-630,8.5z
			 M-623.4-9.2c-1.1-1.9-2.5-2.9-4.2-2.9c-1.5,0-2.7,0.7-3.4,2c-0.4,0.7-0.7,1.7-0.7,2.8c0,1.8,0.4,3.5,1.3,5.1
			c1.1,1.9,2.5,2.9,4.2,2.9c1.2,0,2.2-0.4,3-1.2c0.7-0.7,1.1-1.8,1.1-3.3C-621.9-5.8-622.4-7.6-623.4-9.2L-623.4-9.2z"/>
	</defs>
	<use xlink:href="#SVGID_1_"  style="overflow:visible;fill:#026165;"/>
	<clipPath id="SVGID_2_">
		<use xlink:href="#SVGID_1_"  style="overflow:visible;"/>
	</clipPath>
</g>
</svg>
