<?xml version="1.0" encoding="utf-8"?>
<!-- Generator: Adobe Illustrator 19.0.1, SVG Export Plug-In . SVG Version: 6.00 Build 0)  -->
<svg version="1.1" id="Layer_1" xmlns="http://www.w3.org/2000/svg" xmlns:xlink="http://www.w3.org/1999/xlink" x="0px" y="0px"
	 viewBox="-641 -15.5 37 37" style="enable-background:new -641 -15.5 37 37;" xml:space="preserve">
<style type="text/css">
	.st0{fill:#FFFFFF;}
</style>
<g>
	<path class="st0" d="M-640.9,8.1c0-0.4,0.1-0.8,0.1-1.2c0.2-1.4,0.7-2.6,1.4-3.8c1.1-2,2.5-3.7,4.2-5.3c1.5-1.5,3.2-2.8,5.1-3.9
		c1.2-0.7,2.4-1.2,3.8-1.4c0.7-0.1,1.3-0.1,2,0.1c1.1,0.3,1.7,1.1,1.9,2.2c0.1,0.9,0,1.8-0.3,2.6c0,0,0,0.1,0,0.1
		c-0.1,0.5,0,0.7,0.5,0.6c0.4-0.1,0.8-0.3,1.2-0.4c1.5-0.5,2.9-0.9,4.5-0.9c0.7,0,1.4,0.1,2,0.5c0.9,0.5,1.3,1.2,1.4,2.2
		c0,0.7-0.1,1.4-0.4,2.1c0,0.1-0.1,0.3-0.1,0.4c-0.1,0.3,0,0.5,0.3,0.7c0.3,0.1,0.6,0.2,0.9,0.3c0.9,0.4,1.8,0.9,2.5,1.6
		c1.3,1.3,1.6,2.9,1.2,4.7c-0.3,1.3-1.1,2.4-1.9,3.4c-1.4,1.6-3.2,2.8-5.1,3.7c-2,0.9-4,1.5-6.2,1.8c-0.8,0.1-1.5,0.1-2.3,0.2
		c-0.1,0-0.2,0-0.2,0c-0.5,0-1.1,0-1.6,0c-0.1,0-0.2,0-0.2,0c-0.5,0-1-0.1-1.6-0.1c-2-0.2-4-0.7-5.9-1.5c-1.7-0.7-3.2-1.6-4.5-2.8
		c-1.2-1.1-2-2.5-2.3-4.1c-0.1-0.4-0.1-0.8-0.1-1.1C-640.9,8.3-640.9,8.2-640.9,8.1z M-626.4,16c0.4,0,1.2-0.1,2-0.2
		c1.9-0.3,3.7-0.9,5.4-1.9c1.3-0.8,2.4-1.7,3.2-3c0.7-1.2,1-2.5,0.7-3.8c-0.2-1.1-0.8-2.1-1.7-2.9c-1.2-1.2-2.7-1.9-4.4-2.4
		c-2-0.6-4.1-0.7-6.1-0.4c-1.8,0.2-3.5,0.7-5.1,1.5c-1.5,0.8-2.8,1.7-3.8,3.1c-0.6,0.9-1.1,1.9-1.1,3.1c0,1.5,0.5,2.7,1.5,3.7
		c1,1.1,2.3,1.8,3.7,2.3C-630.4,15.8-628.6,16-626.4,16z"/>
	<path class="st0" d="M-613.5-11.9c0.1,0,0.2,0,0.2,0.1c2.6,0.1,4.8,1.2,6.6,3.1c1.3,1.4,2.2,3.1,2.5,5c0.3,1.6,0.2,3.2-0.3,4.7
		c-0.2,0.7-0.9,1-1.4,0.9c-0.7-0.1-1.2-0.6-1.3-1.3c0-0.2,0-0.4,0.1-0.6c0.2-0.7,0.3-1.4,0.3-2.1c0-1.3-0.3-2.4-1-3.5
		c-1.2-1.9-2.8-3-5.1-3.4c-0.8-0.1-1.7-0.1-2.5,0.1c-0.6,0.1-1.4-0.3-1.6-1c-0.2-0.8,0.3-1.5,1.1-1.7c0.5-0.1,1-0.1,1.6-0.2
		c0.1,0,0.2,0,0.2-0.1C-613.8-11.9-613.6-11.9-613.5-11.9z"/>
	<path class="st0" d="M-608.9-2.1c-0.1,0.5-0.2,1-0.3,1.4c-0.1,0.5-0.6,0.9-1.2,0.9c-0.5,0-1-0.4-1.1-0.9c0-0.2,0-0.5,0-0.7
		c0.3-1-0.1-2-0.9-2.6c-0.6-0.4-1.2-0.5-1.9-0.4c-0.6,0.1-1.2-0.3-1.4-0.9c-0.2-0.6,0.2-1.3,0.8-1.4c1-0.3,1.9-0.2,2.8,0.2
		c1.7,0.7,2.7,2,3,3.9C-609-2.5-609-2.3-608.9-2.1C-609-2.1-609-2.1-608.9-2.1z"/>
	<path class="st0" d="M-626.6,4.2c1.6,0,2.8,0.4,3.9,1.2c1.7,1.4,2.2,3.5,1.3,5.5c-0.7,1.5-1.9,2.5-3.4,3.1
		c-1.5,0.6-3.1,0.7-4.7,0.1c-1.3-0.5-2.4-1.3-2.9-2.6c-0.6-1.5-0.4-2.9,0.4-4.3c1-1.5,2.4-2.4,4.1-2.8
		C-627.4,4.3-626.9,4.3-626.6,4.2z M-628.6,8.5c-0.8,0.1-1.6,0.5-2,1.4c-0.5,1,0.1,2.1,1.2,2.3c0.9,0.2,1.6-0.1,2.2-0.8
		c0.4-0.5,0.6-1,0.5-1.6C-626.9,9-627.6,8.5-628.6,8.5z M-624.9,8.3c0-0.3-0.2-0.5-0.4-0.6c-0.4-0.1-0.9,0.2-1.1,0.6
		c-0.1,0.3,0,0.6,0.3,0.7C-625.7,9.3-625,8.9-624.9,8.3z"/>
</g>
</svg>
