<svg id="Layer_1" xmlns="http://www.w3.org/2000/svg" viewBox="0 0 549.4 411.1">
  <style>
    .st0{fill:#5ac7da;stroke-width:3;stroke-miterlimit:10}
    .st0,.st1{stroke:#e1f3f7}
    .st1{fill:#89d4e1}
    .st1,.st2{stroke-width:3;stroke-miterlimit:10}
    .st2{fill:none;stroke:#b6e3eb}
    .st3{fill:#00abc1}
    .st3,.st4{stroke:#e1f3f7;stroke-width:3;stroke-miterlimit:10}
    .st4{fill:#36c2d6}
  </style>
  <path class="st0" d="M65.5 279.5c3.6-.4 7.6-.1 11.9 1.1.5.2 1 .6 1.1 1.1l1 3.3c.1.4.1.9-.1 1.3-1.4 2.6-5.8 13.2 7.4 23.1.3.2.5.5.6.9 1.9 6.4 20.2 68.4 22.5 76.4.2.5.1 1.1-.3 1.6-3.9 4.7-9.2 8.3-15.6 9.9-6 1.5-11.9 1.1-17.3-.9-.5-.2-.9-.6-1-1.1l-22.1-77.7c-.1-.4-.1-.8.1-1.2 1.2-2.7 6-14.8-6-23.7-.3-.2-.5-.5-.6-.9-.2-.7-.5-1.8-.7-2.6-.1-.6 0-1.2.5-1.6 1.4-1.3 4.7-4.2 9.5-6.3"/>
  <path class="st1" d="M11.1 117.7l46.4 167.6c1.4.2 2.8.2 4.2-.2 1.9-.5 3.5-1.4 4.7-2.7L19.3 115.7s-1.7-5.9-1.7-16c0-.2 0-.5-.1-.7L10 82.4l-8.4 2.5 2.2 17.9c0 .3.2.6.3.8 1.2 1.3 4.7 6.2 7 14.1z"/>
  <path class="st2" d="M100.4 395.6l-22.8-78.5c-.2-.5-.6-1-1.1-1.1-5.9-1.7-9.5 1.9-10.7 3.6-.3.4-.5 1-.3 1.5L87.7 399s7 .3 12.7-3.4z"/>
  <path class="st3" d="M180.4 391.9c10 4.2 32.4 13.6 41.4 17.4 2 .8 4.2-.3 4.6-2.4 2.1-9.8 8-35.6 15.4-54.5 9.3-23.6 33.8-81.3 56.6-163.5.2-.8-.2-1.7-.9-2l-24.7-11.3c-.9-.4-1.9 0-2.3.8-5.5 12.3-42.6 95.3-64.1 161.9-.3.9-.6 1.8-1.1 2.7-2.1 4.7-4.3 9.4-26.6 45.6-1.1 2.1-.5 4.4 1.7 5.3z"/>
  <path class="st1" d="M297.5 186.9s-4.4-9.1 35-100.1c0 0 5.2-17.2 17.4-22.6 0 0 19.2-7.8 39.6 43.3.7 1.8 3.4 1.2 3.3-.7-.7-17.2-8.3-56.6-61.2-85-.4-.2-.8-.3-1.2-.2-4.1 1-27.7 5.8-36.8-12.9-.2-.3-.5-.6-.8-.8l-13.6-6.3c-.6-.3-1.2-.2-1.7.2-2.8 2-11.9 9.9-12.2 28.6 0 .7.4 1.3.9 1.6l15.4 7.9c.3.2.7.2 1 .2 4.4-.7 34.1-6.3 27.6 36.2 0 0-24.2 80.2-37.7 99.4l25 11.2z"/>
  <path class="st2" d="M187.1 394.7l25.3-39.4c.1-.1.2-.3.2-.5 1.5-5 26.6-85 53.1-139.5.3-.7 1.1-1 1.8-.7l8.7 3.4c.6.2 1 .9.9 1.6-1.2 6.7-9 43.6-50.8 140.4l-.3.9-10.3 46-28.6-12.2z"/>
  <g>
    <path class="st4" d="M474 109.2c-8.4-5.6-8.7 1.2-8.7 1.2l10 19.2c.3.5.2 1.2-.1 1.7l-8.5 13.4c-.3.5-.9.8-1.5.8l-15.8-.7c-.6 0-1.1-.4-1.4-.9l-10-19.2s-3-2-3.7 3.4c-.8 6.3-1.7 22 7.1 30.8 8.7 8.9 17.3 11.3 23.2 35.5 5.9 24.2 34.8 149.9 34.8 149.9 4.3 15.3 2.3 19.6 2.3 19.6-6.3 16.1-4.7 22.8-4.7 22.8 2.2 14 15.3 23.6 29.2 21.4 14-2.2 23.6-15.3 21.4-29.2 0 0 0-11.5-14.2-20.6-1.1-.7-2-1.6-2.7-2.7-1.5-2.4-4-7.7-6.4-18.1l-36.6-157.6c-5.3-20.4-3.1-22-3.1-22 19.8-26.7-6-45.7-10.6-48.7zm61.4 262.4L539 387c.1.6 0 1.2-.5 1.6L527 399.5c-.4.4-1 .6-1.6.4l-15.2-4.6c-.6-.2-1-.6-1.1-1.2l-3.6-15.4c-.1-.6 0-1.2.5-1.6l11.5-10.9c.4-.4 1-.6 1.6-.4l15.2 4.6c.6.2 1 .6 1.1 1.2z"/>
    <path class="st2" d="M505.8 339.8s5.6-2.6 10.7-1.9l-32.9-151.6s-8.5-.9-12.6 3.8l34.8 149.7z"/>
  </g>
  <path class="st4" d="M212.3 155.5c.3-2 .4-4 .4-6.2 0-2.1-.2-4.2-.4-6.2l13.3-10.4c1.2-.9 1.5-2.7.8-4l-12.6-21.8c-.8-1.4-2.5-1.9-3.9-1.4l-15.7 6.3c-3.3-2.5-6.8-4.6-10.7-6.2l-2.4-16.7c-.2-1.5-1.5-2.7-3.1-2.7h-25.2c-1.6 0-2.9 1.1-3.1 2.7l-2.4 16.7c-3.9 1.6-7.4 3.7-10.7 6.2l-15.7-6.3c-1.5-.6-3.1 0-3.9 1.4l-12.6 21.8c-.8 1.4-.4 3.1.8 4l13.3 10.4c-.3 2-.4 4.1-.4 6.2 0 2.1.2 4.2.4 6.2l-13.3 10.4c-1.2.9-1.5 2.7-.8 4l12.6 21.8c.8 1.4 2.5 1.9 3.9 1.4l15.7-6.3c3.3 2.5 6.8 4.6 10.7 6.2l2.4 16.7c.2 1.5 1.5 2.7 3.1 2.7H178c1.6 0 2.9-1.1 3.1-2.7l2.4-16.7c3.9-1.6 7.4-3.7 10.7-6.2l15.7 6.3c1.5.6 3.1 0 3.9-1.4l12.6-21.8c.8-1.4.4-3.1-.8-4l-13.3-10.4zm-46.9 15.9c-12.2 0-22.1-9.9-22.1-22.1s9.9-22.1 22.1-22.1 22.1 9.9 22.1 22.1-9.9 22.1-22.1 22.1zM420.6 311.7c.2-1.5.3-3 .3-4.6 0-1.6-.1-3.1-.3-4.6l9.8-7.7c.9-.7 1.1-2 .6-3l-9.3-16.1c-.6-1-1.8-1.4-2.8-1l-11.6 4.7c-2.4-1.9-5-3.4-7.9-4.6l-1.8-12.4c-.1-1.1-1.1-2-2.3-2h-18.7c-1.2 0-2.1.8-2.3 2l-1.8 12.4c-2.8 1.2-5.5 2.8-7.9 4.6l-11.6-4.7c-1.1-.4-2.3 0-2.8 1l-9.3 16.1c-.6 1-.3 2.3.6 3l9.8 7.7a35.53 35.53 0 0 0 0 9.2l-9.8 7.7c-.9.7-1.1 2-.6 3l9.3 16.1c.6 1 1.8 1.4 2.8 1l11.6-4.7c2.4 1.9 5 3.4 7.9 4.6l1.8 12.4c.1 1.1 1.1 2 2.3 2h18.7c1.2 0 2.1-.8 2.3-2l1.8-12.4c2.8-1.2 5.5-2.8 7.9-4.6l11.6 4.7c1.1.4 2.3 0 2.8-1l9.3-16.1c.6-1 .3-2.3-.6-3l-9.8-7.7zm-34.7 11.8c-9 0-16.3-7.3-16.3-16.3s7.3-16.3 16.3-16.3 16.3 7.3 16.3 16.3c.1 9-7.3 16.3-16.3 16.3z"/>
</svg>
