<svg id="Layer_1" xmlns="http://www.w3.org/2000/svg" viewBox="0 0 364.4 364.4">
  <style>
    .st0{fill:#89d3e2}
    .st1{fill:#fce700;stroke:#26bcd3;stroke-width:8.5301}
    .st1,.st2{stroke-miterlimit:10}
    .st2{stroke-width:7}
    .st2,.st3{fill:none;stroke:#89d3e2}
    .st3{stroke-width:6.1252}
    .st3,.st4{stroke-miterlimit:10}
    .st4{fill:#e1f3f7;stroke:#26bcd3;stroke-width:3.7554}
    .st5{fill:#26bcd3}
    .st6{fill:none;stroke:#26bcd3;stroke-width:1.7381;stroke-miterlimit:10}
  </style>
  <path class="st0" d="M15.5 162.6c53.1 0 106.2 1.6 159.2 1.7 2.3 0 2.3-3.5 0-3.5-53.1 0-106.2-1.6-159.2-1.7-2.2 0-2.2 3.5 0 3.5zM72.7 135.5c63.1.9 126.3-1.4 189.2 3.9 2.2.2 2.2-3.3 0-3.5-62.9-5.3-126.1-2.9-189.2-3.9-2.3-.1-2.3 3.4 0 3.5zM169.8 122.5c59.1 0 118.1-2.8 177.2-2.8 2.3 0 2.3-3.5 0-3.5-59.1 0-118.1 2.8-177.2 2.8-2.3 0-2.3 3.5 0 3.5zM30.5 104.6c53.9 1.3 107.9.7 161.7-1.7 2.2-.1 2.3-3.6 0-3.5-53.9 2.5-107.8 3.1-161.7 1.7-2.3 0-2.3 3.5 0 3.5zM43.1 73.4H181c2.3 0 2.3-3.5 0-3.5H43.1c-2.2 0-2.2 3.5 0 3.5zM95.1 42.5c46.5-1.3 93-.3 139.4 3 2.2.2 2.2-3.3 0-3.5-46.4-3.2-92.9-4.2-139.4-3-2.2.1-2.2 3.6 0 3.5zM179.7 63.4c44.3 0 88.6.1 132.8.1 2.3 0 2.3-3.5 0-3.5-44.3 0-88.6 0-132.8-.1-2.2 0-2.2 3.5 0 3.5zM132.5 88.2c65 1.6 130.2.2 195-4.6 2.2-.2 2.3-3.7 0-3.5-64.9 4.8-130 6.2-195 4.6-2.3-.1-2.3 3.4 0 3.5zM15.5 119.7c43.6 1.6 87.1 3.3 130.7 0 2.2-.2 2.3-3.7 0-3.5-43.5 3.3-87.1 1.6-130.7 0-2.2-.1-2.2 3.4 0 3.5zM5.6 176.5c48.5.5 97 .4 145.6-.5 2.2 0 2.3-3.5 0-3.5-48.5.8-97 1-145.6.5-2.3 0-2.3 3.5 0 3.5zM118.4 149.5c63.5-1.8 127.2-1.6 190.8-.9 16.1.2 32.2.4 48.3.9 2.3.1 2.3-3.4 0-3.5-63.8-1.6-127.7-1.7-191.6-.9-15.8.2-31.7.5-47.5.9-2.3 0-2.3 3.5 0 3.5zM288 133.5c22.1-1.2 44.1 1.5 66.2 0 2.2-.1 2.3-3.7 0-3.5-22.1 1.5-44.1-1.2-66.2 0-2.3.1-2.3 3.6 0 3.5zM227 106.3c38.4-.2 76.8-5 115.3-2.9 2.3.1 2.2-3.4 0-3.5-38.4-2.1-76.8 2.7-115.3 2.9-2.2 0-2.2 3.5 0 3.5zM113.8 87.3H29.3c-2.3 0-2.3 3.5 0 3.5h84.5c2.3 0 2.3-3.5 0-3.5zM148.6 50H59c-2.3 0-2.3 3.5 0 3.5h89.6c2.3 0 2.3-3.5 0-3.5zM255.6 47.3h38.7c2.3 0 2.3-3.5 0-3.5h-38.7c-2.2 0-2.2 3.5 0 3.5zM100.7 26.1H217c2.3 0 2.3-3.5 0-3.5H100.7c-2.2 0-2.2 3.5 0 3.5zM173.5 12.5h50.7c2.3 0 2.3-3.5 0-3.5h-50.7c-2.2 0-2.2 3.5 0 3.5zM229.5 33.6h46.9c2.3 0 2.3-3.5 0-3.5h-46.9c-2.3 0-2.3 3.5 0 3.5zM85.2 146H8.1c-2.3 0-2.3 3.5 0 3.5h77.1c2.2 0 2.2-3.5 0-3.5zM47.2 132H10.7c-2.3 0-2.3 3.5 0 3.5h36.5c2.3 0 2.3-3.5 0-3.5zM192.2 174.6c55.7 0 111.3 1.5 167 1.5 2.3 0 2.3-3.5 0-3.5-55.7 0-111.3-1.5-167-1.5-2.3 0-2.3 3.5 0 3.5zM270.5 162.6H347c2.3 0 2.3-3.5 0-3.5h-76.5c-2.2 0-2.2 3.5 0 3.5zM80.2 189.3H7.5c-2.3 0-2.3 3.5 0 3.5h72.7c2.3 0 2.3-3.5 0-3.5zM103.9 189.5c46.4-1.7 92.9-1 139.3 2.1 2.2.1 2.2-3.4 0-3.5-46.4-3.1-92.9-3.8-139.3-2.1-2.3.1-2.3 3.6 0 3.5zM261.8 191.6h97.3c2.3 0 2.3-3.5 0-3.5h-97.3c-2.2 0-2.2 3.5 0 3.5zM340.2 209.2H227c-2.3 0-2.3 3.5 0 3.5h113.2c2.3 0 2.3-3.5 0-3.5zM209.6 206.7H82.7c-2.3 0-2.3 3.5 0 3.5h126.9c2.2 0 2.2-3.5 0-3.5zM64 206.7H8.7c-2.3 0-2.3 3.5 0 3.5H64c2.3 0 2.3-3.5 0-3.5zM10.8 225.2h139.1c2.3 0 2.3-3.5 0-3.5H10.8c-2.3 0-2.3 3.5 0 3.5zM188.4 231.3c31.1-1.3 62.2-1.7 93.3-1 2.3 0 2.3-3.5 0-3.5-31.1-.7-62.2-.3-93.3 1-2.2.1-2.2 3.6 0 3.5zM315.3 225.2h39.2c2.3 0 2.3-3.5 0-3.5h-39.2c-2.2 0-2.2 3.5 0 3.5zM343.9 240.3h-98.3c-2.3 0-2.3 3.5 0 3.5h98.3c2.3 0 2.3-3.5 0-3.5zM202.1 237.6c-29.9 1.4-59.8.7-89.6-2.1-2.2-.2-2.2 3.3 0 3.5 29.8 2.7 59.7 3.4 89.6 2.1 2.3-.1 2.3-3.6 0-3.5zM80.2 231.6H14.3c-2.3 0-2.3 3.5 0 3.5h65.9c2.3 0 2.3-3.5 0-3.5zM15.5 248.9c39.4-.6 78.8 0 118.2 1.5 2.3.1 2.2-3.4 0-3.5-39.4-1.6-78.8-2.1-118.2-1.5-2.2 0-2.2 3.5 0 3.5zM177.2 253.6c32.3.8 64.7.5 97-.8 2.2-.1 2.3-3.6 0-3.5-32.3 1.4-64.7 1.6-97 .8-2.2 0-2.2 3.5 0 3.5zM297.9 256.3H347c2.3 0 2.3-3.5 0-3.5h-49.1c-2.2 0-2.2 3.5 0 3.5zM320.3 266.5h-85.8c-2.3 0-2.3 3.5 0 3.5h85.8c2.3 0 2.3-3.5 0-3.5zM221.1 261.1c-17.9 3.1-36.4-.1-54.4-.1-18.2 0-36.1-1.7-54.1-4.2-2.2-.3-3.2 3.1-.9 3.4 18.4 2.6 36.5 4.3 55.1 4.3 18.4 0 37.1 3.1 55.3-.1 2.2-.3 1.3-3.7-1-3.3zM89.2 256.8c-22.7 1-45.3 2-67.9 3.3-2.2.1-2.3 3.6 0 3.5 22.6-1.3 45.3-2.3 67.9-3.3 2.2-.1 2.2-3.6 0-3.5zM30.5 273.8c46.8-.8 93.8-1.4 140.6.5 2.3.1 2.2-3.4 0-3.5-46.8-1.8-93.8-1.3-140.6-.5-2.3 0-2.3 3.5 0 3.5zM165.2 289.8c33.1.9 66.9-.1 99.6-4.6 2.2-.3 1.3-3.7-.9-3.4-32.5 4.4-66 5.3-98.7 4.4-2.2.1-2.2 3.6 0 3.6zM283 285c15.9-.4 31.8-.8 47.8-1.2 2.2-.1 2.3-3.6 0-3.5-15.9.4-31.8.8-47.8 1.2-2.3.1-2.3 3.6 0 3.5zM181 298.8H70.3c-2.3 0-2.3 3.5 0 3.5H181c2.2 0 2.2-3.5 0-3.5zM141.2 281.4H46.7c-2.3 0-2.3 3.5 0 3.5h94.5c2.2 0 2.2-3.5 0-3.5zM205.9 310h-112c-2.3 0-2.3 3.5 0 3.5h112c2.2 0 2.2-3.5 0-3.5zM205.9 301.1h70.9c2.3 0 2.3-3.5 0-3.5h-70.9c-2.3 0-2.3 3.5 0 3.5zM232 314.7h62.2c2.3 0 2.3-3.5 0-3.5H232c-2.3 0-2.3 3.5 0 3.5zM291.7 296.1h28.6c2.3 0 2.3-3.5 0-3.5h-28.6c-2.3 0-2.3 3.5 0 3.5zM149.9 322.4H74c-2.3 0-2.3 3.5 0 3.5h75.9c2.2 0 2.2-3.5 0-3.5zM171 327.2h89.6c2.3 0 2.3-3.5 0-3.5H171c-2.2 0-2.2 3.5 0 3.5zM210.8 334.9H96.4c-2.3 0-2.3 3.5 0 3.5h114.4c2.3 0 2.3-3.5 0-3.5zM174.8 352.1h72.8c2.3 0 2.3-3.5 0-3.5h-72.8c-2.3 0-2.3 3.5 0 3.5z"/>
  <circle class="st3" cx="182.2" cy="182.2" r="179.1"/>
  <g>
    <path class="st4" d="M168.5 103.1c-19.2-19.2-49.8-18.9-68.3.5-18.4 19.3-17.9 50.2 1.1 69.2 13.5 13.5 32.7 17.3 49.3 11.6l87.6 87.6.2.2 27.4-2.5 2.7-27.9.1-.1-88-88c5.7-17.2 1.6-36.9-12.1-50.6zm-56.5 12c5.1-5.4 13.6-5.4 18.9-.1 5.3 5.3 5.4 13.9.2 19.3-5.1 5.3-13.6 5.3-18.8 0-5.2-5.2-5.4-13.8-.3-19.2z"/>
    <path class="st5" d="M177.7 151.3l-1.9 13.2 12.3-1.9-1.3 13 12.4-1.4 13.1 12.8-.9 13.2 12.9-1.6-1.4 13.1 14.4-1.7 10 9.7-2.2 14.1 12.8-2.3-2 12.6 12.6-2.3-91-90.1z"/>
    <path class="st6" d="M176.4 163.9l91.6 91.7M165.9 170.5L265.4 271M157.1 179.3l94.7 94.7"/>
  </g>
</svg>
