<svg id="Layer_1" xmlns="http://www.w3.org/2000/svg" viewBox="0 0 359.8 361.6">
  <style>
    .st0{fill:#89d3e2}
    .st1{fill:#fce700;stroke:#26bcd3;stroke-width:8.5301}
    .st1,.st2{stroke-miterlimit:10}
    .st2{stroke-width:7}
    .st2,.st3{fill:none;stroke:#89d3e2}
    .st3{stroke-width:6.1252}
    .st3,.st4{stroke-miterlimit:10}
    .st4{fill:#e1f3f7;stroke:#26bcd3;stroke-width:3.7554}
    .st5{fill:#26bcd3}
    .st6{fill:none;stroke:#26bcd3;stroke-width:1.7381;stroke-miterlimit:10}
    .st7{fill:#f5ea1a}
    .st8{fill:url(#SVGID_1_)}
    .st9{fill:#01838f}
    .st10{fill:#b6e3eb}
    .st11{fill:#0297a7;stroke:#016064;stroke-width:1.4271}
    .st11,.st12{stroke-miterlimit:10}
    .st12{fill:#26bcd3;stroke:#5ac7da;stroke-width:2.1407}
    .st13{fill:#b6e3eb;stroke:#0297a7}
    .st13,.st14{stroke-width:1.4271;stroke-miterlimit:10}
    .st14{fill:#fee900;stroke:#e5eb9d}
    .st15{fill:#e1f3f7}
    .st16{fill:#00abc1;stroke:#0297a7;stroke-width:1.4271;stroke-miterlimit:10}
    .st17{fill:#3cc2d6}
    .st18{fill:#fefce9}
    .st19{fill:#b6e3eb;stroke:#0297a7;stroke-width:1.995;stroke-miterlimit:10}
  </style>
  <path class="st7" d="M174.8 274.5l-20.3 5.6s12.3 71.1 29.7 78.4c.7.3.9.4 1.3.5l-10.7-84.5zM195 273l21.9 2.4s-1 70.1-16.4 81.5c-.4.3-.8.7-1.2.9l-.5.3L195 273z"/>
  <radialGradient id="SVGID_1_" cx="-17.489" cy="979.788" r="26.577" gradientTransform="rotate(-16.17 -2280.247 -79.758)" gradientUnits="userSpaceOnUse">
    <stop offset=".031" stop-color="#FFF"/>
    <stop offset=".199" stop-color="#fffffb"/>
    <stop offset=".314" stop-color="#fefdf3"/>
    <stop offset=".414" stop-color="#fdfce7"/>
    <stop offset=".504" stop-color="#fcf9d7"/>
    <stop offset=".588" stop-color="#fbf7c1"/>
    <stop offset=".668" stop-color="#faf3a6"/>
    <stop offset=".745" stop-color="#f8f086"/>
    <stop offset=".816" stop-color="#f7ed5a"/>
    <stop offset=".877" stop-color="#f5ea1a"/>
    <stop offset="1" stop-color="#f5ea1a"/>
  </radialGradient>
  <circle class="st8" cx="188.1" cy="307.7" r="26.6"/>
  <path class="st9" d="M200.4 257.4l-.3-8.7-8.6-3.9c.6-1.4.9-3 .7-4.6-.4-5.5-5.3-9.7-10.8-9.3s-9.7 5.3-9.3 10.8c.1 1.8.8 3.5 1.7 4.9L166 252s1.7 8.2 1.4 8.4c-.7.5-15.4 6.9-15.4 6.9l2.4 13.2c5.2-1.6 20-5.7 20-5.7.1.1.2.3.2.5.4 3 10.6 83.6 10.6 83.6v.2l3.5 1.3 3.1 1.3 6.9-3.6-3.7-85 21.9 2.4-.4-12.5-16.1-5.6zm-26.2-15.9c-.3-4.4 2.9-8.3 7.3-8.6 4.4-.3 8.3 2.9 8.6 7.3.1 1.3-.1 2.5-.6 3.6l-7-3.2-7 4.8c-.7-1.1-1.2-2.5-1.3-3.9z"/>
  <path class="st10" d="M177.2 236.9c-31.6-27.5-58.2-60.2-78.7-96.7-.7-1.2-2.5-.1-1.8 1.1 20.6 36.7 47.3 69.5 79 97.1 1 .9 2.5-.6 1.5-1.5z"/>
  <path class="st11" d="M171.9 70.7c-5.6 0-10.6 2.3-14.4 6-6 2.8-11 7.5-13.8 13.5-9.1 19.4.1 44.4 9 62.4 6 12 23.4 13.1 32.4 4.2 13.2-13.1 24-27.5 24.6-46.9.5-21-17.1-39.3-37.8-39.2z"/>
  <path class="st10" d="M189.1 237.5c10.1-.5 18.3-6.4 26-12.4 8.2-6.3 16-13.2 23.3-20.5 15-15.1 27.8-32.1 38.2-50.6.7-1.2-1.2-2.3-1.8-1.1-9.8 17.4-21.7 33.5-35.5 47.8-6.6 6.8-13.5 13.2-20.9 19.1-8.5 6.9-18 14.9-29.3 15.5-1.4.1-1.4 2.3 0 2.2zM156.3 123.4c-1.4 17.7 3.5 36.4 7.4 53.5 4.1 18.1 8.9 36.1 14.3 53.9.4 1.3 2.5.8 2.1-.6-5.3-17.3-10-34.9-14-52.5-4-17.3-9.1-36.3-7.6-54.3.1-1.3-2.1-1.3-2.2 0z"/>
  <path class="st10" d="M180.3 232c-25.6-29.7-37.7-69.6-32.9-108.5.2-1.4-2-1.4-2.1 0-4.9 39.5 7.5 79.9 33.5 110 .9 1 2.4-.5 1.5-1.5z"/>
  <path class="st10" d="M181.6 231.7c13.5-37.3 24.2-75.7 30.7-114.8.2-1.3-1.8-1.9-2.1-.6-6.5 39.1-17.2 77.5-30.7 114.8-.4 1.3 1.7 1.9 2.1.6zM188.5 232.8c13.3-32.6 24-66.2 32.7-100.3.3-1.3-1.7-1.9-2.1-.6-8.6 34.1-19.3 67.8-32.7 100.3-.5 1.3 1.5 1.8 2.1.6z"/>
  <path class="st10" d="M110.5 134.7c6 22.8 14.9 44.8 26.6 65.3 8.7 15.3 22.4 39.1 43.8 32.5 1.3-.4.8-2.5-.6-2.1-22.4 7-36.4-22.1-44.8-37.8-9.9-18.5-17.5-38.2-22.9-58.5-.4-1.3-2.4-.8-2.1.6z"/>
  <path class="st12" d="M83.9 216.2H66.1c.7-2 1.2-4.1 1.2-6.4 0-9.6-7.3-17.3-16.3-17.3-6.5 0-12 4-14.7 9.9-2.8-2.9-6.8-4.7-11.2-4.7-8.6 0-15.6 7-15.6 15.6 0 1.1.1 2.1.3 3.1-5 1-8.8 5.4-8.8 10.7 0 6 4.9 10.9 10.9 10.9h71.9c6 0 10.9-4.9 10.9-10.9s-4.7-10.9-10.8-10.9zM345.6 242.8h-12.8c-.7-4-4.6-7-9.4-7-.9 0-1.7.1-2.5.3v-.3c0-5.9-5.1-10.6-11.4-10.6-6.3 0-11.4 4.7-11.4 10.6 0 2.7 1.1 5.1 2.9 7h-11.6c-4.3 0-7.8 3.5-7.8 7.8s3.5 7.8 7.8 7.8h56.3c4.3 0 7.8-3.5 7.8-7.8-.1-4.3-3.6-7.8-7.9-7.8z"/>
  <path class="st13" d="M124.9 60.3c-4.7-5.5-10.6-11.3-17.6-13.7-.8-.3-1.5-.6-2.3-.8-3.3-.9-6.4-1-9.3-.4-11.5.9-22 7.8-24.4 20.3-3.6 19.4 10.4 39.9 23.5 53 8.2 8.2 21.8 8.2 30.1 0 5.2-5.2 7.1-12.7 5.7-19.5.3-.6.6-1.1.9-1.7 5.7-13.4 2.6-26.3-6.6-37.2z"/>
  <path class="st14" d="M168.3.7c-16.1 0-26.2 13.9-29.1 20.1-9.4 20 .1 45.8 9.3 64.3 6.2 12.4 24.1 13.5 33.4 4.3C195.4 75.9 206.6 61 207.2 41 207.8 19.5 189.6.7 168.3.7z"/>
  <path class="st15" d="M88.3 52.9c16.4-3.3 36.3.8 39.7 19.8.2 1.2 2 .7 1.8-.5-3.6-20-24.6-24.5-41.9-21.1-1.2.2-.7 2 .4 1.8z"/>
  <path class="st16" d="M182.7 62.4c-3.4-11.3-15.1-28.6-43.3-29.3-6.8-.2-16 2.9-22.7 12-10.1 13.6-7.5 24.7-2.2 40.8 4.5 13.6 15.8 24.2 25.9 33.9 8 7.7 23.6 5.5 29.9-3.4 6.2-8.7 10.7-18.3 12.8-28.7 3.3-8 2-17.4-.4-25.3z"/>
  <path class="st17" d="M131.1 40.6c10.1-2.3 21.1-2.3 30.3 3 9.9 5.7 14.6 16 15.7 27 .1 1.5 2.6 1.6 2.4 0-1.1-11.5-5.8-22.3-15.9-28.6-9.9-6.1-22.1-6.3-33.1-3.8-1.6.5-.9 2.8.6 2.4z"/>
  <path class="st18" d="M166.8 7c10.3.6 20.9 3.8 28.2 11.4 7.9 8.2 9.5 19.5 7.5 30.4-.3 1.5 2 2.2 2.3.6 2.2-11.4.6-23.1-7.3-31.9-7.8-8.6-19.4-12.3-30.7-12.9-1.6-.1-1.6 2.4 0 2.4z"/>
  <path class="st14" d="M278.4 58.7c-5.7 0-20.8 3.4-29.1 20.1-9.8 19.8.1 45.8 9.3 64.3 6.2 12.4 24.1 13.5 33.4 4.3 13.6-13.6 24.8-28.4 25.4-48.4.6-21.5-17.6-40.4-39-40.3z"/>
  <path class="st10" d="M175.6 154.2c-2.2 25.4-2.5 52.3 4.8 76.9.4 1.3 2.5.8 2.1-.6-7.2-24.4-6.9-51.2-4.7-76.4 0-1.3-2.1-1.3-2.2.1z"/>
  <path class="st13" d="M210.9 25.9c-5.7 0-22.8 6.1-29.1 20.1-9.1 20.1.1 45.8 9.3 64.3 6.2 12.4 24.1 13.5 33.4 4.3 13.6-13.6 24.8-28.4 25.4-48.4.6-21.5-17.6-40.4-39-40.3z"/>
  <path class="st15" d="M211.1 32.3c10.2 1.5 20.3 5.4 27.1 13.4 7.5 8.9 8.2 20.5 5.1 31.4-.4 1.5 1.9 2.2 2.3.6 3.1-11 2.5-22.9-4.6-32.3-7-9.2-18.2-13.9-29.3-15.5-1.5-.2-2.1 2.2-.6 2.4z"/>
  <path class="st16" d="M222.1 48.1c-5.7 0-18.4 1-29.1 20.1-10.8 19.3.1 45.8 9.3 64.3 6.2 12.4 24.1 13.5 33.4 4.3 13.6-13.6 24.8-28.4 25.4-48.4.6-21.5-17.7-40.3-39-40.3z"/>
  <path class="st11" d="M70.4 73.8c-5.2 2.4-17.8 9.2-17.8 30.6 0 22.1 19.6 41.4 35.8 54.2 10.9 8.6 27.6 1.9 32-10.3 6.5-18.1 10.3-36.3 2.4-54.6-8.6-19.7-33.1-29-52.4-19.9z"/>
  <path class="st19" d="M15.9 115.3l12 17.1-20.4 4.8s55.5 49.3 70.4 27.6 48.5-7.2 82.2 12 111.7 18 127.3 9.6c15.6-8.4 52.8-10 63.7 2l-17.4-25.8 23.4 4.8s-34.9-39.6-70.9-22.8-88.3 8.2-103.9-1.4c-13.1-8.1-64.3-36.6-79.9-27.9s-12 29.8-86.5 0z"/>
  <g>
    <path class="st9" d="M58.7 134.8c-.6 4.9-1.1 9.9-1.7 14.8-.3 2.2-1.7 6.6.1 8.5 3.4 3.5 11-.5 13.7-2.9.8-.8-.4-2-1.2-1.2-1.9 1.7-4.9 3.6-7.7 3.4-4.3-.3-3.6-3.6-3.2-6.9.6-5.3 1.2-10.5 1.8-15.8.1-1.1-1.7-1-1.8.1zM82.1 154.9c0-5.6-.1-14.7 3.5-19.4 1.4-1.8 2.2-3 3.9-.5.6.9 1.1 1.9 1.8 2.9 2.2 3.1 4.7 6.1 7.1 9.1.7.9 1.9-.4 1.2-1.2-3.2-4.1-6.1-8.7-9.3-12.7-1.4-1.7-2.8-2.4-4.6-.8-2.3 2-3.4 6.5-4 9.4-.9 4.4-1.3 8.9-1.3 13.3 0 1 1.7 1 1.7-.1z"/>
    <path class="st9" d="M94.8 140.2c-4.1.1-8 1.8-12.1 1.9-1.1 0-1.1 1.8 0 1.8 4.1-.1 8-1.8 12.1-1.9 1.2-.1 1.2-1.9 0-1.8zM108.6 146.7c1-7.2 1.1-14.5 4.7-21.1h-1.5c3.5 7.3 4 15.5 6.6 23 .2.7 1.2.9 1.6.2 4.3-6.5 7.4-13.5 9.6-21 .3-1.1-1.4-1.6-1.7-.5-2.1 7.3-5.3 14.2-9.4 20.5.5.1 1.1.1 1.6.2-2.6-7.7-3.1-16.1-6.8-23.5-.3-.6-1.2-.6-1.5 0-3.6 6.7-3.8 14.1-4.8 21.5-.2 1.3 1.5 1.8 1.6.7zM142.2 136.5c-.8 6.5-2.8 12.5-6 18.2-.6 1 1 1.9 1.5.9 3.3-6 5.4-12.3 6.2-19.1.2-1.1-1.6-1.1-1.7 0z"/>
    <path class="st9" d="M135.3 133.3c7.2.3 13.7 2.6 19.6 6.8.9.7 1.8-.9.9-1.5-6.1-4.3-13-6.7-20.4-7-1.3-.1-1.3 1.6-.1 1.7zM160.2 145.9c.2 4-.2 7.8-1.3 11.7-.6 2-2.8 5.1-2.2 7.3.9 3.5 9.3 5.1 12.3 5.9 1.1.3 1.6-1.4.5-1.7-2.6-.7-5.1-1.5-7.6-2.5-2.3-1-2.7-.6-2.7-3.2 0-2 .2-1.9.8-3.7 1.5-4.5 2.1-9.1 1.9-13.8 0-1.2-1.8-1.2-1.7 0z"/>
    <path class="st9" d="M161.3 146.7c4.2-1.1 7.9 1.2 10.5 4.3.7.9 2-.4 1.2-1.2-3-3.6-7.4-5.9-12.2-4.7-1.1.2-.6 1.9.5 1.6zM160.7 158c3.5-.9 7-.2 9.9 2 .9.7 1.8-.9.9-1.5-3.3-2.4-7.3-3.1-11.3-2.2-1 .3-.6 2 .5 1.7zM176.6 151.1v21.7c0 1.1 1.8 1.1 1.8 0v-21.7c-.1-1.1-1.8-1.1-1.8 0z"/>
    <path class="st9" d="M177.4 152c2.6 0 5.8 1.3 7.9 2.7 1.4.9 3.1 2.6 3.4 4.4.5 3.5-5.3 3.9-7.3 4.1-.4 0-.8.3-.8.6-.4 2 .6 2.6 1.9 4.1 2.8 3 5.8 5.8 8.7 8.6.8.8 2-.4 1.2-1.2l-6.2-6.2c-.9-.9-2.8-2.1-3-3.4-.2-1.9-.6-.2 1.2-1.1 2.6-1.4 5.1-1.6 5.9-5 1.5-5.8-8.6-9.3-13-9.4-1 0-1 1.8.1 1.8zM200 158.2v19.9c0 1.1 1.8 1.1 1.8 0v-19.9c0-1.2-1.8-1.2-1.8 0z"/>
    <path class="st9" d="M201.1 159.7c4.3 5.5 3.4 15.8 9.8 19.6 1.4.8 2.4.9 3.1-.7.8-2.2.1-6.3.1-8.6v-9.5c0-1.1-1.8-1.1-1.8 0V174c0 .8.3 2.5 0 3.2-.6 1.2.7 1-.8.4-1.6-.7-2.8-3.5-3.4-4.9-2-4.8-2.5-10-5.8-14.2-.6-.9-1.9.3-1.2 1.2zM236.2 162.8c.3 7.1 1.5 14 3.7 20.7.3 1.1 2 .6 1.7-.5-2.2-6.6-3.4-13.3-3.6-20.3-.1-1-1.8-1-1.8.1z"/>
    <path class="st9" d="M238.1 164c3.4-.7 9.3-1.5 10.8 2.7 2 5.8-5.3 8.2-9.6 7.5-1.1-.2-1.6 1.5-.5 1.7 5.5.9 13.2-1.9 12-8.8-1.1-6.1-8.5-5.7-13.1-4.8-1.2.2-.7 1.9.4 1.7zM254.9 162.5c1.7 6.2 3.7 12.2 6.1 18.1.4 1 2.1.6 1.7-.5-2.4-5.9-4.4-11.9-6.1-18.1-.3-1-2-.6-1.7.5z"/>
    <path class="st9" d="M256.7 163.6c2.1-.8 4.2-1.6 6.4-2.2 1.3-.4 2.6-1.1 3.6.5.4.7.3 1.9.2 2.7-.4 3.6-3.3 6.8-6.9 7.1-1.1.1-1.1 1.9 0 1.8 4.8-.4 8.6-4.6 8.7-9.4.1-1.8-.4-4.7-2.5-5.1-1.2-.2-2.6.3-3.7.7-2.2.6-4.3 1.4-6.4 2.2-.9.4-.4 2.1.6 1.7z"/>
    <path class="st9" d="M259.3 174c4.9-1.6 10-.7 13.9 2.6.9.7 2.1-.5 1.2-1.2-4.4-3.7-10.2-4.9-15.6-3.1-1.1.4-.6 2.1.5 1.7zM289.6 154.9c-4-1.9-8.9-.4-10.6 3.9-1.6 4-1 11.2 2.5 14.1 3.8 3.2 7.8.5 9.4-3.5 1.8-4.5 1.9-10.3-2-13.7-.8-.8-2.1.5-1.2 1.2 2.2 2 2.8 4.7 2.6 7.6-.3 3.3-2.5 10.2-7.1 7.4-6.1-3.7-3.4-19.7 5.6-15.5.9.5 1.8-1 .8-1.5z"/>
  </g>
  <g>
    <path class="st17" d="M72.6 79.6c10-3.3 21.2-4.3 30.9.3 10.3 4.9 15.7 14.7 17.7 25.5.3 1.5 2.6.9 2.3-.6-2.2-11.4-8.1-21.8-18.9-27-10.3-4.9-22.2-4.1-32.8-.6-1.3.6-.7 2.9.8 2.4z"/>
  </g>
  <g>
    <path class="st17" d="M220.3 53.6c10.3.7 20.9 4.1 28.1 11.8 7.8 8.4 9.2 19.6 7 30.5-.3 1.5 2 2.2 2.3.6 2.3-11.3 1-23.1-6.9-32-7.7-8.8-19.2-12.5-30.5-13.4-1.6 0-1.6 2.4 0 2.5z"/>
  </g>
  <g>
    <path class="st18" d="M274.3 64.5c10.3.6 20.9 3.8 28.2 11.4 7.9 8.2 9.5 19.5 7.5 30.4-.3 1.5 2 2.2 2.3.6 2.2-11.4.6-23.1-7.3-31.9-7.8-8.6-19.4-12.3-30.7-12.9-1.5-.1-1.5 2.4 0 2.4z"/>
  </g>
</svg>
