<?xml version="1.0" encoding="utf-8"?>
<!-- Generator: Adobe Illustrator 19.0.1, SVG Export Plug-In . SVG Version: 6.00 Build 0)  -->
<svg version="1.1" id="Layer_1" xmlns="http://www.w3.org/2000/svg" xmlns:xlink="http://www.w3.org/1999/xlink" x="0px" y="0px"
	 viewBox="0 0 52 52" style="enable-background:new 0 0 52 52;" xml:space="preserve">
<style type="text/css">
	.st0{fill:#16BCD3;}
	.st1{fill:none;stroke:#16BCD3;stroke-width:0.498;stroke-miterlimit:10;}
</style>
<g>
	<g>
		<path class="st0" d="M13,29.1c0.1,0.1,0.1,0.1,0.2,0.2c0,0,0,0.1,0,0.1c0,0,0,0.1,0,0.1c-0.3,0.8-0.5,1.7-0.8,2.6
			c-0.1,0.3-0.2,0.6-0.2,1c-0.1,0.3,0.1,0.4,0.4,0.3c0.1-0.1,0.2-0.1,0.3-0.2c1.1-0.7,2.3-1.4,3.4-2.1c0.2-0.1,0.3-0.1,0.5-0.1
			c0.6,0.2,1.1,0.3,1.7,0.4c0.7,0.1,1.4,0.2,2.1,0.2c0.2,0,0.5,0,0.7,0c0,0,0,0,0,0c0,0,0.1,0,0.1,0c0,0,0,0,0-0.1c0,0,0-0.1,0-0.1
			c0-0.2-0.1-0.4-0.1-0.6c-0.1-0.6-0.2-1.1-0.1-1.7c0-0.4,0-0.7,0-1.1c0.1-0.5,0.2-0.9,0.3-1.4c0.1-0.4,0.3-0.9,0.5-1.3
			c0.2-0.4,0.4-0.8,0.7-1.2c0.2-0.4,0.5-0.8,0.8-1.1c1.1-1.2,2.4-2.2,3.8-2.9c1.2-0.6,2.5-1,3.8-1.1c0.7-0.1,1.4-0.1,2.1-0.1
			c0.3,0,0.3,0,0.2-0.3c-0.2-0.6-0.3-1.3-0.6-1.9c-0.9-2.2-2.5-3.9-4.4-5.1c-0.3-0.2-0.6-0.3-0.9-0.5c-0.5-0.2-1-0.5-1.4-0.6
			c-0.7-0.3-1.4-0.5-2.1-0.6c-0.4-0.1-0.8-0.2-1.2-0.2c-0.7-0.1-1.4-0.1-2.1-0.1c-0.7,0-1.4,0.1-2.1,0.2c-0.3,0.1-0.7,0.1-1,0.2
			c-0.6,0.2-1.3,0.4-1.9,0.6c-0.3,0.1-0.6,0.3-0.9,0.4c-1.7,0.9-3.2,2-4.4,3.6c-0.4,0.5-0.7,1-1,1.5c-0.3,0.5-0.5,1.1-0.7,1.7
			c-0.1,0.4-0.3,0.8-0.3,1.2c0,0.2,0,0.4,0,0.5c0,0.4,0,0.7,0,1.1c0,0.2,0,0.4,0,0.5c0,0.4,0,0.7,0.1,1.1c0.1,0.4,0.1,0.7,0.2,1.1
			c0.1,0.2,0.2,0.5,0.2,0.7c0.3,0.7,0.6,1.4,1,2c0.4,0.6,0.8,1.1,1.3,1.6C11.9,28.2,12.4,28.6,13,29.1z M24.5,17.1
			c0-0.9,0.7-1.6,1.6-1.6c0.8,0,1.6,0.6,1.6,1.6c0,0.9-0.7,1.6-1.6,1.6C25.2,18.7,24.4,17.9,24.5,17.1z M16.2,15.5
			c0.9,0,1.6,0.7,1.6,1.6c0,0.9-0.7,1.6-1.6,1.6c-0.9,0-1.7-0.8-1.6-1.6C14.6,16.3,15.3,15.5,16.2,15.5z"/>
		<path class="st0" d="M43.3,26.6c-0.6-1.8-1.7-3.2-3.2-4.4c-0.5-0.4-1.1-0.7-1.6-1c-0.9-0.4-1.8-0.7-2.7-1c-1-0.2-2-0.3-3.1-0.4
			c-0.2,0-0.4,0-0.7,0.1c-0.1,0-0.2,0-0.3,0c-0.3,0-0.6,0.1-0.9,0.1c-0.1,0-0.2,0-0.3,0.1c-0.8,0.2-1.6,0.4-2.4,0.7
			c-0.5,0.2-1,0.5-1.4,0.8c-0.2,0.1-0.3,0.2-0.5,0.3c-0.5,0.4-1,0.8-1.4,1.2c-0.2,0.2-0.4,0.4-0.6,0.6c-0.2,0.2-0.3,0.4-0.5,0.7
			c-0.1,0.2-0.2,0.3-0.3,0.5c-0.6,1.1-1,2.2-1.1,3.5c0,0.5,0,1,0,1.5c0,0.4,0.1,0.7,0.2,1.1c0.1,0.2,0.1,0.4,0.2,0.7
			c0.1,0.2,0.2,0.4,0.3,0.7c0.6,1.3,1.4,2.4,2.5,3.3c2,1.6,4.2,2.5,6.8,2.6c1.1,0.1,2.1,0,3.2-0.2c0.4-0.1,0.8-0.2,1.2-0.3
			c0.2-0.1,0.4-0.1,0.6-0.2c0.1,0,0.1,0,0.1,0c0,0,0.1,0,0.1,0c0.1,0,0.2,0,0.3,0.1c0.8,0.5,1.6,1,2.4,1.4c0.1,0,0.2,0.1,0.2,0.1
			c0.1,0,0.2,0.1,0.2,0.1c0.1,0,0.1,0,0.1,0c0.1,0,0.1-0.1,0.2-0.1c0,0,0-0.1,0-0.1c0-0.1,0-0.1,0-0.2c-0.3-0.8-0.6-1.7-0.9-2.5
			c-0.1-0.2,0-0.2,0.1-0.3c0.1-0.1,0.1-0.1,0.2-0.2c0.2-0.2,0.4-0.4,0.7-0.6c0.6-0.6,1.2-1.3,1.6-2c0.3-0.5,0.5-0.9,0.6-1.4
			c0.2-0.5,0.3-1,0.4-1.4c0.1-0.5,0.1-1,0.1-1.5c0-0.5-0.1-1-0.2-1.5C43.4,27.2,43.4,26.9,43.3,26.6z M29,27.1
			c-0.7,0-1.5-0.6-1.4-1.5c0-0.6,0.7-1.5,1.5-1.4c0.7-0.1,1.4,0.6,1.4,1.5C30.4,26.5,29.8,27.1,29,27.1z M36.8,27.1
			c-0.6,0-1.5-0.6-1.4-1.4c0-0.9,0.8-1.4,1.4-1.4c0.7,0,1.5,0.6,1.5,1.4C38.3,26.4,37.6,27,36.8,27.1z"/>
		<path class="st0" d="M21.5,31.6c0,0-0.1,0-0.1,0"/>
	</g>
	<circle class="st1" cx="26.1" cy="25.9" r="24.9"/>
</g>
</svg>
