<?xml version="1.0" encoding="utf-8"?>
<!-- Generator: Adobe Illustrator 19.0.1, SVG Export Plug-In . SVG Version: 6.00 Build 0)  -->
<svg version="1.1" id="Layer_1" xmlns="http://www.w3.org/2000/svg" xmlns:xlink="http://www.w3.org/1999/xlink" x="0px" y="0px"
	 viewBox="0 0 374.7 30.3" style="enable-background:new 0 0 374.7 30.3;" xml:space="preserve">
<style type="text/css">
	.st0{opacity:0.87;}
	.st1{fill:#010101;}
</style>
<g>
	<path class="st1" d="M4.2,16.9h5.3c-0.2-1.4-0.6-2.7-1.2-3.7s-1.4-1.9-2.5-2.6l0.5-1.2c1.2,0.7,2.2,1.6,3,2.9s1.3,2.8,1.6,4.6h1.8
		c0.1,0,0.1,0,0.1,0.1v1.1c0,0.1,0,0.1-0.1,0.1H4.2V16.9z"/>
	<path class="st1" d="M12.5,18.2C12.4,18.2,12.4,18.1,12.5,18.2L12.4,17c0,0,0-0.1,0.1-0.1h3.1v-6.5H17v7.8H12.5z M13.5,21.4
		c-0.2,0-0.5-0.1-0.6-0.2c-0.2-0.2-0.3-0.4-0.3-0.7c0-0.3,0.1-0.6,0.3-0.7c0.2-0.2,0.4-0.2,0.6-0.2c0.3,0,0.5,0.1,0.6,0.2
		s0.2,0.4,0.2,0.7c0,0.3-0.1,0.5-0.2,0.7C14,21.3,13.8,21.4,13.5,21.4z M16.3,21.4c-0.3,0-0.5-0.1-0.7-0.2c-0.2-0.2-0.2-0.4-0.2-0.7
		c0-0.3,0.1-0.5,0.2-0.7c0.2-0.2,0.4-0.2,0.7-0.2c0.3,0,0.5,0.1,0.7,0.3c0.2,0.2,0.2,0.4,0.2,0.7c0,0.3-0.1,0.5-0.2,0.7
		C16.8,21.3,16.6,21.4,16.3,21.4z"/>
	<path class="st1" d="M19.5,22c-0.5,0-1.1-0.2-1.6-0.5l0.4-1.1c0.3,0.1,0.5,0.2,0.6,0.2c0.2,0,0.3,0.1,0.5,0.1
		c0.5,0,0.9-0.2,1.1-0.6s0.4-0.9,0.4-1.5v-8.2h1.4v8.1c0,1.1-0.2,1.9-0.7,2.5C21.1,21.7,20.4,22,19.5,22z"/>
	<path class="st1" d="M25.3,6h1.4v12.2h-1.4V6z"/>
	<path class="st1" d="M29.1,16.9h5.3c-0.2-1.4-0.6-2.7-1.2-3.7s-1.4-1.9-2.5-2.6l0.5-1.2c1.2,0.7,2.2,1.6,3,2.9s1.3,2.8,1.6,4.6h1.8
		c0.1,0,0.1,0,0.1,0.1v1.1c0,0.1,0,0.1-0.1,0.1h-8.5V16.9z M31.2,8c-0.3,0-0.5-0.1-0.7-0.2S30.4,7.3,30.4,7s0.1-0.5,0.2-0.7
		S31,6,31.2,6c0.3,0,0.5,0.1,0.7,0.3s0.2,0.4,0.2,0.7s-0.1,0.5-0.2,0.7S31.5,8,31.2,8z"/>
	<path class="st1" d="M37.4,18.2C37.3,18.2,37.3,18.1,37.4,18.2L37.3,17c0,0,0-0.1,0.1-0.1h6.7V14c0-0.8-0.2-1.4-0.7-1.8
		s-1.2-0.6-2.2-0.6h-2.7v-1.3c0.3-0.7,0.8-1.4,1.4-2.1s1.3-1.3,2-1.9s1.5-1,2.2-1.2l0.5,1.2c-1,0.4-1.9,1-2.9,1.8s-1.6,1.5-1.9,2.3
		h1.4c1.4,0,2.5,0.3,3.2,0.9s1.1,1.4,1.1,2.5v3.2h2.1c0.1,0,0.1,0,0.1,0.1v1.1c0,0.1,0,0.1-0.1,0.1H37.4z M38,8.1
		c0.3-0.8,1-1.6,2.1-2.6s2.1-1.6,3.1-2.1l0.5,1.1c-0.7,0.2-1.3,0.6-2.1,1.2s-1.4,1.1-1.9,1.7s-1,1.2-1.2,1.7L38,8.1z"/>
	<path class="st1" d="M47.4,18.2C47.3,18.2,47.3,18.1,47.4,18.2L47.3,17c0,0,0-0.1,0.1-0.1h2.1v-6.5h1.4v7.8H47.4z M50.1,21.4
		c-0.3,0-0.5-0.1-0.7-0.2c-0.2-0.2-0.2-0.4-0.2-0.7c0-0.3,0.1-0.5,0.2-0.7c0.2-0.2,0.4-0.2,0.7-0.2c0.3,0,0.5,0.1,0.7,0.3
		c0.2,0.2,0.2,0.4,0.2,0.7c0,0.3-0.1,0.5-0.2,0.7C50.6,21.3,50.4,21.4,50.1,21.4z"/>
	<path class="st1" d="M61.8,18.2c-1,0-1.7-0.2-2.2-0.7s-0.8-1.2-0.8-2.1c0-0.3,0-0.6,0.1-1s0.1-0.8,0.2-1.1h1.3
		c-0.2,0.9-0.2,1.6-0.2,2c0,0.6,0.1,1,0.4,1.3s0.7,0.5,1.2,0.5h6.4V14c0-0.8-0.2-1.4-0.7-1.8s-1.2-0.6-2.2-0.6h-2.7v-1.3
		c0.3-0.7,0.8-1.4,1.4-2.1s1.3-1.3,2-1.9s1.5-1,2.2-1.2l0.5,1.2c-1,0.4-1.9,1-2.9,1.7s-1.6,1.6-2,2.3h1.4c1.4,0,2.5,0.3,3.2,0.9
		s1.1,1.4,1.1,2.5v4.4H61.8z"/>
	<path class="st1" d="M72.2,6h1.4v12.2h-1.4V6z"/>
	<path class="st1" d="M79.1,18.2v0.4c0,1.1-0.2,1.9-0.7,2.5c-0.5,0.6-1.2,0.9-2.1,0.9c-0.5,0-1.1-0.2-1.6-0.5l0.4-1.1
		c0.3,0.1,0.5,0.2,0.6,0.2c0.2,0,0.3,0.1,0.5,0.1c0.5,0,0.9-0.2,1.1-0.6s0.4-0.9,0.4-1.5v-8.2h1.4v6.5h2c0.1,0,0.1,0,0.1,0.1v1.1
		c0,0.1,0,0.1-0.1,0.1H79.1z"/>
	<path class="st1" d="M80.9,18.2C80.9,18.2,80.9,18.1,80.9,18.2L80.9,17c0,0,0-0.1,0.1-0.1h2.6v-6.5H85v6.5h2.4c0.1,0,0.1,0,0.1,0.1
		v1.1c0,0.1,0,0.1-0.1,0.1H80.9z M82.8,8.9c-0.2,0-0.5-0.1-0.6-0.2s-0.3-0.4-0.3-0.7s0.1-0.6,0.3-0.7S82.6,7,82.8,7
		c0.3,0,0.5,0.1,0.6,0.2s0.2,0.4,0.2,0.7c0,0.3-0.1,0.5-0.2,0.7S83.1,8.9,82.8,8.9z M85.6,8.9c-0.3,0-0.5-0.1-0.7-0.2
		s-0.2-0.4-0.2-0.7s0.1-0.5,0.2-0.7S85.3,7,85.6,7c0.3,0,0.5,0.1,0.7,0.3s0.2,0.4,0.2,0.7s-0.1,0.5-0.2,0.7S85.9,8.9,85.6,8.9z"/>
	<path class="st1" d="M97.6,18.2c-0.5,0-0.9-0.1-1.3-0.2s-0.8-0.5-1.3-0.9c-0.2,0.3-0.5,0.6-0.9,0.8s-0.9,0.3-1.4,0.3h-5.5
		c-0.1,0-0.1,0-0.1-0.1V17c0,0,0-0.1,0.1-0.1h2.3v-5.3h1.4v5.3h1.7c0.5,0,0.9-0.2,1.2-0.5s0.4-0.8,0.4-1.3v-3.4h1.4v3.8l0,0.2
		c0.3,0.5,0.6,0.8,0.9,1s0.7,0.3,1.2,0.3h1v-6.5h1.4v7.8H97.6z M93.5,8.9c-0.2,0-0.5-0.1-0.6-0.2s-0.3-0.4-0.3-0.7s0.1-0.6,0.3-0.7
		S93.2,7,93.5,7c0.3,0,0.5,0.1,0.7,0.3s0.2,0.4,0.2,0.7s-0.1,0.5-0.2,0.7S93.8,8.9,93.5,8.9z M94.9,6.7c-0.2,0-0.4-0.1-0.6-0.2
		S94,6.2,94,5.9c0-0.3,0.1-0.5,0.2-0.7S94.6,5,94.9,5c0.2,0,0.4,0.1,0.6,0.2s0.2,0.4,0.2,0.7c0,0.3-0.1,0.5-0.2,0.7
		S95.1,6.7,94.9,6.7z M96.2,8.9c-0.3,0-0.5-0.1-0.7-0.2s-0.2-0.4-0.2-0.7s0.1-0.5,0.2-0.7S96,7,96.2,7c0.3,0,0.5,0.1,0.7,0.3
		s0.2,0.4,0.2,0.7s-0.1,0.5-0.2,0.7S96.5,8.9,96.2,8.9z"/>
	<path class="st1" d="M102.9,6h1.4v12.2h-1.4V6z"/>
	<path class="st1" d="M116.5,18.2c-1.3,0-2.3-0.3-3-1s-1.1-1.6-1.1-2.7c0-1.3,0.4-2.3,1.2-3s1.9-1.1,3.2-1.1h1.1v-1h1.4v7.5h1.8
		c0.1,0,0.1,0,0.1,0.1v1.1c0,0.1,0,0.1-0.1,0.1H116.5z M117.9,16.9v-5.3h-1c-1,0-1.7,0.2-2.2,0.7s-0.8,1.2-0.8,2.1
		c0,0.8,0.2,1.4,0.7,1.8s1.1,0.6,1.9,0.6H117.9z"/>
	<path class="st1" d="M120.9,18.2C120.8,18.2,120.8,18.1,120.9,18.2l-0.1-1.2c0,0,0-0.1,0.1-0.1h2.1v-6.5h1.4v7.8H120.9z
		 M123.6,21.4c-0.3,0-0.5-0.1-0.7-0.2c-0.2-0.2-0.2-0.4-0.2-0.7c0-0.3,0.1-0.5,0.2-0.7c0.2-0.2,0.4-0.2,0.7-0.2
		c0.3,0,0.5,0.1,0.7,0.3c0.2,0.2,0.2,0.4,0.2,0.7c0,0.3-0.1,0.5-0.2,0.7C124.1,21.3,123.9,21.4,123.6,21.4z"/>
	<path class="st1" d="M132.8,6h1.4v12.2h-1.4V6z"/>
	<path class="st1" d="M136.8,22c-0.5,0-1.1-0.2-1.6-0.5l0.4-1.1c0.3,0.1,0.5,0.2,0.6,0.2c0.2,0,0.3,0.1,0.5,0.1
		c0.5,0,0.9-0.2,1.1-0.6s0.4-0.9,0.4-1.5v-8.2h1.4v8.1c0,1.1-0.2,1.9-0.7,2.5C138.5,21.7,137.8,22,136.8,22z"/>
	<path class="st1" d="M147.2,16.9h5.3c-0.2-1.4-0.6-2.7-1.2-3.7s-1.4-1.9-2.5-2.6l0.5-1.2c1.2,0.7,2.2,1.6,3,2.9s1.3,2.8,1.6,4.6
		h1.8c0.1,0,0.1,0,0.1,0.1v1.1c0,0.1,0,0.1-0.1,0.1h-8.5V16.9z"/>
	<path class="st1" d="M155.5,18.2C155.5,18.2,155.4,18.1,155.5,18.2l-0.1-1.2c0,0,0-0.1,0.1-0.1h3.1v-6.5h1.4v7.8H155.5z
		 M156.5,21.4c-0.2,0-0.5-0.1-0.6-0.2c-0.2-0.2-0.3-0.4-0.3-0.7c0-0.3,0.1-0.6,0.3-0.7c0.2-0.2,0.4-0.2,0.6-0.2
		c0.3,0,0.5,0.1,0.6,0.2s0.2,0.4,0.2,0.7c0,0.3-0.1,0.5-0.2,0.7C157,21.3,156.8,21.4,156.5,21.4z M159.3,21.4
		c-0.3,0-0.5-0.1-0.7-0.2c-0.2-0.2-0.2-0.4-0.2-0.7c0-0.3,0.1-0.5,0.2-0.7c0.2-0.2,0.4-0.2,0.7-0.2c0.3,0,0.5,0.1,0.7,0.3
		c0.2,0.2,0.2,0.4,0.2,0.7c0,0.3-0.1,0.5-0.2,0.7C159.8,21.3,159.6,21.4,159.3,21.4z"/>
	<path class="st1" d="M165.5,22c-1.1,0-2-0.3-2.9-0.8l0.6-1.1c0.3,0.2,0.7,0.3,1.1,0.5c0.4,0.1,0.8,0.2,1.2,0.2
		c0.7,0,1.3-0.2,1.7-0.6c0.4-0.4,0.6-0.9,0.6-1.6v-0.5h-1.6c-1.1,0-2-0.3-2.6-0.9s-0.9-1.5-0.9-2.7c0-1.3,0.4-2.3,1.2-3
		s1.9-1.1,3.2-1.1h2.1v8.1c0,1.1-0.3,1.9-1,2.5S166.7,22,165.5,22z M167.8,16.9v-5.3h-0.7c-0.9,0-1.7,0.2-2.2,0.8s-0.8,1.2-0.8,2.1
		c0,0.8,0.2,1.4,0.5,1.8s0.9,0.6,1.6,0.6H167.8z"/>
	<path class="st1" d="M171.5,22c-0.5,0-1.1-0.2-1.6-0.5l0.4-1.1c0.3,0.1,0.5,0.2,0.6,0.2c0.2,0,0.3,0.1,0.5,0.1
		c0.5,0,0.9-0.2,1.1-0.6s0.4-0.9,0.4-1.5v-8.2h1.4v8.1c0,1.1-0.2,1.9-0.7,2.5C173.2,21.7,172.5,22,171.5,22z"/>
	<path class="st1" d="M176.5,16.9h5.3c-0.2-1.4-0.6-2.7-1.2-3.7s-1.4-1.9-2.5-2.6l0.5-1.2c1.2,0.7,2.2,1.6,3,2.9s1.3,2.8,1.6,4.6
		h1.8c0.1,0,0.1,0,0.1,0.1v1.1c0,0.1,0,0.1-0.1,0.1h-8.5V16.9z"/>
	<path class="st1" d="M184.8,18.2C184.7,18.2,184.7,18.1,184.8,18.2l-0.1-1.2c0,0,0-0.1,0.1-0.1h2.1v-6.5h1.4v7.8H184.8z M187.6,8.9
		c-0.3,0-0.5-0.1-0.7-0.2s-0.2-0.4-0.2-0.7s0.1-0.5,0.2-0.7s0.4-0.2,0.7-0.2c0.3,0,0.5,0.1,0.7,0.3s0.2,0.4,0.2,0.7
		s-0.1,0.5-0.2,0.7S187.9,8.9,187.6,8.9z"/>
	<path class="st1" d="M191.3,6h1.4v12.2h-1.4V6z"/>
	<path class="st1" d="M204,22c-1,0-1.8-0.3-2.4-1c-0.6-0.7-0.9-1.6-0.9-2.8c0-0.6,0-1.1,0.1-1.5s0.2-0.9,0.4-1.4h1.3
		c-0.1,0.3-0.2,0.6-0.3,0.9s-0.1,0.5-0.1,0.8s0,0.6,0,1.1c0,0.9,0.2,1.5,0.5,2s0.9,0.7,1.5,0.7h3.1c0.8,0,1.5-0.1,1.9-0.4
		s0.7-0.7,0.7-1.2c0-0.2-0.1-0.4-0.2-0.6s-0.3-0.4-0.5-0.6c-0.2-0.2-0.6-0.4-1.2-0.8c-0.6-0.4-1.1-0.7-1.3-0.9s-0.4-0.5-0.6-0.7
		s-0.2-0.5-0.2-0.8c0-0.6,0.2-1.3,0.7-2s1.1-1.3,1.8-1.7s1.4-0.7,2-0.7c0.3,0,0.6,0.1,1.1,0.2s0.8,0.3,1,0.4l-0.6,1.1
		c-0.2-0.1-0.4-0.1-0.7-0.2s-0.5-0.1-0.8-0.1c-0.4,0-0.8,0.1-1.3,0.4s-0.9,0.7-1.2,1.1s-0.5,0.8-0.5,1.2c0,0.4,0.4,0.8,1.2,1.3
		c0.8,0.5,1.3,0.9,1.7,1.2s0.6,0.6,0.8,1c0.2,0.4,0.3,0.7,0.3,1.1c0,0.9-0.4,1.6-1.1,2.1c-0.7,0.5-1.7,0.8-3,0.8H204z"/>
	<path class="st1" d="M214.8,6h1.4v12.2h-1.4V6z"/>
	<path class="st1" d="M221.6,18.2v0.4c0,1.1-0.2,1.9-0.7,2.5c-0.5,0.6-1.2,0.9-2.1,0.9c-0.5,0-1.1-0.2-1.6-0.5l0.4-1.1
		c0.3,0.1,0.5,0.2,0.6,0.2c0.2,0,0.3,0.1,0.5,0.1c0.5,0,0.9-0.2,1.1-0.6s0.4-0.9,0.4-1.5v-8.2h1.4v6.5h2c0.1,0,0.1,0,0.1,0.1v1.1
		c0,0.1,0,0.1-0.1,0.1H221.6z"/>
	<path class="st1" d="M223.4,18.2C223.4,18.2,223.4,18.1,223.4,18.2l-0.1-1.2c0,0,0-0.1,0.1-0.1h2.1v-6.5h1.4v7.8H223.4z
		 M226.2,21.4c-0.3,0-0.5-0.1-0.7-0.2c-0.2-0.2-0.2-0.4-0.2-0.7c0-0.3,0.1-0.5,0.2-0.7c0.2-0.2,0.4-0.2,0.7-0.2
		c0.3,0,0.5,0.1,0.7,0.3c0.2,0.2,0.2,0.4,0.2,0.7c0,0.3-0.1,0.5-0.2,0.7C226.7,21.3,226.5,21.4,226.2,21.4z"/>
	<path class="st1" d="M238,22c-1,0-1.8-0.3-2.4-1c-0.6-0.7-0.9-1.6-0.9-2.8c0-1.3,0.2-2.5,0.7-3.5h1.3c-0.4,0.9-0.5,2.1-0.5,3.4
		c0,0.9,0.2,1.5,0.5,2s0.9,0.7,1.5,0.7h0.8c0.9,0,1.6-0.2,2-0.6s0.6-1.1,0.6-1.9v-7.8h1.4v7.7c0,1.3-0.3,2.3-1,2.9s-1.6,1-3,1H238z
		 M239,10.4c-0.3,0-0.5-0.1-0.7-0.2s-0.2-0.4-0.2-0.7s0.1-0.5,0.2-0.7s0.4-0.2,0.7-0.2c0.3,0,0.5,0.1,0.7,0.3s0.2,0.4,0.2,0.7
		s-0.1,0.5-0.2,0.7S239.3,10.4,239,10.4z"/>
	<path class="st1" d="M248.4,18.2v0.4c0,1.1-0.2,1.9-0.7,2.5c-0.5,0.6-1.2,0.9-2.1,0.9c-0.5,0-1.1-0.2-1.6-0.5l0.4-1.1
		c0.3,0.1,0.5,0.2,0.6,0.2c0.2,0,0.3,0.1,0.5,0.1c0.5,0,0.9-0.2,1.1-0.6s0.4-0.9,0.4-1.5v-8.2h1.4v6.5h2c0.1,0,0.1,0,0.1,0.1v1.1
		c0,0.1,0,0.1-0.1,0.1H248.4z"/>
	<path class="st1" d="M250.2,18.2C250.1,18.2,250.1,18.1,250.2,18.2l-0.1-1.2c0,0,0-0.1,0.1-0.1h2.6v-6.5h1.4v6.5h2.4
		c0.1,0,0.1,0,0.1,0.1v1.1c0,0.1,0,0.1-0.1,0.1H250.2z M252.1,8.9c-0.2,0-0.5-0.1-0.6-0.2s-0.3-0.4-0.3-0.7s0.1-0.6,0.3-0.7
		s0.4-0.2,0.6-0.2c0.3,0,0.5,0.1,0.6,0.2s0.2,0.4,0.2,0.7c0,0.3-0.1,0.5-0.2,0.7S252.4,8.9,252.1,8.9z M254.9,8.9
		c-0.3,0-0.5-0.1-0.7-0.2S254,8.2,254,7.9s0.1-0.5,0.2-0.7s0.4-0.2,0.7-0.2c0.3,0,0.5,0.1,0.7,0.3s0.2,0.4,0.2,0.7s-0.1,0.5-0.2,0.7
		S255.1,8.9,254.9,8.9z"/>
	<path class="st1" d="M256.4,18.2C256.4,18.2,256.4,18.1,256.4,18.2l-0.1-1.2c0,0,0-0.1,0.1-0.1h2.1v-6.5h1.4v6.5h2.1
		c0.1,0,0.1,0,0.1,0.1v1.1c0,0.1,0,0.1-0.1,0.1H256.4z M259.2,8.9c-0.3,0-0.5-0.1-0.7-0.2s-0.2-0.4-0.2-0.7s0.1-0.5,0.2-0.7
		s0.4-0.2,0.7-0.2c0.3,0,0.5,0.1,0.7,0.3s0.2,0.4,0.2,0.7s-0.1,0.5-0.2,0.7S259.5,8.9,259.2,8.9z"/>
	<path class="st1" d="M261.9,18.2C261.8,18.2,261.8,18.1,261.9,18.2l-0.1-1.2c0,0,0-0.1,0.1-0.1h2.1V6h1.4v12.2H261.9z"/>
	<path class="st1" d="M273.2,16.9h5.3c-0.2-1.4-0.6-2.7-1.2-3.7s-1.4-1.9-2.5-2.6l0.5-1.2c1.2,0.6,2.2,1.6,3,2.9s1.3,2.8,1.6,4.7
		v1.2h-6.7V16.9z"/>
	<path class="st1" d="M288.2,18.6c0,1.1-0.3,1.9-1,2.5s-1.6,0.9-2.7,0.9c-1.1,0-2-0.3-2.9-0.8l0.6-1.1c0.3,0.2,0.7,0.3,1.1,0.5
		c0.4,0.1,0.8,0.2,1.2,0.2c0.7,0,1.3-0.2,1.7-0.6c0.4-0.4,0.6-0.9,0.6-1.6v-0.5h-1.6c-1.1,0-2-0.3-2.6-0.9s-0.9-1.5-0.9-2.7
		c0-1.3,0.4-2.3,1.2-3s1.9-1.1,3.2-1.1h2.1v6.5h1.3c0.1,0,0.1,0,0.1,0.1v1.1c0,0.1,0,0.1-0.1,0.1h-1.3V18.6z M286.9,16.9v-5.3h-0.7
		c-0.9,0-1.7,0.2-2.2,0.8s-0.8,1.2-0.8,2.1c0,0.8,0.2,1.4,0.5,1.8s0.9,0.6,1.6,0.6H286.9z"/>
	<path class="st1" d="M289.4,18.2C289.3,18.2,289.3,18.1,289.4,18.2l-0.1-1.2c0,0,0-0.1,0.1-0.1h6.9c-0.4-0.4-0.7-1.4-1-2.9
		c-0.2-0.9-0.4-1.6-0.7-1.9s-0.7-0.6-1.3-0.6c-0.7,0-1.5,0.2-2.3,0.6l-0.6-1.1c0.5-0.3,0.9-0.5,1.4-0.6s1-0.2,1.5-0.2
		c0.7,0,1.2,0.1,1.6,0.4s0.8,0.6,1,1s0.5,1.1,0.6,2c0.2,1,0.3,1.7,0.5,2.2s0.4,0.9,0.7,1.1v1.2H289.4z M293.4,8.9
		c-0.3,0-0.5-0.1-0.7-0.2s-0.2-0.4-0.2-0.7s0.1-0.5,0.2-0.7s0.4-0.2,0.7-0.2c0.3,0,0.5,0.1,0.7,0.3s0.2,0.4,0.2,0.7
		s-0.1,0.5-0.2,0.7S293.7,8.9,293.4,8.9z"/>
	<path class="st1" d="M308.4,22c-1,0-1.8-0.3-2.4-1c-0.6-0.7-0.9-1.6-0.9-2.8c0-1.3,0.2-2.5,0.7-3.5h1.3c-0.4,0.9-0.5,2.1-0.5,3.4
		c0,0.9,0.2,1.5,0.5,2s0.9,0.7,1.5,0.7h0.8c0.9,0,1.6-0.2,2-0.6s0.6-1.1,0.6-1.9v-7.8h1.4v7.7c0,1.3-0.3,2.3-1,2.9s-1.6,1-3,1H308.4
		z M309.4,10.4c-0.3,0-0.5-0.1-0.7-0.2s-0.2-0.4-0.2-0.7s0.1-0.5,0.2-0.7s0.4-0.2,0.7-0.2c0.3,0,0.5,0.1,0.7,0.3s0.2,0.4,0.2,0.7
		s-0.1,0.5-0.2,0.7S309.7,10.4,309.4,10.4z"/>
	<path class="st1" d="M316.5,6h1.4v10.9h2.1c0.1,0,0.1,0,0.1,0.1v1.1c0,0.1,0,0.1-0.1,0.1h-3.5V6z"/>
	<path class="st1" d="M319.9,18.2C319.8,18.2,319.8,18.1,319.9,18.2l-0.1-1.2c0,0,0-0.1,0.1-0.1h2.6v-6.5h1.4v6.5h2.4
		c0.1,0,0.1,0,0.1,0.1v1.1c0,0.1,0,0.1-0.1,0.1H319.9z M321.8,8.9c-0.2,0-0.5-0.1-0.6-0.2s-0.3-0.4-0.3-0.7s0.1-0.6,0.3-0.7
		s0.4-0.2,0.6-0.2c0.3,0,0.5,0.1,0.6,0.2s0.2,0.4,0.2,0.7c0,0.3-0.1,0.5-0.2,0.7S322.1,8.9,321.8,8.9z M324.6,8.9
		c-0.3,0-0.5-0.1-0.7-0.2s-0.2-0.4-0.2-0.7s0.1-0.5,0.2-0.7s0.4-0.2,0.7-0.2c0.3,0,0.5,0.1,0.7,0.3s0.2,0.4,0.2,0.7
		s-0.1,0.5-0.2,0.7S324.9,8.9,324.6,8.9z"/>
	<path class="st1" d="M336.6,18.2c-0.5,0-0.9-0.1-1.3-0.2s-0.8-0.5-1.3-0.9c-0.2,0.3-0.5,0.6-0.9,0.8s-0.9,0.3-1.4,0.3h-5.5
		c-0.1,0-0.1,0-0.1-0.1V17c0,0,0-0.1,0.1-0.1h2.3v-5.3h1.4v5.3h1.7c0.5,0,0.9-0.2,1.2-0.5s0.4-0.8,0.4-1.3v-3.4h1.4v3.8l0,0.2
		c0.3,0.5,0.6,0.8,0.9,1s0.7,0.3,1.2,0.3h1v-6.5h1.4v7.8H336.6z"/>
	<path class="st1" d="M344.2,22c-1.1,0-2-0.3-2.9-0.8l0.6-1.1c0.3,0.2,0.7,0.3,1.1,0.5c0.4,0.1,0.8,0.2,1.2,0.2
		c0.7,0,1.3-0.2,1.7-0.6c0.4-0.4,0.6-0.9,0.6-1.6v-0.5H345c-1.1,0-2-0.3-2.6-0.9s-0.9-1.5-0.9-2.7c0-1.3,0.4-2.3,1.2-3
		s1.9-1.1,3.2-1.1h2.1v8.1c0,1.1-0.3,1.9-1,2.5S345.4,22,344.2,22z M346.5,16.9v-5.3h-0.7c-0.9,0-1.7,0.2-2.2,0.8s-0.8,1.2-0.8,2.1
		c0,0.8,0.2,1.4,0.5,1.8s0.9,0.6,1.6,0.6H346.5z"/>
	<path class="st1" d="M350,16.9h5.3c-0.2-1.4-0.6-2.7-1.2-3.7s-1.4-1.9-2.5-2.6l0.5-1.2c1.2,0.6,2.2,1.6,3,2.9s1.3,2.8,1.6,4.7v1.2
		H350V16.9z"/>
	<path class="st1" d="M364.4,6h1.4v10.9h2.1c0.1,0,0.1,0,0.1,0.1v1.1c0,0.1,0,0.1-0.1,0.1h-3.5V6z"/>
	<path class="st1" d="M367.8,18.2C367.8,18.2,367.7,18.1,367.8,18.2l-0.1-1.2c0,0,0-0.1,0.1-0.1h2.1v-6.5h1.4v7.8H367.8z
		 M370.6,21.4c-0.3,0-0.5-0.1-0.7-0.2c-0.2-0.2-0.2-0.4-0.2-0.7c0-0.3,0.1-0.5,0.2-0.7c0.2-0.2,0.4-0.2,0.7-0.2
		c0.3,0,0.5,0.1,0.7,0.3c0.2,0.2,0.2,0.4,0.2,0.7c0,0.3-0.1,0.5-0.2,0.7C371.1,21.3,370.8,21.4,370.6,21.4z"/>
</g>
</svg>
