<?xml version="1.0" encoding="utf-8"?>
<!-- Generator: Adobe Illustrator 19.0.1, SVG Export Plug-In . SVG Version: 6.00 Build 0)  -->
<svg version="1.1" id="Layer_1" xmlns="http://www.w3.org/2000/svg" xmlns:xlink="http://www.w3.org/1999/xlink" x="0px" y="0px"
	 viewBox="0 0 121 121" style="enable-background:new 0 0 121 121;" xml:space="preserve">
<style type="text/css">
	.st0{fill:#28BCD3;}
	.st1{opacity:0.2;}
	.st2{fill:#21201F;}
	.st3{fill:#F4E02E;}
	.st4{fill:#131920;}
	.st5{fill:url(#SVGID_1_);}
	.st6{fill:url(#SVGID_2_);}
	.st7{fill:#1F1F1F;}
</style>
<defs>
  <radialGradient id="SVGID_1_" cx="-43.1605" cy="46.4134" r="170.4647" gradientUnits="userSpaceOnUse">
      <stop  offset="0" style="stop-color:#FFFFFF;stop-opacity:0.3"/>
      <stop  offset="1" style="stop-color:#ECF6F8;stop-opacity:0"/>
  </radialGradient>
  <radialGradient id="SVGID_2_" cx="0.3837" cy="-2.4181" r="28.6877" gradientUnits="userSpaceOnUse">
      <stop  offset="3.067490e-02" style="stop-color:#FFFFFF"/>
      <stop  offset="0.2344" style="stop-color:#FFFFFC"/>
      <stop  offset="0.374" style="stop-color:#FEFDF3"/>
      <stop  offset="0.4943" style="stop-color:#FEFBE4"/>
      <stop  offset="0.6039" style="stop-color:#FCF8CE"/>
      <stop  offset="0.706" style="stop-color:#FBF4B2"/>
      <stop  offset="0.8027" style="stop-color:#F9EE90"/>
      <stop  offset="0.8952" style="stop-color:#F7E867"/>
      <stop  offset="0.9819" style="stop-color:#F5E239"/>
      <stop  offset="1" style="stop-color:#F4E02E"/>
  </radialGradient>
</defs>
<symbol  id="New_Symbol_2" viewBox="-94.1 -94.1 188.2 188.2">
	<g id="Layer_19_1_">
	</g>
	<g>
		<g>
			
				<image style="overflow:visible;opacity:0.24;" width="784" height="784" xlink:href="513784DFC56006C.png"  transform="matrix(0.24 0 0 -0.24 -94.0803 94.0801)">
			</image>
			<g>
				<path class="st0" d="M87.9,4.1c0-48.6-39.4-88-88-88s-88,39.4-88,88s39.4,88,88,88S87.9,52.7,87.9,4.1z"/>
			</g>
		</g>
		<g>
			<g class="st1">
				<path class="st2" d="M34.8,27.1l0.7,13.6l-17.2,7.5l0.5,9.5l-9,5c0.8,1.5,1.2,3.2,1.2,5c0,6.1-4.9,11-11,11c-6.1,0-11-4.9-11-11
					c0-2,0.5-3.9,1.5-5.5l-9.1-5.2c0,0,1.1-9.1,0.8-9.2c-0.8-0.4-17.4-6.2-17.4-6.2l1.5-14.5c0,0,0.1,0,0.1,0
					c0.5-5.1,7.9-78.4,25.5-87.6c0.8-0.4,0.9-0.5,1.3-0.6c0,0,0,0,0,0l3.6-1.7l3.3-1.7L8-61.2l0,0L8.4-61c0.5,0.2,0.9,0.6,1.4,0.8
					c17.8,11,24.9,87.2,24.9,87.2l-23.4,4.5l0,0L34.8,27.1z M-0.1,76.4c4.8,0,8.7-3.9,8.7-8.7c0-1.4-0.3-2.7-0.9-3.9l-7.4,4.1
					l-8-4.6c-0.7,1.3-1.2,2.8-1.2,4.3C-8.8,72.5-4.9,76.4-0.1,76.4z"/>
			</g>
			<g>
				<g>
					<path class="st3" d="M34.8,28.1l0.7,13.6l-17.2,7.5l0.5,9.5l-9,5c0.8,1.5,1.2,3.2,1.2,5c0,6.1-4.9,11-11,11
						c-6.1,0-11-4.9-11-11c0-2,0.5-3.9,1.5-5.5l-9.1-5.2c0,0,1.1-9.1,0.8-9.2c-0.8-0.4-17.4-6.2-17.4-6.2l1.5-14.5c0,0,0.1,0,0.1,0
						c0.5-5.1,7.9-78.4,25.5-87.6c0.8-0.4,0.9-0.5,1.3-0.6c0,0,0,0,0,0l3.6-1.7l3.3-1.7L8-60.2l0,0L8.4-60c0.5,0.2,0.9,0.6,1.4,0.8
						c17.8,11,24.9,87.2,24.9,87.2l-23.4,4.5l0,0L34.8,28.1z M-0.1,77.4c4.8,0,8.7-3.9,8.7-8.7c0-1.4-0.3-2.7-0.9-3.9l-7.4,4.1
						l-8-4.6c-0.7,1.3-1.2,2.8-1.2,4.3C-8.8,73.5-4.9,77.4-0.1,77.4z"/>
				</g>
			</g>
		</g>
		<g>
			
				<image style="overflow:visible;opacity:0.2;" width="395" height="697" xlink:href="513784DFC56006D.png"  transform="matrix(0.24 0 0 -0.24 -43.2258 87.6408)">
			</image>
			<g>
				<path class="st4" d="M34.8,28.1l0.7,13.6l-17.2,7.5l0.5,9.5l-9,5c0.8,1.5,1.2,3.2,1.2,5c0,6.1-4.9,11-11,11c-6.1,0-11-4.9-11-11
					c0-2,0.5-3.9,1.5-5.5l-9.1-5.2c0,0,1.1-9.1,0.8-9.2c-0.8-0.4-17.4-6.2-17.4-6.2l1.5-14.5c0,0,0.1,0,0.1,0
					c0.5-5.1,7.9-78.4,25.5-87.6c0.8-0.4,0.9-0.5,1.3-0.6c0,0,0,0,0,0l3.6-1.7l3.3-1.7L8-60.2l0,0L8.4-60c0.5,0.2,0.9,0.6,1.4,0.8
					c17.8,11,24.9,87.2,24.9,87.2l-23.4,4.5l0,0L34.8,28.1z M-0.1,77.4c4.8,0,8.7-3.9,8.7-8.7c0-1.4-0.3-2.7-0.9-3.9l-7.4,4.1
					l-8-4.6c-0.7,1.3-1.2,2.8-1.2,4.3C-8.8,73.5-4.9,77.4-0.1,77.4z"/>
			</g>
		</g>
		<path class="st5" d="M88.1,4.1c0-48.6-39.4-88-88-88s-88,39.4-88,88s39.4,88,88,88S88.1,52.7,88.1,4.1z"/>
		<path class="st3" d="M11.1,32.6l23.6-4.5c0,0-7.1-76.2-24.9-87.2c-0.5-0.3-0.9-0.6-1.4-0.8l-0.6-0.3L11.1,32.6z"/>
		<path class="st3" d="M-11.1,32.7l-22.6-4.4c0,0,7.2-78.4,25.5-87.9c0.8-0.4,0.9-0.5,1.3-0.6C-6.7-60.1-11.1,32.7-11.1,32.7z"/>
		<path class="st6" d="M29.1-2.4c0-15.8-12.8-28.7-28.7-28.7c-15.8,0-28.7,12.8-28.7,28.7c0,15.8,12.8,28.7,28.7,28.7
			C16.2,26.3,29.1,13.4,29.1-2.4z"/>
		<path class="st7" d="M18.3,49.2l0.5,9.5l-9,5c0.8,1.5,1.2,3.2,1.2,5c0,6.1-4.9,11-11,11c-6.1,0-11-4.9-11-11c0-2,0.5-3.9,1.5-5.5
			l-9.1-5.2c0,0,1.1-9.1,0.8-9.2c-0.8-0.4-17.4-6.2-17.4-6.2l1.5-14.5c5.8,1.2,22.2,4.5,22.3,4.4c0.1-0.1,0.2-0.4,0.2-0.6
			c0.2-3.3,4.3-91.8,4.3-91.8l0,0l0-0.2l3.7-1.8l3.3-1.7L8-60.2l3.3,92.8l23.6-4.5l0.7,13.6L18.3,49.2z M-8.8,68.6
			c0,4.8,3.9,8.7,8.7,8.7c4.8,0,8.7-3.9,8.7-8.7c0-1.4-0.3-2.7-0.9-3.9l-7.4,4.1l-8-4.6C-8.4,65.6-8.8,67.1-8.8,68.6z"/>
	</g>
</symbol>
<use xlink:href="#New_Symbol_2"  width="188.2" height="188.2" x="-94.1" y="-94.1" transform="matrix(0.6431 0 0 -0.6431 60.4531 60.5)" style="overflow:visible;"/>
</svg>
